<?xml version="1.0" encoding="UTF-8"?><svg xmlns="http://www.w3.org/2000/svg" viewBox="0 0 35 35"><g id="Example_glyph"><g id="Line_2-2"><text transform="translate(7.77 27.99)" fill="#bcbcbc" font-family="ArialMT, Arial" font-size="35"><tspan x="0" y="0">d</tspan></text></g></g><g id="Artwork_glyph"><path d="M21.81,13.83c-.5-1.95-1.88-3.55-3.95-3.92-2.18-.38-4.36,.82-5.23,2.82-.31,.72,.76,1.35,1.08,.62,.86-1.97,3.18-2.92,5.12-1.79,2.06,1.21,2.2,4.26,2.31,6.37,.12,2.28-.22,4.69-1.64,6.56-1.34,1.77-3.64,2.71-5.8,1.96-.76-.26-1.09,.93-.33,1.19,4.35,1.51,8.04-2.33,8.8-6.27,.48-2.44,.25-5.15-.37-7.55Z" fill="#231f20"/></g></svg>