<?xml version="1.0" encoding="UTF-8"?><svg xmlns="http://www.w3.org/2000/svg" viewBox="0 0 35 35"><g id="Example_glyph"><g id="Line_2-2"><text transform="translate(7.77 27.99)" fill="#bcbcbc" font-family="ArialMT, Arial" font-size="35"><tspan x="0" y="0">e</tspan></text></g></g><g id="Artwork_glyph"><path d="M22.09,25.01c-1.7,1.12-3.78,2.15-5.85,1.47-1.97-.64-2.82-2.77-2.59-4.74,.26-2.18,1.61-4.04,2.95-5.67,1.44-1.74,2.91-3.46,4.37-5.18,.39-.46,.02-1.17-.59-1.02-2.64,.64-5.28,1.28-7.92,1.92-.75,.18-.43,1.36,.32,1.18,2.03-.49,4.06-.98,6.08-1.47-1.38,1.6-2.77,3.2-4.03,4.88-1.44,1.92-2.65,4.26-2.38,6.75,.22,2.07,1.48,3.9,3.47,4.54,2.38,.76,4.8-.3,6.78-1.6,.65-.42,.05-1.48-.61-1.06Z" fill="#231f20"/></g></svg>