<?xml version="1.0" encoding="UTF-8"?><svg xmlns="http://www.w3.org/2000/svg" viewBox="0 0 35 35"><g id="Example_glyph"><g id="Line_2-2"><text transform="translate(12.64 27.99)" fill="#bcbcbc" font-family="ArialMT, Arial" font-size="35"><tspan x="0" y="0">f</tspan></text></g></g><g id="Artwork_glyph"><path d="M24.43,12.56c.67,.36,1.27-.7,.6-1.07-2.65-1.43-5.65-2.13-8.61-1.49-2.65,.57-5.09,2.28-6.35,4.83-1.26,2.55-1.16,5.5,.24,7.96,1.42,2.49,3.9,4.1,6.54,4.82,2.62,.71,6.14,.68,7.52-2.25,1.22-2.59,.03-5.87-1.54-8-1.61-2.19-4.4-3.66-7.03-2.63-1.13,.44-2.17,1.31-2.62,2.51-.19,.51-.25,1.06-.16,1.57-.04,.21,.02,.38,.14,.51,.17,.41,.45,.77,.87,1.03,1.16,.72,3.09,.88,4.28,.21,1.17-.67,1.58-2.14,.89-3.34-.59-1.03-1.8-1.46-2.91-1.34,1.26-.44,2.74-.17,3.89,.57,1.73,1.11,2.88,3.19,3.35,5.22,.55,2.36-.44,4.57-2.83,5.05-2.08,.42-4.54-.39-6.34-1.48-3.59-2.18-5.24-6.79-2.81-10.57,2.87-4.48,8.77-4.31,12.9-2.09Zm-6.09,6.13c-.26,1.3-2.13,1.08-3.01,.86-.42-.1-.86-.28-1.08-.69,.32-.83,.96-1.48,1.8-1.71,.93-.25,2.56,.23,2.29,1.54Z" fill="#231f20"/></g></svg>