<?xml version="1.0" encoding="UTF-8"?><svg xmlns="http://www.w3.org/2000/svg" viewBox="0 0 35 35"><g id="Example_glyph"><g id="Line_2-2"><text transform="translate(7.77 27.99)" fill="#bcbcbc" font-family="ArialMT, Arial" font-size="35"><tspan x="0" y="0">g</tspan></text></g></g><g id="Artwork_glyph"><path d="M22.42,4.61c-4.64-2.75-11.58-2.07-15.37,1.86-.54,.56,.31,1.43,.85,.87,2.96-3.06,7.62-3.7,11.58-2.62,2.33,.63,4.1,2.01,5.24,4.17,1.1,2.09,1.69,4.51,1.7,6.88,0,4.23-2.15,8.44-6.04,10.22-4.28,1.96-9.53-.09-11.29-4.54-.89-2.24-.77-4.86,.49-6.93,1.42-2.33,4.2-3.43,6.76-2.54,.74,.26,1.05-.93,.32-1.18-5.1-1.77-9.59,2.97-9.36,8.03,.24,5.24,4.76,9.29,9.87,9.14,4.86-.14,8.86-4.06,10.03-8.71,1.24-4.91-.19-11.92-4.78-14.64Z" fill="#231f20"/></g></svg>