<?xml version="1.0" encoding="UTF-8"?><svg xmlns="http://www.w3.org/2000/svg" viewBox="0 0 35 35"><g id="Example_glyph"><g id="Line_2-2"><text transform="translate(7.77 27.99)" fill="#bcbcbc" font-family="ArialMT, Arial" font-size="35"><tspan x="0" y="0">h</tspan></text></g></g><g id="Artwork_glyph"><path d="M26.55,14.53s.04-.06,.05-.09c.72-2.49-1.51-4.49-3.88-4.61-1.77-.09-5.94,1.1-4.18,3.63,.71,1.02,2.02,1.13,3.16,1,.89-.1,1.76-.32,2.63,0,.8,.3,1.43,.9,1.87,1.63,1.59,2.65,1.19,7.04-1.02,9.23-1.23,1.22-3.02,1.8-4.68,1.11-.93-.39-1.49-1.05-1.78-1.83,.46-1.03,.5-2.21-.15-3.39-.25-.45-.99-.36-1.11,.14-.25,1.07-.26,2.16-.01,3.16-.76,1.16-2.37,1.95-3.7,2.15-2.69,.41-5.29-.32-6.12-3.14-.65-2.23-.18-5.28,1.09-7.23,1.4-2.15,4.22-2.7,6.36-1.31,.66,.43,1.27-.62,.61-1.04-2.53-1.64-5.96-1.06-7.76,1.36-1.86,2.49-2.43,6.73-1.11,9.55,1.47,3.12,5.12,3.64,8.19,2.78,1.12-.31,2.17-.97,2.92-1.83,.46,.76,1.16,1.39,2.15,1.78,2.42,.95,5.02-.12,6.55-2.1,2.09-2.72,2.33-8.31-.09-10.94Zm-4.15-1.38c-.77,.1-2.81,.54-3.01-.65-.17-1.02,1.7-1.33,2.36-1.42,1.68-.22,3.97,.69,3.76,2.61-.83-.48-1.86-.71-3.11-.54Z" fill="#231f20"/></g></svg>