<?xml version="1.0" encoding="UTF-8"?><svg xmlns="http://www.w3.org/2000/svg" viewBox="0 0 35 35"><g id="Example_glyph"><g id="Line_2-2"><text transform="translate(13.61 27.99)" fill="#bcbcbc" font-family="ArialMT, Arial" font-size="35"><tspan x="0" y="0">i</tspan></text></g></g><g id="Artwork_glyph"><path d="M26.49,15.64c.16-.1,.29-.25,.32-.49,.27-2.54-1.49-4.87-4.02-5.22-1.53-.21-3.46,.61-4.04,2.08-.29-.53-.71-1-1.19-1.34-1.72-1.23-5.23-1.25-6,1.17-.25,.8-.09,1.76,.52,2.34-1.64,.12-3.28,.24-4.92,.36-.8,.06-.8,1.32,0,1.26,1.3-.09,2.59-.19,3.89-.28-2.1,2.3-1.85,6.92-.34,9.48,1.09,1.84,3.15,3.19,5.33,2.92,1.26-.16,2.37-.9,3.02-1.94,.79,1.29,2.21,2.1,3.86,1.95,2.53-.23,4.31-2.42,4.8-4.81,.49-2.35,.14-5.42-1.23-7.48Zm-5.65-4.14c.65-.37,1.43-.44,2.15-.26,1.59,.39,2.54,1.78,2.59,3.34-.59-.52-1.29-.89-2.08-1.04-.54-.1-1.09-.11-1.63-.02-.62,.1-1.76,.57-2.01-.3-.2-.71,.44-1.4,.99-1.72Zm-4.22,.06c.41,.24,.77,.58,1,1,.11,.2,.2,.42,.25,.65,.06,.28,.11,.43-.14,.56-.2,.11-.64,.05-.86,.07-.23,.02-.45,.03-.68,.05-.43,.03-.86,.06-1.29,.09,.03-.03,.06-.06,.08-.09,.64-.88,.33-2.16-.54-2.76,.74-.09,1.53,.07,2.16,.43Zm-3.89,1.05c.24-.79,1.37-.66,1.37,.19,0,.76-1.11,.84-1.34,.16-.03-.1-.05-.19-.06-.29,.01-.02,.03-.04,.03-.06Zm13.54,11.09c-.52,1.45-1.69,2.71-3.25,2.95-1.69,.26-3.22-.92-3.33-2.65-.05-.8-1.22-.82-1.25,0-.05,1.57-1.5,2.72-3.02,2.68-1.73-.04-3.15-1.31-3.88-2.81-1.26-2.59-1.37-8.35,2.62-8.48,.15,0,.26-.06,.36-.14,.64-.05,1.27-.09,1.91-.14,.93-.07,2.14-.05,2.57-.87,.41,.52,1.07,.78,1.8,.72,.59-.04,1.16-.25,1.75-.27,.74-.02,1.47,.22,2.05,.67,1.07,.82,1.54,2.18,1.81,3.46,.33,1.59,.42,3.32-.14,4.87Z" fill="#231f20"/></g></svg>