<?xml version="1.0" encoding="UTF-8"?><svg xmlns="http://www.w3.org/2000/svg" viewBox="0 0 35 35"><g id="Example_glyph"><g id="Line_2-2"><text transform="translate(13.61 27.99)" fill="#bcbcbc" font-family="ArialMT, Arial" font-size="35"><tspan x="0" y="0">j</tspan></text></g></g><g id="Artwork_glyph"><path d="M24.31,5.39C18.95,.87,10.65,3.17,6.14,7.77c-.54,.55,.3,1.39,.84,.84,5.15-5.27,14.98-6.67,18.97,.69,3.48,6.41,.18,14.57-6.69,16.83-3.14,1.03-7.63,1.02-9.91-1.76-1.38-1.68-1.21-3.92,.14-5.56,1.23-1.49,3.16-2.16,5.04-2.3,1.39-.1,3.03,.1,4.08-1.03,.78-.84,.9-2.14,.51-3.17-.98-2.57-4.69-2.93-6.68-1.4-1.1,.85-1.69,2.44-.94,3.71,.29,.49,.73,.83,1.22,1-.93,.22-1.84,.57-2.64,1.1-2.14,1.42-3.51,4.14-2.62,6.68,.97,2.77,3.84,4.12,6.57,4.45,5.35,.66,10.98-2.32,13.27-7.25,2.34-5.02,1.35-11.57-2.98-15.22Zm-6.16,8.05c.06,1.95-2.01,1.84-3.48,1.9,.02-.02,.05-.03,.07-.04,1.02-.82,1.02-2.36,.05-3.22-.35-.32-.75-.46-1.15-.49,.11-.06,.22-.11,.33-.15,1.58-.58,4.13-.05,4.19,2.01Zm-5.82-.05c.11-.04,.21-.1,.29-.2,.52-.69,1.75-.47,1.72,.52-.04,1.11-1.38,1.06-1.82,.33-.13-.22-.18-.43-.18-.64Z" fill="#231f20"/></g></svg>