<?xml version="1.0" encoding="UTF-8"?><svg xmlns="http://www.w3.org/2000/svg" viewBox="0 0 35 35"><g id="Example_glyph"><g id="Line_2-2"><text transform="translate(8.75 27.99)" fill="#bcbcbc" font-family="ArialMT, Arial" font-size="35"><tspan x="0" y="0">k</tspan></text></g></g><g id="Artwork_glyph"><path d="M26.46,14.9c-1.25-2.34-3.46-4.18-6.16-4.27-1.38-.04-2.72,.35-3.91,1.02-.6-.52-1.26-.96-2-1.27-1.53-.63-3.44-.73-4.85,.25-.57,.39-1.02,.99-1.23,1.64,0,0,0,0-.01,0-.35,.26-.3,.69-.09,.95,.04,.41,.19,.81,.5,1.17,1.08,1.25,3.36,.72,3.4-1.08,.01-.8-.49-1.51-1.24-1.74-.14-.04-.28-.07-.42-.08,1.3-.74,3.05-.35,4.27,.38,.23,.14,.43,.3,.64,.46-.68,.51-1.31,1.1-1.84,1.75-1.06,1.29-1.85,2.78-2.51,4.31-.49,1.14-1.46,4.44-3.28,3.22-.54-.37-1.04,.33-.81,.83,1.53,3.43,4.93,5.98,8.76,5.41,3.82-.57,6.15-4.17,5.39-7.96-.41-2.02-1.43-3.99-2.52-5.71-.37-.58-.78-1.15-1.24-1.66,.68-.33,1.41-.57,2.21-.66,3.8-.42,6.09,3.06,7,6.34,.85,3.06,.67,8.24-3.46,8.61-.76,.07-.76,1.28,0,1.21,2.39-.21,4.23-2.07,4.86-4.37,.78-2.85-.05-6.23-1.41-8.77Zm-16.02-1.02c-.65,.24-1.02-.35-1.06-.91,.19-.12,.39-.22,.61-.25,.64-.11,1.44,.79,.45,1.16Zm7.3,1.35c.86,1.44,1.66,3.01,2.06,4.65,.8,3.31-1.21,6.51-4.64,6.83-2.81,.26-5.18-1.38-6.62-3.67,.62-.05,1.24-.32,1.71-.77,1.09-1.03,1.46-2.7,2.08-4.02,.9-1.93,2.16-3.85,3.88-5.09,.58,.63,1.08,1.33,1.52,2.07Z" fill="#231f20"/></g></svg>