<?xml version="1.0" encoding="UTF-8"?><svg xmlns="http://www.w3.org/2000/svg" viewBox="0 0 35 35"><g id="Example_glyph"><g id="Line_2-2"><text transform="translate(13.61 27.99)" fill="#bcbcbc" font-family="ArialMT, Arial" font-size="35"><tspan x="0" y="0">l</tspan></text></g></g><g id="Artwork_glyph"><path d="M27.2,12.72c-1.72-2.46-4.49-3.36-7.39-2.49-1.39,.42-2.6,1.18-3.7,2.1-1.93-1.79-4.27-3.03-6.96-1.86-1.51,.65-2.9,2.06-3.1,3.73-.17,1.45,.75,3.05,2.36,3.08,1.55,.03,2.66-1.63,1.75-2.97-.75-1.12-2.24-.89-2.92,.06,.04-.33,.14-.66,.27-.92,.61-1.19,1.86-2,3.17-2.22,1.76-.29,3.27,.66,4.56,1.87-.94,.89-1.81,1.86-2.65,2.79-2.82,3.14-5.47,6.43-7.95,9.84-.39,.54,.51,1.23,.93,.71l1.78-2.15c.47,1.7,1.55,3.21,3.49,3.43,1.73,.19,2.76-.84,3.41-2.15,.46,.73,1.17,1.3,2.04,1.55,1.62,.47,3.36-.29,4.38-1.55,2.74-3.35,.24-7.69-2.05-10.48-.52-.63-1.09-1.3-1.7-1.94,1.31-1.07,2.78-1.87,4.48-2.04,4.03-.4,6.15,3.72,7.05,7.03,.89,3.29,.1,7.2-3.22,8.83-.69,.34-.08,1.35,.6,1.01,6.01-2.94,4.47-10.79,1.36-15.25Zm-19.09,2.52c.27-.61,.54-.67,.84-.18,.4,.16,.45,.37,.16,.63-.22,.47-.78,.52-1.21,.27-.15-.08-.26-.19-.35-.31,.24,0,.48-.11,.56-.41Zm9.17,.06c1.74,2.01,3.66,4.53,3.36,7.34-.16,1.51-1.13,2.97-2.68,3.36-1.52,.39-3.07-.74-3.06-2.3,0-.66-.99-.8-1.17-.16-.36,1.29-.88,3.07-2.56,3.02-1.91-.06-2.74-2.01-2.89-3.62,0-.02-.01-.05-.02-.07,1.51-1.93,3.08-3.82,4.71-5.66,.94-1.06,1.95-2.25,3.07-3.3,.44,.47,.84,.95,1.22,1.38Z" fill="#231f20"/></g></svg>