<?xml version="1.0" encoding="UTF-8"?><svg xmlns="http://www.w3.org/2000/svg" viewBox="0 0 35 35"><g id="Example_glyph"><g id="Line_2-2"><text transform="translate(2.92 27.99)" fill="#bcbcbc" font-family="ArialMT, Arial" font-size="35"><tspan x="0" y="0">m</tspan></text></g></g><g id="Artwork_glyph"><path d="M24.3,16.22c.04-.05,.08-.11,.11-.19,.84-2.48-.09-5.85-3.1-6.16-1.34-.14-2.56,.52-3.22,1.68-.2,.35-.4,.78-.56,1.24-.66-1.55-2.53-2.85-4.03-2.9-1.49-.05-2.93,.84-3.36,2.3-.36,1.24,.19,2.69,1.48,3.13,.1,.03,.19,.05,.29,.06-1.41,.42-2.62,1.29-3.34,2.71-1.06,2.09-.64,4.69,.69,6.56,1.45,2.02,3.71,3.18,6.18,3.36,2.51,.18,5.41-.4,7.64-1.55,3.95-2.03,4.69-7.48,1.21-10.23Zm-5.42-3.37c.26-.74,.66-1.42,1.45-1.67,.68-.21,1.41-.06,1.98,.35,1.29,.94,1.38,2.61,.94,4.01-.87-.44-1.84-.69-2.8-.68-.48,0-1.5,.34-1.84-.06-.36-.42,.1-1.49,.27-1.95Zm-7.23-.79c.49,.17,1,.45,1.19,.95,.21,.55-.09,1.35-.79,1.12-1.03-.34-.9-1.33-.4-2.07Zm1.09-.85c1.36-.38,2.78,.5,3.42,1.67,.29,.54,.54,1.35,.02,1.84-.48,.46-1.3,.37-1.91,.35-.34-.01-.68,0-1.02,.03,.48-.31,.82-.85,.88-1.49,.11-1.09-.53-1.91-1.4-2.41Zm10.08,13.97c-1.37,.8-3.03,1.18-4.59,1.43-1.72,.28-3.58,.29-5.2-.44-2.79-1.26-4.96-4.87-3.2-7.77,.81-1.33,2.29-2.1,3.84-2.09,1.27,0,2.79,.2,3.64-.98,.03-.04,.04-.08,.07-.11,.5,1.28,1.88,.92,2.96,.9,1.44-.04,2.84,.59,3.81,1.63,2.12,2.29,1.25,5.94-1.34,7.45Z" fill="#231f20"/></g></svg>