<?xml version="1.0" encoding="UTF-8"?><svg xmlns="http://www.w3.org/2000/svg" viewBox="0 0 35 35"><g id="Example_glyph"><g id="Line_2-2"><text transform="translate(7.77 27.99)" fill="#bcbcbc" font-family="ArialMT, Arial" font-size="35"><tspan x="0" y="0">n</tspan></text></g></g><g id="Artwork_glyph"><path d="M23.89,6.42C18.62,1.98,9.67,1.01,6.13,8.17c-.39,.79,.76,1.49,1.15,.69,3.88-7.87,14.41-4.5,18.34,1.51,2.08,3.18,2.72,7.31,1.57,10.97-.59,1.88-1.69,3.75-3.45,4.65-1.77,.9-3.94,.74-5.84,.45-.68-.1-1.46-.22-2.03-.63-1.27-.91-.29-2.35,.5-3.18,1.2-1.26,2.56-2.38,3.14-4.12,1.17-3.48-1.86-5.69-4.94-5.44-3.04,.25-6.11,1.79-7.77,4.5-.58,.95-.95,2.04-1.1,3.17-.41,.28-.34,.8-.07,1.08,0,1.6,.47,3.18,1.52,4.41,1.01,1.19,2.59,1.89,4.08,1.28,1.43-.59,2.36-2.19,2.24-3.76-.12-1.56-1.19-2.93-2.54-3.58-1.2-.58-2.52-.54-3.73-.13,.29-1.06,.84-2.04,1.59-2.85,1.18-1.26,2.74-2.08,4.38-2.49,1.63-.4,4.22-.61,5.06,1.3,1.65,3.7-4.52,5.37-4.3,8.87,.18,2.95,4.2,3.12,6.3,3.17,3.21,.07,5.89-1.32,7.43-4.28,3.03-5.84,1.1-13.25-3.76-17.33Zm-12.35,15.98c1.16,1.54,.26,4.5-1.97,3.92-1.77-.46-2.6-2.7-2.63-4.39,0-.1,0-.21,.01-.31,1.55-.73,3.44-.74,4.59,.79Z" fill="#231f20"/></g></svg>