<?xml version="1.0" encoding="UTF-8"?><svg xmlns="http://www.w3.org/2000/svg" viewBox="0 0 35 35"><g id="Example_glyph"><g id="Line_2-2"><text transform="translate(7.77 27.99)" fill="#bcbcbc" font-family="ArialMT, Arial" font-size="35"><tspan x="0" y="0">o</tspan></text></g></g><g id="Artwork_glyph"><path d="M27.2,28.55c-.06-.78-1.25-.78-1.19,0,.22,2.75-1.83,5.37-4.63,5.23-1.24-.06-2.49-.66-3.31-1.62-.49-.58-1.01-1.49-.81-2.29,.21-.84,1.12-1.19,1.82-1.48,.57-.23,.57-1.26-.16-1.2-2.59,.24-5.25,.13-7.78-.53-1.37-.36-2.6-1.09-2.64-2.7-.03-1.28,.7-2.48,1.5-3.41,1.49-1.75,3.65-2.92,5.91-3.18,.79-.09,1.78,.12,2.5-.32,.6-.36,.86-1.04,.94-1.71,.49-4.09-4.1-6.58-7.44-5.03-1.62,.75-2.92,2.38-2.65,4.29,.22,1.55,1.63,2.79,3.2,2.44,1.55-.35,2.38-2.46,1.23-3.71-1.09-1.18-2.68-.6-3.25,.63,.03-.45,.17-.89,.4-1.25,1.28-1.97,4.33-2.22,6.02-.71,.76,.68,1.29,1.69,1.33,2.73,.03,.76-.19,1.23-.94,1.37-.42,.08-.91,0-1.34,.06-1.66,.18-3.27,.76-4.67,1.7-2.39,1.61-5.33,5.28-3.27,8.27,.99,1.44,2.86,1.79,4.45,2.06,1.44,.25,2.88,.35,4.33,.34-.59,.65-.89,1.5-.57,2.63,.51,1.8,2.13,3.14,3.85,3.64,3.83,1.1,7.49-2.23,7.16-6.23ZM11.41,14.93c0-1.17,1.63-1.35,1.63-.14,0,.82-.78,1.23-1.48,1.03-.23-.07-.42-.19-.57-.32,.23-.06,.42-.24,.42-.56Z" fill="#231f20"/></g></svg>