<?xml version="1.0" encoding="UTF-8"?><svg xmlns="http://www.w3.org/2000/svg" viewBox="0 0 35 35"><g id="Example_glyph"><g id="Line_2-2"><text transform="translate(7.77 27.99)" fill="#bcbcbc" font-family="ArialMT, Arial" font-size="35"><tspan x="0" y="0">p</tspan></text></g></g><g id="Artwork_glyph"><path d="M21.82,4.91c-2.09-1.51-4.56-2.24-7.13-1.88-2.28,.31-5.15,.96-6.89,2.57-.6,.56,.3,1.46,.9,.9,1.31-1.22,3.45-1.65,5.15-2.03,2.02-.45,3.98-.32,5.85,.62,3.22,1.62,5.48,4.89,6.25,8.39,.79,3.58-.1,7.45-2.3,10.37-1.24,1.63-2.8,2.79-4.89,2.88-1.79,.07-3.75-.23-5.48-.66-1.91-.48-4.06-1.67-4.31-3.86-.27-2.28,2.03-3.57,3.75-4.48,.45-.09,.89-.17,1.33-.27,.8-.17,1.59-.36,2.37-.6,.7-.21,1.5-.41,2-.98,.97-1.09,.28-2.75-.54-3.69-1.91-2.21-5.39-2.12-7.21,.16-.81,1.02-1.35,2.65-.23,3.66,.36,.32,.82,.49,1.29,.61-.47,.09-.94,.17-1.41,.26-2.36,.46-4.7,1.03-6.84,2.17-.72,.38-.08,1.49,.64,1.1,1.66-.89,3.45-1.39,5.26-1.78-.68,.61-1.24,1.34-1.54,2.26-.59,1.84,.26,3.77,1.65,4.99,1.57,1.39,3.68,1.8,5.69,2.08,2.24,.3,4.58,.64,6.65-.51,3.76-2.08,5.7-7.13,5.64-11.26-.06-4.3-2.21-8.51-5.68-11.02ZM13.23,15.58c-.44,0-.94-.11-1.38-.27,.24-.82,1.45-1.52,2.14-.74,.55,.62-.24,1.01-.76,1Zm-2.02-1.65c.16-.41,.45-.81,.71-1.07,.69-.69,1.66-1.1,2.64-1.03,.93,.06,1.83,.55,2.44,1.26,.3,.36,.57,.82,.62,1.29,.08,.66-.39,.88-.95,1.07-.5,.17-1,.31-1.5,.44,.55-.95,.07-2.28-1.07-2.73-1.06-.42-2.18-.03-2.88,.78Z" fill="#231f20"/></g></svg>