<?xml version="1.0" encoding="UTF-8"?><svg xmlns="http://www.w3.org/2000/svg" viewBox="0 0 35 35"><g id="Example_glyph"><g id="Line_2-2"><text transform="translate(7.77 27.99)" fill="#bcbcbc" font-family="ArialMT, Arial" font-size="35"><tspan x="0" y="0">q</tspan></text></g></g><g id="Artwork_glyph"><path d="M27.89,34.06c-1.04-3.12-1.48-6.37-1.33-9.7,.05-.96-1.26-.96-1.31,0-.11,2.34,.09,4.67,.55,6.93-2.05-1.57-4.95-2.06-7.19-2.26-4.04-.35-8.1,.6-11.72,2.67-.75,.43-.09,1.72,.66,1.29,3.22-1.83,6.79-2.69,10.38-2.51,2.86,.15,7.37,.77,8.76,4.16,.31,.76,1.46,.22,1.19-.58Z" fill="#231f20"/></g></svg>