<?xml version="1.0" encoding="UTF-8"?><svg xmlns="http://www.w3.org/2000/svg" viewBox="0 0 35 35"><g id="Example_glyph"><g id="Line_2-2"><text transform="translate(11.67 27.99)" fill="#bcbcbc" font-family="ArialMT, Arial" font-size="35"><tspan x="0" y="0">r</tspan></text></g></g><g id="Artwork_glyph"><path d="M24.94,17.52c-.54-1.92-2.07-3.15-3.87-3.76-2.56-.86-5.52-.72-8.12-.17-.86,.18-1.72,.46-2.48,.87,1.92-3.69,4.18-7.23,6.56-10.61,.47-.67-.61-1.31-1.08-.65-1.64,2.32-3.19,4.71-4.63,7.17-1.32,2.24-2.98,4.68-3.6,7.25-1.07,4.38,1.93,8.65,5.96,9.94,3.98,1.28,8.33-.51,10.39-4.23,.96-1.73,1.42-3.89,.87-5.83Zm-2.48,6.01c-2.14,2.95-6,3.98-9.28,2.49-1.74-.79-3.16-2.2-3.9-4.01-.5-1.22-.59-2.42-.4-3.6,.25-.06,.48-.25,.51-.59,.2-2.3,2.93-2.87,4.73-3.16,2-.33,4.17-.35,6.14,.18,1.8,.49,3.3,1.62,3.59,3.61,.26,1.78-.36,3.64-1.39,5.06Z" fill="#231f20"/></g></svg>