<?xml version="1.0" encoding="UTF-8"?><svg xmlns="http://www.w3.org/2000/svg" viewBox="0 0 35 35"><g id="Example_glyph"><g id="Line_2-2"><text transform="translate(12.64 27.99)" fill="#bcbcbc" font-family="ArialMT, Arial" font-size="35"><tspan x="0" y="0">t</tspan></text></g></g><g id="Artwork_glyph"><path d="M26.2,5.75c-1.47-1.4-4.3-3.68-6.43-2.47-2.14,1.21-2.22,4.62-2.24,6.76-.02,3.03,.66,6.04,1.95,8.78,1.13,2.4,2.89,5.23,5.47,6.29-1.25,.8-2.71,1.27-4.2,1.49-2.26,.32-5.42,.54-7.38-.8-2.25-1.55-2.54-4.62-.89-6.68,.61-.22,1.22-.44,1.82-.67,.73-.28,1.47-.55,2.18-.86,.59-.26,1.09-.66,1.26-1.3,.16-.61-.02-1.25-.19-1.83-.19-.65-.41-1.3-.83-1.84-1.81-2.34-5.3-1.15-6.68,1-.69,1.07-.83,2.53,0,3.56,.42,.52,1.1,.83,1.77,.84-.02,.02-.05,.03-.07,.05,0,0-.01,.02-.02,.02-.14,.05-.27,.1-.41,.15-2.27,.79-4.57,1.49-6.89,2.11-.76,.2-.44,1.38,.33,1.18,2-.53,3.97-1.13,5.93-1.79-.68,1.55-.72,3.33,.1,4.92,1.17,2.29,3.47,3.14,5.92,3.29,2.72,.16,5.62-.06,8.08-1.31,2.32-1.18,3.93-3.3,4.83-5.7,1.96-5.19,.6-11.35-3.42-15.18ZM11.11,14.23c.5-.77,1.34-1.39,2.24-1.61,.82-.2,1.77-.01,2.34,.63,.49,.56,.93,1.75,.9,2.5-.02,.51-.42,.66-.84,.83-.51,.21-1.02,.41-1.54,.61-.37,.14-.75,.27-1.12,.41,.03-.02,.06-.04,.09-.06,.91-.84,.76-2.49-.32-3.12-.59-.34-1.29-.29-1.85,.01,.04-.07,.07-.14,.12-.21Zm.13,2.4c-.13-.09-.22-.19-.3-.3,.09-.07,.17-.17,.21-.31,.16-.63,1.12-.89,1.35-.16,.26,.8-.65,1.19-1.26,.77Zm17.95,.92c-.27,2.31-1.14,4.62-2.74,6.34-.14,.15-.29,.28-.44,.42-.07-.08-.15-.14-.27-.18-2.12-.67-3.55-2.9-4.58-4.74-1.03-1.84-1.73-3.85-2.11-5.92-.39-2.19-.41-4.49,.03-6.67,.27-1.33,.91-3.02,2.61-2.52,1.02,.3,2.03,.98,2.85,1.64,3.47,2.77,5.17,7.25,4.65,11.62Z" fill="#231f20"/></g></svg>