<?xml version="1.0" encoding="UTF-8"?><svg xmlns="http://www.w3.org/2000/svg" viewBox="0 0 35 35"><g id="Example_glyph"><g id="Line_2-2"><text transform="translate(7.77 27.99)" fill="#bcbcbc" font-family="ArialMT, Arial" font-size="35"><tspan x="0" y="0">u</tspan></text></g></g><g id="Artwork_glyph"><path d="M29.66,11.81c-.43-3.79-2.46-6.66-6.18-8.05-4.37-1.63-9.1-.49-13.44,.62-.75,.19-.43,1.32,.32,1.13,4.5-1.15,9.59-2.41,13.94-.1,4.39,2.32,4.55,7.35,4.29,11.67-.25,4.11-2.22,9.03-7,9.66-2.09,.28-4.7,.11-6.68-.61-2.3-.83-3.53-2.83-4.38-4.95-.85-2.12-1.39-4.52-.65-6.75,.7-2.09,2.61-3.89,5.03-3.65,1.18,.11,2.95,1.12,1.88,2.4-.51,.61-1.26,1.01-1.71,1.67-.93,1.36-.24,2.99,.93,3.97,2.39,2,6.26,1.55,8.02-1,1.7-2.46,1.07-6.93-2.45-7.48-1.04-.16-2.1,.19-2.76,.91-.22,.1-.42,.23-.61,.37-.43-1.08-1.66-1.76-2.8-1.96-3.27-.58-6.02,1.9-6.81,4.8-.92,3.4,.41,7.62,2.57,10.36,2.21,2.8,6.02,3.25,9.44,3.15,3.39-.09,6.14-2.02,7.67-4.91,1.79-3.38,1.79-7.57,1.37-11.26Zm-10.04,.38c.23-.06,.48-.09,.74-.03,.52,.12,1.1,.72,.86,1.31-.31,.76-1.36,.55-1.69-.02-.26-.44-.17-.9,.09-1.26Zm-1.44,1.01c.17,1.28,1.43,2.24,2.81,1.88,1.53-.39,1.86-2.19,.94-3.31-.11-.13-.23-.24-.35-.33,1.64,.32,2.4,2.91,2.06,4.34-.45,1.84-2.08,3.12-4.03,3.12-1.79,0-5.1-1.8-3.2-3.77,.61-.64,1.42-1.16,1.78-1.93Z" fill="#231f20"/></g></svg>