<?xml version="1.0" encoding="UTF-8"?><svg xmlns="http://www.w3.org/2000/svg" viewBox="0 0 35 35"><g id="Example_glyph"><g id="Line_2-2"><text transform="translate(8.75 27.99)" fill="#bcbcbc" font-family="ArialMT, Arial" font-size="35"><tspan x="0" y="0">v</tspan></text></g></g><g id="Artwork_glyph"><path d="M28.75,13.46c-.36-2.01-.94-4.01-2-5.76-2.14-3.53-5.72-4.81-9.71-4.76-4.51,.06-9,1.62-11.73,5.37-.45,.62,.58,1.21,1.02,.6,2.56-3.52,6.94-4.81,11.13-4.78,2.07,.01,4.22,.34,5.94,1.57,1.64,1.18,2.74,3,3.4,4.88,.7,1.98,1.03,4.1,1.24,6.19,.22,2.2,.25,4.56-.72,6.6-.83,1.74-2.42,3.31-4.44,3.44-1.95,.13-3.43-1.3-3.57-3.03,.24-.65,.4-1.34,.42-2.08,.02-.57-.84-.83-1.1-.3-.34,.71-.49,1.43-.48,2.13-1.12,2.71-4.4,4.2-7.2,2.55-1.78-1.05-2.4-3.04-1.74-4.96,.62-1.78,2.13-3.01,3.69-3.95,.03-.02,.05-.05,.08-.07,.51-.11,1.02-.22,1.53-.31,.67-.12,1.34-.21,2.01-.29,.6-.08,1.2-.17,1.63-.64,.78-.88,.24-2.13-.35-2.95-.7-.96-1.66-1.8-2.85-2.03-1.06-.21-2.26,.06-2.99,.9-.64,.74-.81,1.88-.37,2.76,.48,.96,1.64,1.41,2.64,1,1.09-.44,1.52-1.93,.75-2.85-.38-.46-.95-.63-1.49-.56,.47-.17,1.02-.17,1.47-.03,.93,.29,1.71,1.1,2.16,1.94,.2,.37,.41,.91-.05,1.16-.42,.23-1.11,.18-1.58,.25-1.16,.16-2.3,.38-3.44,.64-2.25,.53-4.44,1.27-6.57,2.18-.7,.3-.1,1.32,.6,1.02,1.29-.55,2.61-1.03,3.96-1.43-1.04,1-1.86,2.21-2.15,3.67-.46,2.25,.5,4.41,2.47,5.57,2.97,1.75,6.38,.63,8.16-1.84,.75,1.77,2.6,3,4.87,2.67,3.67-.54,5.61-4.29,5.91-7.67,.2-2.26-.13-4.59-.54-6.81Zm-15,1c-.63,.25-1.04-.17-1.17-.69,.23,.07,.5,.02,.66-.24,.49-.81,1.52,.54,.5,.94Z" fill="#231f20"/></g></svg>