<?xml version="1.0" encoding="UTF-8"?><svg xmlns="http://www.w3.org/2000/svg" viewBox="0 0 35 35"><g id="Example_glyph"><g id="Line_2-2"><text transform="translate(4.86 27.99)" fill="#bcbcbc" font-family="ArialMT, Arial" font-size="35"><tspan x="0" y="0">w</tspan></text></g></g><g id="Artwork_glyph"><path d="M23.52,23.69c-.57,.5-1.22,.98-1.92,1.41-.03-1.75-.06-3.49-.09-5.24-.01-.91-.03-1.81-.04-2.72,.04-.02,.08-.03,.13-.06,1.45-1.05,4.4-4.1,2.95-6.14-1.43-2.01-3.71-.15-4.17,1.64-.41-.75-1.03-1.42-1.59-1.85-1.19-.92-2.88-1.24-4.23-.46-.49,.29-.9,.73-1.17,1.23,0,0-.01,0-.02,0-.07,.04-.12,.1-.15,.17-.04,.07-.07,.15-.07,.23-.01,.05,0,.1,0,.14-.16,.53-.19,1.09-.02,1.64,.26,.84,.98,1.45,1.76,1.54-2.61,.78-4.99,2.7-5.31,5.65-.36,3.27,2.13,6.1,5.11,6.83,2,.49,3.94,.18,5.74-.6,.04,2.43,.08,4.85,.12,7.28,.01,.69,1,.84,1.18,.16,.93-3.43,1.86-6.86,2.79-10.29,.17-.63-.57-.99-1-.6Zm-1.72-11.06c.19-.59,.62-1.29,1.31-1.28,1.17,.02,.61,1.52,.3,2.12-.44,.85-1.05,1.57-1.77,2.17-.04-1-.14-2.09,.16-3.02Zm-7.33-.1c.16-.03,.31-.06,.47-.09,.02,0,.04-.02,.06-.03,.17,.13,.34,.26,.48,.41,.31,1.16,.06,1.48-.75,.96-.35-.32-.38-.81-.26-1.25Zm1.05-1.26c.77-.35,1.73-.2,2.45,.24,.58,.35,2.78,2.47,1.33,3.21-.73,.38-2.06,.11-2.88,.23-.08,.01-.16,.03-.25,.04,.07-.05,.15-.08,.22-.14,1.41-1.15,.15-2.77-.88-3.59Zm-3.28,13.49c-1.38-1.6-1.7-3.85-.56-5.68,1.23-1.99,3.51-2.85,5.7-3,.95-.07,2.25,.06,3.02-.59,.03,.76,.08,1.52,.09,2.25,.03,1.8,.06,3.6,.09,5.4,.01,.86,.03,1.73,.04,2.59-2.82,1.35-6.12,1.64-8.38-.97Zm10.85,.97c-.4,1.47-.8,2.94-1.2,4.42-.02-1.21-.04-2.41-.06-3.62,.43-.24,.85-.51,1.26-.8Z" fill="#231f20"/></g></svg>