<?xml version="1.0" encoding="UTF-8"?><svg xmlns="http://www.w3.org/2000/svg" viewBox="0 0 35 35"><g id="Example_glyph"><g id="Line_2-2"><text transform="translate(8.75 27.99)" fill="#bcbcbc" font-family="ArialMT, Arial" font-size="35"><tspan x="0" y="0">x</tspan></text></g></g><g id="Artwork_glyph"><path d="M22.73,19.6c-.98-2.31-3.83-4.61-6.33-3.53-2.18,.22-4.1,1.7-4.83,3.83-.89,2.57,.28,5.39,2.42,6.92,2.08,1.49,4.99,1.5,7.03-.07,2.16-1.66,2.76-4.69,1.71-7.15Zm-2.04,5.78c-1.44,1.46-3.77,1.7-5.53,.71-1.79-1.01-2.99-3.13-2.56-5.21,.34-1.64,1.49-2.83,2.94-3.32,.17,.19,.43,.27,.7,.06,.18-.14,.36-.24,.55-.32,.29-.02,.58,0,.88,.03,.24,.03,.4-.07,.5-.22,1.34,.2,2.61,1.39,3.24,2.58,.97,1.83,.78,4.19-.7,5.7Z" fill="#231f20"/></g></svg>