<?xml version="1.0" encoding="UTF-8"?><svg xmlns="http://www.w3.org/2000/svg" viewBox="0 0 35 35"><g id="Example_glyph"><g id="Line_2-2"><text transform="translate(8.75 27.99)" fill="#bcbcbc" font-family="ArialMT, Arial" font-size="35"><tspan x="0" y="0">y</tspan></text></g></g><g id="Artwork_glyph"><path d="M30.3,14.16c-1.46-3.17-4.62-5.25-7.79-2.88-1.52,1.14-2.48,2.9-3.5,4.48-.94,1.45-1.87,2.9-2.81,4.35-.75,.43-1.27,1.15-1.3,2.22-.02,.7,.91,.88,1.25,.34,.33-.52,.66-1.04,.99-1.56,.89-.31,2.23,0,2.92,.35,2,1.03-.18,3.01-1.28,3.74-2.14,1.41-4.82,1.71-7.21,.81-1.14-.43-2.54-1.2-3.13-2.34-.7-1.36-.06-2.96,.96-3.95,1.97-1.92,4.74-1.73,7.11-2.74,1.87-.8,2.78-2.78,1.6-4.6-1.07-1.64-3.51-2.71-5.41-2.42-.3,.05-.59,.14-.87,.25-.9,.04-1.8,.45-2.43,1.15-.39,.44-.08,1.01,.34,1.14-.07,.29-.11,.59-.09,.92,.13,1.73,1.76,2.79,3.39,2.27,1.82-.59,2.3-2.8,1.24-4.29,.64,.17,1.26,.48,1.79,.85,.61,.42,1.32,1.14,1.27,1.95-.06,.89-.92,1.39-1.65,1.65-1.13,.4-2.36,.53-3.5,.88-1.79,.55-3.56,1.47-4.6,3.11-.92,1.45-1.06,3.4-.08,4.85,1.08,1.61,3.19,2.63,5.03,3,1.91,.38,3.88,.17,5.66-.62,1.59-.71,3.53-2.05,4-3.86,.59-2.27-1.87-3.65-4.09-3.58,1.14-1.81,2.28-3.62,3.5-5.36,.91-1.29,2.19-2.73,3.91-2.7,1.68,.03,2.79,1.57,3.47,2.94,1.35,2.74,2.52,5.85,.99,8.77-1.46,2.79-4.66,4.01-7.62,3.16-.84-.24-1.19,1.07-.36,1.31,3.34,.95,7-.31,8.87-3.32,2.09-3.36,.97-6.93-.56-10.26Zm-18.77,.14c-1.19-.72-.37-2.21,.56-2.75,.45,.03,.87,.23,1.15,.7,.7,1.13-.41,2.84-1.71,2.05Z" fill="#231f20"/></g></svg>