<?xml version="1.0" encoding="UTF-8"?><svg xmlns="http://www.w3.org/2000/svg" viewBox="0 0 35 35"><g id="Example_glyph"><g id="Line_2-2"><text transform="translate(8.75 27.99)" fill="#bcbcbc" font-family="ArialMT, Arial" font-size="35"><tspan x="0" y="0">z</tspan></text></g></g><g id="Artwork_glyph"><path d="M19.39,3.57c0-.3-.21-.61-.6-.63-.27-.01-.53,.03-.8,.1-.17,.03-.32,.09-.46,.17-.07,.03-.14,.07-.21,.11-.11,.04-.22,.08-.33,.14-.81,.43-1.37,1.36-1.6,2.22-.56,2.08,.66,4.2,2.68,4.86,.77,.25,1.09-.96,.33-1.21-1.41-.46-2.13-1.96-1.8-3.31,.25,.23,.58,.37,.93,.38,.92,.04,1.94-.6,2.15-1.53,.11-.48-.02-.97-.3-1.32Z" fill="#231f20"/></g></svg>