<?xml version="1.0" encoding="UTF-8"?><svg xmlns="http://www.w3.org/2000/svg" viewBox="0 0 35 35"><g id="Example_glyph"><g id="Line_4-2"><text transform="translate(11.66 27.99)" fill="#bcbcbc" font-family="ArialMT, Arial" font-size="35"><tspan x="0" y="0">{</tspan></text></g></g><g id="Artwork_glyph"><path d="M33.41,27.81c-.63,3.02-3.29,5.98-6.51,5.86-2.07-.08-2.99-2-1.97-3.82,.83-1.48,2.53-2.2,3.98-2.87,.65-.3,.19-1.37-.48-1.17-1.3,.39-2.77,.89-4.11,.35-1.69-.67-1.77-2.63-1.26-4.15,.42-1.21,1.24-2.29,2.25-3.04,1.06-.78,2.18-.95,3.4-1.3,2.01-.59,2.3-2.34,1-3.92-1.41-1.71-3.51-3.15-5.79-2.81-.21,.03-.42,.09-.63,.15-.86-.5-1.84-.79-2.8-.84-2.53-.12-4.83,1.44-5.91,3.74-1.32,2.82-.89,5.97-.45,8.94,.1,.67,1.03,.54,1.21,0,.32-.98,1.22-3.42,2.69-2.52,1,.61,.79,2.21,.37,3.09-1.2,2.5-4.22,3.11-6.66,2.48-2.07-.54-4.13-2.03-4.76-4.21-.62-2.14,.32-4.7,2.46-5.46,1.55-.55,3.71-.8,3.97-2.86,.19-1.49-.92-2.85-2.24-3.32-1.8-.64-4.15-.16-5.89,.5-1.74,.66-3.15,1.89-3.98,3.6-2.14,4.41-.21,9.17,2.13,13.03,.42,.7,1.5,.06,1.08-.65-2.37-3.92-5.03-10.7-.23-14.05,1.67-1.17,6.47-2.62,7.71-.19,.95,1.86-1.5,2.28-2.66,2.65-.95,.3-1.77,.78-2.42,1.57-2.61,3.13-1.11,7.54,2.03,9.55,3.41,2.19,9.03,1.91,10.74-2.39,.61-1.55,.42-3.88-1.32-4.59-1.44-.59-2.51,.24-3.25,1.37-.32-3.65,.05-8.06,4.16-8.89,.86-.17,1.8-.09,2.66,.21-.85,.71-1.41,1.75-1.32,2.95,.13,1.79,1.71,3.15,3.47,2.67,1.82-.49,2.22-2.51,1.45-4.09-.22-.44-.5-.84-.83-1.2,1.15,.09,2.36,.72,3.16,1.43,.69,.62,2.23,2.08,.84,2.72-.71,.33-1.56,.33-2.3,.61-2.55,.97-4.67,3.48-4.86,6.32-.11,1.6,.51,3.16,1.96,3.91,.55,.29,1.13,.42,1.72,.46-.76,.62-1.4,1.38-1.73,2.38-.63,1.88,.04,3.96,1.95,4.66,4.14,1.51,8.37-2.67,9.18-6.53,.17-.8-1.04-1.15-1.21-.34Zm-10.22-11.53c-1.32-.11-1.63-1.79-1.08-2.78,.27-.48,.62-.8,1.01-1.01,.5,.37,.94,.82,1.23,1.39,.55,1.07,.26,2.51-1.17,2.4Z" fill="#231f20"/></g></svg>