<?xml version="1.0" encoding="UTF-8"?><svg xmlns="http://www.w3.org/2000/svg" viewBox="0 0 35 35"><g id="Example_glyph"><g id="Line_8-2"><text transform="translate(12.96 27.99)" fill="#bcbcbc" font-family="ArialMT, Arial" font-size="35"><tspan x="0" y="0">|</tspan></text><text transform="translate(-34.99 27.99)" fill="#bcbcbc" font-family="ArialMT, Arial" font-size="35"><tspan x="0" y="0">…</tspan></text></g></g><g id="Artwork_glyph"><path d="M26.04,28.77c.13,2.92-2.31,5.1-5.05,4.96-1.31-.07-2.78-.63-3.71-1.62-.61-.65-1.15-1.63-.5-2.45,.58-.73,1.6-.85,2.44-.95,.78-.1,.82-1.35,0-1.3-3.03,.21-6.24-.8-7.86-3.66-1.41-2.5-.94-6.05,1.72-7.45,1.45-.76,2.93-.4,4.44-.12,.99,.19,2.12,.16,2.79-.74,1.51-2.01-1.02-4.43-2.68-5.14-1.04-.44-2.5-.63-3.7-.27-1.6-.11-3.24,1.03-4.33,2.21-4.15,4.48-4.03,11.55,0,16.05,.55,.61,1.43-.31,.88-.92-2.96-3.3-3.62-8.21-1.47-12.16,.62-1.13,1.67-2.62,2.94-3.38-.42,1.25,.21,2.5,1.22,3.03-3.05,1.11-4.52,4.8-3.59,7.92,.95,3.2,3.59,5.08,6.55,5.72-.59,.48-.98,1.17-.92,2.15,.11,2.05,2.15,3.45,3.85,4.03,3.89,1.33,8.41-1.39,8.2-5.9-.04-.83-1.29-.84-1.25,0Zm-6.57-14.39c-.4,1.18-2.39,.34-3.19,.23-.18-.02-.36-.04-.54-.05,.94-.82,1.06-2.33,.34-3.36,.39,.07,.78,.18,1.15,.34,.84,.37,2.65,1.63,2.24,2.85Zm-5.43-3c.45,.08,.89,.28,1.13,.71,.36,.63,.09,1.45-.61,1.67-.58,.17-1.23-.09-1.42-.74-.22-.77,.28-1.35,.9-1.64Z" fill="#231f20"/></g></svg>