<?xml version="1.0" encoding="UTF-8"?><svg xmlns="http://www.w3.org/2000/svg" viewBox="0 0 35 35"><g id="Example_glyph"><g id="Line_4-2"><text transform="translate(7.28 27.99)" fill="#bcbcbc" font-family="ArialMT, Arial" font-size="35"><tspan x="0" y="0">~</tspan></text></g></g><g id="Artwork_glyph"><path d="M20.9,3.24c-4.08-.91-8.37,.31-11.48,3.04-.6,.53,.28,1.4,.88,.87,2.9-2.55,7-3.61,10.77-2.6,3.59,.97,6.59,3.67,7.87,7.12,1.35,3.62,1.29,8.44-.94,11.72-1.02,1.5-2.59,2.76-4.43,3.1-.88,.17-1.87,.1-2.66-.35-.93-.53-1.18-1.44-1.08-2.37,.08-.31,.16-.62,.21-.93,.13-.77-.95-1.1-1.21-.33-.12,.36-.2,.73-.24,1.1-.31,1.09-.87,2.11-1.94,2.64-1.78,.89-3.08-.4-3.64-1.99-.97-2.77-.82-6.81,2.54-7.85,.1-.03,.18-.08,.25-.14,1.25-.21,2.49-.41,3.74-.62,.29-.05,.43-.34,.46-.6,.39-3.12-2.47-5.84-5.62-5.14-.07,.02-.14,.04-.21,.06-2.54-.23-3.96,4-4.52,6.07-1.92,.32-3.84,.64-5.76,.96-.79,.13-.46,1.32,.33,1.19,1.71-.28,3.42-.57,5.13-.85-.69,3.4-.42,6.97,.82,10.22,.28,.74,1.49,.42,1.21-.33-.96-2.52-1.33-5.21-1.08-7.89,.07-.74,.2-1.48,.37-2.21,.71-.12,1.42-.24,2.12-.35-2.05,2.3-1.95,6.23-.51,8.95,.9,1.7,2.69,2.48,4.54,1.8,.92-.34,1.6-.97,2.11-1.72,.19,.39,.46,.74,.83,1.05,1.12,.93,2.74,1.11,4.13,.83,3.68-.75,6.04-4.17,6.78-7.61,1.55-7.22-2.13-15.14-9.8-16.85Zm-4.81,7.9c.34,.07,.67,.19,.96,.35,1.17,.63,1.75,1.81,1.75,3.06-1.27,.21-2.54,.42-3.81,.63,1.47-.6,1.97-2.68,1.11-4.04Zm-2.77,.78c.24-.29,.54-.49,.87-.63,1,.16,1.64,1.72,.66,2.53-1.32,1.09-2.44-.79-1.53-1.9Zm-2.14,3.47c.18-.52,.39-1.12,.65-1.7,.25,.8,.85,1.46,1.75,1.63,.15,.03,.28,.03,.42,.04-.98,.16-1.97,.33-2.95,.49,.05-.15,.09-.3,.14-.45Z" fill="#231f20"/></g></svg>