<?xml version="1.0" encoding="UTF-8"?><svg xmlns="http://www.w3.org/2000/svg" viewBox="0 0 35 35"><g id="Example_glyph"><g id="Line_6-2"><text transform="translate(11.68 27.99)" fill="#bcbcbc" font-family="ArialMT, Arial" font-size="35"><tspan x="0" y="0">ยก</tspan></text></g></g><g id="Artwork_glyph"><path d="M19.41,26.62s.02-.1,.02-.14c.06-.4,0-.83-.19-1.18-.14-.25-.34-.44-.57-.59-.23-.19-.5-.32-.79-.38-.11-.06-.22-.11-.35-.14-.21-.04-.43-.04-.64,0-.01,0-.02,0-.04,0-.04,0-.08,.03-.12,.05-.07,.02-.13,.04-.2,.08-.03,.02-.07,.04-.1,.06-.04,.02-.08,.04-.12,.07-.41,.31-.64,.75-.67,1.28-.01,.25,.04,.5,.13,.73,.02,.08,.03,.16,.06,.24,.11,.29,.28,.55,.51,.74,.1,.11,.2,.21,.33,.29,.09,.05,.18,.08,.28,.11,.65,.32,1.45,.22,2-.31,.22-.22,.37-.52,.45-.83,0-.01,0-.02,.01-.03,0,0,0-.01,0-.02Z" fill="#231f20"/></g></svg>