<?xml version="1.0" encoding="UTF-8"?><svg xmlns="http://www.w3.org/2000/svg" viewBox="0 0 35 35"><g id="Example_glyph"><g id="Line_4-2"><text transform="translate(7.77 27.99)" fill="#bcbcbc" font-family="ArialMT, Arial" font-size="35"><tspan x="0" y="0">¢</tspan></text></g></g><g id="Artwork_glyph"><path d="M26.85,28.77c.12,4.26-4.6,5.55-7.97,4.66-1.18-.31-5.32-1.6-3.52-3.44,.84-.85,2.26-1.32,3.56-1.62,.46-.07,.91-.16,1.34-.27,.79-.2,.45-1.35-.33-1.21-.36,.07-.79,.15-1.24,.25-2.51,.38-5.31,.03-6.86-2.2-1.97-2.84,.13-5.81,3.09-6.51,1.66-.4,4.42-.14,4.54-2.55,.04-.84-.25-1.74-.57-2.55,1.98-.5,2.54-2.75,2.08-4.6-.47-1.93-1.43-4.33-3.34-5.25-.97-.47-2.05-.57-3.11-.53-1.12,.04-2.26,.19-3.3,.64-1.84,.81-3.08,2.68-3.17,4.68-.08,1.87,.93,3.57,2.43,4.58-5.45,2.91-3.37,10.43-2.35,15.14,.17,.79,1.38,.46,1.21-.33-.82-3.77-2.37-8.36-.12-11.91,.43-.69,1.02-1.29,1.72-1.7-.18,1.19,.2,2.32,1.5,2.85,1.77,.73,3.43-1.13,2.87-2.86-.36-1.1-1.27-1.59-2.27-1.7,.42-.55,.96-1.02,1.58-1.2,1.23-.34,2.19,.71,2.69,1.69,.38,.74,1.15,2.41,.84,3.24-.34,.93-1.8,.85-2.58,.96-.81,.11-1.6,.31-2.35,.64-2.84,1.27-4.28,4.37-2.85,7.27,1.02,2.05,2.89,3.08,4.96,3.42-.74,.44-1.33,1.01-1.59,1.73-.84,2.3,1.97,3.55,3.63,4.17,2.28,.84,4.87,1.07,7.13,.05,2.18-.99,3.66-3.11,3.59-5.55-.02-.81-1.27-.81-1.25,0ZM14.21,14.82c-.06,1.05-1.26,1.18-1.76,.42-.33-.49-.26-1.11-.07-1.65,.92-.09,1.89,.16,1.83,1.23Zm2.26-4.68c-1.79-.89-3.7,.33-4.75,2-1.27-.58-2.23-1.86-2.38-3.26-.16-1.46,.57-3,1.8-3.81,1.33-.88,3.32-1.05,4.86-.8,1.73,.28,2.62,1.61,3.23,3.14,.35,.89,.73,1.86,.69,2.83-.03,.8-.51,1.82-1.41,1.93-.04,0-.07,.02-.11,.03-.44-.86-1.05-1.64-1.93-2.08Z" fill="#231f20"/></g></svg>