<?xml version="1.0" encoding="UTF-8"?><svg xmlns="http://www.w3.org/2000/svg" viewBox="0 0 35 35"><g id="Example_glyph"><g id="Line_4-2"><text transform="translate(7.77 27.99)" fill="#bcbcbc" font-family="ArialMT, Arial" font-size="35"><tspan x="0" y="0">£</tspan></text></g></g><g id="Artwork_glyph"><path d="M28.87,27.88c-.06-.78-1.28-.79-1.22,0,.23,3.13-2.09,5.9-5.3,5.89-1.5,0-3.29-.67-4.05-2.05-.85-1.56,.26-2.36,1.57-2.76,.76-.08,1.49-.21,2.15-.37,.66-.16,.54-1.25-.16-1.2-.77,.05-1.64,.15-2.44,.4-2.59,.23-5.43-.17-7.38-1.8-2.58-2.15-1.26-5.69,1.31-7.17,1.32-.76,2.84-1.07,4.34-1.21,1.05-.09,2.39,.1,3.17-.78,1.01-1.16,.4-2.56-.54-3.72,.41,0,.82-.08,1.2-.26,1.28-.57,1.9-1.84,1.99-3.18,.17-2.5-1.43-5-3.66-6.06-2.33-1.11-5.16-.69-7.18,.87-1.17,.9-2.1,2.21-2.31,3.7-.14,1,.09,1.98,.64,2.77-.4,.07-.8,.22-1.17,.47-2.18,1.46-3.22,4.67-3.57,7.13-.43,2.95,.06,5.9,1.38,8.57,.35,.71,1.41,.09,1.06-.62-1.91-3.86-1.84-8.61,.35-12.35,.47-.79,1.12-1.71,2.04-1.99-.48,1.28-.21,2.81,1.1,3.59,1.76,1.05,3.71-.5,2.93-2.43-.34-.85-.99-1.54-1.76-1.97,.7-.33,1.55-.37,2.3-.18,1.12,.29,2.05,1,2.85,1.8,.84,.84,2.82,2.9,.49,3.32-.85,.15-1.74,.1-2.6,.23-.98,.16-1.93,.41-2.84,.81-2.98,1.3-5.42,4.96-3.56,8.13,1.45,2.48,4.46,3.45,7.43,3.57-.26,.34-.47,.73-.57,1.22-.43,2.19,1.72,3.89,3.58,4.45,4.43,1.35,8.76-2.28,8.43-6.83Zm-6.83-17.27c-.36,.88-1.33,1.49-2.28,1.18-1.05-.35-1.3-1.49-.9-2.43,.48-1.11,1.64-1.71,2.68-2.19,.06-.03,.1-.07,.14-.1,.12,.23,.23,.47,.31,.71,.31,.89,.41,1.95,.05,2.84Zm-8.35,4.22c-1.4,.66-1.85-1.75-1.36-2.57,0-.01,.02-.02,.02-.03,.26,.11,.5,.26,.73,.45,.43,.35,1.66,1.64,.6,2.15Zm-1.4-4.23c-1.44-1.31-.51-3.62,.71-4.78,1.32-1.26,3.32-1.87,5.12-1.49,1.13,.24,2.14,.87,2.88,1.73-.03,0-.06,0-.09,.02-1.25,.57-2.52,1.35-3.13,2.64-.28,.6-.41,1.28-.33,1.93-1.62-.9-3.6-1.18-5.16-.05Z" fill="#231f20"/></g></svg>