<?xml version="1.0" encoding="UTF-8"?><svg xmlns="http://www.w3.org/2000/svg" viewBox="0 0 35 35"><g id="Example_glyph"><g id="Line_4-2"><text transform="translate(7.77 27.99)" fill="#bcbcbc" font-family="ArialMT, Arial" font-size="35"><tspan x="0" y="0">¥</tspan></text></g></g><g id="Artwork_glyph"><path d="M26.05,30.84s-.08-.04-.12-.06c.07-1.21,.14-2.43,.21-3.64,.03-.44-.54-.78-.92-.52-2.33,1.6-5.13,1.47-7.81,1.07-2.47-.37-5.23-.7-6.61-3.05-1.32-2.25-.69-5.13,1.19-6.87,1.71-1.58,4.17-2.1,6.44-1.98,1.46,.08,3.8,.71,4.27-1.3,.39-1.68-1.19-3.3-2.55-4-1.51-.77-3.44-.9-4.97-.1-1.39,.73-2.38,2.43-1.17,3.79,.26,.29,.64,.54,1.08,.71-.56,.13-1.11,.3-1.64,.53-2.74,1.19-4.73,3.88-4.56,6.92,.17,3.13,2.45,5.31,5.41,6.01,3.33,.79,7.36,1.44,10.55-.12-.05,.71-.09,1.42-.13,2.12-2.48-.44-5.11,1.51-7.38,2.17-1.69,.49-3.46,.68-5.22,.56-1.51-.1-4.56-.58-3.98-2.78,.2-.75-.98-1.08-1.17-.32-.49,1.85,.86,3.33,2.55,3.89,2.22,.73,4.87,.57,7.13,.08,1.15-.25,2.25-.64,3.32-1.12,1.41-.63,2.89-1.51,4.5-1.26,.06,0,.12,.02,.19,.04-.01,.32-.04,.64-.05,.96-.03,1,.18,2.31,1.43,2.42,.86,.08,1.45-.64,1.56-1.44,.15-1.12-.62-2.16-1.55-2.71ZM16.24,11.26c1.51-.52,3.33-.04,4.44,1.08,.79,.8,1.39,2.49-.38,2.42-.79-.03-1.57-.19-2.37-.2,.17-.21,.29-.48,.34-.82,.1-.8-.48-1.53-1.19-1.84-.68-.29-1.38-.17-2.05,.09,.31-.35,.83-.6,1.22-.74Zm.63,1.94c-.14,.25-.29,.51-.43,.76-.14,.06-.46-.03-.6-.07-.35-.09-.68-.29-.89-.56,.46-.23,.86-.38,1.43-.25,.16,.04,.33,.07,.49,.11Zm9.24,19.93c-.32-.06-.41-.25-.28-.56-.02-.13-.01-.27,0-.42,.29,.23,.5,.51,.5,.86,.17,.35,.09,.39-.22,.12Z" fill="#231f20"/></g></svg>