<?xml version="1.0" encoding="UTF-8"?><svg xmlns="http://www.w3.org/2000/svg" viewBox="0 0 35 35"><g id="Example_glyph"><g id="Line_9-2"><text transform="translate(12.97 27.99)" fill="#bcbcbc" font-family="ArialMT, Arial" font-size="35"><tspan x="0" y="0">¦</tspan></text></g></g><g id="Artwork_glyph"><path d="M19.22,18.1c-.27-.45-.71-.78-1.21-.96-.62-.21-1.37-.07-1.73,.5-.1,.16-.16,.34-.17,.53-.62,.65-.44,1.73,.16,2.33,.31,.31,.73,.48,1.17,.51,.34,.09,.7,.07,1.04-.09,.49-.24,.84-.77,.96-1.28,.13-.52,.06-1.08-.22-1.55Z" fill="#231f20"/><path d="M18.87,25.05s-.08-.05-.11-.08c-.04-.06-.06-.12-.1-.17-.36-.4-.91-.44-1.34-.21-.07,.01-.14,.01-.22,.04-.63,.21-1.1,.74-1.11,1.42,0,0,0,0,0,0-.09,.33-.1,.68,.02,1.01,.28,.72,1.04,1.12,1.79,.97,.13-.03,.25-.09,.36-.15-.09,.2-.2,.4-.34,.57-.14,.18-.43,.44-.64,.58-.31,.2-.52,.29-.87,.37-.33,.08-.52,.45-.44,.77,.09,.34,.44,.51,.77,.44,1.08-.25,2.05-1.01,2.56-2,.56-1.09,.69-2.67-.33-3.55Z" fill="#231f20"/></g></svg>