<?xml version="1.0" encoding="UTF-8"?><svg xmlns="http://www.w3.org/2000/svg" viewBox="0 0 35 35"><g id="Example_glyph"><g id="Line_6-2"><text transform="translate(7.78 27.99)" fill="#bcbcbc" font-family="ArialMT, Arial" font-size="35"><tspan x="0" y="0">ยง</tspan></text></g></g><g id="Artwork_glyph"><path d="M25.98,28.32c-.69,3.27-3.47,5.78-6.8,5.4-1.52-.17-3.21-.97-4.04-2.36-1.32-2.24,1.24-3.36,2.88-3.87,0,0,0,0,0-.01,.05-.02,.1-.03,.15-.05,.63-.28,.18-1.34-.46-1.14-.31,.1-.63,.21-.95,.33-3.46,.84-7.08-2.64-7.63-6.09-.37-2.31,1.5-3.67,3.42-4.19,1.5-.41,3.33-.3,4.7-1.1,1.55-.91,1.15-2.24,.19-3.33,.48,0,.95-.11,1.37-.36,1.11-.67,1.26-2.01,1.06-3.18-.45-2.73-2.74-4.87-5.47-5.22-2.63-.33-5.51,1.1-7.2,3.08-.98,1.15-1.28,2.6-.71,4.02,.58,1.44,1.84,2.41,3.21,3.05,.03,.15,.08,.3,.14,.44,.47,1.01,1.9,1.42,2.63,.46,.74-.97,.23-2.03-.46-2.83,.5-.24,1.08-.34,1.58-.31,1.3,.07,5.16,2.56,2.31,3.34-2.68,.74-6.08,.58-7.57,3.51-1.34,2.63,.48,5.87,2.29,7.74,1.13,1.16,2.53,1.93,4.01,2.18-.67,.62-1.12,1.44-1.05,2.53,.12,2.07,2.19,3.6,3.91,4.21,4.3,1.54,8.71-1.49,9.65-5.94,.16-.78-.99-1.11-1.16-.33ZM17.4,10.67c-.96-.04-1.5-.97-1.48-1.85,.02-1.08,.79-1.94,1.65-2.5,.02,0,.02-.02,.03-.03,.03,.04,.07,.07,.1,.11,.72,.97,1.99,4.37-.3,4.27Zm-6.38,2.69c-.19-.47-.15-.86,.12-1.18,.21,.2,.4,.43,.42,.68,.2,.35,.02,.51-.53,.5Zm-.2-2.63c-.4,.32-.75,.77-.95,1.26-1.51-.85-3.05-2.39-2.19-4.22,.4-.85,1.23-1.5,1.99-2.02,.83-.57,1.73-1.02,2.71-1.25,1.51-.36,3.12-.02,4.34,.9-.94,.66-1.73,1.59-1.96,2.73-.13,.66-.06,1.35,.19,1.98-.11-.04-.21-.08-.3-.1-1.3-.36-2.74-.15-3.81,.72Z" fill="#231f20"/></g></svg>