<?xml version="1.0" encoding="UTF-8"?><svg xmlns="http://www.w3.org/2000/svg" viewBox="0 0 35 35"><g id="Example_glyph"><g id="Line_8-2"><text transform="translate(11.68 27.99)" fill="#bcbcbc" font-family="ArialMT, Arial" font-size="35"><tspan x="0" y="0">¨</tspan></text></g></g><g id="Artwork_glyph"><path d="M20.21,22.31c2.39,.54,5-.1,6.59-2.08,1.5-1.88,1.52-4.51,.33-6.56-2.9-4.98-10.11-4.35-14.56-2.26-4.34,2.04-7.83,7.46-5,12.18,1.55,2.58,4.51,3.55,7.3,3.88,3.25,.38,6.54,.17,9.74-.47,.2,1.89,.41,3.78,.61,5.68-4.47-3.95-12.45-1.87-17.34,.15-.71,.29-.4,1.47,.32,1.18,2.87-1.18,5.89-1.97,8.98-2.21,3.02-.23,6.43,.22,8.31,2.94,.3,.44,1.19,.35,1.12-.31-.29-2.72-.58-5.43-.87-8.15-.04-.41-.35-.68-.76-.59-4.03,.9-8.98,1.39-12.94-.07-1.98-.73-3.62-2.18-4.1-4.34-.46-2.09,.19-4.26,1.48-5.91,2.53-3.22,7.27-4.62,11.19-4.23,2.12,.21,4.37,1.21,5.49,3.15,1.08,1.88,.91,4.23-.72,5.71-1.77,1.62-4.79,1.73-6.75,.36-1.26-.87-1.15-2.4,.1-3.21,.13-.08,.26-.15,.4-.21,1.21-.05,2.41-.11,3.62-.16,.79-.04,.75-1.13,0-1.22-1.17-.14-2.57-.19-3.75,.17-1.53,.07-3.06,.14-4.59,.21-.77,.03-.77,1.26,0,1.22,.89-.04,1.79-.08,2.68-.12-.18,.26-.33,.55-.45,.89-.82,2.41,1.61,3.95,3.59,4.39Z" fill="#231f20"/></g></svg>