<?xml version="1.0" encoding="UTF-8"?><svg xmlns="http://www.w3.org/2000/svg" viewBox="0 0 35 35"><g id="Example_glyph"><g id="Line_4-2"><text transform="translate(4.61 27.99)" fill="#bcbcbc" font-family="ArialMT, Arial" font-size="35"><tspan x="0" y="0">©</tspan></text></g></g><g id="Artwork_glyph"><path d="M26.8,16.06c-.28-.36-.6-.68-.94-.98,.97-2.04-.18-4.29-2.12-5.15,.02-.05,.04-.1,.04-.17,.08-2.63-1.53-5.11-3.93-6.18-2.45-1.1-5.52-.82-7.63,.9-2,1.64-2.72,4.95-.66,6.86,.88,.81,2.1,1.24,3.28,.97,1.14-.26,2.11-1.23,2.41-2.35,.37-1.35-.33-2.66-1.47-3.4-.98-.64-2.13-.73-3.26-.57,.29-.35,.62-.66,.99-.89,1.67-1.06,3.87-1.2,5.68-.42,1.97,.84,3.28,2.79,3.29,4.92-2.1-.22-5.85,.9-5.17,3.58,.34,1.32,1.44,1.46,2.61,1.29,1.59-.23,3.21,.13,4.54,1.03,2.8,1.9,3.51,5.97,1.52,8.7-1.07,1.47-2.84,2.49-4.67,2.59-1.89,.1-4.29-1.13-3.62-3.37,.18-.74-.93-1.05-1.15-.32-.5,2.02-2.35,3.59-4.49,3.46-2.49-.15-4.11-2.25-4.22-4.63-.1-2.12,.55-4.49,2.01-6.07,1.54-1.67,4.1-2.26,6.02-.88,.62,.45,1.22-.58,.6-1.03-2.28-1.64-5.48-1-7.36,.95-1.92,1.99-2.77,5.14-2.38,7.84,.39,2.72,2.55,4.84,5.33,5,1.85,.1,3.55-.84,4.62-2.27,.68,1.49,2.43,2.45,4.17,2.5,2.7,.07,5.35-1.56,6.62-3.92,1.35-2.52,1.05-5.75-.69-8.01ZM14.72,7.42c.78,.33,1.49,1.08,1.38,1.98-.1,.8-.79,1.52-1.57,1.69-.88,.19-1.8-.28-2.35-.96-.65-.81-.71-1.78-.44-2.68,.96-.27,2.02-.43,2.97-.03Zm10.17,6.95c-1.51-.92-3.33-1.31-5.11-1.07-.56,.08-1.25,.15-1.3-.59-.03-.52,.34-.91,.73-1.19,.8-.57,1.88-.83,2.85-.78,1.79,.1,3.56,1.79,2.83,3.62Z" fill="#231f20"/></g></svg>