<?xml version="1.0" encoding="UTF-8"?><svg xmlns="http://www.w3.org/2000/svg" viewBox="0 0 35 35"><g id="Example_glyph"><g id="Line_9-2"><text transform="translate(11.03 27.99)" fill="#bcbcbc" font-family="ArialMT, Arial" font-size="35"><tspan x="0" y="0">ª</tspan></text></g></g><g id="Artwork_glyph"><path d="M24.8,27.62c-.02-.4-.39-.79-.79-.64-2.96,1.09-6.17,1.09-9.1-.11-1.46-.59-3.2-1.52-3.64-3.25-.4-1.61,.34-3.27,1.51-4.29,1.29-1.13,2.99-1.55,4.63-1.63,1.12-.06,2.78,.42,3.8-.26,2.04-1.35,.1-4.93-1.16-6.1-1.8-1.67-4.37-1.94-6.49-.8-.01,0-.03,.02-.04,.02-.46-.23-.99-.29-1.58-.06-2.56,.96-3.89,4.57-4.24,7.13-.5,3.66,.53,7.29,1.54,10.76,.24,.81,1.44,.47,1.21-.35-1.35-4.64-2.95-10.42,.18-14.7,.28-.39,.71-.91,1.18-1.25-.95,1.26-1.37,2.92-.36,4.33,.53,.74,1.25,1.03,1.94,.98-2.84,1.6-4.86,5.43-2.39,8.41,1.46,1.75,3.96,2.68,6.07,3.07,2.18,.4,4.4,.27,6.52-.37,.07,1.55,.14,3.09,.21,4.64-2.24-1.16-5.14-1.27-7.51-1.3-3.17-.04-6.34,.47-9.37,1.46-.77,.25-.44,1.53,.33,1.28,2.8-.92,5.69-1.41,8.63-1.42,2.64,0,6.04,.05,8.27,1.73,.38,.29,.96-.1,.94-.57-.1-2.24-.2-4.47-.3-6.71ZM12.8,12.82c.19-.24,.41-.46,.64-.65,.05,.06,.09,.13,.13,.21,.46,.87,1.41,3.55-.21,3.68-1.78,.14-1.23-2.41-.57-3.25Zm1.74-1.29c.41-.17,.83-.3,1.26-.35,2.33-.26,4.56,1.52,4.93,3.99,.27,1.78-2.16,1.16-3.12,1.2-.99,.03-1.99,.17-2.94,.47,.46-.4,.79-1.01,.84-1.76,.07-1.05-.28-2.53-.97-3.55Z" fill="#231f20"/></g></svg>