<?xml version="1.0" encoding="UTF-8"?><svg xmlns="http://www.w3.org/2000/svg" viewBox="0 0 35 35"><g id="Example_glyph"><g id="Line_6-2"><text transform="translate(7.78 27.99)" fill="#bcbcbc" font-family="ArialMT, Arial" font-size="35"><tspan x="0" y="0">«</tspan></text></g></g><g id="Artwork_glyph"><path d="M21.53,21.97c-1.02-1.38-2.16-2.66-3.41-3.82,.84-.9,1.68-1.79,2.52-2.69,.55-.59-.33-1.47-.88-.88-.86,.92-1.73,1.85-2.59,2.77-1-.84-2.05-1.63-3.17-2.31-.69-.42-1.32,.66-.63,1.08,1.04,.63,2.01,1.36,2.95,2.14-1.08,1.15-2.15,2.3-3.23,3.46-.55,.59,.33,1.47,.88,.88,1.1-1.18,2.2-2.36,3.31-3.54,1.17,1.07,2.24,2.26,3.18,3.54,.2,.27,.54,.41,.86,.22,.27-.16,.43-.58,.22-.86Z" fill="#231f20"/></g></svg>