<?xml version="1.0" encoding="UTF-8"?><svg xmlns="http://www.w3.org/2000/svg" viewBox="0 0 35 35"><g id="Example_glyph"><g id="Line_9-2"><text transform="translate(7.29 27.99)" fill="#bcbcbc" font-family="ArialMT, Arial" font-size="35"><tspan x="0" y="0">¬</tspan></text></g></g><g id="Artwork_glyph"><path d="M21.2,17.21c-1.1-.01-2.2-.02-3.3-.03-.02-1.14-.09-2.28-.22-3.42-.04-.34-.26-.62-.62-.62-.31,0-.67,.29-.62,.62,.14,1.13,.2,2.27,.22,3.41-.95,0-1.89-.02-2.84-.03-.8,0-.81,1.24,0,1.25,.94,0,1.89,.02,2.83,.03-.02,1.13-.09,2.26-.23,3.39-.04,.34,.32,.62,.62,.62,.37,0,.58-.29,.62-.62,.14-1.12,.21-2.25,.23-3.37l3.3,.03c.8,0,.81-1.24,0-1.25Z" fill="#231f20"/></g></svg>