<?xml version="1.0" encoding="UTF-8"?><svg xmlns="http://www.w3.org/2000/svg" viewBox="0 0 35 35"><g id="Example_glyph"><g id="Line_9-2"><text transform="translate(11.68 27.99)" fill="#bcbcbc" font-family="ArialMT, Arial" font-size="35"><tspan x="0" y="0">-</tspan></text></g></g><g id="Artwork_glyph"><path d="M21.71,18.35c-2.78-.01-5.57-.02-8.35-.03-.78,0-.78,1.25,0,1.25,2.78,.01,5.57,.02,8.35,.03,.78,0,.78-1.25,0-1.25Z" fill="#231f20"/><path d="M19.2,14c-.1-.14-.21-.24-.37-.29-.12-.03-.27-.02-.4,.03-.53-.27-1.21-.24-1.7,.11-.3,.21-.51,.48-.63,.82-.1,.29-.1,.64-.01,.94,.16,.61,.68,1.13,1.31,1.23,.32,.05,.65,.04,.96-.09,.35-.14,.63-.35,.86-.66,.43-.6,.41-1.51-.02-2.1Zm-1.41,1.63s-.09,0-.14,0c-.04,0-.08-.02-.11-.03-.03-.01-.05-.03-.08-.05-.02-.02-.04-.04-.07-.07-.03-.04-.05-.08-.07-.12-.01-.04-.03-.09-.04-.13,0-.04,0-.07,0-.11,0-.03,.01-.06,.02-.08,0-.02,.02-.03,.03-.05,.02-.03,.05-.05,.07-.07,.03-.02,.06-.04,.09-.05,.05-.02,.1-.03,.15-.04,.03,0,.07,0,.1,0,.06,.01,.11,.02,.17,.04,.11,.05,.22,.06,.34,.05,0,.02,.01,.04,.02,.06,0,.06,0,.13,0,.19-.01,.06-.03,.11-.04,.16-.02,.03-.04,.07-.06,.1-.03,.03-.06,.06-.09,.09-.04,.02-.07,.04-.11,.06-.06,.02-.11,.03-.17,.05Z" fill="#231f20"/><path d="M18.76,21.3c-.11-.19-.29-.33-.52-.31-.07,0-.14,.03-.21,.04-.01,0-.02,0-.03,0-.29,.05-.56,.12-.83,.26-.32,.16-.58,.41-.78,.71-.43,.64-.39,1.51,.12,2.09,.49,.56,1.32,.63,1.96,.32,.61-.29,.97-1,.98-1.66,0-.57-.26-1.12-.7-1.45Zm-.6,1.7s-.04,.09-.07,.13c0,.01-.01,.02-.02,.03,0,0,0,0,0,0-.03,.03-.07,.06-.1,.09-.03,.02-.05,.03-.08,.05-.01,0-.02,0-.03,0-.03,0-.05,.01-.08,.02-.06,0-.11,0-.17,0,0,0-.01,0-.02,0-.01,0-.02,0-.03,0-.03-.02-.07-.03-.08-.04,0,0,0,0-.01-.01-.01-.01-.02-.02-.03-.03-.02-.03-.04-.06-.05-.09,0,0,0-.02,0-.02,0-.02,0-.04-.01-.06,0-.05,0-.11,0-.16,.01-.05,.02-.09,.03-.14,.01-.02,.03-.05,.04-.07,.02-.03,.04-.07,.06-.09,0,0,0,0,0,0,.04-.05,.1-.09,.15-.14,0,0,.02-.01,.02-.02,.03-.02,.06-.04,.09-.06,.03-.02,.06-.03,.1-.05,0,0,0,0,0,0,.05-.02,.11-.03,.17-.04,.01,.01,.02,.02,.03,.03,0,0,.01,.02,.02,.02,.02,.03,.04,.06,.06,.09,0,0,0,.02,.01,.02,.02,.06,.03,.11,.04,.17,0,.07,0,.14,0,.21,0,.02,0,.05-.01,.07,0,.03-.01,.05-.02,.08Z" fill="#231f20"/></g></svg>