<?xml version="1.0" encoding="UTF-8"?><svg xmlns="http://www.w3.org/2000/svg" viewBox="0 0 35 35"><g id="Example_glyph"><g id="Line_4-2"><text transform="translate(4.61 27.99)" fill="#bcbcbc" font-family="ArialMT, Arial" font-size="35"><tspan x="0" y="0">®</tspan></text></g></g><g id="Artwork_glyph"><path d="M26.04,3.67c-3.61-1.53-7.73-.6-10.46,2.15-.58,.58,.33,1.47,.9,.89,2.64-2.65,6.72-3.33,10-1.41,3.17,1.85,4.49,5.59,4.69,9.05,.11,1.91-.08,3.83-.32,5.73-.24,1.85-.35,4.18-1.69,5.64-1.38,1.51-3.39,1.19-4.41-.51-.34-.57-.49-1.18-.54-1.8,.42-1.45,.66-2.93,.73-4.44,.04-.72-1.06-.84-1.25-.17-.38,1.31-.73,2.88-.71,4.36-.21,.72-.46,1.43-.8,2.08-.59,1.14-1.62,1.71-2.82,.87-.92-.65-1.31-1.82-1.6-2.84-.51-1.81-.93-4.06-.37-5.91,.75-2.46,3.3-2.01,5.26-1.48,.32,.09,.71-.11,.79-.44,.51-2.16-.74-4.24-2.76-5.12-2.25-.98-4.94-.49-7.09,.51-.61,.28-1.18,.62-1.7,1-1.48-1.69-3.49-2.9-5.81-1.97-1.33,.53-2.26,1.82-2.04,3.27,.19,1.19,1.15,2.1,2.4,2.01,1.38-.1,2.36-1.45,1.71-2.75-.5-1-1.51-1.2-2.38-.86,.75-.79,2.08-.86,3.06-.5,.83,.31,1.53,.87,2.13,1.56-1.14,1.01-2.1,2.22-3.02,3.46-1.98,2.68-3.91,5.39-5.81,8.12-.42,.61,.49,1.25,1,.77,.2-.19,.4-.38,.6-.57,.6,1.72,1.66,3.46,3.75,3.35,.94-.05,1.59-.56,1.94-1.24,.62,.8,1.41,1.41,2.5,1.53,1.53,.16,2.79-.96,3.31-2.3,.67-1.71,.5-3.8,.24-5.57-.3-2.05-.96-4.05-1.94-5.88-.25-.47-.55-.96-.88-1.43,1.45-1.02,3.19-1.68,4.96-1.76,2.12-.09,4.76,1.09,4.66,3.42-2.24-.51-4.78-.53-5.87,1.87-1.13,2.49-.45,6.02,.53,8.46,.8,2,3.18,4.08,5.32,2.37,.54-.43,.9-1.03,1.19-1.67,.4,.9,1.08,1.66,2.17,2.16,3.16,1.46,5.47-1.85,6.03-4.5,1.37-6.55,1.89-16.34-5.61-19.52ZM6.47,13.87c-.44,.08-.79-.08-1.03-.47-.03-.05-.03-.1-.05-.16,.17-.02,.33-.1,.45-.27,1.26,.36,1.47,.66,.64,.9Zm6.68,2.52c.9,2.18,1.36,4.58,1.24,6.94-.07,1.35-.53,3.77-2.48,3.42-1.36-.24-2-1.74-2.51-2.83-.38-.73-1.44-.09-1.1,.64,.78,1.51-.89,2.35-2.07,1.53-.98-.67-1.28-1.99-1.57-3.06-.01-.05-.05-.08-.07-.12,.96-1.36,1.92-2.73,2.9-4.08,1.29-1.78,2.53-3.7,4.17-5.2,.02-.02,.04-.03,.05-.04,.6,.91,1.08,1.91,1.44,2.8Z" fill="#231f20"/></g></svg>