<?xml version="1.0" encoding="UTF-8"?><svg xmlns="http://www.w3.org/2000/svg" viewBox="0 0 35 35"><g id="Example_glyph"><g id="Line_9-2"><text transform="translate(7.85 27.99)" fill="#bcbcbc" font-family="ArialMT, Arial" font-size="35"><tspan x="0" y="0">¯</tspan></text></g></g><g id="Artwork_glyph"><path d="M32.34,16.73c-.18-1.61-.44-3.39-1.29-4.82,2.98-2.26,.49-6.41-2.08-7.89-3.37-1.93-7.61-1.16-10.53,1.24-1.24,1.02-1.91,2.54-.81,3.93,1.15,1.45,3.16,1.67,4.89,1.59,2.09-.09,4.52-.73,6.43,.45,.35,.22,.63,.51,.88,.83,.01,.02,.03,.04,.04,.06,1.11,1.47,1.34,3.78,1.46,5.43,.1,1.38,.07,2.77-.11,4.14-.17,1.31-.39,2.81-1.15,3.93-1.64,2.4-5.11,1.03-5.11-1.55,.04-.28,.08-.56,.09-.84,.03-.61-.93-.74-1.07-.14-.07,.31-.1,.61-.1,.91-.12,.73-.37,1.44-.89,2-.88,.95-2.22,.96-3.13,.06-1.22-1.21-1.49-3.65-1.45-5.28,.03-1.03,.32-2.11,1.21-2.73,.89-.62,1.58-.21,2.54-.15,1.14,.07,1.82-.81,1.63-1.9-.45-2.5-3.66-3.7-5.9-3.67-1.64,.02-3.16,.56-4.58,1.33-1.49-1.32-3.39-2.16-5.38-1.85-1.33,.2-2.66,1.13-2.81,2.55-.14,1.3,.84,2.63,2.22,2.52,1.49-.12,2.35-1.67,1.69-2.99-.23-.47-.59-.77-1-.95,.46-.08,.93-.09,1.32-.03,1.11,.17,2.11,.66,2.97,1.34-.89,.57-1.73,1.2-2.53,1.84-2.99,2.41-5.55,5.3-7.66,8.5-.33,.51,.47,1.15,.86,.66,.26-.34,.53-.67,.79-1.01,.41,1.79,1.76,3.41,3.69,3.61,1.4,.15,2.57-.66,3.11-1.8,.35,.6,.79,1.13,1.4,1.49,1.26,.74,2.77,.37,3.77-.62,1.23-1.22,1.39-3.05,1.27-4.69-.14-1.92-.55-3.84-1.4-5.58-.38-.76-.89-1.51-1.49-2.19,1.81-.92,3.78-1.39,5.8-.75,.78,.25,1.52,.67,2.09,1.26,.27,.28,.7,.75,.7,1.17,0,.87-.76,.59-1.36,.48-1.27-.23-2.45,.35-3.2,1.39-.94,1.3-.9,2.96-.69,4.48,.2,1.48,.48,3.08,1.53,4.22,1.01,1.1,2.55,1.47,3.89,.74,.68-.37,1.15-.9,1.49-1.52,.91,1.68,2.98,2.64,5.02,1.69,1.62-.76,2.29-2.49,2.64-4.14,.47-2.21,.57-4.5,.32-6.74Zm-1.95-5.68c-1.02-1.08-2.49-1.51-3.97-1.58-2.05-.1-4.14,.56-6.17,.08-1.2-.29-2.72-1.36-1.84-2.73,.57-.88,1.76-1.52,2.68-1.96,2.26-1.07,4.94-1.19,7.17,.02,1.86,1.01,4.58,4.38,2.13,6.17Zm-22.22,3.84c-.12,1.32-1.97,.97-1.99-.25,0-.15,.03-.29,.06-.42,.01-.01,.03-.01,.04-.03,.64-.61,1.98-.42,1.88,.7Zm6.49,2.3c1.04,2.13,1.78,5.3,1.07,7.63-.4,1.3-1.82,2.58-3.21,1.77-.93-.54-1.38-1.76-1.73-2.7-.24-.65-1.22-.4-1.05,.29,.44,1.79-1.37,3.11-3,2.34-1.42-.67-2.09-2.22-1.99-3.71,0,0,0,0,0,0,1.63-2.1,3.47-4.01,5.53-5.71,.87-.72,1.84-1.46,2.88-2.09,.61,.65,1.13,1.41,1.51,2.2Z" fill="#231f20"/></g></svg>