<?xml version="1.0" encoding="UTF-8"?><svg xmlns="http://www.w3.org/2000/svg" viewBox="0 0 35 35"><g id="Example_glyph"><g id="Line_6-2"><text transform="translate(10.51 27.99)" fill="#bcbcbc" font-family="ArialMT, Arial" font-size="35"><tspan x="0" y="0">°</tspan></text></g></g><g id="Artwork_glyph"><path d="M30.73,16.94c-.4-2.61-.82-5.55-2.54-7.54,1.05-.03,2.05-.6,2.54-1.65,.76-1.62-.36-3.19-1.87-3.86-2.17-.97-5.17-1.01-7.5-.91-1.95,.08-4.32,.73-4.98,2.79-.51,1.59,.44,3.39,2.2,3.55,1.08,.1,2.08-.38,3.09-.67,1.33-.38,2.74-.27,3.99,.34,2.54,1.25,3.11,4.01,3.56,6.52,.53,3.02,1.12,6.41-.41,9.26-.87,1.62-3.07,3.08-3.99,.63-.51-1.37-.8-2.86-1.18-4.28-.21-.79-1.31-.43-1.21,.33,.22,1.53,.53,3.98-1.24,4.8-1.82,.85-3.44-1.12-3.76-2.65-.33-1.54-.08-3.35,.39-4.85,.47-1.49,2.32-3.56,3.94-2.02,.3,.29,.97,.21,1.04-.27,.29-1.97-.48-3.94-2.16-5.11-1.99-1.39-4.61-.99-6.59,.2-.34,.21-.67,.44-.98,.68-.82-1-1.87-1.8-3.2-2.18-1.29-.37-2.79-.2-3.67,.82-.02,0-.04,0-.06,.01-.38,.11-.49,.46-.41,.76-.38,1-.07,2.15,.95,2.69,1.22,.64,2.8-.12,2.89-1.52,.06-.85-.37-1.4-.98-1.72,1.05,0,2.08,.56,2.84,1.23,.26,.23,.48,.48,.7,.73-1.39,1.32-2.55,2.93-3.73,4.39-2.14,2.63-4.28,5.26-6.41,7.89-.49,.6,.3,1.45,.88,.87,.13-.13,.26-.25,.38-.38,.55,1.36,1.94,2.38,3.52,2.11,.89-.15,1.6-.68,2.06-1.37,1.04,1.37,2.95,1.99,4.74,.86,1.26-.8,1.8-2.26,1.95-3.66,.22-2.04,.05-4.28-.27-6.3-.22-1.42-.7-2.91-1.47-4.2,1.15-.93,2.49-1.61,4.03-1.58,2.01,.04,3.61,1.66,3.8,3.55-1.5-.56-3.29,.14-4.22,1.51-1.41,2.06-1.82,5.65-.94,7.96,.72,1.9,2.86,3.5,4.99,2.76,1.06-.37,1.67-1.11,2.01-2,.19,.52,.43,1.01,.73,1.43,.96,1.31,2.69,1.41,3.99,.52,3.24-2.24,3.06-7.09,2.54-10.46Zm-.99-10.26c0,.68-.59,1.32-1.24,1.48-2,.49-2.79-1.92-2.18-3.34,.05-.12,.05-.23,.04-.34,.71,.1,1.4,.26,2.02,.55,.66,.3,1.37,.85,1.36,1.65Zm-9.18,1.03c-1.12,.37-2.9,.77-3.04-.9-.14-1.56,1.58-2.32,2.87-2.51,1.31-.2,2.69-.11,4,0,.26,.02,.53,.04,.79,.07-.4,1.02-.46,2.15-.05,3.12-1.53-.44-3.02-.26-4.57,.24ZM7.06,13.09c-.45-.4-.4-.82-.13-1.16,.46-.07,.9,.08,1.32,.47,.21,.78-.18,1.01-1.19,.7Zm6.96,4.46c.2,1.21,.25,2.44,.29,3.67,.04,1.12,.14,2.3-.19,3.39-.34,1.11-1.11,2.07-2.37,2.14-1.13,.06-2.03-.66-2.34-1.62,.07-.47,.04-.96-.1-1.43-.16-.53-1.12-.64-1.21,0-.07,.46-.04,.91,.05,1.33-.12,.74-.61,1.43-1.4,1.64-1.35,.37-2.5-.87-2.49-2.11,0-.03,0-.05-.01-.08,2.58-3.23,5.11-6.52,7.86-9.6,.24-.27,.49-.53,.75-.79,.6,1.06,.96,2.26,1.16,3.46Z" fill="#231f20"/></g></svg>