<?xml version="1.0" encoding="UTF-8"?><svg xmlns="http://www.w3.org/2000/svg" viewBox="0 0 35 35"><g id="Example_glyph"><g id="Line_6-2"><text transform="translate(7.91 27.99)" fill="#bcbcbc" font-family="ArialMT, Arial" font-size="35"><tspan x="0" y="0">±</tspan></text></g></g><g id="Artwork_glyph"><path d="M23.42,27.71c-.32,0-.51,.2-.57,.44-.1,.1-.18,.23-.19,.4-.25,2.76-2.44,5.07-5.25,5.24-1.14,.07-3.19-.21-3.92-1.24-1.11-1.58,2.68-3.37,3.65-3.75,.73-.29,.47-1.41-.33-1.21-2.42,.63-4.94,.67-7.36,.04-1.18-.31-2.36-.75-3.41-1.38-1.46-.87-2-2.1-1.23-3.7,.96-1.96,2.78-3.53,4.77-4.38,1.92-.83,4.28-.55,5.99-1.83,1.49-1.11,1.67-3.02,.61-4.5-1.06-1.48-2.97-2.04-4.71-1.98-1.78,.06-4,.62-5.01,2.23-.84,1.34-.63,3.23,.94,3.92,1.56,.69,3.23-.77,2.76-2.42-.31-1.09-1.3-1.47-2.23-1.3,.13-.12,.26-.23,.41-.32,1.33-.85,3.3-1.09,4.8-.69,1.71,.45,3.61,2.63,1.66,4.07-1.35,1-3.29,.82-4.84,1.34-2.55,.85-4.88,2.68-6.15,5.07-.6,1.13-.95,2.51-.34,3.71,.62,1.21,1.92,1.93,3.11,2.47,2.24,1.01,4.66,1.46,7.08,1.37-.82,.63-1.48,1.38-1.67,2.25-.43,2.02,2.25,3.12,3.8,3.39,4.04,.71,7.61-2.2,8.08-6.17,.3-.35,.15-1.05-.46-1.05ZM8.95,13.91c.22,.57-.41,1.12-.95,1-.41-.1-.65-.45-.74-.84,.1-.04,.2-.11,.28-.22,.32-.46,1.18-.55,1.41,.06Z" fill="#231f20"/><path d="M30.58,26.36c-3.76,.74-10.81-.08-10.24-5.39,.24-2.23,1.8-4.21,3.27-5.79,1.52-1.63,3.3-2.97,5.25-4.03,.66-.36,.15-1.31-.49-1.12-.08-.01-.16,0-.25,0-2.94,.48-5.88,.95-8.82,1.43-.34,.05-.52,.47-.44,.77,.09,.36,.44,.49,.77,.44l6.09-.99c-1.29,.94-2.49,2.01-3.54,3.23-1.65,1.91-3.24,4.27-3.12,6.91,.27,5.66,7.54,6.6,11.85,5.75,.79-.15,.45-1.36-.33-1.21Z" fill="#231f20"/></g></svg>