<?xml version="1.0" encoding="UTF-8"?><svg xmlns="http://www.w3.org/2000/svg" viewBox="0 0 35 35"><g id="Example_glyph"><g id="Line_8-2"><text transform="translate(11.68 27.99)" fill="#bcbcbc" font-family="ArialMT, Arial" font-size="35"><tspan x="0" y="0">´</tspan></text></g></g><g id="Artwork_glyph"><path d="M27.53,11.55c2.71-3.22-1.16-7-4.05-8.09-3.06-1.14-6.5-.35-8.85,1.86-1.22-.08-2.49-.16-3.64,.28-1.66,.63-2.98,2.6-1.83,4.32,1.4,2.09,3.59,.32,4.46-1.25,.44-.79,.96-1.5,1.55-2.12,1.11,.07,2.21,.16,3.3,.37,2.35,.45,4.63,1.52,5.93,3.67,1.27,2.1,1.75,4.82,1.67,7.26-.08,2.68-.99,5.41-2.89,7.3-1.06,1.05-2.52,1.9-4.04,1.58-1.02-.21-1.77-.96-1.95-1.89,.12-.44,.17-.93,.13-1.46-.06-.68-.89-.79-1.13-.16-.2,.53-.26,1.06-.2,1.57-.77,2.07-3.83,2.2-5.59,.87-1.97-1.48-3.11-4.26-2.54-6.74,.51-2.17,2.79-4.21,5.07-3.67,.89,.21,.42,.62,.13,1.09-.19,.31-.31,.65-.34,1.01-.05,.81,.34,1.62,.87,2.19,2.49,2.68,7.44,.37,6.24-3.44-.49-1.55-2.07-2.7-3.67-2.36-.69,.15-1.28,.61-1.64,1.2-.53-.92-1.94-1.02-2.84-.9-2.77,.35-4.84,2.8-5.09,5.6-.27,3.04,1.48,6.29,4.17,7.61,1.95,.96,4.46,.51,5.74-1.05,.51,.82,1.35,1.44,2.34,1.66,2.31,.52,4.48-.94,5.89-2.71,3.23-4.07,3.34-10.76,.68-15.18-1.29-2.14-3.43-3.42-5.77-4.03-1.05-.27-2.13-.42-3.22-.51,1.27-.91,2.77-1.42,4.48-1.34,1.59,.08,3.15,.69,4.4,1.72,1.33,1.09,2.83,3.2,1.42,4.87-.48,.57,.33,1.42,.82,.84Zm-11.98,4.49c.31-.34,.5-.26,.82-.02l.32,.26c-.08,.67-.34,.74-.81,.21-.22-.13-.39-.23-.48-.34,.05-.03,.1-.06,.15-.11Zm-1.3,.71c.06,.21,.16,.42,.3,.62,.98,1.36,3.03,.86,3.26-.83,.1-.73-.21-1.28-.67-1.6,.82,.19,1.5,1,1.67,1.82,.47,2.33-2.31,3.51-3.97,2.34-.85-.6-1.11-1.48-.59-2.35Zm-2.22-7.72c-.55,.64-1.72,.97-2.07-.08-.27-.8,.25-1.56,.89-1.97,.82-.52,1.81-.55,2.76-.51-.59,.8-.94,1.81-1.59,2.55Z" fill="#231f20"/></g></svg>