<?xml version="1.0" encoding="UTF-8"?><svg xmlns="http://www.w3.org/2000/svg" viewBox="0 0 35 35"><g id="Example_glyph"><g id="Line_9-2"><text transform="translate(2.92 27.99)" fill="#bcbcbc" font-family="ArialMT, Arial" font-size="35"><tspan x="0" y="0">¾</tspan></text></g></g><g id="Artwork_glyph"><path d="M23.26,16.39c-.8-1.72-2.08-3.39-3.96-4.02-1.77-.59-3.55-.19-5.25,.43,.77-1.06,1.62-2.06,2.48-3.04,1.64-1.88,3.29-3.75,4.94-5.63,.52-.6-.36-1.47-.88-.87-1.69,1.93-3.39,3.85-5.07,5.78-.73,.83-1.45,1.68-2.13,2.56,.05-1.41,.07-2.82,.03-4.23,0-.08,0-.16,0-.25,.51,.21,.96,.52,.9,1.12-.07,.79,1.18,.78,1.25,0,.13-1.33-1.07-2.06-2.19-2.43-.02-.39-.05-.79-.11-1.17-.12-.74-.54-1.47-1.33-1.67-.69-.17-1.34,.23-1.63,.83-.32,.65-.19,1.38,.26,1.93,.41,.5,.98,.77,1.57,.98,.02,.6,.04,1.2,.05,1.79,.02,1.58-.02,3.16-.11,4.74,0,.09,.01,.16,.03,.22-.18,.29-.37,.58-.53,.89-1.89,3.59-2.18,8.07,.74,11.23,2.46,2.66,6.73,3.27,9.66,.99,3.18-2.48,2.81-6.9,1.29-10.2ZM11.46,4.88c-.15-.25-.04-.96,.34-.6,.25,.24,.3,.68,.31,1.12-.27-.12-.51-.28-.66-.52Zm10.15,20.39c-1.53,1.47-3.8,1.87-5.79,1.18-4.92-1.72-5.25-7.5-3.16-11.46,.08-.15,.18-.3,.27-.45,.05,0,.11-.01,.17-.03,2.24-.95,4.97-1.98,7.12-.24,1.51,1.22,2.35,3.25,2.75,5.08,.45,2.06,.26,4.37-1.35,5.92Z" fill="#231f20"/></g></svg>