<?xml version="1.0" encoding="UTF-8"?><svg xmlns="http://www.w3.org/2000/svg" viewBox="0 0 35 35"><g id="Example_glyph"><g id="Line_6-2"><text transform="translate(6.82 27.99)" fill="#bcbcbc" font-family="ArialMT, Arial" font-size="35"><tspan x="0" y="0">¿</tspan></text></g></g><g id="Artwork_glyph"><path d="M28.99,13.95c-.24-1.97-.56-4.09-1.24-5.96-.65-1.78-1.84-2.88-3.44-3.83-1.3-.77-2.87-1.66-4.39-.96-1.6,.74-1.58,2.72-1.55,4.23,.03,1.92,.38,3.84,1.01,5.66,1.26,3.64,3.59,6.79,6.69,9.08-2.26,3.25-6.36,5.22-10.35,4.5-2.08-.37-3.79-1.61-4.68-3.53-.85-1.83-.85-4.28,.56-5.85,1.62-1.81,3.92-.08,5.68-1.38,1.07-.78,1.28-2.34,.76-3.5-1.01-2.25-4.66-3.16-6.78-1.86-.1,0-.2-.01-.3,0-2.03,.19-3.31,1.94-4.03,3.68-1.71,4.12-1.22,8.92,1.08,12.71,.4,.65,1.43,.06,1.03-.6-2.19-3.59-2.65-8.27-.81-12.12,.39-.81,.93-1.59,1.7-2.06-.45,1.29,.16,2.85,1.58,3.19,.33,.08,.64,.07,.94,0-1.02,.35-1.85,1.09-2.41,2.07-1.51,2.66-.74,6.18,1.33,8.32,2.45,2.54,6.5,2.71,9.69,1.63,3.48-1.18,6.21-3.9,7.42-7.36,.68-1.95,.76-4.01,.51-6.05Zm-18.04-.83c-.04-.54,.29-1.02,.7-1.36,.14,.03,.28,.07,.42,.14,.69,.34,1.26,1.36,.53,1.98-.64,.55-1.58,.11-1.65-.76Zm3.18,.11c.04-.85-.38-1.57-1.01-2.04,.88-.09,1.83,.12,2.56,.5,.93,.48,1.76,1.52,1.34,2.62-.5,1.34-2.15,.83-3.24,.82-.4,0-.79,.05-1.15,.16,.83-.3,1.45-1.12,1.49-2.05Zm12.83,7.38c-.08,.18-.18,.36-.27,.53-3.19-2.36-5.49-5.77-6.53-9.59-.51-1.88-.94-4.3-.47-6.23,.69-2.83,5.02,.22,6.03,1.41,1.41,1.67,1.65,4.38,1.98,6.46,.4,2.53,.36,5.06-.73,7.42Z" fill="#231f20"/></g></svg>