<?xml version="1.0" encoding="UTF-8"?><svg xmlns="http://www.w3.org/2000/svg" viewBox="0 0 35 35"><g id="Example_glyph"><g id="Line_5-2"><text transform="translate(5.84 27.99)" fill="#bcbcbc" font-family="ArialMT, Arial" font-size="35"><tspan x="0" y="0">À</tspan></text></g></g><g id="Artwork_glyph"><path d="M21.9,9.5c-1.26-.67-2.85-.97-4.11-.24-.07,0-.14,0-.22,.02-1.53,.44-3.49,.03-4.05-1.65-.65-1.97,1.21-2.93,2.85-3.27,3.64-.77,7.32,1.07,9.02,4.32,.37,.71,1.45,.08,1.08-.63-1.67-3.21-5.1-5.25-8.75-5.11-1.68,.06-3.82,.51-4.91,1.9-.96,1.23-.83,3.02,.08,4.24,.84,1.13,2.22,1.62,3.58,1.6-.49,1-.53,2.2-.24,3.29,1.04,3.92,5.01,6.41,8.96,6.12-.04,.35-.09,.7-.16,1.04-.24,1.29-.55,2.66-1.22,3.8-.71,1.21-2.31,2.39-3.74,1.55-1.44-.85-1.42-2.86-1.42-4.32,0-.71-1.03-.84-1.23-.17-.53,1.84-1.38,4.59-3.76,4.59-2.04,0-3.98-2.02-4.94-3.65-1.01-1.73-1.31-3.88-.53-5.76,.81-1.94,2.73-3.2,4.85-3.07,.8,.05,.8-1.2,0-1.25-2.57-.16-4.95,1.42-5.96,3.76-1.01,2.34-.63,5.06,.71,7.19,1.25,1.99,3.63,4.19,6.16,4.01,1.83-.13,2.95-1.38,3.7-2.88,.19,.75,.5,1.45,1.06,2.04,1.09,1.13,2.74,1.26,4.11,.58,1.52-.75,2.36-2.29,2.85-3.84,.6-1.87,.93-3.9,.86-5.86-.12-3.3-1.61-6.76-4.64-8.38Zm-3.53,6.15c-.76-1.14-1.39-2.68-.94-4.05,.56-1.69,2.32-1.8,3.72-1.09,2.24,1.13,3.57,3.51,4,5.91,.14,.8,.18,1.61,.15,2.42-2.72,.23-5.38-.9-6.93-3.2Z" fill="#231f20"/></g></svg>