<?xml version="1.0" encoding="UTF-8"?><svg xmlns="http://www.w3.org/2000/svg" viewBox="0 0 35 35"><g id="Example_glyph"><g id="Line_5-2"><text transform="translate(5.84 27.99)" fill="#bcbcbc" font-family="ArialMT, Arial" font-size="35"><tspan x="0" y="0">Á</tspan></text></g></g><g id="Artwork_glyph"><path d="M27.32,19.18c-.04-1.82-.36-3.64-.95-5.36-.5-1.48-1.17-3.12-2.57-4,.12-.08,.25-.16,.36-.25,1.1-.9,1.3-2.36,.78-3.62-1.23-2.92-5.12-3.2-7.89-2.94-2.86,.27-6.18,2.05-5.93,5.33,.12,1.57,1.22,2.76,2.68,3.33,1.62,.63,3.35,.39,5.01,.04-.26,.76-.31,1.6-.16,2.42,.34,1.86,1.65,3.45,2.9,4.83,1.18,1.3,2.67,2.35,4.48,2.4-.13,.88-.36,1.72-.74,2.5-.67,1.36-1.95,2.54-3.57,2.53-1.26,0-2.35-.84-2.52-1.97,.08-.36,.12-.74,.1-1.14-.04-.67-.98-.81-1.19-.16-.14,.45-.18,.87-.16,1.27-.54,1.75-2.58,2.68-4.47,2.32-2.2-.41-3.83-2.18-4.36-4.27-.5-1.94-.09-4.19,1.25-5.74,1.4-1.62,3.79-2.23,5.72-1.15,.68,.38,1.29-.65,.61-1.03-2.38-1.34-5.43-.69-7.2,1.33-1.76,2.02-2.26,4.97-1.39,7.47,.87,2.52,3.15,4.48,5.91,4.65,1.78,.11,3.52-.69,4.49-2.03,.98,1.35,3.01,2,4.77,1.37,3.31-1.19,4.09-5.08,4.03-8.14Zm-3.33-12.18c.16,1.03-.59,2-1.66,2.1-.99,.09-2.06-.7-2.18-1.68-.14-1.09,.75-2.05,1.8-2.22,.23-.04,.35-.17,.4-.33,.83,.45,1.5,1.19,1.64,2.14Zm-11.26,2.43c-1.35-2,.63-4.19,2.51-4.84,1.21-.42,2.5-.47,3.77-.43,.57,.02,1.16,.07,1.73,.17-.9,.45-1.58,1.3-1.77,2.28-.25,1.24,.36,2.44,1.4,3.13-.14,.09-.28,.18-.42,.29-.15,.13-.29,.26-.42,.4-.11-.04-.23-.07-.37-.04-2.03,.46-5.05,1.09-6.44-.97Zm9.48,8.46c-1-1.14-2.05-2.42-2.36-3.93-.32-1.55,.59-3.93,2.61-3.44,1.65,.4,2.32,2.38,2.78,3.77,.58,1.76,.99,3.87,.91,5.88-1.65-.03-2.9-1.1-3.93-2.28Z" fill="#231f20"/></g></svg>