<?xml version="1.0" encoding="UTF-8"?><svg xmlns="http://www.w3.org/2000/svg" viewBox="0 0 35 35"><g id="Example_glyph"><g id="Line_5-2"><text transform="translate(5.84 27.99)" fill="#bcbcbc" font-family="ArialMT, Arial" font-size="35"><tspan x="0" y="0">Â</tspan></text></g></g><g id="Artwork_glyph"><path d="M26.14,5.09c.56-.52-.26-1.29-.83-.82-.11,.09-.21,.19-.32,.28-.19-1.17-1.55-1.65-2.66-1.54-1.51,.14-3.01,.83-4.19,1.75-1.25,.97-2.47,2.41-2.79,3.98-.27,1.3,.35,2.71,1.77,2.96,.08,.02,.16,.01,.25,.02-.03,.03-.06,.05-.09,.08-.22,.23-.41,.5-.57,.79-.13-.22-.28-.42-.46-.6-1.18-1.17-3.22-1.55-4.55-.41,0,0,0,0,0,0-.03,0-.06,0-.09,0-.35,.06-.46,.34-.41,.61-.59,1.01-.46,2.4,.63,3.07,1.16,.71,2.81,.07,2.98-1.31,.11-.86-.25-1.48-.82-1.89,.76,.12,1.51,.62,1.82,1.3,.57,1.25-.52,1.76-1.57,1.95-2.36,.44-4.54,1.5-5.55,3.79-2.39,5.4,4,8.77,8.58,8.84,4.98,.07,10.31-4.24,8.4-9.54-.37-1.04-1.07-1.96-1.95-2.63,.84-1.89-.07-4.37-2.31-5.08-.39-.12-.8-.17-1.21-.17,.27-.23,.53-.47,.77-.69,1.72-1.58,3.43-3.16,5.15-4.74ZM12.07,13.78c-.16-.43-.04-.81,.21-1.11,.64-.01,1.41,.23,1.38,.99-.05,1.11-1.32,.85-1.59,.13ZM23.26,4.2c1.67,.79-.46,1.59-.95,1.64-.69,.07-1.83,.06-1.74-1.01,0-.07,0-.12-.02-.17,.76-.33,2.03-.78,2.71-.46Zm-6.75,5.6c-.19-.58,.09-1.27,.36-1.78,.58-1.12,1.49-2.05,2.55-2.74,.16,1.23,1.44,1.8,2.74,1.76-.61,.57-1.23,1.14-1.82,1.73-.31,.31-.63,.63-.95,.95-.27,.23-.55,.45-.86,.6-.72,.36-1.7,.42-2.01-.53Zm8.33,11.2c-.47,4.98-6.26,6.54-10.43,5.34-1.88-.54-4.01-1.61-4.75-3.52-.87-2.22,.43-4.59,2.44-5.65,1.37-.73,3.46-.44,4.51-1.66,.08-.1,.15-.2,.21-.31,.05,.05,.08,.11,.14,.16,.06,.05,.12,.09,.18,.14,.21,.64,.6,1.23,1.2,1.67,1.17,.86,2.79,.97,4.04,.19,.27-.17,.5-.37,.71-.59,1.26,1,1.92,2.6,1.76,4.25Zm-6.1-5.07c1.04,.01,2.18-.25,3.13,.12,.07,.03,.13,.06,.19,.09-.37,.34-.86,.56-1.46,.58-.84,.03-1.46-.29-1.86-.79Zm3.46-3.41c.69,.73,.82,1.77,.51,2.63-.6-.29-1.25-.49-1.93-.54-.61-.05-1.19,.09-1.79,.12-.32,.02-.58-.04-.79-.13-.07-.59,.02-1.23,.29-1.8,.13-.28,.3-.56,.48-.82,1.05-.51,2.36-.37,3.22,.54Z" fill="#231f20"/></g></svg>