<?xml version="1.0" encoding="UTF-8"?><svg xmlns="http://www.w3.org/2000/svg" viewBox="0 0 35 35"><g id="Example_glyph"><g id="Line_5-2"><text transform="translate(5.84 27.99)" fill="#bcbcbc" font-family="ArialMT, Arial" font-size="35"><tspan x="0" y="0">Ä</tspan></text></g></g><g id="Artwork_glyph"><path d="M26,11.25c-2.03-3.19-5.97-5.39-9.94-5.78,.05-.05,.1-.1,.15-.15,2.69-2.33,6.86-.93,7.68,2.32,.17,.69,1.29,.4,1.12-.29-.79-3.13-4.23-5.07-7.51-4.01-1.22,.4-2.14,1.16-2.92,2.07-.27,0-.54,.02-.8,.04-2.1,.19-4.9,1.11-5.95,3.01-1.05,1.9,1.3,2.89,2.93,2.33,2.13-.73,3.09-2.67,4.37-4.29,2.27,.11,4.59,.89,6.34,1.94,3.94,2.38,5.36,6.29,4.63,10.56-.38,2.21-1.05,4.59-2.77,6.21-.89,.84-2.04,1.46-3.3,1.57-1.4,.13-3.34-.61-2.89-2.2,.79-.88,1.5-1.81,1.97-2.81,.77-1.64,.48-3.53-.69-4.94-1.22-1.47-3.23-2.12-5.16-1.87-4.44,.57-6.45,5.22-5.16,8.95,.3,.87,.75,1.74,1.53,2.31,.86,.63,1.98,.77,3.04,.74,.2,0,.4-.03,.6-.05-1.39,1.31-2.87,2.54-4.4,3.68-.59,.44,.24,1.21,.82,.78,1.87-1.39,3.64-2.91,5.27-4.54,.34-.34,.7-.7,1.06-1.06,.39,1.14,1.65,1.96,3.01,2.12,2.28,.26,4.47-.96,5.82-2.63,1.58-1.95,2.23-4.5,2.52-6.9,.3-2.45,0-4.95-1.36-7.09Zm-14-2.58c-.37,.37-.79,.7-1.27,.93-.32,.15-.7,.34-1.07,.26-.4,.12-.59-.04-.56-.5-.3-.36-.25-.65,.16-.89,1.2-1.21,2.78-1.8,4.45-1.96-.54,.74-1.04,1.5-1.7,2.15Zm2.65,7.35c1.6,.18,2.97,1.17,3.51,2.6,.58,1.55-.1,2.94-1.09,4.18-.09,.11-.19,.21-.28,.32-.32-1.73-1.85-3.47-3.39-4.17-1.27-.58-2.78-.58-3.96,.01,.92-1.86,2.83-3.22,5.21-2.95Zm1.03,8.11c-.04,.19-.12,.37-.21,.52-.16,.18-.32,.35-.49,.53-.91,.69-2.46,.78-3.49,.61-1.91-.33-2.55-2.36-2.64-3.96-.01-.23,0-.45,0-.68,.01-.02,.03-.03,.05-.06,.75-1.61,2.76-1.84,4.27-1.01,1.26,.7,2.84,2.57,2.52,4.05Z" fill="#231f20"/></g></svg>