<?xml version="1.0" encoding="UTF-8"?><svg xmlns="http://www.w3.org/2000/svg" viewBox="0 0 35 35"><g id="Example_glyph"><g id="Line_5-2"><text transform="translate(5.84 27.99)" fill="#bcbcbc" font-family="ArialMT, Arial" font-size="35"><tspan x="0" y="0">Å</tspan></text></g></g><g id="Artwork_glyph"><path d="M27.63,16.99c-.44-2.24-1.39-4.35-2.9-5.88,.01,0,.03-.01,.04-.02l.09-.11c.04-.07,.05-.14,.06-.21,.04-.03,.08-.05,.11-.1,.95-1.61,.69-3.59-.49-5.02-1.29-1.56-3.29-2.23-5.24-2.48-3.42-.44-9.61-.65-10.7,3.74-1.22,4.94,7.49,3.01,9.8,2.98,2.56-.03,4.88,.68,6.34,2.89,1.38,2.1,2.27,4.89,1.9,7.41-.38,2.58-2.08,4.84-4.45,5.92-1.96,.89-4.94,1.11-6.63-.42,1.15-.93,2.24-1.92,3.22-2.99,1.34-1.46,2.41-3.72,1.17-5.57-1.2-1.78-3.66-2.05-5.63-2.11-2.09-.06-4.11,.57-5.56,2.13-1.42,1.53-2,3.65-1.61,5.69,.36,1.91,1.67,3.72,3.71,3.95,.48,.05,.95,.02,1.4-.1-1.68,1.16-3.43,2.21-5.26,3.13-.64,.32-.08,1.29,.57,.97,2.43-1.23,4.87-2.69,7.1-4.39,2.18,2.16,6.22,1.78,8.73,.35,3.45-1.96,5-5.94,4.24-9.75Zm-14.77-7.85c-.92,0-2.54,.07-3.09-.87-.76-1.3,.89-2.8,1.89-3.35,2.33-1.28,5.76-1.02,8.28-.53,2.52,.49,5.83,2.77,4.11,5.7-.02,.03-.02,.06-.03,.09-.01,.01-.03,.01-.05,.03-.03,.04-.06,.08-.09,.11,0,.01,0,.02,0,.04-1.02-.78-2.23-1.32-3.67-1.5-2.46-.31-4.89,.27-7.35,.28Zm1.27,14.47c-.59,1.6-2.46,2.61-4.07,1.8-1.51-.76-2.04-2.76-1.91-4.32,.04-.45,.14-.89,.29-1.31,.11-.04,.21-.11,.28-.24,.9-1.65,3-1.28,4.2-.2,1.18,1.06,1.77,2.76,1.21,4.28Zm.68,1.13c.16-.26,.3-.53,.41-.83,.73-2.08-.19-4.41-1.91-5.71-.9-.68-2.07-1-3.14-.86,.13-.1,.26-.21,.4-.3,1.48-.97,3.22-1.01,4.93-.83,1.64,.17,3.82,.71,3.86,2.73,.04,1.84-1.57,3.21-2.81,4.33-.56,.51-1.15,.99-1.73,1.46,0,0,0,0,0,0Z" fill="#231f20"/></g></svg>