<?xml version="1.0" encoding="UTF-8"?><svg xmlns="http://www.w3.org/2000/svg" viewBox="0 0 35 35"><g id="Example_glyph"><g id="Line_5-2"><text transform="translate(.01 27.99)" fill="#bcbcbc" font-family="ArialMT, Arial" font-size="35"><tspan x="0" y="0">Æ</tspan></text></g></g><g id="Artwork_glyph"><path d="M27.96,32.6c-.21-.94-.98-1.48-1.83-1.73,.08-1.01,.18-2.01,.26-3.01,.03-.39-.43-.75-.79-.61-4,1.53-9.3,1.85-13.25-.05-4.02-1.93-5.8-6.58-3.67-10.67,2.05-3.95,6.52-5.65,10.73-5.39,2.15,.13,4.58,.62,5.91,2.51,1.22,1.74,1.32,4.02,.45,5.94-.9,1.98-3.49,4.62-5.87,3.47-1.27-.62-1.88-2.18-.79-3.29,.26-.26,.55-.45,.87-.59,1.14-.03,2.29-.05,3.43-.07,.68-.01,.88-1.11,.17-1.24-1.15-.22-2.54-.29-3.73,.06-2.4,.05-4.8,.1-7.21,.16-.8,.02-.81,1.29,0,1.27l5.25-.11c-.21,.3-.39,.64-.51,1.05-.64,2.21,1.41,4.21,3.5,4.29,2.61,.09,4.92-2.07,5.97-4.33,1.06-2.26,1.03-4.95-.35-7.07-1.46-2.25-3.95-2.98-6.46-3.23-2.88-.29-5.92,.22-8.42,1.75-4.44,2.71-6.84,8.85-3.64,13.48,3.57,5.16,11.53,5.43,17.07,3.63-.08,.63-.17,1.27-.24,1.92-2.79-.1-5.46,1.28-8.03,2.21-2.87,1.03-6.89,1.68-8.78-1.43-.42-.69-1.5-.06-1.08,.64,2.2,3.63,6.74,3.25,10.2,2.01,2.25-.81,4.45-1.94,6.86-2.15,.25-.02,.51-.03,.76-.04,0,.35,.01,.7,.06,1.04,.13,.94,.83,1.88,1.88,1.69,.92-.17,1.48-1.17,1.28-2.07Z" fill="#231f20"/></g></svg>