<?xml version="1.0" encoding="UTF-8"?><svg xmlns="http://www.w3.org/2000/svg" viewBox="0 0 35 35"><g id="Example_glyph"><g id="Line_5-2"><text transform="translate(4.87 27.99)" fill="#bcbcbc" font-family="ArialMT, Arial" font-size="35"><tspan x="0" y="0">Ç</tspan></text><text transform="translate(-34.99 27.99)" fill="#bcbcbc" font-family="ArialMT, Arial" font-size="35"><tspan x="0" y="0">Æ</tspan></text></g></g><g id="Artwork_glyph"><path d="M26.97,14.73c-.38-1.77-1.26-3.5-2.77-4.61-.3-.22-.63-.4-.96-.55,.39-.29,.73-.67,.95-1.16,.86-1.92-.72-3.5-2.42-4.25-2.35-1.04-5.22-1.53-7.75-.93-2.1,.5-4.08,1.85-4.95,3.81-.86,1.96,.03,3.75,2.21,4.14,2.91,.53,5.7-.93,8.58-1.05,3.26-.14,5.32,1.94,5.94,4.91,.64,3.04,.52,6.94-1.42,9.54-1.77,2.37-6.13,3.31-7.57,.41,.49-.71,.95-1.43,1.36-2.19,.92-1.71,1.46-3.78,.17-5.46-1.13-1.47-3.07-2.01-4.89-1.64-2,.41-3.58,1.85-4.57,3.52-1,1.68-1.69,3.85-.84,5.72,.73,1.6,2.5,2.69,4.31,2.54,.35-.03,.69-.11,1.02-.22-1.27,1.34-2.67,2.57-4.19,3.64-.63,.44-.02,1.46,.62,1.02,2.35-1.63,4.49-3.63,6.24-5.88,1.73,2.43,5.62,2.52,8.04,.57,3.4-2.74,3.72-7.98,2.89-11.88Zm-8.93-5.57c-1.14,.2-2.26,.52-3.4,.72-1.2,.22-3.01,.53-4.11-.19-1.42-.94-.1-2.93,.79-3.76,.88-.82,2-1.35,3.19-1.61,1.31-.28,2.66-.2,3.97,.07-.84,1.5-.85,3.4,.31,4.66-.25,.03-.5,.07-.75,.11Zm3.26-.14c-.08-.01-.17-.02-.25-.02-.14-.02-.27-.05-.41-.09-1.72-.6-1.85-2.52-1.12-3.88h0c.17-.05,.28-.16,.35-.3,1.02,.28,2.09,.67,2.79,1.39,1.18,1.22,.15,2.93-1.35,2.91Zm-6.37,15.28c-.46,1.4-2.06,2.27-3.54,1.96-1.49-.32-2.49-1.64-2.51-3.09,0-.27,.02-.55,.06-.83,.11-.04,.22-.1,.3-.23,.89-1.32,2.62-1.97,4.15-1.27,1.32,.6,1.98,2.11,1.54,3.46Zm1.39-.77s-.03,.04-.05,.06c.06-1.69-.94-3.29-2.62-3.92-1.35-.52-2.76-.3-3.91,.39,1.02-1.83,2.84-3.32,4.9-3.3,1.47,.02,2.96,.95,3.22,2.42,.28,1.54-.74,3.1-1.54,4.35Z" fill="#231f20"/></g></svg>