<?xml version="1.0" encoding="UTF-8"?><svg xmlns="http://www.w3.org/2000/svg" viewBox="0 0 35 35"><g id="Example_glyph"><g id="Line_5-2"><text transform="translate(5.84 27.99)" fill="#bcbcbc" font-family="ArialMT, Arial" font-size="35"><tspan x="0" y="0">È</tspan></text></g></g><g id="Artwork_glyph"><path d="M27.04,28.29c-.17-.77-1.35-.45-1.18,.33,.68,3.04-4.09,5.34-6.56,5.15-1.4-.1-2.78-.92-3.11-2.37-.19-.84,.12-1.64,.68-2.11,.75-.08,1.48-.19,2.19-.3,.66-.11,.5-1,0-1.19-.92-.35-1.91-.17-2.7,.33-1.92,.19-3.89,.1-5.49-1.04-1.61-1.14-2.43-3.24-2.27-5.18,.18-2.19,1.71-4.05,3.64-5,1.85-.91,4.08-.32,5.84-1.37,1.21-.71,1.67-2.04,1.22-3.28,1.56-.4,2.61-1.91,2.56-3.55-.06-1.99-1.47-3.97-3.09-5.04-1.76-1.15-4.15-.66-6.06-.14-1.89,.52-3.49,1.69-4.08,3.63-.63,2.06,.22,4.24,1.92,5.48-.14,1.24,.65,2.53,1.98,2.6,1.57,.08,2.7-1.65,1.92-3.05-.27-.48-.67-.76-1.11-.9,.46-.12,.95-.16,1.38-.16,.97,0,2.14,.13,2.9,.8,1.09,.98,.62,2.29-.63,2.77-.93,.35-1.99,.25-2.96,.39-.84,.12-1.65,.38-2.42,.76-1.31,.65-2.45,1.68-3.22,2.92-1.56,2.52-1.32,5.88,.55,8.18,1.61,1.97,3.91,2.48,6.26,2.45-.09,.18-.16,.37-.22,.56-.5,1.9,.71,3.83,2.42,4.59,2.12,.94,4.45,.31,6.37-.82,1.97-1.16,3.81-2.94,3.25-5.44ZM13.39,13.61c-.53,.93-1.35,.32-1.54-.45,.03-.04,.06-.06,.08-.11,.48-1.09,2.08-.52,1.47,.56Zm1.16-3.71c-1.29,.02-2.76,.46-3.52,1.56-1.32-1.12-1.77-3.01-.95-4.59,.93-1.8,2.96-2.23,4.78-2.52,1.03-.17,2.11-.29,3.06,.24,.86,.48,1.59,1.32,2.09,2.16,.47,.79,.8,1.75,.57,2.67-.2,.8-.81,1.6-1.67,1.71-.1,.01-.18,.04-.26,.08-1.02-1.07-2.68-1.33-4.1-1.31Z" fill="#231f20"/></g></svg>