<?xml version="1.0" encoding="UTF-8"?><svg xmlns="http://www.w3.org/2000/svg" viewBox="0 0 35 35"><g id="Example_glyph"><g id="Line_5-2"><text transform="translate(5.84 27.99)" fill="#bcbcbc" font-family="ArialMT, Arial" font-size="35"><tspan x="0" y="0">É</tspan></text></g></g><g id="Artwork_glyph"><path d="M28.6,7.14c-2.24-3.42-6.56-5.04-10.44-3.57-1,.38-1.89,.93-2.67,1.6-1.42-.02-2.84,.22-4.06,.81-1.01,.49-1.81,1.4-1.8,2.57,.02,.98,.68,1.82,1.67,1.96,1.42,.21,2.43-.86,3.12-1.95,.48-.76,.98-1.45,1.56-2.05,4.2,.21,8.03,2.91,9.39,7,1.56,4.7-.35,10.21-4.98,12.34-2.41,1.11-5.77,1.26-7.84-.65-2.41-2.21-1.33-6.05,1.71-6.95,.04-.01,.06-.03,.09-.05,.46-.13,.92-.26,1.38-.37,.51-.12,1.12-.18,1.52-.57,.78-.76,.29-1.92-.34-2.6-1.17-1.26-3.47-1.87-4.95-.78-.36,.1-.7,.29-.98,.56-.33,.33-.19,.75,.1,.97-.03,.37,.02,.75,.2,1.09,.29,.54,.83,.84,1.39,.86-.4,.13-.81,.25-1.2,.39-1.65,.58-3.27,1.27-4.83,2.05-.75,.37-.09,1.5,.66,1.13,1.11-.55,2.25-1.05,3.4-1.5-.63,1.01-.93,2.22-.75,3.51,.35,2.56,2.5,4.31,4.94,4.84,5.88,1.27,11.39-3.47,12.22-9.16,.81-5.59-2.5-11.03-7.86-12.81-.56-.19-1.17-.34-1.79-.45,.13-.08,.24-.17,.38-.24,3.41-1.73,7.54-.49,9.62,2.67,.46,.7,1.59,.05,1.13-.66Zm-14.5,7.51c.06,0,.13,0,.18,.02,.6,.11,1.16,.39,1.6,.82,.16,.16,.45,.45,.45,.71,0,.25-.28,.23-.51,.28-.71,.17-1.42,.36-2.12,.56,.77-.56,.9-1.61,.4-2.39Zm-1.62,1.32c-.23-.25-.13-.61,.06-.86,.25,0,.47,.11,.56,.42,.1,.34-.33,.76-.62,.44Zm.3-7.34c-.52,.54-1.88,1.11-1.81-.29,.06-1.26,2.08-1.63,3.22-1.76-.18,.24-.37,.47-.54,.73-.28,.44-.51,.94-.87,1.32Z" fill="#231f20"/></g></svg>