<?xml version="1.0" encoding="UTF-8"?><svg xmlns="http://www.w3.org/2000/svg" viewBox="0 0 35 35"><g id="Example_glyph"><g id="Line_5-2"><text transform="translate(5.84 27.99)" fill="#bcbcbc" font-family="ArialMT, Arial" font-size="35"><tspan x="0" y="0">Ê</tspan></text></g></g><g id="Artwork_glyph"><path d="M23.8,15.67c-.1-.08-.21-.14-.31-.22,1.24-1.85,.65-4.59-1.57-5.54-.59-.25-1.23-.28-1.84-.17,1.5-2.17,3.29-4.12,5.33-5.8,.6-.49-.25-1.35-.85-.86-2.44,2.01-4.54,4.42-6.22,7.11,.08-.81,.11-1.64,.09-2.45,.55-.3,1.02-.72,1.4-1.22,.43-.58,.68-1.43,.09-2-.51-.49-1.34-.37-1.99-.35-.29-.63-.78-1.13-1.51-1.22-.97-.12-1.87,.81-1.58,1.8,.04,.15,.13,.25,.23,.31,.09,.22,.29,.38,.55,.37,.48,0,.96-.02,1.44-.03,.08,.5,.07,1.03,.1,1.5,.08,1.45,.05,2.9-.18,4.33-.94-.92-2.49-1.41-3.74-1.22-.8,.12-1.54,.48-2.08,1.03-.38,.06-.55,.41-.52,.72-.14,.27-.24,.56-.29,.89-.19,1.27,.58,2.46,1.81,2.71-1.28,.5-2.44,1.25-3.19,2.48-1.21,1.99-.92,4.64,.38,6.51,1.43,2.05,3.76,3.17,6.17,3.5,2.45,.33,5.48,.16,7.64-1.18,3.89-2.42,4.19-8.16,.62-11Zm-5.23-3.48c.05-.08,.1-.17,.14-.25,.8-1.18,2.43-1.41,3.46-.42,.99,.95,.99,2.3,.27,3.31-.59-.28-1.22-.48-1.87-.57-.61-.08-1.59,.13-2-.43-.34-.47-.25-1.14,0-1.64Zm.27-6.81c.06,0,.11,0,.17,0,.01,0,0,0,.02,0,0,0,.01,0,.05,.01,0,0,.01,0,.02,0,0,0,0,0,0,0,0,.01-.03,.09-.03,.11-.02,.05-.05,.09-.07,.14-.03,.05-.07,.1-.1,.15-.06,.09,.01,0-.06,.08-.15,.18-.3,.32-.45,.45-.03-.32-.07-.63-.11-.95,.05,0,.11,0,.16,0,.14,0,.28,0,.42,0Zm-2.7,6.65c.41,.45,.61,1.15,.35,1.74-.3,.67-1.1,.79-1.74,.91-.2,.04-.41,.08-.62,.13,.46-.46,.72-1.11,.63-1.83-.12-.94-.73-1.46-1.48-1.72,1-.21,2.18,.03,2.86,.78Zm-4.59,1.02c0-.31,.1-.59,.26-.83,.55-.03,1.16,.02,1.53,.43,.5,.55,.18,1.49-.58,1.58-.68,.08-1.2-.52-1.2-1.17Zm11.74,12.04c-1.3,1.19-3.12,1.51-4.81,1.63-1.77,.13-3.62,0-5.26-.75-2.77-1.25-5.09-4.79-3.04-7.72,.92-1.31,2.54-1.9,4.03-2.23,1.23-.27,2.67-.37,3.32-1.63,.48,.79,1.35,1,2.34,1.03,.63,.02,1.24,.17,1.81,.4-.02,.41,.53,.81,.99,.52,.4,.26,.76,.57,1.09,.93,2.06,2.24,1.75,5.8-.47,7.82Z" fill="#231f20"/></g></svg>