<?xml version="1.0" encoding="UTF-8"?><svg xmlns="http://www.w3.org/2000/svg" viewBox="0 0 35 35"><g id="Example_glyph"><g id="Line_5-2"><text transform="translate(5.84 27.99)" fill="#bcbcbc" font-family="ArialMT, Arial" font-size="35"><tspan x="0" y="0">Ë</tspan></text></g></g><g id="Artwork_glyph"><path d="M34.56,18.13c-.3-1.37-1.04-2.63-2.18-3.46-.26-.19-.51-.32-.76-.43,.06-.91-.06-1.82-.52-2.63-.82-1.45-2.7-2.24-4.24-1.44-.76,.39-1.26,1.1-1.42,1.87-.81-1.31-2.59-1.65-4.04-1.15-.06,.02-.12,.05-.19,.07-.36-.23-.75-.42-1.13-.52-2.36-.63-4.93,0-7.04,1.1-1.25-1.06-2.8-1.68-4.6-1.49-1.3,.14-2.86,.87-3.24,2.22,0,0,0,.02,0,.03-.03,.12-.07,.24-.08,.38-.1,1.21,.96,2.21,2.18,2.07,1.39-.16,2.08-1.86,1.31-3-.12-.17-.25-.31-.4-.42,.86-.18,1.79-.03,2.59,.28,.4,.16,.76,.37,1.1,.6-1.95,1.25-3.6,2.95-5.15,4.66-2.11,2.33-4.18,4.69-6.27,7.04-.53,.6,.27,1.39,.88,.87l.88-.76c.59,1.65,1.49,3.28,3.37,3.63,1.35,.26,2.29-.35,2.89-1.3,.4,.63,1,1.14,1.73,1.42,1.5,.58,3.19,.03,4.36-1,2.91-2.58,2.43-7.37,1.37-10.7-.41-1.29-1.09-2.56-1.98-3.61,1.59-.78,3.32-1.2,5.15-.95,.27,.04,.57,.1,.85,.19-.84,.71-1.37,1.73-.81,2.83,.64,1.26,2.44,1.15,3.21,.07,.66-.93,.47-1.89-.1-2.67,.69-.12,1.41-.02,1.9,.49,1.14,1.19-.31,2.28-1.35,2.76-1.38,.63-2.53,1.28-3.35,2.61-.71,1.15-1.06,2.54-1.05,3.88,0,6.91,9.07,7.9,13.4,4.17,2.16-1.87,3.35-4.89,2.74-7.71ZM7.49,13.35c-.48,.29-.78,.2-.9-.29-.19-.15-.26-.3-.22-.45,.58-.93,1.78,.14,1.12,.74Zm7.53,4.01c.53,2.2,.83,4.79-.14,6.91-.54,1.17-1.54,2.2-2.85,2.45-1.5,.29-2.95-.85-2.81-2.4,.06-.69-1.08-.85-1.22-.16-.3,1.47-1.23,2.98-2.93,1.98-1.17-.69-1.58-2.15-1.95-3.36,0,0,0,0,0-.01,1.96-2.24,3.9-4.5,5.98-6.61,1.11-1.13,2.39-2.24,3.79-3.1,1.09,1.17,1.76,2.75,2.14,4.31Zm5.34-3.44c-.43-.57,.23-1.22,.74-1.54,.16,.18,.27,.4,.32,.67,.11,.62-.51,1.62-1.06,.88Zm7.27-2.76c1.47-.5,2.58,.93,2.72,2.23,.02,.16,.02,.33,.02,.49-.64-.08-1.31-.06-2.05-.08-.75-.02-1.46-.18-1.66-.98-.18-.71,.26-1.42,.96-1.66Zm4.78,12.08c-1.37,2.21-3.88,3.48-6.46,3.56-2.64,.08-5.55-1.07-6.18-3.88-.56-2.48,.52-5.2,2.85-6.31,1.24-.59,2.86-1.35,3.17-2.7,.05,.08,.1,.17,.16,.25,.55,.65,1.36,.87,2.18,.88,.77,.01,1.47-.03,2.13,.07-.26,1.38-.91,2.76-1.57,3.9-.02,.04-.05,.08-.08,.12-.01,0-.02-.02-.03-.03-1.71-1.01-3.85-.85-5.25,.63-1,1.07-1.52,2.94-.46,4.15,2.76,3.17,7.13-4.41,7.89-6.31,.25-.63,.49-1.33,.65-2.05,.21,.12,.42,.26,.62,.46,2,1.88,1.7,5.12,.37,7.27Zm-4.47-3.09c-.31,.43-.64,.85-.99,1.24-.64,.7-1.65,1.97-2.67,1.77-1.34-.26-.61-2.04,.06-2.7,1-.98,2.43-1,3.6-.32Z" fill="#231f20"/></g></svg>