<?xml version="1.0" encoding="UTF-8"?><svg xmlns="http://www.w3.org/2000/svg" viewBox="0 0 35 35"><g id="Example_glyph"><g id="Line_5-2"><text transform="translate(12.65 27.99)" fill="#bcbcbc" font-family="ArialMT, Arial" font-size="35"><tspan x="0" y="0">Ì</tspan></text></g></g><g id="Artwork_glyph"><path d="M33.59,12.26c-1.07-3.12-3.17-6.88-6.17-8.57-1.56-.88-3.37-.73-4.74,.44-1.61,1.37-1.96,3.48-1.82,5.47-1.09,.12-2.14,.65-2.8,1.53-.13,.17-.22,.35-.31,.53-.56-1.38-2.12-2.03-3.69-2.05,0-.02,.02-.04,.02-.07,.38-3.35-1.58-7.31-5.53-6.5-3.66,.75-5.87,5.13-6.99,8.27C.48,14.38-.06,18.23,.72,21.54c-.1,.26-.02,.57,.21,.73,.1,.33,.2,.66,.33,.98,.62,1.49,1.86,2.85,3.53,3.14,1.39,.24,2.94-.34,3.58-1.63,.23-.47,.31-.96,.29-1.44,.12,.32,.26,.63,.43,.92,2.59,4.44,9.83,4.44,14,2.58,1.44-.65,2.74-1.64,3.66-2.9,.02,.38,.11,.76,.3,1.12,.7,1.34,2.38,1.85,3.8,1.42,1.51-.46,2.54-1.81,3.06-3.22,1.26-3.42,.85-7.59-.31-10.97Zm-9.63-7.56c1.75-1.01,3.36,.23,4.55,1.47,2.24,2.33,3.76,5.29,4.46,8.42,.35,1.59,.48,3.23,.38,4.86,0,.05,0,.1-.01,.15-.09-.04-.18-.08-.31-.07-1.77,.14-3.66,.33-5.04,1.55,.42-2.12-.2-4.38-1.93-5.79-.19-.16-.4-.29-.6-.41,.62-2.38-.93-4.84-3.38-5.26-.13-1.82,.13-3.91,1.88-4.92Zm-5.14,7.55c.53-1.55,2.81-1.8,4.08-1.1,1.16,.64,1.64,1.96,1.43,3.19-.54-.17-1.11-.27-1.71-.28-1.12-.02-4.52,.29-3.79-1.82ZM4.25,24.95c-1.22-.61-1.83-1.83-2.17-3.11,1.51-.8,3.59-1.27,4.84,.2,1.64,1.93-.74,3.88-2.67,2.91Zm4.68-6.94c-.64,1.21-.85,2.6-.64,3.93-.33-.64-.85-1.19-1.51-1.54-1.61-.85-3.39-.56-4.95,.2-.02-.14-.04-.28-.06-.41-.21-1.71-.17-3.46,.11-5.16,.54-3.31,1.96-6.89,4.39-9.3,1.23-1.22,3.27-2.2,4.92-1.14,1.54,.99,1.85,3.33,1.67,4.96,0,.06,0,.12,.02,.17-.3,.06-.59,.14-.86,.26-.9,.37-1.65,1.08-1.93,1.96-.04,.05-.08,.1-.12,.15-.14,.22-.11,.42,0,.59,0,.16,.02,.33,.05,.5,.28,1.34,1.74,2.12,3,1.44,1.24-.67,1.36-2.44,.27-3.31-.17-.13-.34-.22-.53-.29,.33-.12,.67-.19,.94-.22,1.25-.11,2.77,.36,3.02,1.74,.28,1.54-1.38,1.82-2.53,1.99-2.23,.34-4.19,1.47-5.27,3.49Zm3.77-5.53c.55,.9-.88,1.64-1.37,.72-.13-.24-.17-.46-.16-.67,.41-.46,1.16-.66,1.53-.05Zm8.75,13.66c-3.07,.95-7.64,1.03-10.21-1.21-2.56-2.23-2.32-6.31,.45-8.25,1.3-.91,2.74-.81,4.19-1.26,.87-.27,1.58-.83,1.91-1.62,.15,.27,.35,.52,.62,.73,1.28,1.01,2.85,.69,4.36,.76,1.72,.08,3.22,1.16,3.83,2.76,1.42,3.69-1.82,7.06-5.16,8.09Zm10.35-1.71c-.64,.68-1.56,1.14-2.51,.9-1-.25-1.51-1.17-1.25-2.14,.55-2.06,3.26-2.3,5-2.43,.08,0,.15-.03,.21-.06-.17,1.35-.53,2.76-1.45,3.73Z" fill="#231f20"/></g></svg>