<?xml version="1.0" encoding="UTF-8"?><svg xmlns="http://www.w3.org/2000/svg" viewBox="0 0 35 35"><g id="Example_glyph"><g id="Line_5-2"><text transform="translate(12.65 27.99)" fill="#bcbcbc" font-family="ArialMT, Arial" font-size="35"><tspan x="0" y="0">Í</tspan></text></g></g><g id="Artwork_glyph"><path d="M22.15,16.01c-1.41-1.62-3.41-2.84-5.6-2.71-.45,.03-.89,.12-1.3,.26,.65-.73,1.31-1.46,1.95-2.19l2.47-2.83c.72-.78,1.4-1.58,2.08-2.39,.46-.55-.31-1.35-.78-.8-.08,.09-.16,.18-.24,.27,0-.36-.07-.72-.24-1.06-.6-1.2-1.9-1.72-3.17-1.61-2.62,.22-5.83,2.55-7,4.95-1.16,2.4,.28,5.09,3.02,4.88,.5-.04,.97-.17,1.42-.35-1.12,1.26-2.25,2.53-3.15,3.95-2.11,3.34-2.04,7.53,1.17,10.1,2.9,2.32,7.15,1.83,9.86-.57,3.21-2.85,2.01-7.03-.5-9.91Zm-3.6-11.79c.7,.29,1.39,1.12,.95,1.93-.37,.67-1.3,.78-1.89,.39-.79-.52-.89-1.48-.67-2.33,0-.02,0-.04,0-.06,.54-.12,1.1-.14,1.61,.07Zm-5.65,7.43c-1.49-.09-2.2-1.43-1.77-2.81,.59-1.89,2.78-3.49,4.62-4.28-.11,1.01,.16,2.03,.97,2.72,.58,.49,1.33,.71,2.03,.6-.84,.9-1.73,1.75-2.71,2.49-.9,.68-1.98,1.35-3.15,1.28Zm2.59,14.98c-1.81-.52-3.34-1.97-3.97-3.78-.72-2.06-.03-4.15,1.08-5.91,.28,.18,.74,.13,.89-.28,.86-2.33,3.61-2.67,5.59-1.69,1.89,.93,3.47,2.94,4.16,4.94,1.61,4.65-3.8,7.86-7.75,6.72Z" fill="#231f20"/></g></svg>