<?xml version="1.0" encoding="UTF-8"?><svg xmlns="http://www.w3.org/2000/svg" viewBox="0 0 35 35"><g id="Example_glyph"><g id="Line_5-2"><text transform="translate(12.65 27.99)" fill="#bcbcbc" font-family="ArialMT, Arial" font-size="35"><tspan x="0" y="0">Î</tspan></text></g></g><g id="Artwork_glyph"><path d="M26.9,5.51c-1.38-1.66-3.58-2.52-5.71-2.57-2.36-.05-4.65,.9-6.48,2.34-1.68,1.32-3.26,3.57-2.08,5.74,1.19,2.19,3.85,2.16,6.04,1.86-.09,.91-.02,1.85,.1,2.68,.56,3.74,3.11,6.8,6.56,8.26,0,.02-.02,.04-.03,.05-.72,1.27-1.78,2.53-3.25,2.92-1.38,.37-3.24-.34-3.27-1.91,.02-.16,.05-.32,.04-.49-.02-.58-.98-.77-1.07-.14,0,.05,0,.1,0,.15h0c.04,1.58-1.48,2.48-2.92,2.44-1.42-.04-3-.75-4.03-1.73-2.28-2.16-.55-6.07,2.65-5.58,.19,.03,.35-.04,.47-.14,.45-.03,.9-.07,1.35-.07,.94,0,2.61,.34,2.92-.91,.14-.55-.12-1.07-.34-1.56-.26-.61-.55-1.2-.97-1.72-.75-.93-1.85-1.41-3.05-1.19-1.07,.19-2.28,.87-2.62,1.97-.28,.9,.11,1.96,.93,2.44,.06,.03,.12,.05,.18,.08,0,0-.02,0-.03,0-1.99,.24-3.94,.7-5.83,1.37-.65,.23-.37,1.28,.29,1.04,.91-.32,1.84-.58,2.77-.8-.12,.15-.24,.32-.34,.49-.96,1.68-.65,3.77,.66,5.16,1.33,1.42,3.63,2.4,5.58,2.21,1.1-.11,2.12-.67,2.76-1.52,.3,.51,.74,.94,1.3,1.22,1.45,.74,3.22,.36,4.5-.55,2.67-1.9,3.92-5.64,3.69-8.81-.22-3.1-1.99-6.92-4.95-8.31-1.31-.62-2.82-.29-3.52,1.03-.13,.25-.23,.51-.31,.79-1.2,.2-2.47,.4-3.65,.01-1.11-.37-1.99-1.26-1.91-2.49,.14-2.41,3.12-4.17,5.16-4.83,2.16-.7,4.62-.54,6.51,.79,1.83,1.28,2.78,3.59,2.19,5.76-.18,.67,.86,.96,1.05,.29,.55-2.02,0-4.17-1.33-5.77ZM15.94,15.7c.28,.31,.49,.68,.68,1.06,.17,.34,.44,.78,.49,1.17,.06,.46-.5,.32-.82,.32-.45-.01-.89-.02-1.34,0-.24,0-.48,.02-.71,.03,.21-.13,.39-.3,.53-.5,.64-.9,.3-2.24-.67-2.76,.72-.1,1.35,.16,1.84,.71Zm-3.68,1.18c.11-.06,.21-.17,.24-.34,.13-.62,.94-.94,1.34-.36,.39,.56,.02,1.25-.64,1.33-.44,.05-.8-.24-.95-.63Zm9.13-6.18c1.28,.01,2.42,1.35,3.14,2.28,.77,1,1.34,2.14,1.69,3.35,.61,2.15,.44,4.47-.44,6.52-2.32-.94-4.24-2.73-5.26-5.03-.56-1.26-.83-2.66-.81-4.04,.02-1.11,.15-3.11,1.67-3.09Z" fill="#231f20"/></g></svg>