<?xml version="1.0" encoding="UTF-8"?><svg xmlns="http://www.w3.org/2000/svg" viewBox="0 0 35 35"><g id="Example_glyph"><g id="Line_5-2"><text transform="translate(12.65 27.99)" fill="#bcbcbc" font-family="ArialMT, Arial" font-size="35"><tspan x="0" y="0">Ï</tspan></text></g></g><g id="Artwork_glyph"><path d="M28.05,12.81c-.32-3.31-1.12-7.97-4.16-9.37-1.48-.68-3.04-.15-4.15,1.1-1.26,1.42-1.69,3.42-1.97,5.35-1.41,.15-3.4,.98-3.92,2.44-.72-1.49-2.38-2.47-3.86-2.47,.1-3.05-1.19-7.43-4.57-6.88C1.92,3.56,1.05,8.84,.59,12.1c-.31,2.16-.43,4.35-.3,6.53,.11,1.87,.31,3.92,1.23,5.52,.72,1.26,1.89,2.22,3.24,2.19,1.15-.02,2.21-.78,2.6-2.01,.06,.09,.11,.19,.17,.28,2.62,3.72,7.53,4.43,10.97,1.86,.53-.4,1.02-.87,1.46-1.39,.36,1.23,1.46,1.76,2.61,1.63,1.45-.16,2.74-1.19,3.6-2.5,2.01-3.06,2.24-7.73,1.89-11.39Zm-12.96-.42c.74-1.07,2.66-1.51,3.76-1.23,.59,.15,1.23,.65,1.38,1.36,.15,.69-.2,1.34-.56,1.9-.69-.46-1.48-.71-2.29-.66-.62,.04-1.31,.38-1.93,.23-.72-.18-.77-1.03-.37-1.61ZM3.11,24.42c-.38-.36-.67-.81-.89-1.29,.12-.06,.23-.17,.29-.35,.56-1.62,3.9-1.36,3.94,.56,.04,2.11-2.29,2.08-3.33,1.08Zm3.68-5.79c-.38,.78-.53,1.62-.49,2.46-1.38-.91-3.56-.72-4.52,.77-.13-.52-.22-1.06-.29-1.58-.22-1.76-.25-3.57-.14-5.34,.11-1.8,.38-3.58,.77-5.32,.35-1.54,.75-3.24,1.77-4.39,1.12-1.27,2.71-1.37,3.85-.07,1.09,1.24,1.24,3.08,1.18,4.74,0,.06,.01,.11,.02,.16-.71,.27-1.33,.81-1.7,1.53-.11,.02-.22,.04-.33,.08-.54,.18-.44,1-.02,1.16,0,.09-.02,.17-.02,.26-.02,1.28,.76,2.62,1.96,2.64,1.18,.02,1.8-1.42,1.35-2.58-.3-.78-.9-1.27-1.58-1.48,.23-.23,.49-.41,.75-.49,2.11-.69,5.46,2.73,2.73,4.44-1.8,1.13-4.16,.68-5.31,3.02Zm1.18-5.88c.36,.03,.72,.17,.99,.47,.56,.63,.17,1.72-.58,1.07-.49-.42-.57-1-.42-1.55Zm10.08,12.6c-2.29,1.78-5.28,1.94-7.7,.4-1.21-.77-2.35-1.97-2.81-3.51-.43-1.42-.17-3.18,1.01-4.01,1.17-.83,2.65-.76,3.87-1.44,.81-.45,1.52-1.27,1.73-2.28,.57,.79,1.58,.79,2.44,.63,1.53-.28,2.94,.16,3.8,1.76,1.6,2.98-.06,6.69-2.34,8.46Zm4.66,.11c-1.03,.21-2.2-.41-1.74-1.8,.02-.05,.04-.09,.06-.14,.06-.11,.12-.23,.18-.35,.91-1.43,3.06-.4,4.08,.35-.22,.32-.46,.62-.73,.88-.53,.51-1.16,.91-1.85,1.05Zm3.15-2.95s0,0,0,0c-1.19-.89-2.61-1.55-4.02-1.09,.03-.13,.07-.26,.1-.39,.39-2.07-.05-4.39-1.43-5.85,.65-1.06,1.13-2.29,.54-3.54-.45-.96-1.31-1.52-2.21-1.69,.22-1.48,.52-3.01,1.37-4.17,1.01-1.39,2.58-1.85,3.94-.8,1.34,1.03,1.91,2.94,2.31,4.64,.41,1.71,.62,3.46,.65,5.23,.04,2.39-.16,5.4-1.23,7.67Z" fill="#231f20"/><path d="M34.78,10.47c0-.6-.88-.88-1.16-.32-.35,.68-.69,1.36-1.04,2.04-.32,.62-.59,1.38-1.04,1.91-.55,.65-1.29,.27-1.56-.44-.29-.79,.05-1.7,.29-2.46,.25-.77-.96-1.1-1.21-.33-.34,1.07-.68,2.28-.21,3.36,.34,.78,1.06,1.43,1.93,1.5,.93,.07,1.61-.56,2.06-1.31,.25-.42,.47-.86,.69-1.3,.01,2.88,.05,5.76-.08,8.63-.07,1.62-.44,3.27-1.85,4.25-1.42,1-3.18,.94-4.73,.3-.74-.31-1.07,.91-.33,1.21,3.37,1.38,7.21-.25,7.95-3.97,.39-1.96,.23-4.05,.25-6.04l.04-7.03Z" fill="#231f20"/></g></svg>