<?xml version="1.0" encoding="UTF-8"?><svg xmlns="http://www.w3.org/2000/svg" viewBox="0 0 35 35"><g id="Example_glyph"><g id="Line_6-2"><text transform="translate(4.87 27.99)" fill="#bcbcbc" font-family="ArialMT, Arial" font-size="35"><tspan x="0" y="0">Ð</tspan></text></g></g><g id="Artwork_glyph"><path d="M28.5,11.68c1.01-1.12,1.03-2.79,.54-4.12,.12-.27,0-.65-.35-.77-1.51-2.76-4.97-3.95-8.24-3.85-3.48,.11-7.29,1.34-8.43,4.67-.54,1.58-.29,3.38,.78,4.73,1.13,1.41,2.83,1.76,4.6,1.85,.02,.58,.11,1.16,.24,1.71,.97,3.8,4.83,6.4,9.04,6.3,.05,0,.08-.02,.12-.03-.29,1.04-.82,2.01-1.65,2.83-1.02,1-2.41,1.73-3.9,1.87-1.77,.17-4.05-.61-3.8-2.57,.08-.62-1.01-.74-1.17-.15-.72,2.73-4.71,3.73-6.54,1.27-2.05-2.75,.94-5.12,3.27-6.51,.01,0,.03,0,.04-.01,.93-.25,2.26-.38,2.65-1.34,.32-.79-.1-1.65-.65-2.26-.61-.68-1.53-1.15-2.51-1.13-.92,.03-1.84,.47-2.23,1.26-.36,.73-.26,1.66,.39,2.24,.28,.25,.66,.39,1.04,.44-.33,.09-.67,.18-1,.27-1.71,.45-3.41,.91-5.12,1.36-.73,.2-.42,1.25,.32,1.05,1.3-.35,2.6-.69,3.89-1.04-.63,.56-1.18,1.2-1.53,1.97-.73,1.6-.4,3.46,.85,4.75,2.15,2.22,5.77,1.68,7.48-.47,.49,.83,1.39,1.46,2.42,1.75,1.61,.45,3.39,.17,4.86-.54,3.46-1.65,4.82-5.31,4.22-8.7-.32-1.81-1.18-3.51-2.35-4.98-.36-.45-.75-.91-1.17-1.36,1.23,.78,2.96,.54,3.91-.51Zm-15.15,3.79s-.05-.04-.07-.06c.23,.09,.44,.22,.62,.37,.35,.3,.8,.84,.7,1.32-.05,.22-.26,.3-.48,.37-.28,.09-.57,.16-.86,.23,.65-.57,.7-1.6,.09-2.23Zm-2.08,.95c.1-.02,.2-.06,.29-.15,.29-.29,.86-.32,1,.12,.14,.41-.23,.71-.66,.66-.37-.04-.59-.31-.64-.62Zm1.65-7.22c.04-2.64,2.39-4.31,4.98-4.87,2.5-.54,5.44-.51,7.65,.83,.67,.4,1.24,.94,1.7,1.56-1.29,.09-2.52,.53-3.32,1.55-.73,.92-.8,2.11-.23,3.04-.62-.57-1.3-1.09-2.01-1.49-1.52-.85-2.99-.23-3.69,1.19-.32,.65-.5,1.36-.58,2.08-1.17-.04-2.37-.18-3.26-.96-.85-.75-1.27-1.86-1.25-2.93Zm13.57,7.89c.49,1.29,.69,2.72,.51,4.09-.09-.05-.19-.09-.32-.09-2.94,.07-5.77-1.32-7.17-3.73-.65-1.12-.95-2.4-.91-3.67,0-.02,0-.04,0-.07,0-.02,0-.03,0-.05,.06-1.09,.55-3.78,2.37-2.9,1.22,.59,2.33,1.78,3.2,2.74,.99,1.09,1.82,2.33,2.33,3.67Zm-1.91-7.62c.45-1.31,1.94-1.68,3.29-1.68,0,.02,.02,.04,.03,.05,.4,1.05,.45,2.52-.53,3.32-1.3,1.06-3.3-.2-2.79-1.7Z" fill="#231f20"/></g></svg>