<?xml version="1.0" encoding="UTF-8"?><svg xmlns="http://www.w3.org/2000/svg" viewBox="0 0 35 35"><g id="Example_glyph"><g id="Line_5-2"><text transform="translate(4.87 27.99)" fill="#bcbcbc" font-family="ArialMT, Arial" font-size="35"><tspan x="0" y="0">Ñ</tspan></text></g></g><g id="Artwork_glyph"><path d="M25.6,12.07c1.54-1.19,1.88-3.31,1.01-5.09-1.06-2.16-3.48-3.32-5.73-3.79-2.29-.47-4.73-.29-6.92,.55-1.67,.64-4.41,1.94-4.41,4.09,0,2.31,2.62,2.92,4.42,2.95,2.88,.06,6.07-.93,8.81,.39,2.64,1.27,3.65,4.6,3.48,7.35-.17,2.83-1.66,5.47-4.05,6.99-2.57,1.63-5.85,1.76-8.51,.25-1.41-.81-2.88-2.21-2.84-3.97,.03-1.64,1.25-2.78,2.74-3,.08,0,.17-.01,.25-.02,.12,0,.24-.02,.37-.01,.59-.02,1.19-.01,1.78,.01,.54,.03,1.13,.11,1.63-.17,.43-.24,.7-.69,.79-1.16,.19-.99-.25-2.02-.93-2.74-1.41-1.49-4.2-1.68-5.67-.17-.71,.73-1,1.93-.46,2.85,.09,.15,.21,.28,.33,.41-1.24,.15-2.46,.39-3.67,.72-.71,.19-.41,1.31,.31,1.11,.79-.22,1.6-.38,2.4-.52-.47,.55-.81,1.24-.95,2.02-.39,2.31,1.2,4.28,3.04,5.44,4.05,2.56,9.41,1.47,12.38-2.22,2.66-3.3,3.11-8.85,.4-12.29Zm-7.88-2.66c-1.47,.1-2.95,.31-4.42,.19-.75-.06-1.62-.21-2.17-.79-.96-1-.07-2.05,.78-2.68,2.43-1.79,5.73-2.43,8.66-1.82,1.55,.32,3.18,.95,4.28,2.13,1.26,1.36,1.6,3.61-.03,4.77-.05-.04-.09-.09-.13-.13-1.92-1.69-4.54-1.83-6.96-1.67Zm-3.17,5.25c1.25,0,2.76,.88,2.76,2.3,0,.24-.05,.54-.29,.65-.3,.14-.81,.02-1.13,0-.49-.02-.99-.02-1.48-.02,.45-.68,.4-1.65-.22-2.28-.22-.23-.49-.38-.76-.46,.36-.13,.74-.2,1.11-.19Zm-2.31,1.69c.31-.55,1.22-.57,1.33,.16,.11,.7-.72,.87-1.13,.44-.16-.16-.22-.36-.23-.57,0,0,.02-.01,.02-.02Z" fill="#231f20"/></g></svg>