<?xml version="1.0" encoding="UTF-8"?><svg xmlns="http://www.w3.org/2000/svg" viewBox="0 0 35 35"><g id="Example_glyph"><g id="Line_5-2"><text transform="translate(3.9 27.99)" fill="#bcbcbc" font-family="ArialMT, Arial" font-size="35"><tspan x="0" y="0">Ò</tspan></text></g></g><g id="Artwork_glyph"><path d="M22.8,3.23c-3.1-.77-6.63,.24-8.98,2.37-1.3,1.17-1.82,2.91-.47,4.26,1.06,1.06,2.62,1.61,4.11,1.82-.79,1.91-.08,4.39,.78,6.13,1.06,2.15,2.82,3.92,4.97,5,.22,.11,.43,.07,.59-.03-.85,1.41-2.24,2.41-3.72,3.08-3.35,1.51-7.81,1.25-10.22-1.8-1.31-1.65-1.7-4-.75-5.92,.96-1.96,3.07-3.08,5.24-2.75,.77,.12,1.1-1.06,.33-1.18-4.76-.72-8.45,3.81-6.98,8.36,1.47,4.54,6.69,6.17,10.99,5.06,2.2-.56,4.38-1.77,5.76-3.61,1.46-1.94,1.75-4.52,1.56-6.88-.12-1.52-.51-3.06-1.27-4.38,.2,0,.41-.03,.61-.1,1.34-.4,2.12-1.8,2.29-3.1,.4-3.06-1.98-5.64-4.82-6.34Zm-8.44,3.54c1.52-1.65,4.03-2.56,6.23-2.57,1.56-.01,3.16,.45,4.3,1.46-2.17,.15-3.8,2.12-3.41,4.25-1.15-.41-2.38-.34-3.3,.63-1.77-.13-5.94-1.47-3.83-3.76Zm9.76,15.39c-.02-.16-.11-.31-.3-.4-2.98-1.5-5.27-4.57-5.45-7.96-.05-.93,.1-1.95,.86-2.58,.94-.77,2.19-.19,3.02,.47,1.5,1.2,2.22,3.07,2.46,4.92,.23,1.82,.18,3.85-.59,5.55Zm2.17-12.19c-.34,1.1-1.35,2.01-2.51,1.34-.97-.56-1.4-1.88-1.01-2.92,.39-1.05,1.59-1.7,2.69-1.52,.14,.02,.26,0,.37-.06,.05,.09,.11,.17,.16,.27,.44,.89,.59,1.94,.3,2.9Z" fill="#231f20"/></g></svg>