<?xml version="1.0" encoding="UTF-8"?><svg xmlns="http://www.w3.org/2000/svg" viewBox="0 0 35 35"><g id="Example_glyph"><g id="Line_5-2"><text transform="translate(3.9 27.99)" fill="#bcbcbc" font-family="ArialMT, Arial" font-size="35"><tspan x="0" y="0">Ó</tspan></text></g></g><g id="Artwork_glyph"><path d="M19.12,3.01c-2.13-.22-4.41,.49-5.9,2.04-1.44,1.49-2.12,3.77-1.48,5.76,.66,2.08,2.67,3.59,4.87,3.59-.08,1.43,.2,2.9,.7,4.23,.78,2.05,1.97,4.56,4.25,5.25-.47,.52-.99,1.01-1.58,1.41-2.87,1.96-7.06,2.25-9.34-.75-1.09-1.43-1.9-3.55-1.43-5.35,.65-2.5,3.53-2.55,5.64-2.45,.77,.04,.76-1.14,0-1.18-2.21-.1-4.84,0-6.21,2.02-1.19,1.75-.78,4.1,.02,5.92,.84,1.89,2.33,3.49,4.34,4.14,2.09,.68,4.47,.29,6.41-.66,3.75-1.85,6.02-5.93,5.44-10.05-.29-2.02-1.19-3.94-2.58-5.44-.63-.69-1.54-1.59-2.51-1.73-1.05-.15-1.79,.7-2.27,1.52-.36,.62-.6,1.28-.74,1.96-.04,0-.07-.02-.12-.02-2.11,.02-3.87-1.74-3.95-3.81-.09-2.31,1.55-4.28,3.72-4.96,2.23-.7,4.58-.1,6.45,1.23,1.99,1.41,3.59,3.77,2.92,6.28-.2,.73,.95,1.05,1.15,.31,1.25-4.63-3.48-8.82-7.8-9.26Zm-1.21,10.46c.18-.78,.51-1.74,1.13-2.3,.79-.7,2.05,.76,2.56,1.35,1.08,1.24,1.79,2.79,2.06,4.41,.36,2.12-.18,4.25-1.35,5.99-.06-.04-.13-.08-.22-.1-1.73-.42-2.61-2.18-3.28-3.66-.8-1.76-1.32-3.76-.89-5.68Z" fill="#231f20"/></g></svg>