<?xml version="1.0" encoding="UTF-8"?><svg xmlns="http://www.w3.org/2000/svg" viewBox="0 0 35 35"><g id="Example_glyph"><g id="Line_5-2"><text transform="translate(3.9 27.99)" fill="#bcbcbc" font-family="ArialMT, Arial" font-size="35"><tspan x="0" y="0">Ô</tspan></text></g></g><g id="Artwork_glyph"><path d="M25.5,16.13c-.42-.44-.91-.81-1.45-1.09,.75-.98,.11-2.31-.83-2.91-1.17-.74-3.18-1.27-4.57-.81,.11-.12,.22-.24,.34-.36,.47-.28,.92-.59,1.35-.92,1.93-1.5,3.77-3.15,5.64-4.73,.5-.43-.17-1.3-.72-.92-.92,.65-1.81,1.32-2.69,2.01-.14-1.2-.92-2.43-2.08-2.96-2.81-1.29-6.52,.24-7.95,2.87-1,1.85-.57,3.82,.88,4.86-1.17,.07-2.39,.5-3.12,1.38-.34,.08-.68,.21-.98,.37-.6,.32-.18,1.16,.39,1.07-.08,1.08,.57,2.14,1.79,2.28,.17,.02,.32,.01,.47-.01-.78,.33-1.53,.74-2.19,1.27-1.79,1.42-2.9,3.85-2.15,6.1,.79,2.35,3.39,3.23,5.59,3.81,4.97,1.31,11.61,.49,13.54-5.03,.76-2.17,.35-4.59-1.25-6.28Zm-4.55-3.6c.68,.17,2.14,.45,2.22,1.31,.04,.44-.22,.63-.61,.69-.25-.03-.53-.03-.81-.02-.65-.09-1.32-.31-1.51-.36-.46-.11-1.43-.21-1.96-.53-.14-.41,.02-.85,.49-1.1,.68-.37,1.49-.16,2.18,.01Zm.23-4.98c-.14,.12-.28,.23-.42,.35-.04,.03-.08,.06-.13,.08-.94,.48-1.86-.28-1.89-1.24-.02-.82,.52-1.5,1.08-2.04,.07-.06,.11-.13,.14-.2,1.07,.54,2.02,2.08,1.22,3.05Zm-7.91,0c.65-2.13,3.2-3.6,5.44-3.38-.88,.96-1.44,2.21-.97,3.5,.26,.73,.82,1.28,1.5,1.52-.31,.26-.63,.54-.95,.83-1.05,.6-2.24,.94-3.43,.59-1.41-.42-2-1.69-1.58-3.06Zm-2.4,6.92c-.08-.27-.03-.54,.09-.79,.75-.06,1.54,.11,1.25,.95l-.39,.23c-.4,.41-.72,.28-.96-.39Zm2.34-.76c-.24-.55-.63-.89-1.09-1.07,1.24-.55,3.15-.51,3.83,.71,1.05,1.89-1.84,2.17-2.97,2.54-.13,.04-.25,.09-.38,.14,.71-.46,1-1.45,.62-2.32Zm9.89,11.6c-1.83,1.26-4.1,1.69-6.3,1.56-2.15-.12-4.77-.66-6.61-1.84-2.04-1.32-2-3.95-.56-5.71,1.36-1.67,3.38-2.19,5.36-2.77,1.14-.33,2.14-1.01,2.3-2.14,.02,.03,.02,.05,.04,.08,.86,1.22,2.24,1.13,3.56,1.09,.62,.14,1.27,.24,1.84,.16,1.76,.53,3.06,2.25,3.2,4.06,.17,2.18-1.06,4.28-2.84,5.5Z" fill="#231f20"/></g></svg>