<?xml version="1.0" encoding="UTF-8"?><svg xmlns="http://www.w3.org/2000/svg" viewBox="0 0 35 35"><g id="Example_glyph"><g id="Line_5-2"><text transform="translate(3.9 27.99)" fill="#bcbcbc" font-family="ArialMT, Arial" font-size="35"><tspan x="0" y="0">Õ</tspan></text></g></g><g id="Artwork_glyph"><path d="M28.37,11.93c-2.28-2.46-5.93-2.27-8.4-.2-3.01,2.53-3.67,6.65-4.17,10.35-.08,.64,.81,1.21,1.14,.49,.58-1.26,2.28-1.7,2.84-.17,.52,1.41-.64,2.7-1.79,3.29-2,1.03-4.66,.97-6.34-.66-1.72-1.66-1.43-4.22-.34-6.15,.93-1.63,2.56-2.79,3.35-4.49,1.45-3.14-1.84-5.32-4.61-4.29-2.9,1.08-5.04,4.17-5.82,7.11-.99,3.76,.13,7.75,2.7,10.59,.55,.6,1.43-.3,.88-.9-2.98-3.29-3.56-8.17-1.25-12.02,1.02-1.71,3.01-3.89,5.16-3.82,1.38,.05,2.38,1.2,1.9,2.58-.42,1.19-1.59,2.11-2.35,3.08-2.19,2.8-3.25,7.02-.11,9.58,2.58,2.1,7.45,1.8,9.35-1.16,.95-1.47,.87-3.61-.69-4.63-.85-.55-1.77-.5-2.54-.09,.36-2.3,.91-4.59,2.32-6.46,1.77-2.36,5.22-3.65,7.61-1.39,3.97,3.76,2.39,13.87-3.88,13.98-.8,.01-.81,1.28,0,1.27,7.27-.12,9.39-11.16,5.03-15.87Z" fill="#231f20"/></g></svg>