<?xml version="1.0" encoding="UTF-8"?><svg xmlns="http://www.w3.org/2000/svg" viewBox="0 0 35 35"><g id="Example_glyph"><g id="Line_5-2"><text transform="translate(3.9 27.99)" fill="#bcbcbc" font-family="ArialMT, Arial" font-size="35"><tspan x="0" y="0">Ö</tspan></text></g></g><g id="Artwork_glyph"><path d="M24.21,11.49c-.58-.42-1.2-.76-1.84-1.05,1.57,.35,3.27-.87,3.26-2.63,0-2.52-2.68-4.14-4.84-4.62-1.45-.32-2.94-.28-4.41-.14-1.4,.14-2.84,.31-4.11,.97-1.92,1-3.3,3.53-1.8,5.49,.63,.83,1.64,1.14,2.64,1.19,1.55,.09,3.09-.22,4.65-.11,3.15,.22,6.42,1.58,8.04,4.45,1.63,2.89,.88,6.58-1.38,8.89-2.61,2.68-6.57,3.36-10.09,2.36-1.78-.51-3.32-1.53-3.1-3.61,.19-1.79,1.61-2.99,3.11-3.76,.1-.05,.17-.12,.22-.19,.81-.24,1.66-.52,2.22-1.18,.6-.72,.64-1.68,.26-2.51-.8-1.74-3.17-2.3-4.64-1.1-.27,.04-.44,.27-.49,.53-.41,.59-.58,1.36-.36,2.05,.22,.72,.81,1.25,1.54,1.34-.27,.08-.54,.16-.81,.24-1.75,.52-3.49,1.04-5.24,1.56-.77,.23-.44,1.44,.33,1.21,1.29-.39,2.58-.77,3.87-1.16-.69,.8-1.17,1.76-1.28,2.88-.22,2.23,1.12,3.85,3.12,4.61,4.6,1.75,10.25,.57,13.18-3.56,2.83-3.99,1.83-9.34-2.07-12.16Zm-7.27-2.19c-1.22-.03-2.44,.19-3.65,.15-1.79-.06-2.85-1.63-1.74-3.23,1.05-1.51,3.15-1.76,4.83-1.92,1.59-.15,3.24-.21,4.78,.28,.4,.13,.89,.35,1.37,.64-2.22,.49-3.04,3.38-1.1,4.79,.06,.04,.12,.07,.17,.11-1.49-.54-3.08-.79-4.66-.83Zm5.99-2.88c.17-.03,.28-.11,.35-.22,0,0,0,0,0,0h0c.1,.09,.22,.15,.39,.15,.06,0,.11-.02,.16-.03,.48,.58,.73,1.26,.48,2-.34,.98-1.66,1.28-2.36,.5-.86-.95-.15-2.17,.98-2.39ZM14.17,14.53c.94-.03,2.5,1.1,1.72,2.16-.32,.43-.91,.61-1.4,.76,.42-.37,.65-.94,.51-1.57-.13-.6-.48-1.02-.94-1.34,.04,0,.07-.02,.11-.02Zm-1.34,.84s.02-.03,.03-.05c.4,.14,.79,.35,.91,.76,.11,.42-.26,.64-.63,.5-.47-.17-.48-.82-.31-1.21Z" fill="#231f20"/></g></svg>