<?xml version="1.0" encoding="UTF-8"?><svg xmlns="http://www.w3.org/2000/svg" viewBox="0 0 35 35"><g id="Example_glyph"><g id="Line_4-2"><text transform="translate(7.28 27.99)" fill="#bcbcbc" font-family="ArialMT, Arial" font-size="35"><tspan x="0" y="0">×</tspan></text></g></g><g id="Artwork_glyph"><path d="M30.07,27.87c-.41,2.9-2.26,5.86-5.52,5.92-1.48,.03-3.05-.79-3.55-2.24-.43-1.26,.14-2.44,1.13-3.02,.76,.02,1.53-.09,2.28-.33,.53-.18,.64-1.05,0-1.18-.88-.17-1.75-.06-2.52,.26-1.65-.11-3.2-.93-4.08-2.44-1.25-2.15-.8-4.86,1.1-6.48,1.48-1.26,3.81-1.29,4.44-3.4,.47-1.57-.29-3.25-1.73-4.02-.81-.43-1.82-.56-2.75-.37-.69-.35-1.51-.46-2.28-.33-4.45,.76-7.01,6.17-6.81,10.2,.03,.68,1.01,.84,1.21,.16,.52-1.73,2.51-.74,2.92,.46,.34,1,.11,2.17-.37,3.08-1.01,1.95-3.26,2.86-5.28,1.83-1.95-1-2.78-3.24-2.53-5.32,.25-2.08,1.43-3.6,2.69-5.19,.84-1.07,1.6-2.42,.97-3.78-.51-1.1-1.73-1.75-2.92-1.8-3.2-.14-5.22,3.52-5.91,6.15-.95,3.61-.22,7.56,2.03,10.56,.47,.62,1.54,.01,1.06-.62-2.54-3.38-3.05-8.09-1.04-11.85,.88-1.65,3.23-4.28,5.24-2.47,1.74,1.57-1.4,4.09-2.19,5.48-1.72,3.01-1.78,7.35,1.34,9.52,3.09,2.15,7.05,.48,8.07-3.02,.49-1.7,.2-3.84-1.48-4.8-.83-.47-1.76-.45-2.51-.07,.17-1.39,.63-2.73,1.4-3.94,.91-1.42,2.84-3.49,4.76-3.43-.1,.09-.2,.18-.29,.29-.86,1.08-.6,2.96,.88,3.35,1.6,.42,2.86-1.2,2.5-2.67-.05-.22-.14-.43-.24-.61,.34,.05,.65,.14,.89,.26,1.08,.55,1.66,1.99,.97,3.07-.56,.89-1.72,1.09-2.6,1.54-2.96,1.47-4.28,5.06-3.02,8.07,.78,1.85,2.34,3.11,4.15,3.62-.33,.39-.58,.84-.74,1.38-.56,1.93,.59,3.91,2.33,4.8,1.87,.95,4.22,.61,5.92-.55,1.91-1.3,2.93-3.49,3.25-5.71,.11-.77-1.08-1.1-1.19-.32Zm-12.36-15.03c.1-.51,.47-.83,.93-1,.22,.18,.41,.4,.49,.66,.41,1.28-1.75,1.95-1.42,.34Z" fill="#231f20"/><path d="M34.55,15.82c-.41-2.61-1.97-4.97-4.24-5.74-2.15-.74-4.6,.33-5.61,2.66-.35,.82,.72,1.55,1.08,.72,.85-1.98,2.93-2.69,4.67-1.81,1.88,.95,2.88,3.21,2.99,5.48,.21,4.72-2.88,8.72-6.88,9.47-.79,.15-.46,1.53,.33,1.38,4.95-.93,8.57-6.44,7.66-12.16Z" fill="#231f20"/></g></svg>