<?xml version="1.0" encoding="UTF-8"?><svg xmlns="http://www.w3.org/2000/svg" viewBox="0 0 35 35"><g id="Example_glyph"><g id="Line_5-2"><text transform="translate(3.9 27.99)" fill="#bcbcbc" font-family="ArialMT, Arial" font-size="35"><tspan x="0" y="0">Ø</tspan></text></g></g><g id="Artwork_glyph"><path d="M30.89,28.29c.06,3.6-3.41,5.82-6.76,5.4-1.56-.2-3.17-1.03-3.64-2.64-.3-1.03,.09-2.13,.87-2.67,.69,.05,1.39-.01,2.09-.22,.6-.18,.57-1,0-1.19-.79-.26-1.6-.17-2.31,.15-1.89-.25-3.55-1.61-4.09-3.57-.74-2.68,.64-5.4,3-6.74,1.38-.79,4.46-.73,4.29-2.96-.14-1.79-2.35-3.4-3.95-3.85-1.07-.3-2.27-.13-3.15,.47-1.32-.07-2.77,.36-3.83,.79-1.02,.41-1.95,.94-2.8,1.56-.42-.42-.85-.82-1.3-1.2-.9-.75-2.18-1.55-3.38-1.47-1.23-.52-2.75,.12-3.61,1.19-1.58,1.99-1.99,5.16-2,7.62-.02,2.92,.71,5.77,2.05,8.35,.37,.71,1.44,.08,1.07-.62-1.73-3.33-2.32-7.2-1.55-10.88,.27-1.28,.79-3.69,2.16-4.42-.51,1.11-.02,2.65,1.4,2.67,1.34,.02,2.04-1.23,1.81-2.36,.32,.16,.61,.35,.8,.49,.56,.42,1.09,.9,1.6,1.4-3.08,2.69-5.04,6.62-6.78,10.3-.35,.73,.59,1.25,1.07,.62,.14-.18,.27-.35,.41-.53,.38,1.81,1.19,3.6,3.24,3.89,1.54,.22,2.41-.68,2.91-1.86,.54,1.14,1.4,2.08,2.81,2.07,2.05-.02,2.71-2.11,2.67-3.83,.64,1.86,2.11,3.24,3.88,3.83-.29,.36-.51,.79-.63,1.26-.53,2.11,.89,4.15,2.75,5.01,4.4,2.03,10.23-1.01,10.14-6.07-.01-.8-1.25-.8-1.24,0ZM6.05,12.46c-.5,.91-1.19-.01-.9-.57,.13-.25,.32-.38,.52-.46,.36,.24,.61,.62,.38,1.03Zm11.36-.33c.06-.14,.13-.26,.2-.37,.4,.07,.77,.23,1.04,.54,.45,.5,.43,1.23-.31,1.41-.92,.23-1.18-.96-.93-1.58Zm-2.64,12.87c-.13,1.3-1.3,2.46-2.54,1.4-.79-.67-.99-1.82-1.2-2.78-.16-.74-1.14-.48-1.22,.16-.15,1.28-.6,3.35-2.37,2.8-1.67-.52-1.92-2.64-2.09-4.1-.02-.19-.11-.34-.22-.44,1.38-2.77,2.96-5.46,5.31-7.51,.02-.01,.04-.03,.05-.04,1.45,1.68,2.59,3.66,3.33,5.72,.52,1.45,1.09,3.24,.94,4.8Zm-3.32-11.26c1.18-.85,2.51-1.51,3.93-1.82,.25-.06,.54-.11,.84-.16-.07,.19-.13,.38-.16,.6-.21,1.59,1.18,2.98,2.79,2.52,1.67-.47,1.73-2.53,.59-3.6-.11-.1-.24-.17-.36-.25,1.44,0,3.27,1.28,3.82,2.31,.71,1.33-.94,1.41-1.81,1.68-.81,.25-1.58,.62-2.28,1.11-1.92,1.34-3.11,3.5-3.17,5.78-.68-2.99-2.17-5.84-4.18-8.17Z" fill="#231f20"/><path d="M34.54,17.87c-.1-1.23-.21-2.48-.57-3.67-.54-1.79-1.7-3.51-3.5-4.13-2.29-.79-4.59,.53-5.47,2.72-.31,.76,.9,1.09,1.21,.34,.88-2.18,3.56-2.6,5.18-1.02,1.58,1.55,1.77,3.94,1.94,6.04,.17,2.16,.15,4.21-1.14,6.03-1.09,1.54-3.37,3.19-5.28,2.2-.72-.37-1.35,.73-.63,1.11,3.8,1.98,7.8-2.43,8.3-6.03,.17-1.2,.07-2.4-.03-3.6Z" fill="#231f20"/></g></svg>