<?xml version="1.0" encoding="UTF-8"?><svg xmlns="http://www.w3.org/2000/svg" viewBox="0 0 35 35"><g id="Example_glyph"><g id="Line_5-2"><text transform="translate(4.87 27.99)" fill="#bcbcbc" font-family="ArialMT, Arial" font-size="35"><tspan x="0" y="0">Ù</tspan></text><text transform="translate(-34.99 27.99)" fill="#bcbcbc" font-family="ArialMT, Arial" font-size="35"><tspan x="0" y="0">Œ</tspan></text></g></g><g id="Artwork_glyph"><path d="M27.28,13c-.7-2.38-1.96-4.71-4.21-5.93-1.86-1.01-4.15-1.55-6.32-1.72,.03-.02,.06-.04,.1-.06,2.93-1.63,6.48-1.41,9.3,.35,.68,.43,1.31-.65,.63-1.07-3.09-1.93-6.98-2.18-10.25-.51-.68,.34-1.31,.77-1.89,1.26-2.01,.11-4.43,.69-5.56,2.34-1.11,1.62,.09,3.79,2.13,3.19,1.21-.35,1.76-1.5,2.38-2.48,.43-.68,.96-1.3,1.55-1.84,1.13-.02,2.28,.12,3.37,.34,2.15,.44,4.44,1.07,5.84,2.88,2.49,3.23,2.83,7.98,1.59,11.75-.65,1.98-1.91,4.62-4.13,5.21-2.37,.63-4.3-1.26-4.33-3.43,.1-.42,.16-.85,.18-1.29,.03-.72-1.03-.82-1.23-.17-.14,.46-.2,.9-.21,1.33-.5,1.9-2.02,3.43-4.13,3.55-2.19,.12-4.31-1.65-4.19-3.91,.28-5.63,7.62-1.95,10.45-4.49,1.26-1.13,.96-2.99-.13-4.13-1.21-1.26-3.28-2.06-5.02-1.77-.55,.09-1.08,.3-1.54,.6-.21,.06-.43,.14-.63,.24-.29,.15-.35,.41-.28,.65-.28,.4-.46,.87-.5,1.39-.1,1.54,1.05,2.87,2.65,2.77,1.69-.11,2.75-1.8,2.24-3.38-.14-.42-.36-.76-.64-1.04,.45,.08,.89,.22,1.29,.4,.83,.37,1.78,.94,2.06,1.87,.41,1.34-.9,1.92-1.98,2.08-1.62,.23-3.27-.05-4.9,.19-2.67,.4-4.66,2.68-4.28,5.43,.35,2.52,2.71,4.39,5.22,4.35,2.05-.03,3.73-1.11,4.73-2.69,1.26,2.63,4.92,3.84,7.57,1.5,3.63-3.21,4.35-9.35,3.07-13.75ZM12.89,7.16c-.56,.77-1,2.12-1.95,2.44-.66,.23-1.16-.53-.89-1.11,.11-.23,.21-.34,.38-.51,.46-.44,1.14-.73,1.73-.95,.35-.13,.71-.22,1.07-.3-.11,.14-.24,.28-.35,.42Zm-1.23,9.04c-.42-.75-.05-1.57,.55-2.07,.85-.14,1.74,.3,1.81,1.28,.08,1.25-1.69,1.98-2.36,.79Z" fill="#231f20"/></g></svg>