<?xml version="1.0" encoding="UTF-8"?><svg xmlns="http://www.w3.org/2000/svg" viewBox="0 0 35 35"><g id="Example_glyph"><g id="Line_5-2"><text transform="translate(4.87 27.99)" fill="#bcbcbc" font-family="ArialMT, Arial" font-size="35"><tspan x="0" y="0">Ú</tspan></text></g></g><g id="Artwork_glyph"><path d="M23.95,10.99c-.25-.25-.52-.48-.8-.69,.02,0,.04-.01,.07-.02,1.16-.57,1.17-2.07,.87-3.17-.29-1.06-.93-2.02-1.76-2.72-1.86-1.59-4.41-1.84-6.65-.95-2.14,.85-4.43,2.74-4.51,5.27-.04,1.27,.55,2.51,1.66,3.13,1.12,.62,2.38,.53,3.58,.29-.23,1.77,.76,3.85,1.54,5.34,1.31,2.54,3.11,4.78,5.25,6.64-.37,.51-.78,.98-1.29,1.37-1.24,.98-2.79,1.31-4.33,1.4-1.55,.09-3.19,.08-4.69-.34-1.33-.37-2.63-1.17-3.26-2.47-.58-1.2-.4-2.9,.78-3.67,1.12-.74,2.64-.35,3.87-.85,.86-.35,1.62-1.03,1.7-2.02,.22-2.6-3.16-3.29-4.99-2.52-.34,.14-.65,.36-.92,.62-.04,.01-.09,.02-.13,.03-.29,.09-.39,.36-.35,.6-.25,.45-.36,.97-.24,1.5,.14,.64,.63,1.19,1.23,1.39-.49,.17-.95,.42-1.33,.84-1.46,1.59-1.18,4.02,.14,5.58,1.75,2.08,4.61,2.4,7.14,2.39,2.58-.01,5.13-.5,6.95-2.51,1.81-2.01,2.48-4.72,2.72-7.38,.23-2.62-.38-5.18-2.24-7.09Zm-9.26,5.59c1.11,1.65-1.31,2.16-2.37,2.26-.08,0-.16,.02-.24,.02,.6-.52,.84-1.44,.5-2.19-.17-.37-.44-.66-.77-.84,1.05-.27,2.36-.02,2.88,.75Zm-4.21,.22c.03-.06,.06-.11,.1-.17,.57-.02,1.24,.25,1.09,.95-.25,1.17-1.68,.25-1.19-.79ZM23.05,7.32c.13,.45,.24,1,.11,1.46-.21,.73-.81,.66-1.15,.11-.56-.91-.43-2.15,.05-3.06,.03-.06,.04-.11,.05-.17,.43,.48,.76,1.04,.94,1.66Zm-10.79,2.05c-.34-1.8,1.08-3.34,2.45-4.23,1.5-.97,3.39-1.45,5.13-.93,.58,.17,1.13,.47,1.61,.85-.12,.03-.23,.1-.31,.25-.57,1.07-.73,2.35-.33,3.51,.06,.16,.13,.32,.22,.48-1.13-.27-2.32-.14-3.35,.64-.4,.3-.68,.65-.89,1.02-1.65,.4-4.11,.65-4.53-1.58Zm11.51,13.82c-1.97-1.74-3.63-3.79-4.86-6.13-.67-1.27-1.48-2.8-1.51-4.26-.04-1.75,1.54-2.79,3.14-2.54,3.12,.5,4.76,4.06,4.66,6.96-.07,1.99-.45,4.17-1.43,5.97Z" fill="#231f20"/></g></svg>