<?xml version="1.0" encoding="UTF-8"?><svg xmlns="http://www.w3.org/2000/svg" viewBox="0 0 35 35"><g id="Example_glyph"><g id="Line_6-2"><text transform="translate(4.87 27.99)" fill="#bcbcbc" font-family="ArialMT, Arial" font-size="35"><tspan x="0" y="0">Û</tspan></text></g></g><g id="Artwork_glyph"><path d="M25.82,11.86c-2.2-2.47-5.5-2.43-7.97-.35-2.73,2.31-4.31,6.23-5.42,9.56-.24,.76,.92,1.07,1.17,.33,.49-1.54,2.14-2.46,3.67-1.93,1.65,.58,2.45,2.4,1.97,4.06-1.05,3.59-6.66,3.57-9.24,1.95-1.5-.95-2.34-2.59-2.63-4.42,0,0,.02,0,.03,0,1.96-.61,4.15-1.41,5.16-3.38,1.08-2.1,.11-4.31-.94-6.2,.99-.41,2.13-.51,3.38-.15,.75,.22,1.07-.97,.32-1.19-3.19-.92-6.44,.97-7.94,3.85-1.53,2.94-2,7.62-.12,10.5,2,3.09,6.13,3.81,9.44,2.84,3-.87,5.1-4.33,3.18-7.25-1.23-1.88-3.46-2.34-5.2-1.56,.78-1.85,1.75-3.65,3.02-5.13,1.98-2.32,5.06-3.12,7.26-.65,3.32,3.73,4.63,12.01-1.19,14.09-.73,.26-.42,1.45,.32,1.19,6.73-2.41,5.71-11.69,1.73-16.15Zm-15.25,.21c.85,1.52,1.83,3.41,.88,5.1-.86,1.54-2.62,2.15-4.19,2.64-.08-2.98,1.16-6.18,3.31-7.74Z" fill="#231f20"/></g></svg>