<?xml version="1.0" encoding="UTF-8"?><svg xmlns="http://www.w3.org/2000/svg" viewBox="0 0 35 35"><g id="Example_glyph"><g id="Line_6-2"><text transform="translate(4.87 27.99)" fill="#bcbcbc" font-family="ArialMT, Arial" font-size="35"><tspan x="0" y="0">Ü</tspan></text></g></g><g id="Artwork_glyph"><path d="M25.09,4.48c-1.39-1.57-3.35-1.92-5.27-1.16-1.29,.51-2.52,1.25-3.65,2.11-1.38-.07-2.79,.18-4.21,.66-.99,.34-2.26,.71-2.7,1.76-.42,.99,.16,2.08,1.11,2.5,1.26,.55,2.55-.15,3.48-1,.95-.88,1.83-1.76,2.79-2.57,4.49,.69,8.49,5.36,8.36,9.81-.14,5.14-4.08,10.36-9.6,10.13-2.73-.11-5.43-1.9-6.28-4.55-.94-2.91,.82-6.4,4.18-6.13,.83,.07,.82-1.22,0-1.29-2.75-.22-5.13,1.81-5.63,4.47-.49,2.63,.69,5.26,2.74,6.91,4.73,3.79,11.44,1.32,14.21-3.59,1.51-2.67,2.24-6.21,1.2-9.16-.94-2.67-3.07-5.12-5.46-6.63-.76-.48-1.54-.81-2.34-1.03,.11-.07,.2-.15,.31-.21,1.77-1.08,3.89-2.08,5.61-.38,1.49,1.46,1.6,3.71,1.72,5.66,.05,.82,1.34,.83,1.29,0-.13-2.21-.33-4.59-1.87-6.32Zm-12.4,4.18c-.46,.37-1.84,1.11-2.22,.15-.46-1.18,3.02-1.86,3.65-1.99,.16-.03,.32-.04,.48-.06-.18,.17-.36,.34-.53,.51-.46,.46-.88,.98-1.39,1.39Z" fill="#231f20"/></g></svg>