<?xml version="1.0" encoding="UTF-8"?><svg xmlns="http://www.w3.org/2000/svg" viewBox="0 0 35 35"><g id="Example_glyph"><g id="Line_6-2"><text transform="translate(5.84 27.99)" fill="#bcbcbc" font-family="ArialMT, Arial" font-size="35"><tspan x="0" y="0">Ý</tspan></text></g></g><g id="Artwork_glyph"><path d="M23.7,10.83c.73-.12,1.4-.56,1.78-1.26,.6-1.08,.48-2.39-.15-3.42-1.44-2.36-4.7-3.43-7.32-3.17-2.72,.27-5.59,2.13-5.54,5.19,.03,1.43,.82,2.7,1.95,3.53,1.32,.97,3,1.22,4.59,1.12-.05,.21-.1,.42-.14,.62-.24,1.41-.1,2.87,.34,4.23,.46,1.39,1.19,2.68,2.05,3.86,.58,.79,1.26,1.47,2.14,1.65-1.36,2.47-4.21,3.2-6.81,3.44-2.66,.24-6.17-.17-6.69-3.43-.46-2.91,2.06-5.04,4.76-5.08,.99-.01,2.14-.03,2.71-1,.6-1,.12-2.26-.55-3.09-1.35-1.67-4.29-2.42-5.93-.72-.84,.87-.95,2.34,0,3.16,.81,.69,2.07,.67,2.77-.15,.65-.75,.67-1.96,0-2.7,.3,.03,.6,.1,.87,.21,.59,.24,1.12,.64,1.48,1.18,.45,.66,.64,1.63-.35,1.84-.57,.11-1.17,.02-1.75,.08-.58,.06-1.14,.2-1.68,.42-2.14,.87-3.68,2.92-3.62,5.3,.06,2.39,1.62,4.24,3.85,4.94,2.37,.74,5.39,.37,7.71-.42,2.43-.82,4.19-2.51,4.94-5.01,.8-2.65,.66-5.65-.13-8.29-.24-.81-.68-2.1-1.33-3.05Zm-11.97,4.72c-.38-.31-.36-.68-.16-1.02,0,0,.01,0,.02-.01,.43-.44,1.27-.38,1.39,.33,.12,.74-.7,1.15-1.24,.71Zm12.53-6.33c-.7,.83-1.99,.35-2.27-.62-.33-1.12,.51-2.07,1.54-2.34,.09-.02,.16-.06,.22-.11,.86,.87,1.41,2.02,.52,3.07Zm-5.04,2.37c-1.94,.15-4.23-.25-5.21-2.17-.98-1.92,.44-3.98,2.2-4.74,1.89-.82,4.2-.6,6,.34,.14,.07,.28,.16,.43,.25-1,.44-1.77,1.32-1.92,2.44-.1,.73,.09,1.45,.48,2.03-.14,.06-.29,.14-.44,.24-.57,.38-1,.98-1.31,1.64-.07-.02-.14-.04-.23-.03Zm4.72,10.43c-1.28,.1-2.32-2.07-2.82-3-.69-1.29-1.15-2.72-1.15-4.19,0-1.21,.35-3.18,1.51-3.83,1.29-.72,2.17,2.54,2.41,3.36,.68,2.36,.88,5.25,.05,7.66Z" fill="#231f20"/></g></svg>