<?xml version="1.0" encoding="UTF-8"?><svg xmlns="http://www.w3.org/2000/svg" viewBox="0 0 35 35"><g id="Example_glyph"><g id="Line_6-2"><text transform="translate(5.84 27.99)" fill="#bcbcbc" font-family="ArialMT, Arial" font-size="35"><tspan x="0" y="0">Þ</tspan></text></g></g><g id="Artwork_glyph"><path d="M23.34,29.76c-1.15,2.68-3.76,4.38-6.64,3.96-1.44-.21-2.96-1-3.1-2.65-.13-1.5,.88-2.58,2.19-2.79,.25-.01,.51-.02,.76-.04,.74-.05,.73-1.1,0-1.17-.38-.04-.72,0-1.05,.05-1.81,.06-3.65-.07-5.31-.9-1.75-.87-3.21-2.67-3.04-4.77,.17-2.17,2.13-3.48,3.98-4.05,1.39-.43,3.43-.27,4.53-1.39,2.24-2.29-1.86-5.82-3.94-6.13-1.38-.21-2.82,.32-3.58,1.56-.62,1.02-.65,2.45,.25,3.32,.99,.96,2.51,.47,2.76-.9,.22-1.19-.59-2-1.58-2.31,.47-.38,1.09-.57,1.7-.54,.95,.04,1.8,.55,2.48,1.21,.52,.5,1.46,1.53,1.37,2.33-.12,1.15-1.68,1.16-2.49,1.31-.87,.16-1.73,.35-2.55,.68-1.21,.48-2.34,1.22-3.11,2.31-1.56,2.18-1.02,5.14,.78,7,1.56,1.61,3.64,2.22,5.78,2.39-1.47,1.67-1.4,4.65,1.01,5.99,3.65,2.03,8.24-.17,9.83-3.87,.29-.68-.69-1.28-.98-.59ZM9.66,13.87c-.75,.36-.92-.57-.8-1.17,0-.04,.02-.07,.03-.11,.62,.06,1.73,.82,.77,1.28Z" fill="#231f20"/><path d="M24.4,10.28c-1.72-.88-3.79-.41-4.93,1.37-.48,.75,.61,1.48,1.08,.74,1.08-1.7,3.26-1.2,4.42,.06,1.49,1.6,2.15,4.18,2.27,6.47,.11,2.18-.14,5.31-1.7,6.81-1.7,1.65-4.03,.51-5.59-.78-.66-.54-1.28,.72-.63,1.26,1.6,1.32,3.6,2.25,5.56,1.55,1.97-.71,2.92-2.86,3.34-5.07,.8-4.17-.05-10.48-3.83-12.41Z" fill="#231f20"/></g></svg>