<?xml version="1.0" encoding="UTF-8"?><svg xmlns="http://www.w3.org/2000/svg" viewBox="0 0 35 35"><g id="Example_glyph"><g id="Line_8-2"><text transform="translate(6.82 27.99)" fill="#bcbcbc" font-family="ArialMT, Arial" font-size="35"><tspan x="0" y="0">ß</tspan></text></g></g><g id="Artwork_glyph"><path d="M21.24,3.99c-2.71-1.66-6.18-1.33-8.52,.86-1.73,1.62-4.07,6.38-.87,7.73,.83,.35,1.63,.33,2.38,.07-.02,.04-.05,.07-.07,.11-1.22,1.74-2.6,3.45-3.52,5.4-1.51,3.23-1.19,7.23,2.18,8.92,2.84,1.42,7.51,1.39,9.45-1.58,1.92-2.94,1.5-7.34-1.03-9.74-2.14-2.03-5.18-2.25-7.43-.69,1.03-1.53,2.12-3.02,3.21-4.5,.83-.95,1.54-2.02,2.08-2.87,.4-.64-.55-1.19-.97-.59-.62,.89-1.25,1.77-1.87,2.66-1.06,1.24-2.36,2.2-3.8,1.76-1.66-.51-.98-2.72-.41-3.89,.53-1.08,1.35-2.01,2.35-2.65,1.99-1.27,4.62-1.14,6.55,.2,2.13,1.48,3.08,4.31,2.54,6.9-.15,.74,.92,1.05,1.08,.31,.67-3.22-.57-6.71-3.33-8.4Zm-7.96,13.16c2.42-3.41,7.29-2,8.65,1.68,.69,1.88,.51,4.21-.54,5.92-1.19,1.94-3.5,2.09-5.51,1.93-1.98-.16-4.16-1.04-4.84-3.19-.63-2,.12-4.1,1.11-5.8,.08-.14,.17-.29,.26-.43,.24,.19,.63,.22,.86-.11Z" fill="#231f20"/></g></svg>