<?xml version="1.0" encoding="UTF-8"?><svg xmlns="http://www.w3.org/2000/svg" viewBox="0 0 35 35"><g id="Example_glyph"><g id="Line_7-2"><text transform="translate(7.78 27.99)" fill="#bcbcbc" font-family="ArialMT, Arial" font-size="35"><tspan x="0" y="0">à</tspan></text></g></g><g id="Artwork_glyph"><path d="M23.79,11.96c-.26-.23-.54-.44-.83-.61,1.32-.27,2.36-1.63,2.11-3.22-.39-2.57-3.33-4.18-5.56-4.79-2.53-.69-5.35-.45-7.66,.83-2.24,1.23-3.31,3.97-1.08,5.86,2.38,2.02,5.95,1.07,8.76,1.38,1.52,.17,3.14,.69,4.09,1.98,.97,1.32,1.22,3.22,1.29,4.83,.15,3.44-1.2,6.36-4.39,7.79-3.27,1.47-7.74,1.17-9.72-2.25-.92-1.59-.97-3.73,.08-5.27,1.03-1.52,3.11-2.13,4.76-1.36,.63,.3,1.18-.65,.55-.95-2.04-.96-4.52-.42-5.96,1.37-1.48,1.85-1.55,4.58-.43,6.63,2.64,4.86,9.57,4.67,13.39,1.48,1.95-1.63,2.77-4.09,2.82-6.59,.05-2.39-.33-5.45-2.21-7.11Zm-.12-4.6c.53,.93,.56,2.44-.64,2.86-1,.35-1.96-.41-2.18-1.4-.23-1.08,.41-2.01,1.32-2.48,.16-.08,.24-.2,.26-.33,.48,.38,.93,.82,1.23,1.35Zm-7.55,2.89c-1.42,0-3.04,.01-4.29-.78-.81-.52-1.47-1.49-1.2-2.5,.25-.92,1.12-1.51,1.9-1.92,2.8-1.47,6.35-1.25,9.04,.38-1.8,.97-2.46,3.53-1.05,5.05-1.44-.26-2.96-.23-4.4-.23Z" fill="#231f20"/></g></svg>