<?xml version="1.0" encoding="UTF-8"?><svg xmlns="http://www.w3.org/2000/svg" viewBox="0 0 35 35"><g id="Example_glyph"><g id="Line_7-2"><text transform="translate(7.78 27.99)" fill="#bcbcbc" font-family="ArialMT, Arial" font-size="35"><tspan x="0" y="0">รก</tspan></text></g></g><g id="Artwork_glyph"><path d="M25.12,13.33c-.41-.78-.95-1.48-1.59-2.07,.03-.02,.06-.04,.09-.07,1.36-1.56,1.23-3.84-.05-5.42-1.52-1.87-4.12-2.6-6.43-2.79-2.22-.18-5.03,.09-6.84,1.53-1.64,1.31-1.65,3.47-.26,4.98,1.86,2.01,4.77,1.49,7.19,1.24,2.91-.3,5.42,.49,6.84,3.21,2.56,4.87-1.4,12.55-6.99,12.93-3.15,.21-6.05-1.67-7.05-4.69-.46-1.4-.54-3.03,.06-4.4,.8-1.83,2.73-2.15,4.52-1.9,.77,.11,1.1-1.07,.32-1.17-2.28-.32-4.75,.09-5.86,2.36-1.02,2.08-.72,4.68,.31,6.69,2.27,4.46,8.16,5.63,12.1,2.68,3.79-2.85,5.95-8.71,3.64-13.1Zm-14.11-4.57c-1.35-1.35-.77-2.98,.82-3.76,1.59-.77,3.57-.94,5.31-.79,1.67,.15,3.5,.59,4.83,1.68,1.29,1.05,2.01,3.05,.79,4.45-.06,.07-.1,.15-.13,.22-.79-.53-1.67-.9-2.63-1.05-2.74-.42-6.75,1.48-8.99-.75Z" fill="#231f20"/></g></svg>