<?xml version="1.0" encoding="UTF-8"?><svg xmlns="http://www.w3.org/2000/svg" viewBox="0 0 35 35"><g id="Example_glyph"><g id="Line_7-2"><text transform="translate(7.78 27.99)" fill="#bcbcbc" font-family="ArialMT, Arial" font-size="35"><tspan x="0" y="0">â</tspan></text></g></g><g id="Artwork_glyph"><path d="M28.48,7.28c-1.4-3.11-4.87-4.86-8.27-4.06-1.7,.4-3.08,1.4-4.15,2.73-.11,.13-.2,.27-.3,.41-1.25-.03-2.51,.16-3.73,.61-1.65,.6-4.12,2.32-2.77,4.34,1.24,1.85,3.74,.46,4.9-.69,.87-.86,1.53-1.93,2.24-2.93,1.28,.11,2.54,.46,3.67,1.05,3.71,1.94,5.73,6.04,5.49,10.08-.14,2.32-.98,5.14-2.67,6.86-1.9,1.94-4.75,.46-4.66-1.81,.09-.31,.16-.63,.21-.97,0-.01,0-.02,0-.03h0c0-.06,.02-.11,.03-.17,.08-.78-1.04-.79-1.29-.17-.16,.39-.23,.8-.26,1.21-.41,1.17-1.28,2.15-2.49,2.61-1.46,.56-3.78,.43-4.41-1.25-1.03-2.75,1.79-5.61,4.42-5.9,.49-.03,.98-.05,1.47-.09,1.05-.07,2.26-.4,2.37-1.63,.09-1.1-.69-2.28-1.49-2.98-1.63-1.42-4.22-1.43-5.61,.29-.06,.06-.11,.11-.16,.18,0,0-.01,.01-.02,.02-.56,.81-.7,1.97-.11,2.81,.08,.11,.17,.21,.26,.3-1.52,.08-3.03,.17-4.55,.25-.84,.05-.84,1.33,0,1.28,1.41-.08,2.83-.15,4.24-.23-.49,.41-.94,.88-1.31,1.43-1.08,1.6-1.5,4.03-.22,5.64,1.28,1.61,3.82,1.75,5.62,1.04,.98-.39,1.77-1.02,2.36-1.8,.37,.77,.99,1.43,1.84,1.82,2.18,.98,4.24-.16,5.46-1.96,2.85-4.17,3.1-9.96,.25-14.19-1.74-2.58-4.53-4.36-7.55-4.87,.61-.7,1.31-1.31,2.22-1.71,3.1-1.34,6.5,.18,7.82,3.13,.34,.75,1.47,.1,1.13-.65Zm-14.7,7.44c1.35-.16,2.6,.87,3.07,2.05,.12,.3,.25,.69-.08,.89-.26,.16-.67,.16-.97,.17-.71,.04-1.43,.08-2.14,.12,0,0,.02-.01,.02-.02,.81-.86,.71-2.36-.14-3.16,.08-.02,.16-.04,.23-.05Zm-1.96,1.46c.12-.1,.2-.24,.22-.42,.04-.05,.08-.11,.13-.16,.12-.05,.29-.04,.37,0,.24,.12,.36,.46,.39,.71,.05,.49-.55,1.41-.98,.74-.19-.29-.21-.59-.13-.86Zm.92-6.03c-.37,.3-.81,.59-1.28,.7-.82,.18-1.48-.52-1.08-1.29,.54-1.03,2.22-1.49,3.27-1.71,.38-.08,.77-.13,1.16-.16-.61,.9-1.23,1.79-2.08,2.47Z" fill="#231f20"/></g></svg>