<?xml version="1.0" encoding="UTF-8"?><svg xmlns="http://www.w3.org/2000/svg" viewBox="0 0 35 35"><g id="Example_glyph"><g id="Line_7-2"><text transform="translate(7.78 27.99)" fill="#bcbcbc" font-family="ArialMT, Arial" font-size="35"><tspan x="0" y="0">ã</tspan></text></g></g><g id="Artwork_glyph"><path d="M25.1,15.83c-.31-1.84-1.07-3.73-2.68-4.86-.11-.08-.23-.14-.35-.2,1.57-.57,2.8-2.11,2.08-3.8-.88-2.06-4.12-3.19-6.16-3.67-2.32-.54-4.97-.33-6.87,1.2-1.58,1.28-2.54,3.52-1.78,5.47,.9,2.28,3.48,2,5.52,1.68,2.97-.47,6.46-1.26,8.2,1.86,.85,1.53,.97,3.34,1.1,5.04,.12,1.65,.2,3.37-.39,4.95-.57,1.55-1.87,2.95-3.67,2.97-1.05,.01-2.02-.64-2.37-1.51,.21-.64,.29-1.35,.18-2.11-.08-.52-.88-.56-1.12-.14-.39,.72-.48,1.51-.31,2.26-.36,.82-1.05,1.49-1.98,1.76-1.47,.42-2.83-.2-3.77-1.32-.87-1.03-1.51-2.43-1.37-3.79,.1-1.02,.7-1.91,1.57-2.35,1.29-.12,2.58-.24,3.87-.36,1.08-.1,2.88,.03,2.99-1.43,.08-1.16-1.13-2.05-2-2.64-1.91-1.29-5.22-1.39-6.02,1.21-.22,.71-.13,1.51,.28,2.12-1.61,.15-3.22,.3-4.83,.45-.77,.07-.78,1.26,0,1.19,1.23-.12,2.46-.23,3.69-.35-.27,.38-.49,.8-.61,1.26-.59,2.07,.4,4.4,1.88,5.88,2.19,2.19,5.35,1.63,6.88-.36,.12,.16,.25,.32,.4,.46,1.21,1.16,3.14,1.21,4.61,.52,4.16-1.95,3.64-7.73,3.02-11.38Zm-2.25-7.01c-.85,1.27-3.03,1.28-4.25,.56-1.7-.99-1.21-3.46,.79-3.69,.32-.04,.5-.27,.56-.51,2.07,.81,3.94,2.08,2.9,3.64Zm-10.26,1.87c-1.7-.02-2.53-1.2-2.22-2.81,.51-2.63,3.32-3.81,5.81-3.66,.48,.03,1.38,.2,2.36,.49-1.61,.56-2.65,2.13-2.09,3.9,.19,.6,.56,1.06,1.02,1.43-.42,.04-.83,.1-1.24,.16-1.21,.2-2.42,.5-3.65,.49Zm2.1,4.86c.38,.21,2.42,1.54,1.73,1.99-.19,.12-.68,.08-.91,.1-.31,.03-.62,.06-.93,.09-.22,.02-.43,.04-.65,.06,.22-.72,.03-1.57-.57-2.1-.36-.32-.79-.46-1.23-.47,.84-.29,1.8-.08,2.56,.34Zm-3.37,1.22c.52-.76,1.75-.23,1.46,.67-.05,.17-.16,.29-.29,.37-.05-.02-.1-.04-.17-.04-.29-.02-.57,.01-.85,.06-.16-.07-.29-.17-.39-.29-.12-.16-.18-.33-.21-.5,.17-.02,.33-.09,.44-.26Z" fill="#231f20"/></g></svg>