<?xml version="1.0" encoding="UTF-8"?><svg xmlns="http://www.w3.org/2000/svg" viewBox="0 0 35 35"><g id="Example_glyph"><g id="Line_7-2"><text transform="translate(7.78 27.99)" fill="#bcbcbc" font-family="ArialMT, Arial" font-size="35"><tspan x="0" y="0">ä</tspan></text></g></g><g id="Artwork_glyph"><path d="M25.64,13.13c3.83-1.49,.82-7.45-1.49-9.07-1.8-1.26-4.48-1.14-6.57-.89-2.22,.26-4.71,.85-6.55,2.17-1.45,1.04-2.49,2.91-1.69,4.66,.82,1.78,2.93,2.4,4.76,2.3,2.4-.14,4.79-1.37,7.2-.74,2.27,.59,3.99,2.61,4.6,4.79,.76,2.72,.08,5.95-1.45,8.31-.8,1.24-2.07,2.37-3.67,2.08-1.15-.2-1.9-.98-2.17-1.93,.19-.66,.24-1.41,.07-2.21-.13-.64-1.02-.53-1.21,0-.28,.79-.3,1.54-.16,2.22-.34,.88-1.04,1.59-2.04,1.89-1.64,.49-3.32-.43-4.16-1.81-1.38-2.25-.32-4.94,1.9-6l2.34-.16c.95-.07,2.45,.02,2.58-1.24,.11-1.02-.83-1.85-1.62-2.34-1.31-.8-3.82-1.16-4.82,.28-.03,.03-.06,.06-.08,.09-.04,.05-.05,.11-.07,.16-.03,.07-.08,.12-.11,.19-.25,.66-.04,1.38,.42,1.88-1.33,.09-2.66,.19-3.99,.28-.8,.06-.8,1.29,0,1.23,1.03-.07,2.06-.14,3.09-.22-1.82,1.99-2.1,5.15-.03,7.39,2.21,2.38,5.62,1.85,7.2-.24,1.24,1.77,3.89,2.49,6,.88,3.13-2.38,4.22-7.66,3.12-11.25-.3-1-.79-1.91-1.4-2.69Zm-6.94-2.89c-2.3,.3-5.25,1.69-7.38,.21-1.26-.87-1.24-2.39-.27-3.49,.89-1.01,2.32-1.52,3.57-1.91,1.37-.43,2.79-.68,4.23-.75,1.37-.06,3.03-.11,4.27,.58,1.69,.93,5.05,6.34,1.78,7.22-.06,.02-.1,.05-.15,.08-1.59-1.45-3.74-2.23-6.05-1.93Zm-4.22,7.29c.36-.53,.42-1.21,.18-1.78,.75,.19,1.47,.61,1.88,1.19,.11,.16,.23,.34,.09,.44-.11,.08-.39,.04-.52,.05-.22,.02-.43,.03-.65,.05-.33,.02-.66,.05-.99,.07,0,0,.01-.01,.01-.02Zm-1.98-1.4c.21-.26,.76-.23,.97,0,.23,.27,.06,.73-.21,.9-.37,.23-.82-.13-.87-.51-.02-.16,.03-.29,.12-.4Z" fill="#231f20"/></g></svg>