<?xml version="1.0" encoding="UTF-8"?><svg xmlns="http://www.w3.org/2000/svg" viewBox="0 0 35 35"><g id="Example_glyph"><g id="Line_7-2"><text transform="translate(7.78 27.99)" fill="#bcbcbc" font-family="ArialMT, Arial" font-size="35"><tspan x="0" y="0">å</tspan></text></g></g><g id="Artwork_glyph"><path d="M16.81,5.82c1.12-.96,2.56-1.53,4.03-1.63,3.12-.22,5.94,1.87,6.91,4.8,.25,.76,1.46,.43,1.2-.34-1.04-3.17-3.89-5.54-7.27-5.72-1.63-.08-3.31,.36-4.7,1.22-.75,.46-1.31,1.06-1.83,1.69-.46,.03-.9,.07-1.33,.15-1.41,.24-5.43,1.25-4.65,3.44,.78,2.16,3.73,.84,4.81-.22,.65-.65,1.15-1.42,1.71-2.15,1.87-.05,3.74,.35,5.48,1.01,2.16,.82,4.17,1.99,5.33,4.07,1.13,2.04,1.33,4.42,1.14,6.7-.2,2.5-.79,5.48-3.01,7-1.06,.72-2.54,.99-3.71,.37-.69-.37-1.15-1.01-1.3-1.72,.21-.62,.33-1.27,.31-1.94-.02-.6-.86-.87-1.17-.31-.36,.66-.49,1.39-.43,2.09-1.1,2.48-4.61,3.42-6.64,1-2.62-3.12,.6-7.45,4.31-6.66,.35,.07,.6-.13,.71-.38,.64,0,1.31-.02,1.82-.35,1.44-.91,.42-2.86-.56-3.65-1.15-.93-2.78-1.25-4.16-.68-.35-.1-.72-.14-1.06-.1-1.66,.18-3.09,1.43-4.04,2.74-.21,.29-.39,.59-.55,.89-.68,0-1.37,.02-2.05,.03-.8,.01-.8,1.26,0,1.25,.51,0,1.01-.01,1.52-.02-.93,3,.22,6.27,2.14,8.83,.48,.64,1.56,0,1.08-.64-1.45-1.93-2.66-4.32-2.28-6.81,.07-.48,.21-.95,.39-1.41,.94-.01,1.88-.03,2.82-.04-.47,.33-.91,.73-1.26,1.22-1.36,1.85-1.33,4.59,.07,6.41,1.33,1.73,3.79,2.5,5.86,1.78,.99-.34,1.81-1,2.4-1.82,.34,.56,.81,1.04,1.42,1.37,1.98,1.07,4.39,.37,5.91-1.14,1.87-1.85,2.44-4.57,2.67-7.09,.24-2.69-.05-5.54-1.49-7.88-2.06-3.35-6.51-5.16-10.58-5.35Zm-3.71,2.5c-.37,.36-.78,.67-1.27,.85-.51,.19-.71,.31-1.03-.21-.29-.48-.27-.39,.16-.66,.93-.57,2.03-.9,3.11-1.09-.3,.38-.62,.76-.98,1.11Zm2.2,6.25c.82,0,1.65,.35,2.2,.96,.23,.26,.68,.87,.46,1.24-.26,.44-1.64,.24-2.09,.24-.24,0-.47,0-.71,0,.23-.25,.41-.57,.48-.94,.12-.59-.04-1.1-.35-1.52Zm-1.83,.85c.09-.2,.25-.35,.44-.48,.14,.08,.26,.18,.35,.31,.27,.38,.11,1.36-.53,1.15-.38-.12-.4-.69-.26-.99Zm-3.54,1.26c.61-.77,1.5-1.59,2.49-1.87-.36,.65-.41,1.43,.08,2.14,.03,.04,.07,.06,.1,.1-.98,.01-1.97,.03-2.95,.04,.09-.14,.18-.28,.29-.41Z" fill="#231f20"/></g></svg>