<?xml version="1.0" encoding="UTF-8"?><svg xmlns="http://www.w3.org/2000/svg" viewBox="0 0 35 35"><g id="Example_glyph"><g id="Line_7-2"><text transform="translate(1.95 27.99)" fill="#bcbcbc" font-family="ArialMT, Arial" font-size="35"><tspan x="0" y="0">æ</tspan></text></g></g><g id="Artwork_glyph"><g><path d="M17.72,26.55s.03-.03,.04-.04c0,0,0,0,0,0-.02,.01-.04,.03-.04,.04Z" fill="#231f20"/><path d="M18.65,24.92c-.42-.49-1.12-.69-1.76-.58-.17-.07-.37-.08-.56,.02-.68,.34-1.14,1.12-1.06,1.86,.09,.82,.68,1.57,1.55,1.73,.43,.08,.85,.04,1.25-.15,.33-.15,.62-.43,.81-.74,.42-.69,.29-1.55-.23-2.15Zm-.77,1.38s0-.02,0-.04c0,.03-.01,.06-.02,.08v.03s-.04,.06-.05,.09c-.01,.02-.02,.04-.04,.06,0,0,0,0,0,0,0,0,0,0-.01,.01,0,0,0,0,0,.01-.03,.04-.04,.04-.03,.02-.02,.02-.03,.04-.05,.06-.02,.02-.04,.03-.05,.05,0,0,0,0,0,0-.04,.03-.09,.05-.14,.08-.02,0-.04,.01-.06,.02-.02,0-.05,0-.09,.01,.02,0,.02,0-.03,0-.01,0-.03,0-.03,0,0,0,.01,0,.02,0-.03,0-.07,0-.1,0,0,0,.01,0,.01,0,0,0-.02,0-.04,0-.02,0-.03,0-.03,0,0,0,0,0,0,0-.06-.01-.11-.03-.16-.05-.02-.01-.04-.02-.07-.03-.02-.01-.05-.03-.07-.04,0,0,0,0-.01,0-.02-.01-.11-.11-.13-.12-.02-.02-.03-.05-.04-.06-.02-.04-.04-.08-.07-.12-.01-.04-.02-.07-.03-.11,0-.03-.01-.05-.02-.08,0,0,0,0,0,0,0-.03,.01-.14,0-.19,0-.03,.01-.06,.02-.08,0-.02,.02-.05,.02-.07,.02-.03,.03-.06,.05-.08,.07-.01,.15-.03,.21-.08,.01,0,.12-.06,.15-.08,.02,0,.03-.01,.05-.02,.03,0,.05-.01,.08-.02,0,0,0,0-.01,0,0,0,.01,0,.02,0,0,0,0,0,.01,0,.06-.01,.06,0,.03,0,.05,0,.11,0,.13,0,0,0,0,0,0,0,.02,0,.06,0,.07,0,.05,.01,.09,.03,.14,.04,.03,.01,.05,.03,.08,.04,.02,.01,.04,.02,.05,.03,0,0,0,0,0,0,.04,.04,.07,.07,.11,.11,.01,.02,.02,.03,.03,.05,.01,.02,.03,.04,.04,.06,.01,.02,.05,.12,.02,.03,0,.01,0,.02,0,.03,.01,.03,.02,.07,.03,.1,0,.02,0,.03,.01,.05,0,.05,0,.1,0,.15,0,.02,0,.05,0,.07Z" fill="#231f20"/><path d="M17.88,26.26s0,0,0,0c.01-.06,0-.05,0,0Z" fill="#231f20"/><path d="M17.12,26.77s.01,0,.03,0c0,0,0,0,.02,0,0,0,0,0,.01,0-.02-.01-.06-.01-.06,0Z" fill="#231f20"/><path d="M17.17,25.53s-.03,0-.04,0c0,0,0,0,0,0,.02,0,.04,0,.05,0Z" fill="#231f20"/><path d="M17.29,26.78s0,0,0,0c.01,0,.02,0,.03,0-.01,0-.03,0-.05,.01,0,0,0,0,0,0Z" fill="#231f20"/></g><path d="M17.94,3.6c-.03-.88-1.28-.89-1.25,0,.2,5.89,.13,11.79-.21,17.68-.05,.89,1.2,.88,1.25,0,.34-5.89,.42-11.79,.21-17.68Z" fill="#231f20"/></g></svg>