<?xml version="1.0" encoding="UTF-8"?><svg xmlns="http://www.w3.org/2000/svg" viewBox="0 0 35 35"><g id="Example_glyph"><g id="Line_7-2"><text transform="translate(8.76 27.99)" fill="#bcbcbc" font-family="ArialMT, Arial" font-size="35"><tspan x="0" y="0">รง</tspan></text></g></g><g id="Artwork_glyph"><path d="M27.45,16.55c-.44-1.53-1.31-2.9-2.41-4.02,1.12-.93,1.63-2.39,1.42-3.88-.26-1.82-1.59-3.25-3.09-4.16-3.35-2.02-8.77-2.26-11.85,.49-1.23,1.1-1.85,3.08-.71,4.49,1.2,1.49,3.51,1.39,5.21,1.36,2.42-.05,4.71-.05,6.82,1.32,1.81,1.18,3.17,3.06,3.66,5.19,.54,2.41-.05,5.05-1.51,7.03-.81,1.1-2.01,2.18-3.38,2.43-1.38,.26-2.92-.56-2.93-1.93,.09-.31,.16-.63,.18-.97,.04-.7-.89-.7-1.11-.15-.14,.34-.19,.68-.2,1.02-.77,2.18-3.9,2.54-5.03,.19-.88-1.85-.81-5.9,1.98-5.82,.12,0,.21-.03,.28-.08,.23,0,.46,0,.7,0,.69,0,1.51,.09,2.08-.4,1.06-.92,.28-2.32-.61-2.99-.97-.73-2.3-1.23-3.45-.71-1.45-.12-2.54,1.09-3.11,2.31-.1,.22-.18,.44-.28,.66-.79,0-1.57,0-2.36,.01-.72,0-.73,1.15,0,1.14,.65,0,1.3,0,1.94,0-.81,2.58-.93,5.42,.25,7.89,.32,.66,1.29,.08,.97-.58-.85-1.78-.88-3.82-.47-5.73,.11-.53,.27-1.07,.44-1.59,.37,0,.73,0,1.1,0-1.5,1.76-1.36,5.23-.1,7.05,1.6,2.32,4.54,1.96,6.03,.15,.34,.61,.87,1.12,1.55,1.42,1.68,.72,3.49,.06,4.85-1.03,2.9-2.33,4.16-6.53,3.12-10.12Zm-7.64-6.76c-2.28-.34-4.77,.35-6.99-.35-1.4-.44-1.9-1.79-1.05-3.05,.76-1.12,2.22-1.64,3.46-1.96,2.6-.66,5.58-.28,7.84,1.22,1.89,1.26,3.52,4.44,1.11,6.1-1.27-1.02-2.77-1.73-4.38-1.97Zm-4.67,6.18c.58,.16,1.14,.54,1.49,.93,.2,.21,.49,.67,.17,.92-.32,.25-1.17,.1-1.54,.1h-.21c.12-.16,.22-.33,.28-.55,.15-.51,.05-1-.2-1.41Zm-1.44,.19c.25,.09,.48,.27,.56,.52,.1,.3-.1,.8-.46,.77-.28-.03-.48-.42-.47-.68,.01-.26,.17-.46,.37-.61Zm-2.34,1.7c.2-.43,.49-.94,.88-1.3-.07,.47,.04,.96,.36,1.37h-1.28s.02-.05,.03-.07Z" fill="#231f20"/></g></svg>