<?xml version="1.0" encoding="UTF-8"?><svg xmlns="http://www.w3.org/2000/svg" viewBox="0 0 35 35"><g id="Example_glyph"><g id="Line_7-2"><text transform="translate(7.78 27.99)" fill="#bcbcbc" font-family="ArialMT, Arial" font-size="35"><tspan x="0" y="0">è</tspan></text></g></g><g id="Artwork_glyph"><path d="M26.13,12.89c-2.17-4.53-6.71-6.04-11.39-5.81,.04-.06,.07-.12,.12-.17,.97-1.2,2.26-2.16,3.77-2.56,3.2-.85,7.12,1.37,6.31,5.05-.16,.75,.99,1.07,1.15,.32,.76-3.47-1.99-6.52-5.43-6.75-3.19-.21-5.81,1.71-7.45,4.25-1.7,.19-4.04,.64-3.89,2.75,.15,2.04,2.55,1.85,3.5,.5,.48-.68,.8-1.43,1.17-2.16,.21,0,.41-.02,.6-.03,2.23-.15,4.58,0,6.59,1.05,4.1,2.15,5.55,7.1,4.58,11.4-.51,2.29-1.67,5.01-4.08,5.85-1.81,.63-3.62-.29-4.18-1.84,.18-.73,.18-1.52-.04-2.29-.17-.57-.99-.57-1.15,0-.22,.75-.22,1.53-.04,2.26-.41,1.21-1.54,2.12-3.01,1.99-1.85-.16-3.38-2-4.14-3.54-1.72-3.5,.24-8.49,4.69-7.9,.76,.1,.75-1.09,0-1.19-2.46-.33-4.84,1.05-5.9,3.26-1.15,2.39-.73,5.22,.73,7.38,1.3,1.92,3.47,3.7,5.94,3.05,1-.26,1.77-.86,2.3-1.63,.29,.44,.66,.84,1.11,1.15,1.79,1.24,4.23,.73,5.83-.58,3.79-3.1,4.31-9.65,2.31-13.82Zm-13.75-4.17c-.22,.49-.45,1.24-.99,1.46-1.07,.42-1-.69-.38-1.19,.39-.31,.94-.47,1.51-.56-.05,.1-.1,.19-.14,.29Z" fill="#231f20"/></g></svg>