<?xml version="1.0" encoding="UTF-8"?><svg xmlns="http://www.w3.org/2000/svg" viewBox="0 0 35 35"><g id="Example_glyph"><g id="Line_7-2"><text transform="translate(7.78 27.99)" fill="#bcbcbc" font-family="ArialMT, Arial" font-size="35"><tspan x="0" y="0">é</tspan></text></g></g><g id="Artwork_glyph"><path d="M27.69,14.83c-.5-1.47-1.34-2.78-2.41-3.8,.58-.09,1.13-.34,1.58-.84,1.45-1.61,.83-3.99-.66-5.33-1.85-1.67-4.52-2.04-6.91-1.89-2.34,.15-5.21,.46-7.04,2.09-1.54,1.37-2.07,3.98-.29,5.41,2.1,1.69,4.7,.08,6.9-.4,3.02-.66,5.9,1.35,7.2,3.98,1.42,2.87,1.58,7.1,.13,9.99-.69,1.37-1.94,2.59-3.53,2.72-1.44,.12-2.95-.88-3.06-2.28,.12-.45,.21-.91,.27-1.36,.08-.58-.9-.85-1.13-.31-.19,.45-.28,.91-.3,1.37-.25,.91-.71,1.78-1.56,2.22-1.2,.62-2.75,.17-3.59-.82-1.95-2.29-.36-5.39,1.71-6.89,.72-.02,1.52,.01,2.18-.24,1.55-.59,.78-2.31-.03-3.17-.91-.98-2.33-1.57-3.61-.96-.33,.16-.62,.39-.85,.67-.01,0-.03,0-.04,0-1.25,.19-2.42,.88-3.23,1.85-.26,.31-.48,.64-.66,.99-.7,.04-1.4,.08-2.09,.12-.78,.04-.78,1.26,0,1.22,.55-.03,1.1-.06,1.64-.09-.16,.69-.2,1.41-.1,2.14,.24,1.85,1.19,3.47,2.13,5.04,.4,.67,1.45,.06,1.05-.61-1.06-1.77-2.29-3.77-1.99-5.93,.03-.24,.1-.48,.17-.71,.89-.05,1.78-.1,2.67-.15l.88-.05c-2.05,2.29-2.93,5.84-.23,8.11,1.21,1.02,3.02,1.31,4.45,.62,.68-.33,1.18-.84,1.56-1.43,.24,.41,.55,.79,.96,1.1,1.59,1.18,3.83,.94,5.37-.17,3.53-2.56,3.72-8.43,2.43-12.21Zm-1.2-7.05c.1,1.94-2.14,2.86-3.29,1.18-.85-1.23-.25-2.93,.95-3.66,.13-.08,.2-.19,.24-.3,1.16,.55,2.03,1.43,2.1,2.78Zm-8.74,1.34c-1.13,.35-2.26,.92-3.47,.88-1.72-.05-2.77-1.57-1.92-3.16,1.22-2.27,4.86-2.56,7.13-2.67,.99-.05,2.37,.03,3.64,.38-1.32,1.05-1.93,2.91-1.25,4.5-1.29-.36-2.7-.37-4.14,.07Zm-7.47,8.63c.49-.62,1.15-1.11,1.9-1.38,0,.33,.08,.67,.28,.98,.06,.1,.14,.18,.22,.26-.8,.05-1.6,.09-2.4,.13Zm4.24-2.46c.88-.09,1.71,.63,2.16,1.33,.08,.12,.26,.39,.22,.55-.05,.21-.29,.21-.47,.23-.44,.06-.89,.07-1.34,.08,.08-.13,.15-.28,.19-.45,.19-.83-.22-1.4-.83-1.73,.03,0,.05-.01,.08-.02Zm-1.1,.88c.21,.02,.41,.08,.54,.23,.26,.29,.04,.69-.33,.46-.24-.15-.27-.43-.21-.69Z" fill="#231f20"/></g></svg>