<?xml version="1.0" encoding="UTF-8"?><svg xmlns="http://www.w3.org/2000/svg" viewBox="0 0 35 35"><g id="Example_glyph"><g id="Line_7-2"><text transform="translate(7.78 27.99)" fill="#bcbcbc" font-family="ArialMT, Arial" font-size="35"><tspan x="0" y="0">ê</tspan></text></g></g><g id="Artwork_glyph"><path d="M27.57,16.63c-.39-1.77-1.32-3.38-2.59-4.63,1.74-.39,2.82-2.21,2.52-3.97-.38-2.23-2.39-3.62-4.4-4.23-4.07-1.24-9.62-1.42-13.12,1.38-1.51,1.21-2.32,3.19-1.03,4.88,1.47,1.94,4.03,1.77,6.14,1.25,2.64-.65,4.96-1.12,7.45,.32,2.28,1.31,3.75,3.64,4.04,6.26,.32,2.88-.7,6.31-3.12,8.05-1.25,.9-3.04,1.24-4.4,.37-.59-.37-.97-.94-1.14-1.56,.26-.78,.4-1.63,.47-2.48,.05-.65-.79-.73-1.1-.3-.58,.8-.75,1.78-.59,2.73-.48,1.18-1.35,2.04-2.95,2.1-1.85,.07-3.69-.95-4.64-2.55-2.24-3.78,1-8.21,5.13-7.84,.76,.07,.75-1.13,0-1.19-5.28-.47-9.08,5.67-5.84,10.12,1.39,1.91,3.88,3.02,6.22,2.57,1.23-.24,2.05-.89,2.62-1.74,.11,.17,.23,.34,.37,.49,1.29,1.43,3.47,1.68,5.2,1,4.08-1.6,5.63-7.02,4.75-11Zm-8.79-7.23c-2.54,.01-5.45,1.94-7.9,.74-1.47-.73-1.81-2.3-.7-3.53,.87-.97,2.19-1.57,3.42-1.93,2.68-.78,5.7-.56,8.39,.07,1.55,.36,3.15,1.02,3.98,2.47,.81,1.43,.3,3.39-1.46,3.68-.24,.04-.36,.19-.4,.36-1.51-1.17-3.36-1.87-5.33-1.86Z" fill="#231f20"/></g></svg>