<?xml version="1.0" encoding="UTF-8"?><svg xmlns="http://www.w3.org/2000/svg" viewBox="0 0 35 35"><g id="Example_glyph"><g id="Line_7-2"><text transform="translate(7.78 27.99)" fill="#bcbcbc" font-family="ArialMT, Arial" font-size="35"><tspan x="0" y="0">ë</tspan></text></g></g><g id="Artwork_glyph"><path d="M26.21,15.45c-.66-1.89-1.79-3.39-3.23-4.38,.55-.15,1-.53,1.23-1.25,.65-2-1.8-4.26-3.23-5.25-1.97-1.36-4.4-1.9-6.74-1.49-2.25,.39-4.45,1.65-5.81,3.52-1.43,1.97-1,4.53,1.44,5.35,2.64,.89,5.39-.64,7.98-1.01,2.98-.43,5.57,1.21,6.86,3.9,1.42,2.95,1.56,7.39-.57,10.04-1.04,1.29-2.66,2.12-4.32,1.77-1.21-.26-2.1-1.14-2.38-2.23,.09-.65,.12-1.32,.1-1.95-.02-.68-.92-.77-1.14-.16-.25,.69-.29,1.43-.16,2.13-.29,1.52-1.12,2.72-3.11,2.31-1.71-.35-3.15-1.65-3.88-3.23-1.57-3.36,.66-7.18,4.14-7.92,.73-.15,.42-1.28-.31-1.13-4.64,.98-7.03,6.49-4.33,10.51,1.21,1.81,3.37,3.22,5.6,2.99,1.34-.14,2.14-.88,2.61-1.86,.24,.34,.53,.64,.87,.89,1.54,1.14,3.66,1.12,5.31,.22,3.98-2.16,4.41-7.91,3.07-11.78Zm-4.73-8.97c.49,.48,.96,1.04,1.29,1.65,.14,.25,.34,.57,.36,.85,.07,1.51-1.46,.98-2.03,.67-1.28-.71-2.61-2.83-.74-3.76,.09-.04,.15-.1,.2-.17,.32,.23,.63,.49,.92,.77Zm-4.62,3.45c-2.08,.44-6.58,2.5-7.97-.16-.74-1.42,.72-2.95,1.72-3.78,1.03-.85,2.29-1.44,3.59-1.72,1.82-.38,3.69-.07,5.31,.78-1.62,1.06-1.44,3.35-.17,4.69,0,.01,.02,.02,.03,.03-.8-.07-1.64-.03-2.51,.15Z" fill="#231f20"/></g></svg>