<?xml version="1.0" encoding="UTF-8"?><svg xmlns="http://www.w3.org/2000/svg" viewBox="0 0 35 35"><g id="Example_glyph"><g id="Line_7-2"><text transform="translate(12.65 27.99)" fill="#bcbcbc" font-family="ArialMT, Arial" font-size="35"><tspan x="0" y="0">ì</tspan></text></g></g><g id="Artwork_glyph"><path d="M26.15,14.76c2.65-2.79,1.58-6.93-1.22-9.2-3.05-2.47-7.98-3.39-11.77-2.34-3.2,.88-6.49,4.05-5.69,7.6,.42,1.85,2.03,2.45,3.8,2.44,2.4-.01,4.77-.56,7.17-.57,2.07,0,4.42,.42,5.92,1.95,1.72,1.75,1.85,4.46,1.2,6.69-.64,2.19-2.19,4.11-4.43,4.86-.98,.33-2.25,.51-3.24,.11-1.74-.68,.46-1.97,1.1-2.6,1.16-1.14,1.12-2.86,.08-4.08-1.16-1.37-3.14-1.64-4.85-1.59-2.08,.05-4.38,.93-5.69,2.46-.23,.12-.44,.25-.65,.4-.35,.25-.34,.66-.16,.94-.33,.86-.39,1.85-.03,2.95,1.17,3.67,7.04,4.06,7.94-.01,.38-1.69-.58-3.52-2.07-4.38-.62-.36-1.29-.53-1.97-.58,.33-.13,.67-.25,1.01-.32,1.6-.34,4.08-.44,5.34,.8,.8,.79,.82,1.86,0,2.63-.58,.54-1.27,.89-1.69,1.58-.6,.99-.37,2.15,.65,2.76,1.11,.66,2.63,.62,3.86,.36,5.29-1.13,8.32-8.41,5.37-12.83,0,0,.02,0,.02-.02Zm-13.53,11.56c-1.97,.66-3.85-1-3.85-2.94,0-.7,.22-1.32,.57-1.85,1.36-.63,3.01-.7,4.16,.43,1.38,1.36,1.08,3.7-.88,4.36Zm3.43-14.77c-1.8,.18-3.7,.59-5.52,.41-2.53-.25-2.02-3.14-1.05-4.65,2.35-3.68,7.46-3.66,11.22-2.5,1.93,.6,3.79,1.67,4.87,3.4,1.09,1.75,1.13,4-.29,5.57-.13-.13-.25-.27-.39-.39-2.45-2.05-5.81-2.14-8.85-1.84Z" fill="#231f20"/></g></svg>