<?xml version="1.0" encoding="UTF-8"?><svg xmlns="http://www.w3.org/2000/svg" viewBox="0 0 35 35"><g id="Example_glyph"><g id="Line_7-2"><text transform="translate(12.65 27.99)" fill="#bcbcbc" font-family="ArialMT, Arial" font-size="35"><tspan x="0" y="0">í</tspan></text></g></g><g id="Artwork_glyph"><path d="M29.14,7.57c-1.28-3.1-4.57-4.73-7.85-4.62-2.81,.09-5.35,1.31-7.27,3.24-1.21-.06-2.41-.02-3.52,.13-1.39,.19-2.72,.86-3.25,2.22-.47,1.2-.09,2.61,1.15,3.15,1.51,.65,3.12-.21,4.08-1.37,.76-.92,1.36-1.86,2.06-2.73,4.12,.29,8.24,1.58,10.28,5.48,1.97,3.75,1.56,9.05-1.88,11.83-1.5,1.21-4.24,2.29-6.11,1.25-2.19-1.22,1.03-3.56,1.39-5.08,.91-3.85-5.58-3.43-7.68-2.85-1.38,.38-2.7,1.24-3.59,2.37-.24,.13-.46,.27-.68,.44-.34,.26-.32,.69-.13,.96-.39,1.03-.43,2.17,.08,3.34,1.51,3.42,6.81,2.93,7.41-.86,.26-1.65-.68-3.28-2.13-4.06-.58-.32-1.21-.46-1.84-.49,1.42-.72,3.12-.84,4.69-.74,.93,.06,2.78,.1,2.63,1.47-.11,.98-1.04,1.71-1.57,2.49-.79,1.17-1,2.65,.14,3.68,2.38,2.14,6.52,.57,8.56-1.26,5.52-4.94,3.42-14.72-3.02-17.75-1.59-.75-3.45-1.24-5.35-1.48,.28-.24,.58-.47,.92-.68,3.48-2.14,9.44-2.1,11.25,2.26,.31,.75,1.55,.42,1.23-.34ZM12.24,23.05c.81,2.18-1.66,4.11-3.65,3.06-1.72-.91-1.75-2.96-.87-4.45,1.65-.76,3.79-.58,4.52,1.39Zm-1.67-12.71c-1.11,.62-2.71,.09-2.1-1.38,.64-1.54,2.75-1.58,4.45-1.48-.14,.19-.3,.38-.43,.58-.53,.81-1.04,1.78-1.92,2.27Z" fill="#231f20"/></g></svg>