<?xml version="1.0" encoding="UTF-8"?><svg xmlns="http://www.w3.org/2000/svg" viewBox="0 0 35 35"><g id="Example_glyph"><g id="Line_7-2"><text transform="translate(12.65 27.99)" fill="#bcbcbc" font-family="ArialMT, Arial" font-size="35"><tspan x="0" y="0">î</tspan></text></g></g><g id="Artwork_glyph"><path d="M27.33,8.37c-1.65-3.82-7.03-5.39-10.88-5.44-3.78-.06-9.61,1.6-9.09,6.38,.2,1.86,1.74,3.17,3.49,3.68,2.44,.7,4.94-.18,7.4-.17,5.29,.02,8.84,5.76,6.1,10.34-1.2,2-3.55,3.39-5.93,3.36-.83,0-2.23-.31-2.01-1.46,.08-.41,.51-.8,.75-1.12,.57-.77,.88-1.61,.64-2.57-1.06-4.22-7.65-3.31-9.84-.67-1.35,1.62-1.6,4.02-.29,5.74,1.18,1.56,3.58,2.1,5.23,.93,1.48-1.05,1.9-3.2,.76-4.63-1.22-1.54-3.23-1.58-4.9-.87,1.5-1.99,5.09-3.02,7.06-1.26,1.77,1.59-.41,2.7-.74,4.24-.26,1.23,.62,2.34,1.77,2.74,2.71,.95,6.1-.64,7.84-2.68,2.86-3.33,2.29-8.03-.43-10.89,.95-.04,1.87-.42,2.51-1.16,1.05-1.22,1.17-3.06,.55-4.49Zm-16,14.4c1.04,.25,1.82,1.13,1.62,2.2-.38,2.04-3.1,2.19-4.22,.66-.5-.69-.69-1.37-.65-2.03,.13,.01,.26,0,.4-.1,.83-.56,1.83-.98,2.85-.74Zm8.22-11.18c-2.93-.42-9.53,2.1-10.76-1.96-.57-1.87,.9-3.62,2.5-4.4,1.69-.82,3.7-1.05,5.56-.97,1.94,.08,4.94,.72,7.06,2.1-1.47,.3-2.78,1.22-3.28,2.69-.32,.93-.25,1.95,.13,2.83-.39-.12-.79-.21-1.22-.27Zm3.02,.57c-2.05-1.84-.02-4.57,2.29-4.61,.15,0,.27-.06,.37-.13,.67,.73,1.1,1.59,1.15,2.6,.09,1.99-2.06,3.69-3.8,2.13Z" fill="#231f20"/></g></svg>