<?xml version="1.0" encoding="UTF-8"?><svg xmlns="http://www.w3.org/2000/svg" viewBox="0 0 35 35"><g id="Example_glyph"><g id="Line_7-2"><text transform="translate(12.65 27.99)" fill="#bcbcbc" font-family="ArialMT, Arial" font-size="35"><tspan x="0" y="0">ï</tspan></text></g></g><g id="Artwork_glyph"><path d="M26.64,7.25c.43,.61,1.44,.02,1-.6-2.16-3.05-5.92-4.58-9.53-3.53-1.47,.43-2.79,1.25-3.86,2.35-1.75,.11-3.4,.63-4.56,1.89-.98,1.06-.78,2.84,.9,2.84,1.89,0,2.96-2.13,4-3.4,.04-.05,.09-.09,.13-.14,1.59-.04,3.23,.3,4.7,.68,2.31,.6,4.62,1.77,5.77,4.01,1.03,2.02,.94,4.47,.65,6.67-.31,2.31-.94,4.7-2.49,6.49-3.18,3.67-9.47,2.56-12.75-.48-1.64-1.52-2.73-4.01-1.89-6.24,.36-.95,1.06-1.78,1.93-2.27,.44-.25,.97-.43,1.48-.43,.89,0,1.31,.33,1.06,1.33-.18,.74-.4,1.23-.06,1.99,.31,.69,.93,1.17,1.62,1.44,1.68,.66,3.95,.64,5.4-.53,1.2-.96,1.63-2.56,.91-3.96-.79-1.56-2.54-2.16-4.17-1.93-.95,.13-2.07,.62-2.66,1.44-.4-.56-1.12-.9-1.83-.95-3.18-.23-5.39,3.21-5.1,6.14,.37,3.69,3.48,6.16,6.75,7.22,3.62,1.18,7.63,1.08,10.23-2.06,2.38-2.87,3.17-7.27,2.85-10.93-.34-3.84-2.69-6.5-6.23-7.72-1.4-.48-3.16-.94-4.92-1.07,3.31-2.45,8.15-1.81,10.67,1.76Zm-7.5,11.35c-.97,.61-2.29,.58-3.37,.33-.6-.14-1.2-.36-1.51-.92-.15-.28-.16-.53-.12-.76,.64,1.05,2.1,1.48,3.23,.94,1.32-.63,1.79-2.42,.87-3.56,.44,.08,.86,.26,1.21,.56,1.16,1.01,.97,2.63-.31,3.43Zm-3.31-3c.31-.82,1.39-.72,1.68,.05,.23,.62-.13,1.2-.66,1.46-.71,.35-1.68,.01-1.79-.85-.01-.1-.01-.2,0-.29,.28,.08,.63-.01,.77-.37Zm-3.97-7.25c-.25,.23-1.69,1.27-1.58,.14,.06-.58,1.33-1.13,1.8-1.32,.33-.14,.67-.23,1.02-.31-.38,.53-.76,1.06-1.23,1.49Z" fill="#231f20"/></g></svg>