<?xml version="1.0" encoding="UTF-8"?><svg xmlns="http://www.w3.org/2000/svg" viewBox="0 0 35 35"><g id="Example_glyph"><g id="Line_8-2"><text transform="translate(7.78 27.99)" fill="#bcbcbc" font-family="ArialMT, Arial" font-size="35"><tspan x="0" y="0">รฐ</tspan></text></g></g><g id="Artwork_glyph"><path d="M26.75,20.51c-.17-1.83-1.17-3.46-2.68-4.5,.87-.95,.26-2.37-.61-3.12-1.08-.93-2.55-1.31-3.96-1.08-.44,.07-.92,.24-1.36,.48,.32-.6,.86-1.12,1.27-1.59,.56-.63,1.13-1.27,1.7-1.9,1.22-1.37,2.45-2.75,3.67-4.12,.46-.52-.27-1.26-.77-.76-.35,.35-.71,.7-1.06,1.05-1.09-2.18-4-2.39-6.19-1.64-2.44,.83-4.72,2.88-4.42,5.64,.13,1.23,.92,2.33,1.98,2.89-1.08-.08-2.2,.13-2.94,.7-1.03,.8-1.34,2.52-.11,3.31,.07,.04,.14,.06,.21,.1-1.53,.73-2.71,2.11-3.1,3.77-.53,2.23,.39,4.47,2.09,5.97,1.92,1.7,4.53,2.28,7.06,2.28,2.32,0,4.81-.41,6.71-1.82,1.76-1.32,2.7-3.49,2.5-5.66Zm-7.69-7.49c.33-.13,.7-.19,1.05-.21,.82-.04,1.66,.18,2.33,.64,.27,.18,.57,.45,.74,.71,.39,.51,.31,.91-.23,1.22-.76-.33-1.58-.53-2.4-.55-.28,0-.62,.05-.96,.08-.46-.14-.88-.34-1.2-.6-.06-.25-.12-.5-.18-.75,.24-.25,.52-.43,.85-.55Zm-5.3-3.12c-2.49-4.38,6.93-8.48,8.38-4.11-1.05,1.04-2.1,2.09-3.14,3.13-.72,.71-1.55,1.87-2.58,2.17-1.02,.29-2.15-.31-2.65-1.19Zm3.34,2.08s.01,0,.02-.01c-.12,.27-.22,.55-.27,.84-.12-.13-.26-.24-.43-.34-.14-.08-.29-.15-.45-.22,.37-.02,.75-.09,1.12-.26Zm-2.5,1.04c.49,.06,1.17,.14,1.52,.55,.58,.7,0,1.21-.52,1.49-.62,.32-1.36,.31-2.07,.36,.24-.33,.38-.73,.31-1.18-.09-.63-.46-1.02-.92-1.21,.55-.12,1.15-.08,1.68,0Zm-3.02,1.17c.06-.02,.12-.05,.18-.09,.34,.14,.68,.27,1.02,.41-.76,.57-1.17,.51-1.22-.18,0-.05,.02-.09,.02-.14Zm13.39,9.59c-2.02,3.46-7.65,3.71-11.08,2.62-1.88-.6-3.62-1.93-4.3-3.82-.74-2.08,.16-4.44,2.11-5.52,1.59-.87,3.77-.21,5.11-1.55,.12-.12,.22-.25,.31-.38,.47,.66,1.41,.79,2.29,.79,.93,.25,2.38,.81,3.52,.66,2.43,1.36,3.59,4.54,2.04,7.2Z" fill="#231f20"/></g></svg>