<?xml version="1.0" encoding="UTF-8"?><svg xmlns="http://www.w3.org/2000/svg" viewBox="0 0 35 35"><g id="Example_glyph"><g id="Line_7-2"><text transform="translate(7.78 27.99)" fill="#bcbcbc" font-family="ArialMT, Arial" font-size="35"><tspan x="0" y="0">ñ</tspan></text></g></g><g id="Artwork_glyph"><path d="M25.66,11.28c.7-1.48,.56-3.22-.26-4.65-1-1.73-2.88-2.77-4.76-3.26-2.1-.55-4.35-.54-6.46-.05-1.84,.43-4.08,1.25-5.24,2.82-1.09,1.47-.94,3.66,.85,4.49,1.96,.91,4.05-.32,6.01-.6,2.52-.37,5.18,.04,7.46,1.19,.39,.2,.79,.43,1.16,.69,.04,.04,.09,.07,.14,.09,.48,.36,.91,.79,1.18,1.34,.59,1.21,.5,2.85,.44,4.16-.2,4.75-3.64,8.96-8.58,9.22-4.15,.22-10.34-3.31-8.59-8.27,.34-.96,1.01-1.86,1.93-2.34,.6-.31,1.51-.65,1.89,.04,.29,.52,.19,.42-.12,.86-.13,.19-.27,.37-.37,.58-.82,1.75,.62,3.47,2.31,3.86,1.72,.4,4.13-.2,5.52-1.29,1.4-1.1,1.46-3.05,.29-4.35-1.26-1.4-3.88-2.18-5.44-.8-.05,.04-.08,.1-.12,.14-.02,.02-.05,.03-.08,.05-.09,.08-.14,.16-.18,.24-.13,.18-.23,.38-.3,.58-.03-.54-.33-1.03-1.02-1.35-2.71-1.25-5.4,1.99-5.78,4.35-.49,3.1,1.59,6.02,4.16,7.54,5.81,3.43,13.58,.32,15.33-6.21,.77-2.87,.97-6.91-1.37-9.08Zm-10.52-2.44c-1.11,.19-2.16,.66-3.28,.8-1.47,.19-2.91-.7-2.15-2.33,.94-1.99,4.18-2.78,6.16-3,2.11-.24,4.43,0,6.31,1.02,1.86,1.01,3.2,3.16,2.4,5.18-2.74-1.72-6.32-2.22-9.45-1.67Zm.64,7.22c.86-.62,2.04,.32,1.44,1.28-.43,.69-1.28,.48-1.63-.14-.26-.47-.11-.86,.19-1.15Zm-1.98,1.59c.18-.26,.32-.55,.42-.83,.01,.96,.59,1.88,1.67,2.18,1.64,.46,3.16-1.25,2.72-2.85-.02-.09-.07-.15-.1-.23,.51,.26,.96,.65,1.22,1.11,.75,1.34-.28,2.25-1.46,2.69-.87,.32-1.86,.59-2.79,.55-1.49-.07-2.6-1.26-1.68-2.63Z" fill="#231f20"/></g></svg>