<?xml version="1.0" encoding="UTF-8"?><svg xmlns="http://www.w3.org/2000/svg" viewBox="0 0 35 35"><g id="Example_glyph"><g id="Line_7-2"><text transform="translate(7.78 27.99)" fill="#bcbcbc" font-family="ArialMT, Arial" font-size="35"><tspan x="0" y="0">ò</tspan></text></g></g><g id="Artwork_glyph"><path d="M27.67,16.79c-.37-4.02-2.85-7.6-6.46-9.26-1.97-.91-4.13-1.31-6.28-1.42,1.25-1.18,2.66-2.03,4.6-1.94,2.71,.13,4.84,2.19,5.41,4.84,.17,.78,1.34,.45,1.17-.33-.88-4.09-5-6.69-8.98-5.44-1.61,.51-2.79,1.59-3.87,2.81-1.7,0-3.61,.16-4.88,1.05-1.27,.88-1.71,3.22,.07,3.84,1.86,.65,3.79-1.8,4.82-3.02,.19-.22,.38-.45,.57-.66,4.11-.05,8.49,1.28,10.84,4.7,2.63,3.82,2.35,8.99-.76,12.44-.7,.78-1.53,1.48-2.45,1.97-.55,.29-.71,.37-1.28,.17-.58-.2-.5-.23-.72-.76-.15-.35-.26-.7-.5-1.01-.44-.57-1.11-.82-1.82-.69-1.16,.22-1.73,1.25-2.69,1.83-2.47,1.48-5.05-.82-5.86-3.12-.7-1.99-1.18-5.87,.73-7.35,.96-.74,2.27-.74,3.42-.74,.53,0,2.13-.08,1.76,1.03-.14,.4-.71,.76-.96,1.09-1.12,1.47-.24,3.21,1.16,4.1,1.65,1.05,3.85,1.09,5.43-.11,1.4-1.06,2.1-2.91,1.55-4.63-.58-1.83-2.66-3.34-4.54-2.43-.7,.34-1.14,.97-1.32,1.66,.06-1.41-1.7-1.94-2.91-1.96-1.77-.03-3.8,.12-4.99,1.63-1.25,1.6-1.2,4-.97,5.92,.44,3.57,3.33,7.73,7.37,6.3,1.02-.36,1.55-1.18,2.42-1.75,1.42-.94,1.48,.87,2.08,1.64,1.18,1.51,3.18,.38,4.37-.5,3.02-2.25,4.85-6.11,4.5-9.93ZM10.23,9.24c-.21,.15-.62,.49-.86,.49-.64,0-1.1-.48-.78-1.11,.34-.66,1.2-.86,1.85-.99,.55-.11,1.11-.2,1.69-.26-.58,.68-1.18,1.35-1.9,1.87Zm6.78,6.38c.09-.02,.18-.06,.26-.13,.59-.48,1.52-.15,1.54,.64,.02,.87-1.03,1.31-1.61,.64-.3-.34-.33-.78-.18-1.15Zm-1.3,.4s.02-.07,.03-.1c-.05,.81,.28,1.63,1.08,2.12,1.51,.93,3.39-.35,3.23-2.12-.01-.12-.05-.21-.08-.32,1.99,2.29-.6,5.32-3.19,4.87-1.04-.18-3.11-1.25-2.44-2.64,.33-.69,1.12-1.04,1.37-1.81Z" fill="#231f20"/></g></svg>