<?xml version="1.0" encoding="UTF-8"?><svg xmlns="http://www.w3.org/2000/svg" viewBox="0 0 35 35"><g id="Example_glyph"><g id="Line_7-2"><text transform="translate(7.78 27.99)" fill="#bcbcbc" font-family="ArialMT, Arial" font-size="35"><tspan x="0" y="0">รณ</tspan></text></g></g><g id="Artwork_glyph"><path d="M26.16,16.82c-.6-1.63-1.6-2.78-2.83-3.53,1.01-.48,1.78-1.6,2.1-2.73,.5-1.8,.09-3.85-1.02-5.3-2.9-3.78-8.83-2.4-11.96,.23-1.48,1.24-2.9,3.22-2.13,5.33,.71,1.95,2.88,2.43,4.61,2.55,2.51,.17,5.34-.58,7.66,.76,2.24,1.29,3.33,4.13,2.8,6.75-.56,2.77-2.62,4.85-5.13,5.6-2.55,.77-5.28,.12-7.48-1.41-2.19-1.52-4.4-4.76-2.74-7.57,.62-1.05,1.87-1.81,3.05-1.5,.6,.16,1.29,.66,1.13,1.49-.05,.24-.25,.51-.36,.71-.27,.49-.54,.9-.55,1.49-.07,2.21,2.36,3.1,4.01,3.31,1.81,.23,3.88-.62,4.12-2.78,.24-2.1-1.45-4.39-3.34-4.84-.67-.16-1.39-.03-1.99,.31-.25,.06-.49,.17-.72,.33-.14,.1-.22,.24-.24,.38-.25-.62-.75-1.14-1.4-1.41-2.84-1.18-5.39,1.83-5.36,4.71,.04,3.62,3.01,6.34,5.95,7.55,3.11,1.28,6.79,.91,9.41-1.39,2.43-2.13,3.58-5.84,2.41-9.03Zm-1.8-6.58c-.35,1.23-1.45,2.6-2.77,1.93-1.15-.59-1.28-2.16-.69-3.24,.64-1.18,1.92-1.66,3.13-1.75,.06,0,.11-.03,.16-.04,.01,.03,.03,.06,.04,.09,.35,.95,.42,2.03,.14,3.01Zm-11.06,1.68c-1-.29-2.02-.94-2.09-2.17-.07-1.26,.78-2.33,1.62-3.1,2.58-2.37,8.38-3.96,10.76-.6-1.73,.24-3.4,1.17-3.98,3.06-.33,1.06-.15,2.23,.41,3.1-.33-.04-.65-.06-.99-.07-1.89-.03-3.88,.31-5.73-.23Zm3.17,4.89c.38-.07,.75,.05,.99,.45,.5,.84-.6,1.83-1.25,1.16-.51-.52-.19-1.21,.26-1.61Zm-1.92,2.46c.09-.29,.28-.53,.44-.79,0,0,0,0,0,0,.62,1.88,3.25,1.69,3.67-.23,.12-.55,.05-1.04-.14-1.45,.02,.01,.04,.02,.07,.03,1.95,1.22,2.63,4.77-.31,5.01-.94,.08-2.14-.2-2.96-.71-.64-.4-1.02-1.1-.77-1.86Z" fill="#231f20"/></g></svg>