<?xml version="1.0" encoding="UTF-8"?><svg xmlns="http://www.w3.org/2000/svg" viewBox="0 0 35 35"><g id="Example_glyph"><g id="Line_7-2"><text transform="translate(7.78 27.99)" fill="#bcbcbc" font-family="ArialMT, Arial" font-size="35"><tspan x="0" y="0">ô</tspan></text></g></g><g id="Artwork_glyph"><path d="M25.25,13.34c-.08-.09-.17-.16-.25-.24,.08-.05,.16-.11,.22-.22,1.99-3.63-.08-7.84-3.64-9.31-1.89-.78-4-.78-5.96-.23-1.79,.51-3.93,1.46-4.89,3.2-.81,1.48-.52,3.19,.8,4.23,1.74,1.37,3.89,.88,5.9,.7,4.68-.43,8.94,3.14,8.96,8.08,0,2.39-.97,4.85-2.86,6.31-1.07,.83-2.55,1.39-3.68,.36-.62-.56-1.11-1.18-1.98-1.31-2.24-.33-3.57,2.38-5.86,1.68-2.36-.73-3.42-3.85-3.41-6.15,0-1.32,.39-2.61,1.31-3.56,.76-.77,2.34-1.58,3.37-.86,1.14,.79-.32,1.6-.72,2.32-.36,.65-.3,1.38,.11,1.99,1,1.51,3.66,1.39,5.19,1.15,1.7-.27,3.44-1.52,3.3-3.48-.15-2.03-2.29-3.38-4.14-3.15-.53,.06-1.02,.32-1.4,.67-.06,.04-.12,.06-.17,.11-.12,.09-.17,.2-.18,.31-.15,.22-.26,.46-.31,.71,0-.11,0-.23-.03-.34-.28-1.25-1.7-1.78-2.82-1.72-6.75,.37-5.73,12.61,.35,13.32,1.61,.19,2.59-.77,3.93-1.47,1.27-.66,1.85-.08,2.77,.75,.51,.46,1.09,.75,1.77,.81,3.09,.26,5.54-3.01,6.29-5.74,.85-3.09,.15-6.52-1.96-8.9Zm-8.65-2.98c-1.64,.2-5.71,.42-5.12-2.51,.47-2.32,3.93-3.41,5.89-3.65,2.03-.24,4.17,.27,5.71,1.71,1.73,1.61,2.29,4.24,1.13,6.36-.01,.02-.01,.04-.02,.06-2.14-1.75-4.82-2.3-7.59-1.97Zm-.25,6.07c.66-.39,1.62,.8,.44,.94-.16,.02-.31,.04-.47,.05,0-.33,.02-.66,.03-.99Zm-1.81,1.43c.2-.27,.33-.56,.39-.86,0,.43,.17,.88,.57,1.28,1.17,1.16,3.09,.26,3.06-1.4,0-.25-.06-.46-.14-.65,.88,.34,1.66,1.12,1.59,2.11-.09,1.38-1.61,1.92-2.72,2.02-.89,.08-2.83,.21-3.46-.53-.67-.79,.26-1.36,.7-1.95Z" fill="#231f20"/></g></svg>