<?xml version="1.0" encoding="UTF-8"?><svg xmlns="http://www.w3.org/2000/svg" viewBox="0 0 35 35"><g id="Example_glyph"><g id="Line_7-2"><text transform="translate(7.78 27.99)" fill="#bcbcbc" font-family="ArialMT, Arial" font-size="35"><tspan x="0" y="0">õ</tspan></text></g></g><g id="Artwork_glyph"><path d="M27.45,9.73c-.35-2.92-2.31-5.47-5.15-6.43-2.87-.98-6.23,.11-8.14,2.4-.34,.41-.61,.86-.85,1.32-.4,.02-.81,.05-1.21,.11-1.34,.19-3.18,.59-3.49,2.16-.24,1.23,.78,2.26,1.99,2.37,1.78,.15,2.83-1.52,3.45-2.92,.05-.11,.1-.22,.16-.33,.7,.01,1.41,.07,2.1,.2,3.89,.76,7.37,3.61,8.64,7.37,1.36,4.03-.52,7.97-4.41,9.68-1.94,.85-4.12,1.04-6.21,.89-2.02-.15-4.49-.58-5.59-2.48-1.22-2.1,.74-3.95,2.67-4.52,1.66-.49,3.86-.04,5.31-1.07,1.11-.79,1.17-2.25,.29-3.25-1.05-1.19-3.25-1.54-4.76-1.44-1.5,.1-3.09,1.05-3.27,2.66-.1,.88,.35,1.7,1.04,2.17-1.58,.69-2.86,1.84-3.05,3.73-.35,3.48,3.39,5.1,6.25,5.47,3.39,.44,7.04,.02,9.87-2.02,5.88-4.25,4.06-12.27-1.19-16.2-2.01-1.51-4.42-2.37-6.9-2.56,.68-.99,1.56-1.78,2.81-2.27,3.72-1.45,7.85,1.13,8.27,5.06,.02,.17,.09,.3,.19,.4,.03,.33,.25,.63,.67,.63,.66,0,.84-.74,.53-1.14Zm-15.16-.59c-.12,.2-.27,.4-.43,.57-.19,.19-.96,.77-1.29,.53-.06-.17-.13-.34-.19-.51-.31-.32-.3-.54,.02-.66,.19-.24,.59-.29,.87-.36,.45-.12,.91-.19,1.37-.24-.1,.23-.21,.46-.34,.67Zm.54,6.05c.89,.03,2.29,.22,2.95,.86,1.57,1.52-1.44,1.66-2.27,1.74-.12,.01-.24,.03-.35,.04,.29-.57,.33-1.26,.02-1.85-.19-.36-.47-.61-.79-.77,.16-.01,.3-.02,.43-.02Zm-2.46,1.5c.19,.03,.39-.01,.57-.17,.47-.42,1.12,.02,.98,.57-.23,.88-1.51,.52-1.56-.32,0-.03,0-.05,0-.07Z" fill="#231f20"/></g></svg>