<?xml version="1.0" encoding="UTF-8"?><svg xmlns="http://www.w3.org/2000/svg" viewBox="0 0 35 35"><g id="Example_glyph"><g id="Line_7-2"><text transform="translate(7.78 27.99)" fill="#bcbcbc" font-family="ArialMT, Arial" font-size="35"><tspan x="0" y="0">รถ</tspan></text></g></g><g id="Artwork_glyph"><path d="M25.92,15.08c-.48-1.23-1.27-2.34-2.29-3.16,1.55-.15,2.7-1.57,2.58-3.24-.16-2.22-2.18-3.74-3.99-4.6-3.83-1.82-8.91-1.5-12.21,1.37-1.55,1.35-2.21,3.44-.93,5.25,1.3,1.83,3.65,2.1,5.68,1.81,2.77-.39,5.82-1.75,8.3,.28,2.24,1.83,2.7,4.92,2.37,7.68-.31,2.51-1.4,5.86-4.32,6.07-1.2,.08-1.76-.74-2.78-1.12-1.09-.41-1.9,.35-2.7,.99-2.63,2.08-5.43-2.81-5.77-5.04-.22-1.45,.08-3.04,1.08-4.14,.61-.67,2.69-2,3.5-.88,.32,.44-.05,1.26-.05,1.77,0,.47,.11,.94,.29,1.38,.34,.83,.97,1.52,1.77,1.89,1.67,.77,3.81-.09,4.53-1.82,.83-1.98-.35-4.48-2.47-4.85-1.24-.22-2.56,.65-2.91,1.78-.17-1.27-1.6-1.67-2.66-1.52-3.49,.49-4.8,4.57-3.84,7.65,.79,2.54,3.92,6.94,6.9,4.8,.34-.25,.63-.58,.99-.81,.63-.4,1.12-.14,1.67,.24,.66,.45,1.35,.73,2.15,.74,1.58,.02,3.01-.85,3.95-2.12,2-2.71,2.36-7.29,1.16-10.4Zm-2.49-4.2c-1.15,.06-2.01-1.09-1.77-2.23,.27-1.3,1.77-1.7,2.79-1.06,.14,.09,.28,.1,.4,.06,.05,.09,.09,.19,.13,.28,.51,1.31-.05,2.88-1.56,2.96Zm-5.32-.11c-2.03,.33-4.14,1.16-6.2,.61-1.08-.29-2.12-1.05-2.43-2.21-.3-1.14,.35-2.15,1.15-2.88,3.17-2.86,8.36-2.96,11.91-.86,.4,.24,.81,.51,1.18,.82-1.21-.12-2.46,.48-2.93,1.73-.35,.95-.17,1.99,.37,2.77-.99-.19-2.03-.15-3.05,.01Zm-1.35,6.34c.21-.54,1.03-.78,1.36-.22,.34,.57-.18,1.33-.81,1.17-.39-.1-.62-.4-.69-.74,.06-.05,.11-.12,.14-.21Zm-1.2,.42c.07,.28,.2,.57,.42,.85,1.2,1.51,3.62,.52,3.23-1.47-.1-.53-.37-.89-.7-1.11,.18,.04,.36,.11,.52,.2,2.1,1.18,1.21,4.46-1.09,4.62-.97,.07-1.82-.52-2.25-1.39-.29-.6-.2-1.14-.12-1.69Z" fill="#231f20"/></g></svg>