<?xml version="1.0" encoding="UTF-8"?><svg xmlns="http://www.w3.org/2000/svg" viewBox="0 0 35 35"><g id="Example_glyph"><g id="Line_4-2"><text transform="translate(7.9 27.99)" fill="#bcbcbc" font-family="ArialMT, Arial" font-size="35"><tspan x="0" y="0">รท</tspan></text></g></g><g id="Artwork_glyph"><path d="M26.64,25.76c-.01-.56-.67-.83-1.07-.45-2.16,2.06-6.18,1.92-8.72,.68-1.38-.67-2.57-1.98-2.54-3.62,.04-1.61,1.13-3.01,2.48-3.74,1.33-.72,2.81-.86,4.29-.83,1.12,.02,2.41,.06,3.31-.74,2.01-1.75,.36-4.6-1.32-5.85-1.79-1.33-4.64-1.96-6.61-.66-1.7-.36-3.69,.29-4.97,1.29-5.12,3.98-3.97,12.23,.68,16.02,.62,.51,1.51-.38,.88-.9-3.75-3.06-5.02-8.84-1.98-12.9,.7-.94,1.62-1.69,2.73-2.06,.38-.13,.99-.24,1.62-.25-.63,1.33-.34,3.08,1.38,3.41,2.05,.39,2.86-2.14,1.6-3.52-.12-.13-.25-.25-.39-.36,.98-.26,2.09-.13,3.02,.23,1.07,.42,2.11,1.21,2.67,2.23,.33,.6,.54,1.44,.14,2.07-.44,.69-1.35,.73-2.07,.74-1.97,.03-3.82,.02-5.61,.99-3.21,1.76-4.24,6.1-1.3,8.65,2.61,2.27,7.49,2.67,10.55,.8,.06,2.19,.11,4.38,.17,6.57-5.61-1.34-11.54-2.43-16.95,.22-.72,.35-.09,1.45,.63,1.09,5.33-2.61,11.32-1.23,16.8,.1,.38,.09,.8-.19,.79-.61-.07-2.87-.15-5.74-.22-8.61Zm-10.28-12.79c-.02-.41,.14-.75,.39-1.02,.48,.18,.86,.48,.96,1,.24,1.24-1.29,1.23-1.36,.02Z" fill="#231f20"/></g></svg>