<?xml version="1.0" encoding="UTF-8"?><svg xmlns="http://www.w3.org/2000/svg" viewBox="0 0 35 35"><g id="Example_glyph"><g id="Line_7-2"><text transform="translate(6.82 27.99)" fill="#bcbcbc" font-family="ArialMT, Arial" font-size="35"><tspan x="0" y="0">ø</tspan></text></g></g><g id="Artwork_glyph"><path d="M24.81,25.22c-2.65,3.83-8.06,2.47-10.27-1.02-1.39-2.19-1.7-5.2,1.18-6.28,2.02-.75,4.41-.22,6.34-1.27,1.42-.77,2.09-2.31,1.45-3.83-.69-1.65-2.47-2.39-4.11-2.78-1.59-.38-3.4-.31-4.31,1.25-.68,1.17-.56,2.81,.58,3.66,1.13,.85,2.94,.27,2.95-1.26,.01-1.47-1.22-2.02-2.43-1.91,.65-.94,2.01-.81,3.08-.54,.96,.25,2.04,.59,2.71,1.37,1.14,1.32,.37,2.76-1.14,3.25-1.93,.63-4.04,.26-5.93,1.1-1.54,.69-2.58,1.99-2.66,3.7-.15,3.21,2.39,6.42,5.31,7.58,1.53,.61,3.2,.63,4.71,.16-1.21,1.33-2.53,2.56-3.99,3.61-2.38,1.7-5.97,2.9-8.2,.31-.5-.58-1.35,.26-.85,.84,2.24,2.6,5.97,2.12,8.66,.53,3.21-1.9,5.87-4.83,7.95-7.87,.44-.64-.6-1.23-1.04-.6Zm-7.61-12.09c.5,.69,.19,.95-.91,.79-.29-.16-.4-.53-.42-.9,.43-.18,.87-.15,1.33,.11Z" fill="#231f20"/></g></svg>