<?xml version="1.0" encoding="UTF-8"?><svg xmlns="http://www.w3.org/2000/svg" viewBox="0 0 35 35"><g id="Example_glyph"><g id="Line_7-2"><text transform="translate(7.78 27.99)" fill="#bcbcbc" font-family="ArialMT, Arial" font-size="35"><tspan x="0" y="0">ù</tspan></text></g></g><g id="Artwork_glyph"><path d="M23.26,11.63c.94-.05,1.82-.62,2.32-1.55,.8-1.5,.34-3.35-.71-4.58-2.62-3.08-7.84-3.05-11.2-1.64-1.6,.67-3.11,1.76-3.84,3.46-.64,1.49-.53,3.32,.58,4.54,1.32,1.46,3.15,1.1,4.69,.24,1.09-.61,2.09-1.34,3.36-1.4,1.31-.06,2.6,.45,3.6,1.33,3.51,3.05,3.43,9.04,.29,12.31-3.07,3.2-8.64,3.44-11.54-.21-.93-1.17-.78-2.58,.44-3.41,1.06-.73,2.38-.69,3.59-.79,1.5-.13,2.4-1.03,1.98-2.69-.48-1.88-2.21-3.15-4.03-2.95-1.47,.16-3.32,1.53-2.79,3.34,.46,1.57,2.49,1.86,3.34,.5,.67-1.07,.24-2.14-.58-2.67,.54-.08,1.1,0,1.57,.24,.68,.34,1.27,1.06,1.43,1.85,.31,1.51-1.54,1.22-2.42,1.32-2.16,.25-4.97,1.79-4.15,4.59,.76,2.57,3.92,4.08,6.23,4.43,2.46,.38,4.94-.35,6.9-1.96,4.12-3.4,4.76-10.39,.96-14.3Zm-.11-1.14c-1.14-.02-1.85-1.22-1.47-2.33,.42-1.2,1.66-1.44,2.68-1.06,.09,.03,.17,.04,.24,.03,.15,.33,.26,.67,.28,1.05,.08,1.08-.61,2.33-1.74,2.31Zm-7.44-.08c-1.48,.83-3.58,2.3-4.8,.23-1.06-1.81,.24-3.88,1.68-4.89,2.92-2.04,7.6-2.3,10.58-.25,.12,.08,.24,.18,.36,.28-1.14-.02-2.24,.56-2.77,1.73-.36,.81-.35,1.69-.04,2.45-1.62-.58-3.39-.45-5.01,.47Zm-4.48,7.18c-.37-.43-.18-.95,.11-1.32,.07,.02,.15,.02,.24,.01,1.79-.3,.7,2.53-.35,1.31Z" fill="#231f20"/></g></svg>