<?xml version="1.0" encoding="UTF-8"?><svg xmlns="http://www.w3.org/2000/svg" viewBox="0 0 35 35"><g id="Example_glyph"><g id="Line_7-2"><text transform="translate(7.78 27.99)" fill="#bcbcbc" font-family="ArialMT, Arial" font-size="35"><tspan x="0" y="0">ú</tspan></text></g></g><g id="Artwork_glyph"><path d="M23.58,13.32c3.16-1.23,2.26-5.16,.42-7.22-2.27-2.55-5.9-3.67-9.27-2.93-2.57,.57-6.98,3.05-5.62,6.24,.58,1.37,2.06,1.72,3.45,1.82,2.13,.14,4.31-.04,6.39,.51,2.17,.57,3.82,1.9,4.42,4.06,.52,1.88,.32,3.97-.4,5.77-1.53,3.82-6.37,6.64-10.42,4.55-1.96-1.01-3.32-3.71-1.64-5.56,.77-.85,1.73-1.02,2.85-.92,.86,.08,1.76,.18,2.52-.32,1.13-.76,.95-2.23,.29-3.23-.77-1.15-2.17-1.9-3.59-1.91-1.29-.01-2.69,.75-2.9,2,0,0,0,0,0,0,0,0,0,0,0,0,0,.06-.01,.12-.02,.17,0,.04,0,.07,0,.11,0,.13-.01,.25,.01,.38,.21,1.23,1.75,1.88,2.85,1.26,.95-.54,1.11-1.84,.5-2.68,.32,.06,.64,.16,.89,.28,.56,.28,1.38,.9,1.47,1.55,.21,1.53-1.46,1.16-2.46,1.11-2.19-.11-4.1,1.48-4.37,3.59-.31,2.4,1.34,4.55,3.55,5.47,2.32,.96,5.01,.66,7.2-.48,4.45-2.31,6.62-8.4,4.35-12.86-.14-.27-.3-.53-.47-.77Zm-5.41-2.99c-1.44-.23-2.89-.24-4.34-.27-1.5-.04-4.25-.03-3.59-2.32,.46-1.61,2.55-2.72,4.06-3.19,1.65-.51,3.4-.53,5.06-.02,1.61,.5,3.07,1.49,4.08,2.81,1.11,1.44,1.86,4.25-.56,4.95-.06,.02-.11,.05-.16,.08-1.22-1.11-2.85-1.76-4.54-2.04Zm-5.89,6.72c-.18,.01-.36,.03-.54,.04-.32-.24-.45-.47-.43-.69,.45-1.13,1.79,.15,.97,.65Z" fill="#231f20"/></g></svg>