<?xml version="1.0" encoding="UTF-8"?><svg xmlns="http://www.w3.org/2000/svg" viewBox="0 0 35 35"><g id="Example_glyph"><g id="Line_8-2"><text transform="translate(7.78 27.99)" fill="#bcbcbc" font-family="ArialMT, Arial" font-size="35"><tspan x="0" y="0">รป</tspan></text></g></g><g id="Artwork_glyph"><path d="M33.26,27.06c-.06-.32-.46-.53-.76-.43-2.77,.91-6.32,2.04-8.83-.1-2.42-2.05-1.16-5.8,.76-7.71,.89-.89,2.02-1.55,3.24-1.87,1.29-.34,2.71-.17,3.88-.92,2.18-1.4,1.02-4.04-.71-5.21-1.72-1.17-4.23-1.47-5.74,.13-1.59-.28-3.39-.04-4.74,.32-1.14,.3-2.21,.76-3.23,1.31-.97-.9-2.14-1.6-3.57-2-1.31-.37-2.99-.42-4.31,.17-1.84-.28-3.82,.92-5.13,2.1C-.28,16.8-.24,23.68,3.97,27.75c.57,.55,1.44-.32,.87-.87-3.1-3-3.77-7.75-1.38-11.39,.88-1.34,2.49-2.95,4.22-3.42-.98,1.71,.5,4.09,2.57,3.43,1.9-.6,1.92-2.78,.71-3.95,.1-.01,.2-.03,.29-.03,1.9-.1,3.48,.6,4.75,1.72-1.26,.8-2.44,1.74-3.56,2.72-2.87,2.49-5.62,5.11-8.43,7.67-.59,.54,.27,1.36,.87,.87,.58-.48,1.17-.96,1.75-1.44,.61,2.11,2.14,4.22,4.31,4.76,1,.25,2.06,.05,2.7-.81,.18-.25,.3-.52,.37-.8,.97,1.21,2.22,2.12,3.91,2.01,2.54-.17,3.11-2.64,3.09-4.75-.03-3.43-.85-7.29-3.02-9.96,1.57-.81,3.28-1.37,5.06-1.42,.42-.01,.88,0,1.33,.05-.41,1.4,.16,3.14,1.84,3.29,2.04,.18,2.74-2.16,1.34-3.4-.31-.27-.68-.48-1.06-.65,.92-.53,2.09-.37,3.03,.09,1.43,.7,3.12,2.92,.83,3.76-.96,.35-2.03,.27-3.02,.53-.82,.21-1.62,.57-2.33,1.02-2.77,1.77-4.85,5.57-3.5,8.83,1.78,4.31,7.01,3.51,10.65,2.41,.29,1.85,.34,3.71,.17,5.57-5.4-1.53-11.12-1.51-16.51,.09-.76,.23-.44,1.41,.33,1.19,5.43-1.62,11.15-1.58,16.56,.1,.42,.13,.73-.22,.78-.59,.3-2.45,.21-4.89-.23-7.32ZM10.41,12.76c.82,1.38-1.5,2.34-1.84,.78-.15-.69,.26-1.17,.83-1.49,.41,.12,.8,.36,1.01,.71Zm9.1,7.33c.28,1.66,.91,5.19-.53,6.46-1.02,.9-2.57,.35-3.45-.45-.78-.71-1.29-1.67-1.78-2.59-.33-.63-1.3-.19-1.13,.47,.22,.84,.59,2.4-.6,2.69-.76,.18-1.62-.34-2.17-.79-1.22-.99-1.93-2.38-2.21-3.91,1.01-.92,2.01-1.84,3.02-2.76,1.78-1.62,3.53-3.3,5.53-4.65,.22-.15,.44-.29,.67-.43,1.4,1.66,2.29,3.88,2.63,5.95Zm7.41-6.97c.55,1.2-.65,1.21-1.1,.84-.48-.4-.45-1.04-.21-1.58,.23,.07,.46,.16,.67,.27,.15,.08,.57,.3,.65,.47Z" fill="#231f20"/></g></svg>