<?xml version="1.0" encoding="UTF-8"?><svg xmlns="http://www.w3.org/2000/svg" viewBox="0 0 35 35"><g id="Example_glyph"><g id="Line_8-2"><text transform="translate(7.78 27.99)" fill="#bcbcbc" font-family="ArialMT, Arial" font-size="35"><tspan x="0" y="0">ü</tspan></text></g></g><g id="Artwork_glyph"><path d="M33.63,27.76c-1.92,.41-3.87,.56-5.83,.42-1.75-.13-4.11-.36-5.47-1.61-2.62-2.39-.36-6.69,2.16-8.13,2.16-1.23,5.52-.51,7-2.86,1.18-1.88,.15-4.44-1.77-5.34-1.28-.59-2.96-.51-4.32,.14-2.42-.87-5.22,.46-7.38,1.46-.69,.32-1.37,.67-2.04,1.04-.54-.63-1.14-1.2-1.83-1.66-1.81-1.22-4.38-1.6-6.31-.43-.45,.27-.86,.67-1.17,1.13-.38,.1-.75,.24-1.07,.44-2.16,1.38-3.6,4.13-4.34,6.49-.85,2.7-.87,5.6-.11,8.32,.22,.77,1.42,.44,1.21-.33-1.01-3.59-.49-7.48,1.48-10.66,.52-.84,1.13-1.66,1.87-2.32,.12-.1,.24-.21,.36-.3-.04,.69,.2,1.37,.87,1.88,1.42,1.09,3.36,.09,3.1-1.73-.14-1.02-.81-1.58-1.63-1.79,.12-.08,.25-.15,.37-.22,.92-.44,2-.44,2.98-.2,1.2,.31,2.27,1.04,3.18,2.01-4.67,2.82-8.6,6.82-11.33,11.55-.41,.71,.61,1.26,1.08,.63,.23-.31,.46-.62,.69-.93,.89,1.75,2.36,3.82,4.28,4,1.42,.13,2.17-.71,2.53-1.8,.5,.81,1.2,1.43,2.25,1.57,2.32,.3,4.09-1.87,4.77-3.83,.84-2.43,.36-5.06-.62-7.37-.49-1.17-1.09-2.35-1.83-3.42,1.25-.68,2.53-1.29,3.86-1.78,1.07-.4,2.25-.83,3.42-.74-.32,.34-.57,.73-.74,1.17-.77,2,1.09,4.3,3.19,3.13,1.81-1.01,1.47-3.16,.24-4.42,1.3-.34,2.87-.06,3.61,1.16,.67,1.11,.48,2.55-.67,3.25-.97,.58-2.22,.62-3.31,.83-3.82,.75-7.09,4.48-6.26,8.51,.5,2.41,2.54,3.54,4.78,4.03,2.72,.6,5.53,.59,8.26,.11-.05,1.32-.1,2.65-.15,3.97-2.17-1.45-5.07-1.18-7.55-.51-3.16,.85-8.34,2.75-10.32-1.16-.36-.72-1.44-.09-1.08,.63,1.43,2.83,4.89,3.33,7.73,2.8,3.52-.66,8.35-3.28,11.36,0,.38,.42,1.05,.07,1.07-.44l.22-6.04c.02-.43-.41-.68-.79-.6ZM8.05,14.64c-.68-.08-.86-.94-.69-1.47,.02-.06,.05-.1,.07-.16,.39-.06,.75,.05,1.09,.32,.5,.6,.35,1.03-.47,1.31Zm10.27,6.37c.23,2.03-.26,4.56-2.08,5.79-2.29,1.54-3.39-.93-3.82-2.76-.16-.67-1.29-.54-1.23,.17,.07,.78,.16,1.62-.15,2.37-.56,1.34-1.85,.92-2.7,.13-.97-.9-1.68-2.06-2.22-3.27,2.2-3.16,4.96-5.92,8.17-8.07,.47-.31,.94-.61,1.42-.9,1.46,1.97,2.38,4.52,2.61,6.55Zm6.94-6.28c-1.27-.12-.96-1.64-.49-2.27,.2-.26,.44-.48,.72-.67,.28,.17,.53,.38,.71,.66,.52,.79,.32,2.39-.93,2.28Z" fill="#231f20"/></g></svg>