<?xml version="1.0" encoding="UTF-8"?><svg xmlns="http://www.w3.org/2000/svg" viewBox="0 0 35 35"><g id="Example_glyph"><g id="Line_8-2"><text transform="translate(8.76 27.99)" fill="#bcbcbc" font-family="ArialMT, Arial" font-size="35"><tspan x="0" y="0">ý</tspan></text></g></g><g id="Artwork_glyph"><path d="M25.9,6.11c-.52,.33-1.04,.66-1.55,1,.11-2.56-2.96-4.19-5.32-4.17-2.81,.03-5.27,1.99-5.96,4.71-.54,2.14,.34,5.26,2.76,5.42-.1,.12-.19,.24-.27,.37-.38-.42-.88-.75-1.38-.96-1.62-.67-3.79-.52-4.77,1.14-.73,1.25-.25,3.17,1.26,3.56-.09,.05-.19,.1-.28,.17-.83,.61-1.44,1.49-1.77,2.46-.78,2.27,.16,4.72,1.92,6.25,2.01,1.75,4.76,2.18,7.33,1.81,2.61-.38,5.25-1.63,6.58-4.02,1.2-2.16,1.01-4.85-.73-6.66-.22-.23-.45-.43-.71-.61,.09-.98-.16-2.01-.84-2.89-.81-1.05-2.1-1.59-3.41-1.54,.93-.56,1.82-1.26,2.66-1.81,1.68-1.09,3.36-2.18,5.04-3.27,.6-.39,.04-1.35-.56-.96Zm-7.41,10.75c1.17-.24,2.33-.14,3.31,.32-.11,.36-.28,.71-.54,1.02-1.16,1.38-3.29,1.45-4.57,.2-.6-.58-.88-1.26-.92-1.96,.64,.63,1.77,.62,2.72,.42Zm-4.51-7.75c0-2.2,1.54-4.22,3.63-4.85,2.08-.63,6.47,.49,5.5,3.46-.02,.07-.02,.13-.02,.19-1.17,.75-2.33,1.5-3.5,2.24-.71,.46-1.46,.92-2.15,1.43-.33,.16-.67,.28-1.01,.34-1.64,.25-2.45-1.39-2.45-2.81Zm-3.68,6.44c-.06-.1-.09-.21-.12-.31,.19,.02,.4-.03,.54-.22,.84-1.11,1.86,.5,.89,1.01-.51,.27-1.05,0-1.31-.47Zm2.8-.61c-.31-1.21-1.41-1.55-2.35-1.21,.14-.12,.29-.23,.46-.31,.87-.42,1.99-.23,2.82,.21,.44,.24,.76,.58,.91,.95-.13,.38-.21,.77-.24,1.16-.1,.1-.23,.19-.38,.28-.52,.28-1.07,.4-1.63,.52,.38-.42,.58-.98,.42-1.6Zm10.85,4.83c.66,2.24-.72,4.51-2.57,5.69-1.89,1.2-4.36,1.65-6.56,1.33-2.21-.32-4.34-1.63-5.13-3.82-.64-1.8-.02-4.05,1.73-4.99,.99-.53,2.33-.51,3.36-.98,.41,1.89,2,3.47,4.23,3.41,1.77-.05,3.11-1.18,3.69-2.62,.56,.49,1,1.13,1.25,1.97Zm-3.44-6.09c.84,.5,1.31,1.39,1.39,2.32-.46-.19-.94-.33-1.44-.39-.44-.05-.87-.05-1.31,0-.74,.1-3.07,1.01-2.78-.76,.28-1.74,2.97-1.88,4.14-1.17Z" fill="#231f20"/></g></svg>