<?xml version="1.0" encoding="UTF-8"?><svg xmlns="http://www.w3.org/2000/svg" viewBox="0 0 35 35"><g id="Example_glyph"><g id="Line_8-2"><text transform="translate(7.78 27.99)" fill="#bcbcbc" font-family="ArialMT, Arial" font-size="35"><tspan x="0" y="0">þ</tspan></text></g></g><g id="Artwork_glyph"><path d="M26.45,6.14c.56-.37,.03-1.26-.53-.89-1.89,1.24-3.75,2.53-5.57,3.87-1.45,1.07-3.01,2.14-4.01,3.67-.11,.16-.19,.33-.28,.5,.09-1.46,.2-2.91,.27-4.37,.59,.05,1.18-.3,1.33-.9,.18-.7-.28-1.37-.98-1.55-.1-.03-.21-.04-.31-.05-.03-1.05-.15-2.1-.44-3.12-.1-.36-.6-.52-.87-.23-.83,.9-2.08,2.53-1.28,3.79,.34,.54,.97,.68,1.57,.64,0,.34-.02,.69-.04,1.03-.08,1.44-.18,2.88-.27,4.33-1.43-.85-3.79-.79-5.11,.2-1.14,.86-1.49,2.66-.16,3.53,1.23,.81,2.8-.34,2.51-1.73-.15-.72-.75-1.1-1.4-1.16,.41-.19,.88-.31,1.23-.34,.74-.08,1.59-.05,2.27,.31,1.08,.56,1.28,1.87,.14,2.48-1.15,.62-2.53,.52-3.66,1.24-1.02,.64-1.82,1.59-2.23,2.72-.83,2.27,.03,4.71,1.88,6.21,2.1,1.7,4.92,1.94,7.5,1.44,2.57-.49,5.17-1.77,6.48-4.11,1.08-1.92,1.11-4.32-.34-6.06-.38-.45-.83-.81-1.34-1.09,.13-1.06-.17-2.2-.97-3.09-.84-.93-2.13-1.55-3.4-1.48,1.03-.98,2.24-1.8,3.39-2.63,1.51-1.09,3.04-2.14,4.6-3.17ZM11.3,15.18c.12,.91-1.17,.67-1.33,0,0-.03,0-.05,0-.08,.06-.03,.13-.07,.19-.13,.29-.31,1.05-.49,1.14,.21Zm3.33-8.96c-.17-.4,.15-.92,.34-1.25,.07-.12,.14-.22,.22-.33,.11,.61,.16,1.23,.18,1.85-.29,.03-.6,.02-.73-.27Zm9.47,13.39c.65,2.17-.67,4.4-2.44,5.62-1.75,1.21-4.05,1.78-6.17,1.74-2.13-.04-4.31-.89-5.46-2.74-1.24-2-.64-4.68,1.37-5.94,1.3-.82,3.17-.61,4.29-1.71,.36,1.56,1.51,2.86,3.41,3.01,1.71,.14,2.91-.78,3.44-2.04,.74,.48,1.3,1.24,1.55,2.07Zm-7.45-3.31c.69,.51,1.66,.7,2.5,.72,.84,.02,1.68-.08,2.49,.12-.05,.11-.09,.22-.15,.33-1.02,1.66-3.49,1.32-4.45-.2-.2-.31-.31-.64-.39-.96Zm3.63-2.86c.95,.58,1.58,1.63,1.57,2.7-.13-.03-.26-.08-.4-.1-1.32-.2-3.39,.42-4.39-.74-.62-.72-.15-1.74,.6-2.13,.82-.42,1.87-.17,2.61,.28Z" fill="#231f20"/></g></svg>