<?xml version="1.0" encoding="UTF-8"?><svg xmlns="http://www.w3.org/2000/svg" viewBox="0 0 35 35"><g id="Example_glyph"><g id="Line_8-2"><text transform="translate(8.76 27.99)" fill="#bcbcbc" font-family="ArialMT, Arial" font-size="35"><tspan x="0" y="0">ÿ</tspan></text></g></g><g id="Artwork_glyph"><path d="M25.87,30.2c-.19-1.35-.38-2.7-.57-4.06-.04-.3-.46-.54-.73-.42-2.08,.86-4.34,1.06-6.52,.49-2.06-.54-5.24-2.05-5.22-4.6,.02-2.92,3.15-4.17,5.53-4.46,1.63-.2,4.2,.3,5.39-1.18,1.16-1.45,.14-3.35-1.02-4.4-1.29-1.16-3.02-1.78-4.73-1.73-1.43,.04-3.61,.55-4.23,2.07-.67,1.66,1.3,2.88,2.65,3.12,1.67,.3,3.28-1.09,2.55-2.85-.22-.52-.54-.89-.91-1.12,.14,0,.27,0,.41,0,1.53,.08,3.08,.78,4.03,2.02,.67,.87,.83,2.18-.42,2.56-.84,.25-1.81,.16-2.67,.21-2.8,.18-6.11,.99-7.35,3.88-1.27,2.98,.75,5.38,3.26,6.71,2.75,1.45,6.01,1.68,8.93,.68,.14,.99,.28,1.97,.41,2.96l.19,1.35c.06,.45,.42,1.58,.27,1.99-.24,.66-2.1,.27-2.71,.22-1.13-.1-2.24-.25-3.36-.4-3.94-.54-7.96-1.07-11.83,.17-.73,.23-.42,1.41,.32,1.17,4.82-1.55,9.78-.2,14.66,.25,1.28,.12,3.95,.72,4.11-1.24,.09-1.09-.27-2.3-.42-3.38ZM17.79,13.36c-.41,.76-1.4,.51-2.04,.16-.42-.22-.81-.56-.8-.98,.7-.5,1.62-.95,2.42-.45,.48,.3,.7,.76,.42,1.27Z" fill="#231f20"/></g></svg>