<?xml version="1.0" encoding="UTF-8"?><svg xmlns="http://www.w3.org/2000/svg" viewBox="0 0 35 35"><g id="Example_glyph"><g id="Line_3-2"><text transform="translate(12.64 27.99)" fill="#bcbcbc" font-family="ArialMT, Arial" font-size="35"><tspan x="0" y="0">!</tspan></text></g></g><g id="Artwork_glyph"><path d="M22.2,10.44c-.04-.79-1.2-.79-1.25,0-.06,.84-.11,1.68-.17,2.51-.11,.59-.26,1.18-.48,1.75-.4,1.03-1.28,3.31-2.71,2.92-2.86-.79-3.7-4.24-2.2-6.51,.44-.66-.64-1.28-1.08-.62-1.95,2.95-.65,7.3,2.95,8.32,1.54,.43,2.54-.57,3.25-1.74-.15,2.21-.3,4.43-.49,6.64-.07,.86-.2,1.87-.85,2.51-.66,.65-1.71,.7-2.54,.37-1.97-.79-2.6-3.09-3.12-4.9-.22-.76-1.42-.44-1.21,.33,.6,2.11,1.39,4.51,3.54,5.57,1.75,.86,3.97,.39,4.86-1.4,.44-.88,.53-1.87,.6-2.84,.11-1.43,.2-2.87,.3-4.3,.14-1.96,.27-3.92,.41-5.87,.17-.89,.24-1.81,.19-2.72Z" fill="#231f20"/></g></svg>