<?xml version="1.0" encoding="UTF-8"?><svg xmlns="http://www.w3.org/2000/svg" viewBox="0 0 35 35"><g id="Example_glyph"><g id="Line_5-2"><text transform="translate(.01 27.99)" fill="#bcbcbc" font-family="ArialMT, Arial" font-size="35"><tspan x="0" y="0">Œ</tspan></text></g></g><g id="Artwork_glyph"><path d="M28.94,17.53c-.38-.67-.91-1.39-1.62-1.7-.74-.32-1.54-.07-2.18,.38-.6,.42-1.1,.96-1.49,1.58-.47-.87-1.29-1.52-2.36-1.67-1.49-.2-2.76,.66-3.33,1.91-.87-1.29-2.06-2.34-3.43-2.98,.91-1.32,1.83-2.65,2.74-3.97,.39-.57-.51-1.11-.9-.55l-1.5,2.17s-.08-.08-.14-.1c-1.12-.52-2.56-1.17-2.91-2.52-.41-1.57,.74-2.98,1.88-3.83,2.32-1.72,5.39-2.59,8.22-2.07,2.35,.43,4.54,1.86,5.81,3.98-1.32-.84-3.04-.71-4.26,.27-1.35,1.09-1.89,3-1.62,4.71,.28,1.77,1.5,2.76,3.23,2.53,1.71-.23,3.46-1.15,4.25-2.81,1.65-3.45-1.75-7.41-4.54-8.83-3.44-1.75-7.53-1.22-10.78,.73-1.64,.99-3.26,2.5-3.31,4.62-.05,2.2,1.8,3.35,3.5,4.15,.03,.01,.05,.01,.08,.02-.26,.37-.51,.74-.77,1.11-.85-.25-1.75-.35-2.66-.26-1.48,.16-3.29,.85-3.91,2.39-.57,1.45,.28,3.04,1.81,3.19,.39,.04,.82-.05,1.23-.23-1.58,2.28-3.15,4.57-4.73,6.85-.33,.47,.29,.96,.71,.74,.72-.38,.81-1.06,1.25-1.69,.44-.63,.74-.1,1.08,.3,.29,.34,.63,.63,1,.88,1.37,.92,3.09,1.08,4.65,.66,1.62-.44,3.19-1.48,4.25-2.84,1.11-1.43,1.33-3.17,.68-4.87-.06-.16-.13-.31-.2-.47,.09-1.27,1.15-2.32,2.45-2.15,1.05,.14,1.75,1,1.88,1.98-.17,.54-.28,1.1-.3,1.68-.02,.53,.73,.75,.97,.27,.3-.59,.41-1.21,.38-1.82,.35-.98,1-1.86,1.9-2.34,1.64-.87,2.63,2.05,2.78,3.29,.21,1.72-.35,3.47-1.35,4.84-.92,1.26-2.57,2.44-4.06,1.41-.56-.39-1.08,.55-.53,.93,1.34,.93,3.04,.55,4.24-.44,1.33-1.09,2.28-2.78,2.62-4.49,.34-1.68,.11-3.48-.74-4.96Zm-.77-4.73c-.78,1.18-2.73,2.16-4.13,1.8-1.63-.42-1.36-3.13-.76-4.27,.79-1.51,2.62-2.15,4.03-1.17,.36,.25,.7-.05,.75-.4,.62,1.27,.93,2.79,.1,4.04Zm-16.4,2.66c.37,.01,.74,.07,1.1,.15-.41,.59-.82,1.19-1.23,1.78-.01-.12-.04-.25-.08-.38-.46-1.37-1.91-1.1-3.07-.57,.86-.78,2.2-1.03,3.28-.99Zm-3.37,3.32c-.31-.17-.48-.43-.55-.71,.01,0,.02,0,.03-.01,.52-.39,1.12-.76,1.76-.9,.32-.07,.7-.13,.87,.22,.17,.35-.05,.71-.3,.98-.46,.49-1.2,.75-1.81,.42Zm9.14,5.04c-1.47,2.09-4.45,3.46-6.86,2.52-.68-.27-1.25-.7-1.72-1.28-.25-.31-.48-.61-.81-.76,1.92-2.78,3.84-5.57,5.76-8.35,.53,.22,1.04,.51,1.5,.87,.86,.67,1.7,1.63,2.22,2.7,0,.26,.02,.53,.08,.79,.05,.21,.18,.32,.34,.36,.26,1.06,.17,2.16-.53,3.15Z" fill="#231f20"/></g></svg>