<?xml version="1.0" encoding="UTF-8"?><svg xmlns="http://www.w3.org/2000/svg" viewBox="0 0 35 35"><g id="Example_glyph"><g id="Line_7-2"><text transform="translate(.99 27.99)" fill="#bcbcbc" font-family="ArialMT, Arial" font-size="35"><tspan x="0" y="0">œ</tspan></text></g></g><g id="Artwork_glyph"><path d="M26.15,15.84c-.1-.07-.2-.13-.3-.2,.1-.04,.19-.11,.25-.24,1.43-2.81-.3-6.24-3.66-6.57-.32-.03-.68-.02-1.07,.04,.03-2.41-1.33-4.7-3.73-5.6-2.24-.84-4.91-.04-6.1,2-.83,1.42-.65,3.48,.62,4.52-1.73,.17-3.13,1.53-3.37,3.3-.1,.72,1.09,.71,1.18,0,.32-2.38,3.6-2.93,4.82-.87,1.02,1.73,.76,4.3,.29,6.15-1,3.92-3.99,7.1-7.93,8.52-.59,.21-.55,1.12,.16,1.11,4.02-.05,8.06,0,12.08-.15,3.14-.12,6.76-.93,8.1-3.99,1.15-2.62,1.21-6.17-1.35-8.01Zm-3.38-5.81c2.23,.52,3.3,2.85,2.31,4.81-.07,.13-.07,.25-.04,.37-1.04-.46-2.19-.68-3.33-.75-1.33-.09-4.71,.51-4.35-1.64,.31-1.88,3.68-3.19,5.42-2.79Zm-9.02-.75c-1.17-.18-1.59-1.2-1.51-2.21,.08-.05,.16-.11,.21-.21,.67-1.23,2.63-1.36,3.27-.03,.63,1.31-.48,2.67-1.97,2.45Zm.84,1.09c.67-.11,1.32-.39,1.77-.88,.71-.76,.9-1.86,.55-2.82-.39-1.08-1.35-1.85-2.55-1.92-.29-.02-.58,0-.86,.06,1.01-.75,2.39-.93,3.63-.51,2.05,.68,3.12,2.7,3.06,4.69,0,.05,.02,.1,.03,.14-1.79,.54-3.65,1.77-4.05,3.3-.31-.83-.81-1.57-1.58-2.06Zm12.11,12.2c-.53,1.97-2.1,3.2-4.1,3.73-2.38,.63-5,.44-7.45,.47-1.75,.02-3.49,.04-5.24,.06,3.94-2.31,6.55-6.33,6.72-10.87,.02-.46,0-.95-.03-1.44,.74,.97,2.14,1.05,3.35,1.04,2.02-.02,4.26,.07,5.84,1.45,1.61,1.41,1.42,3.7,.92,5.56Z" fill="#231f20"/></g></svg>