<?xml version="1.0" encoding="UTF-8"?><svg xmlns="http://www.w3.org/2000/svg" viewBox="0 0 35 35"><g id="Example_glyph"><g id="Line_3-2"><text transform="translate(11.29 27.99)" fill="#bcbcbc" font-family="ArialMT, Arial" font-size="35"><tspan x="0" y="0">&quot;</tspan></text></g></g><g id="Artwork_glyph"><path d="M18.54,25.42c-.58-.43-1.47-.42-1.98,.12-.23,.24-.36,.54-.39,.85-.13,.25-.18,.53-.13,.81,.08,.44,.48,.75,.92,.77,.39,.02,.72-.19,.99-.46,0,.01-.01,.02-.01,.03-.01,.03-.03,.05-.04,.08-.05,.09-.1,.17-.16,.25,0,0-.01,.02-.02,.03-.02,.02-.06,.07-.07,.08-.07,.08-.14,.15-.21,.22-.06,.06-.13,.12-.2,.17,.06-.05-.03,.02-.03,.02-.05,.03-.09,.06-.14,.09-.34,.23-.71,.42-1.08,.61-.29,.15-.4,.58-.22,.86,.19,.3,.54,.38,.86,.22,1.14-.58,2.42-1.36,2.65-2.74,.12-.76-.1-1.54-.73-2.01Z" fill="#231f20"/></g></svg>