<?xml version="1.0" encoding="UTF-8"?><svg xmlns="http://www.w3.org/2000/svg" viewBox="0 0 35 35"><g id="Example_glyph"><g id="Line_3-2"><text transform="translate(7.77 27.99)" fill="#bcbcbc" font-family="ArialMT, Arial" font-size="35"><tspan x="0" y="0">#</tspan></text></g></g><g id="Artwork_glyph"><path d="M19.9,14.93c-.16-.92-.46-2.01-1.37-2.45-.62-.29-1.34-.23-1.93,.1-.54,.3-.94,.82-1.21,1.37-.04,.09-.06,.18-.07,.28-.08,.13-.14,.27-.2,.43-.17,.53-.08,1.1,.17,1.59,.56,1.06,1.82,1.42,2.93,1.22,.49-.09,1-.33,1.33-.72,.43-.52,.45-1.16,.34-1.8Zm-1.28,.98s-.05,.06-.05,.06c-.02,.02-.03,.03-.05,.04-.01,0-.03,.02-.03,.02-.04,.02-.08,.05-.12,.07-.02,.01-.04,.02-.06,.03-.07,.03-.15,.05-.23,.07-.04,0-.08,.02-.12,.03,0,0-.07,.01-.11,.02-.04,0-.12,.01-.11,.01-.04,0-.09,0-.13,0-.04,0-.09,0-.13,0-.01,0-.09,0-.11,0-.1-.01-.19-.04-.29-.06-.03,0-.06-.02-.09-.03-.01,0-.07-.03-.08-.04-.08-.04-.14-.08-.22-.13,0,0,0,0,0,0-.04-.04-.08-.07-.12-.11-.03-.03-.06-.06-.09-.1-.01-.02-.03-.04-.04-.06-.02-.04-.05-.08-.07-.12,0-.02-.03-.06-.04-.09-.02-.07-.04-.14-.05-.21,0,0,0-.02,0-.02,0-.04,0-.07,0-.11,0,0,0-.08,.01-.1,.01-.05,.03-.1,.04-.15,0,0,0,0,0,0,.03-.05,.05-.09,.08-.14,0,0,0,0,0-.01,.03-.04,.07-.07,.1-.11,0,0,0,0,.01-.02,0,0,0,0,0,0,.03-.01,.19-.1,.06-.05,.3-.13,.55-.42,.44-.77,0-.02-.02-.03-.03-.05,0,0,0,0,.01-.01,.02-.01,.05-.04,.06-.04,.04-.03,.08-.05,.13-.08,.03-.01,.05-.03,.08-.04,.01,0,.03-.01,.04-.02,.05-.01,.09-.03,.14-.04,.01,0,.05,0,.07-.01,.09,0,.17,0,.26,0-.12-.01,.05,.03,.09,.03,.03,.01,.08,.04,.09,.04,.03,.02,.05,.04,.08,.05,.03,.03,.06,.06,.09,.09,.01,.01,.03,.04,.04,.05,.02,.03,.04,.06,.06,.09,.04,.07,.08,.14,.11,.21,0,.02,.02,.06,.03,.07,0,.02,.01,.04,.02,.06,.06,.17,.11,.35,.15,.52,.04,.17,.07,.35,.11,.52,0,0,0,.04,0,.06,0,.03,0,.07,0,.1,0,.05,0,.11,0,.16,0,.03,0,.06,0,.09,0,.04-.02,.09-.03,.13,0,.01-.01,.02-.01,.03,0,0-.03,.04-.05,.07Z" fill="#231f20"/><path d="M19.61,23.06c-.33-.44-.7-.86-1.15-1.18-.52-.37-1.22-.5-1.79-.15-.38,.23-.6,.58-.76,.97-.12,0-.24,0-.35,.07-.49,.3-.77,.85-.74,1.42,.03,.6,.36,1.14,.76,1.57,.7,.75,1.79,1.21,2.82,.96,.97-.24,1.78-1.13,1.78-2.15,0-.55-.24-1.08-.57-1.52Zm-.87,2.03s0,0-.01,.01c-.05,.06-.11,.11-.16,.16,0,0-.02,.02-.03,.03-.02,.02-.04,.03-.07,.05-.07,.05-.15,.09-.22,.12,0,0,0,0-.01,0-.04,.01-.07,.02-.11,.03-.05,.01-.11,.03-.16,.04-.02,0-.03,0-.04,0-.04,0-.08,0-.13,0-.04,0-.08,0-.12,0-.03,0-.03,0-.04,0,0,0-.01,0-.04-.01-.08-.02-.16-.04-.24-.06-.04-.01-.08-.03-.12-.04,0,0-.02,0-.03-.01-.14-.07-.34-.18-.41-.24-.1-.07-.28-.25-.4-.39,0,0-.07-.09-.02-.03-.04-.05-.07-.09-.1-.14-.03-.04-.05-.08-.07-.12,0,0-.04-.08-.05-.08-.03-.07-.07-.21-.07-.23,0,0,0-.02,0-.06,.02,0,.03,.02,.05,.03,.32,.07,.69-.1,.77-.44,.04-.19,.08-.38,.15-.56,.02-.07,.04-.09,.08-.17,.01-.03,.01-.03,.02-.04,.04-.04,.08-.09,.12-.13-.07,.06,.05-.02,.06-.03,.02,0,.06-.02,.07-.02,0,0,0,0,.02,0,.01,0,.01,0,.02,0,.04,0,.08,.02,.12,.03,.01,0,0,0,.01,0,0,0,0,0,0,0,.05,.02,.09,.05,.14,.08,.04,.02,.07,.05,.11,.07-.06-.05,.02,.02,.03,.03,.07,.06,.13,.12,.2,.18,.14,.14,.28,.29,.41,.44,.09,.11,.16,.2,.26,.36,.04,.07,.09,.15,.12,.23,0,0,0,0,0,0,.02,.05,.04,.1,.05,.15,0,.03,.02,.07,.02,.1,0,.02,0,.04,0,.05,0,.02,0,.16,0,.17-.01,.06-.03,.12-.04,.18,0,0,0,0,0,.01-.02,.05-.05,.09-.08,.14-.02,.03-.04,.06-.06,.09Z" fill="#231f20"/></g></svg>