<?xml version="1.0" encoding="UTF-8"?><svg xmlns="http://www.w3.org/2000/svg" viewBox="0 0 35 35"><g id="Example_glyph"><g id="Line_6-2"><text transform="translate(5.84 27.99)" fill="#bcbcbc" font-family="ArialMT, Arial" font-size="35"><tspan x="0" y="0">Š</tspan></text></g></g><g id="Artwork_glyph"><path d="M27.64,9.22c-1.59-2.86-4.46-5.05-7.71-5.89-3.95-1.03-8.17,.01-11.29,2.52-.62,.5,.27,1.35,.88,.85,6.12-4.91,15.57-2.2,17.89,5.15,1.07,3.38,1.05,7.88-.3,11.19-.73,1.78-2.37,3.58-4.52,3.56-1.92-.02-3.38-1.4-3.64-3.12,.05-.4,.06-.82,0-1.24-.07-.61-1.12-.9-1.23-.16,0,.05,0,.11-.01,.16,0,0,0,0,0,0,0,.02,0,.04,0,.06-.04,.33-.05,.66-.02,.99-.2,1.6-1.27,3.03-3,3.42-2.27,.51-4.28-.93-4.95-2.98-.64-1.98-.26-4.21,.95-5.92,.57-.8,1.33-1.48,2.18-1.98,.81-.48,1.74-.66,2.57-1.09,1.15-.59,1.72-1.79,1.06-2.96-.75-1.35-2.38-1.6-3.81-1.26-3.2,.77-5.82,3.42-6.93,6.35-1.36,3.58-.32,7.64,2.3,10.41,.54,.57,1.43-.28,.88-.85-2.6-2.74-3.32-6.85-1.54-10.2,.86-1.6,2.2-2.95,3.83-3.83,.88-.47,2.06-1,3.1-.78,.83,.17,1.37,.85,.98,1.57-.31,.56-.86,.66-1.44,.87-3.06,1.09-5.26,3.63-5.63,6.79-.37,3.13,1.25,6.59,4.74,7.1,2.29,.33,4.34-.83,5.35-2.61,.93,1.65,2.78,2.73,4.98,2.43,3.75-.53,5.32-4.33,5.76-7.51,.5-3.67,.41-7.68-1.44-11.02Z" fill="#231f20"/></g></svg>