<?xml version="1.0" encoding="UTF-8"?><svg xmlns="http://www.w3.org/2000/svg" viewBox="0 0 35 35"><g id="Example_glyph"><g id="Line_8-2"><text transform="translate(8.76 27.99)" fill="#bcbcbc" font-family="ArialMT, Arial" font-size="35"><tspan x="0" y="0">š</tspan></text></g></g><g id="Artwork_glyph"><path d="M20.3,17.08c-.68,.25-1.21,.59-1.63,1-.33,0-.63-.18-.8-.68-.22-.65,.18-1.49,.39-2.1,.32-.97,.62-1.95,.85-2.94,.44-1.89,.8-3.94,.73-5.88-.05-1.34-.58-2.85-2.02-3.37-1.74-.62-3.2,.65-4.24,1.82-.52,.58,.36,1.43,.88,.84,.87-.98,2.51-2.56,3.67-.92,.62,.87,.47,2.05,.4,3.04-.17,2.34-.66,4.65-1.41,6.89-.47,1.4-1.04,3.22,.46,4.28,.1,.07,.2,.11,.29,.15-.81,1.69-.57,3.92-.24,5.79,.36,2.01,.74,4.01,1.08,6.02,.17,.97,.58,2.81-1.09,2.79-1.11-.02-2.21-.68-3.03-1.34-.61-.49-1.5,.35-.88,.84,1.22,.98,3.07,2.05,4.75,1.59,1.59-.43,1.78-2.01,1.61-3.35-.3-2.22-.79-4.44-1.19-6.64-.3-1.65-.75-4.07,.29-5.58,.72-.2,1.36-.78,1.83-1.36,.32-.41-.22-1.05-.71-.87Z" fill="#231f20"/></g></svg>