<?xml version="1.0" encoding="UTF-8"?><svg xmlns="http://www.w3.org/2000/svg" viewBox="0 0 35 35"><g id="Example_glyph"><g id="Line_4-2"><text transform="translate(1.94 27.99)" fill="#bcbcbc" font-family="ArialMT, Arial" font-size="35"><tspan x="0" y="0">%</tspan></text></g></g><g id="Artwork_glyph"><path d="M24.9,25.61c-.5-.41-1.26,.26-.75,.67,1.76,1.43,2.42,3.79,.59,5.42-1.55,1.38-4.02,2.04-6.14,2.27-2.15,.23-4.38,.02-6.4-.67-1.98-.68-4.41-2.41-3.32-4.55,.28-.55-.63-1.03-.92-.48-1.11,2.18,.42,4.33,2.59,5.39,2.49,1.22,5.56,1.55,8.35,1.22,2.51-.3,5.55-1.16,7.12-3.06,1.66-2.01,.82-4.63-1.12-6.21Z" fill="#231f20"/></g></svg>