<?xml version="1.0" encoding="UTF-8"?><svg xmlns="http://www.w3.org/2000/svg" viewBox="0 0 35 35"><g id="Example_glyph"><g id="Line_3-2"><text transform="translate(14.16 27.99)" fill="#bcbcbc" font-family="ArialMT, Arial" font-size="35"><tspan x="0" y="0">&apos;</tspan></text></g></g><g id="Artwork_glyph"><path d="M18.19,24.91c-.25-.36-.57-.7-1.05-.7-.24,0-.48,.1-.66,.26-.09,.08-.17,.19-.22,.31-.04,.03-.08,.06-.12,.1-.45,.47-.56,1.2-.39,1.81,.17,.62,.66,1.17,1.31,1.28,.36,.06,.72,.02,1.04-.16,.32-.18,.55-.5,.66-.84,.23-.75-.15-1.46-.57-2.06Z" fill="#231f20"/></g></svg>