<?xml version="1.0" encoding="UTF-8"?><svg xmlns="http://www.w3.org/2000/svg" viewBox="0 0 35 35"><g id="Example_glyph"><g id="Line_4-2"><text transform="translate(11.67 27.99)" fill="#bcbcbc" font-family="ArialMT, Arial" font-size="35"><tspan x="0" y="0">(</tspan></text></g></g><g id="Artwork_glyph"><path d="M19.63,23.82c-.04-.68-.15-1.44-.5-2.03-.34-.58-.92-.99-1.61-.99-.58,0-1.19,.28-1.57,.72-.91,1.04-.72,2.79,.13,3.82,.47,.57,1.26,.78,1.92,.44,.06-.03,.1-.08,.16-.12,.2-.06,.39-.17,.54-.32,0,0,0,0,0-.01,.62-.17,.95-.88,.91-1.5Z" fill="#231f20"/><path d="M19.46,14.07c-.08-.52-.2-1.09-.45-1.56-.32-.58-.94-.87-1.59-.71-.28,.07-.53,.22-.76,.38,0,0,0,0,0,0-.04,0-.08,0-.13,0-.52,.09-.95,.5-1.2,.95-.53,.95-.39,2.09,.3,2.91,.6,.72,1.67,1.05,2.56,.71,.49-.19,.89-.54,1.11-1.03,.24-.54,.26-1.09,.18-1.67Z" fill="#231f20"/></g></svg>