<?xml version="1.0" encoding="UTF-8"?><svg xmlns="http://www.w3.org/2000/svg" viewBox="0 0 35 35"><g id="Example_glyph"><g id="Line_9-2"><text transform="translate(7.78 27.99)" fill="#bcbcbc" font-family="ArialMT, Arial" font-size="35"><tspan x="0" y="0">ƒ</tspan></text></g></g><g id="Artwork_glyph"><path d="M22,28.72c.01,3.23-2.9,5.72-6.1,4.95-1.41-.34-3.33-1.59-3-3.3,.23-1.17,1.16-1.83,2.2-2.25,.56-.1,1.11-.27,1.64-.49,0,0,0,0,.01,0,0,0,0,0,0,0,.05-.02,.1-.04,.15-.06,.66-.3,.18-1.27-.47-1.12-.54,.12-1.09,.28-1.63,.49-2.09,.35-4.36-.39-5.42-2.34-1.4-2.58-.19-5.34,2.37-6.53,1.29-.6,2.65-.68,4.01-1.04,.74-.2,1.5-.56,1.7-1.37,.24-.96-.56-2.16-1.04-2.92-.59-.92-1.35-1.79-2.32-2.32-1.59-.87-3.88-.8-5.05,.73-.12,.15-.21,.32-.29,.5-.55,.08-1.08,.24-1.55,.48-2.34,1.19-3.19,3.96-3.46,6.39-.35,3.1,.19,6.18,1.41,9.03,.31,.72,1.37,.1,1.06-.62-.86-2.02-1.33-4.19-1.35-6.39-.01-2.05,.25-4.39,1.5-6.08,.52-.71,1.22-1.23,2.06-1.48-.06,1.23,.51,2.48,1.71,2.98,1.96,.81,3.37-1.32,2.25-2.96-.51-.75-1.29-1.16-2.13-1.31,.58-.52,1.45-.68,2.22-.55,.89,.16,1.65,.7,2.25,1.36,.52,.58,2.02,2.49,1.22,3.2-.49,.43-1.83,.39-2.44,.54-.92,.21-1.83,.51-2.67,.95-2.83,1.49-4.02,4.68-2.7,7.63,.89,1.99,2.71,3.09,4.69,3.37-.52,.5-.91,1.11-1.09,1.89-.46,2.04,1.22,3.78,2.96,4.51,4.14,1.73,8.57-1.43,8.55-5.83,0-.79-1.23-.79-1.23,0ZM11.27,14.29c-.16,.72-.36,.76-.99,.32-.18-.13-.34-.32-.45-.51-.21-.38-.27-.85-.21-1.28,.16,.01,.33,.02,.49,.06,.19,.05,.39,.12,.57,.21,.61,.33,.73,.55,.59,1.2Z" fill="#231f20"/><path d="M29.85,24.84c-1.41,1.63-4.4,2.29-6.42,1.7-1.85-.54-3.08-2.36-3.41-4.22-.86-4.85,3.47-8.62,6.7-11.39,.48-.41-.03-1.24-.61-1.06-2.59,.81-5.18,1.63-7.77,2.44-.77,.24-.44,1.47,.33,1.23,1.67-.53,3.35-1.05,5.02-1.58-3.19,3.06-6.17,7.04-4.65,11.61,.71,2.13,2.39,3.93,4.62,4.32,2.33,.41,5.45-.29,7.06-2.15,.53-.61-.35-1.52-.88-.9Z" fill="#231f20"/></g></svg>