<?xml version="1.0" encoding="UTF-8"?><svg xmlns="http://www.w3.org/2000/svg" viewBox="0 0 35 35"><g id="Example_glyph"><g id="Line_4-2"><text transform="translate(11.67 27.99)" fill="#bcbcbc" font-family="ArialMT, Arial" font-size="35"><tspan x="0" y="0">)</tspan></text></g></g><g id="Artwork_glyph"><path d="M21.28,5.86c-.57,0-1.15,0-1.72-.01,.49-.52,.98-1.02,1.51-1.5,.55-.49-.26-1.3-.81-.81-.52,.47-1.02,.98-1.5,1.49,0-.51,.01-1.03,.02-1.54,.01-.74-1.13-.74-1.14,0,0,.37-.01,.74-.02,1.11-.26-.31-.52-.62-.79-.92-.2-.24-.6-.21-.81,0-.23,.23-.2,.57,0,.81,.38,.45,.77,.9,1.15,1.35h-1.63c-.73-.02-.73,1.13,0,1.13,.5,0,1.01,0,1.51,0-.52,.65-1.02,1.31-1.48,2.01-.17,.26-.05,.63,.2,.78,.28,.16,.61,.05,.78-.21,.32-.48,.66-.94,1.01-1.39,0,.23,0,.45,0,.68-.01,.74,1.13,.74,1.14,0,0-.38,.01-.77,.02-1.15,.34,.46,.65,.94,.88,1.47,.12,.28,.54,.35,.78,.21,.29-.17,.33-.5,.2-.78-.24-.58-.59-1.1-.96-1.59,.55,0,1.1,0,1.66,.01,.73,0,.73-1.14,0-1.14Z" fill="#231f20"/></g></svg>