<?xml version="1.0" encoding="UTF-8"?><svg xmlns="http://www.w3.org/2000/svg" viewBox="0 0 35 35"><g id="Example_glyph"><g id="Line_4-2"><text transform="translate(10.69 27.99)" fill="#bcbcbc" font-family="ArialMT, Arial" font-size="35"><tspan x="0" y="0">*</tspan></text></g></g><g id="Artwork_glyph"><path d="M29.7,14.38c-1.23-3.06-4.34-5.01-7.58-3.85-2.42,.86-3.92,2.8-5.03,4.99-.05-.78-.14-1.56-.32-2.33-.29-1.29-.71-2.75-2.11-3.18-1.39-.43-3.09,.14-4.43,.53-1.46,.42-2.92,1.04-4.03,2.11-4.02,3.87-2.4,15.58,4.55,14.71,.84-.1,.85-1.46,0-1.35-5.57,.69-6.77-8.9-3.86-12.15,1.47-1.64,4.09-2.33,6.19-2.6,.85-.11,1.54,.02,1.97,.83,.29,.56,.41,1.29,.53,1.91,.3,1.57,.31,3.18,.1,4.76-.12,.86,.97,1.18,1.29,.36,1.02-2.62,2.19-5.58,4.81-6.97,3.01-1.59,6,.29,6.92,3.38,.79,2.68,.55,6.47-1.15,8.76-1.61,2.16-4.53,2.87-6.99,1.97-.81-.3-1.16,1.01-.36,1.3,2.94,1.08,6.42,.13,8.35-2.38,2.16-2.8,2.46-7.58,1.16-10.79Z" fill="#231f20"/></g></svg>