<?xml version="1.0" encoding="UTF-8"?><svg xmlns="http://www.w3.org/2000/svg" viewBox="0 0 35 35"><g id="Example_glyph"><g id="Line_4-2"><text transform="translate(7.28 27.99)" fill="#bcbcbc" font-family="ArialMT, Arial" font-size="35"><tspan x="0" y="0">+</tspan></text></g></g><g id="Artwork_glyph"><path d="M23.24,31.79c-.92,.8-1.95,1.58-3.29,2.02-1.27,.41-2.84,.47-3.97-.18-1.09-.62-1.17-1.61-.52-2.45,.71-.91,2.01-1.47,3.22-2,.55-.24,.3-.8-.32-.83-.24-.01-.49-.02-.73-.03,.63-.29,1.27-.57,1.9-.86,.6-.27,.22-.93-.49-.81-1.26,.21-2.51,.42-3.77,.62-.79,.13-.46,.99,.34,.86,.06-.01,.12-.02,.19-.03-.15,.07-.29,.13-.44,.2-.54,.24-.31,.8,.32,.83,.26,.01,.52,.02,.79,.04-.95,.5-1.79,1.07-2.28,1.85-.69,1.09-.5,2.36,.79,3.19,1.3,.83,3.14,1,4.78,.62,1.81-.42,3.2-1.37,4.38-2.39,.51-.44-.38-1.07-.89-.63Z" fill="#231f20"/></g></svg>