<?xml version="1.0" encoding="UTF-8"?><svg xmlns="http://www.w3.org/2000/svg" viewBox="0 0 35 35"><g id="Example_glyph"><g id="Line_3-2"><text transform="translate(12.64 27.99)" fill="#bcbcbc" font-family="ArialMT, Arial" font-size="35"><tspan x="0" y="0">,</tspan></text></g></g><g id="Artwork_glyph"><path d="M27.67,29.34c-1.36,1.93-3.5,3.02-5.74,3.68-2.45,.72-5.22,1.18-7.74,.56-5.03-1.23-7.61-6.86-7.31-11.6,.3-4.69,3.65-9.87,8.57-10.84,5.23-1.03,10.23,3.77,8.98,8.97-.64,2.63-3.14,4.98-6.05,4.66-2.4-.27,.69-3.21,1.4-3.94,1.02-1.05,2.11-2.02,3.26-2.93,.53-.42-.15-1.24-.72-.92-3.33,1.91-6.87,3.39-10.57,4.45-.73,.21-.42,1.34,.32,1.13,2.38-.68,4.7-1.56,6.94-2.58-.21,.21-.43,.41-.64,.63-.85,.92-2.17,2.13-2.17,3.48,0,2.92,4.63,1.74,6.07,.88,5.26-3.14,4.2-10.85-.63-13.82-5.63-3.47-12.1,.46-14.63,5.76-2.55,5.36-1.4,12.51,3.52,16.2,2.94,2.21,6.69,2.16,10.15,1.42,3.11-.66,6.15-1.96,8.01-4.61,.44-.62-.59-1.21-1.03-.59Z" fill="#231f20"/></g></svg>