<?xml version="1.0" encoding="UTF-8"?><svg xmlns="http://www.w3.org/2000/svg" viewBox="0 0 35 35"><g id="Example_glyph"><g id="Line_3-2"><text transform="translate(12.64 27.99)" fill="#bcbcbc" font-family="ArialMT, Arial" font-size="35"><tspan x="0" y="0">.</tspan></text></g></g><g id="Artwork_glyph"><path d="M26.05,12.44c-2.08-2.86-5.42-2.83-8.03-.71-2.84,2.32-4.96,5.91-6.41,9.32-.3,.72,.64,1.34,1.03,.63,.87-1.6,2.48-3.83,4.29-2,1.14,1.15,2.38,3.15,1.73,4.83-1.53,3.95-6.46,1.77-8.83,.21-1.4-.92-2.78-2.12-3.35-3.81-.6-1.78,.04-3.61,.83-5.21,1.43-2.9,4.47-5.78,7.78-4.26,.69,.32,1.3-.76,.6-1.08-3.12-1.42-6.37,.16-8.31,2.87-2.06,2.88-3.32,6.77-1.06,9.91,1.09,1.51,2.66,2.59,4.25,3.47,1.57,.87,3.31,1.53,5.12,1.34,3.23-.34,5.33-3.52,3.78-6.69-.72-1.46-1.99-3.43-3.73-3.53-.42-.02-.8,.05-1.15,.18,2.58-4.33,6.84-9.28,10.32-4.99,1.85,2.28,2.88,5.77,2.24,8.72-.65,3-3.08,5.3-6.1,4.93-.76-.09-.75,1.16,0,1.25,3.25,.4,6.06-1.96,7.05-5.12,1.08-3.45,0-7.44-2.05-10.26Z" fill="#231f20"/></g></svg>