<?xml version="1.0" encoding="UTF-8"?><svg xmlns="http://www.w3.org/2000/svg" viewBox="0 0 35 35"><g id="Example_glyph"><g id="Line_4-2"><text transform="translate(12.64 27.99)" fill="#bcbcbc" font-family="ArialMT, Arial" font-size="35"><tspan x="0" y="0">/</tspan></text></g></g><g id="Artwork_glyph"><path d="M17.38,13.37c-2.11-1.24-4.73-1.4-7.04-.6-.41,.14-.86,.32-1.32,.54,2.28-3.4,5.21-6.49,8.08-9.41,.51-.52-.3-1.31-.82-.79-1.89,1.92-3.71,3.91-5.43,5.98-1.49,1.8-3,3.64-4.08,5.71-.75,.71-1.26,1.56-1.25,2.55,0,.14,.06,.25,.13,.34-.81,3.24-.27,6.77,2.66,8.95,3.83,2.85,8.46,.83,10.88-2.68,2.4-3.47,2.07-8.3-1.83-10.6Zm.25,10.79c-1.2,1.4-2.85,2.64-4.8,2.75-1.97,.11-3.85-.84-5.02-2.35-2.12-2.76-1.51-6.25-.05-9.15,1.04-.9,2.6-1.52,3.61-1.78,1.83-.47,3.79-.25,5.42,.7,3.75,2.2,3.36,6.87,.83,9.83Z" fill="#231f20"/><path d="M30.71,25.62c-1.6,1.87-4.42,1.45-6-.21-1.77-1.86-2-4.48-1.91-6.89,.19-5.09,1.52-10.12,3.78-14.72,.18-.37-.03-.87-.51-.86-1.86,.04-3.71,.08-5.57,.13-.76,.02-.77,1.16,0,1.14,1.55-.04,3.1-.07,4.65-.11-1.19,2.57-2.12,5.23-2.72,7.98-.65,2.98-1.11,6.21-.73,9.25,.29,2.34,1.38,4.75,3.59,5.99,2.01,1.12,4.74,.87,6.26-.89,.48-.56-.36-1.37-.84-.8Z" fill="#231f20"/></g></svg>