<?xml version="1.0" encoding="UTF-8"?><svg xmlns="http://www.w3.org/2000/svg" viewBox="0 0 35 35"><g id="Example_glyph"><g id="Line_3-2"><text transform="translate(7.77 27.99)" fill="#bcbcbc" font-family="ArialMT, Arial" font-size="35"><tspan x="0" y="0">0</tspan></text></g></g><g id="Artwork_glyph"><path d="M27.86,15.17c-.23-5.23-3.6-9.69-8.07-11.44-.05-.07-.12-.13-.22-.18-4.81-2.3-9.1,2.18-10.95,6.64-1.87,4.48-2.4,10.79,.97,14.62,3.08,3.51,8.1,3.99,12.02,1.99,4.05-2.07,6.46-6.84,6.25-11.64Zm-4.89,9.14c-2.97,2.61-7.39,3.15-10.73,1.06-3.86-2.43-4.38-7.53-3.37-11.86,1.03-4.42,5-11.19,10.07-8.77,.02,.01,.04,0,.06,.02,.07,.09,.16,.18,.29,.23,3.46,1.29,6.26,4.46,7.09,8.36,.84,3.96-.48,8.4-3.41,10.97Z" fill="#231f20"/></g></svg>