<?xml version="1.0" encoding="UTF-8"?><svg xmlns="http://www.w3.org/2000/svg" viewBox="0 0 35 35"><g id="Example_glyph"><g id="Line_3-2"><text transform="translate(7.77 27.99)" fill="#bcbcbc" font-family="ArialMT, Arial" font-size="35"><tspan x="0" y="0">2</tspan></text></g></g><g id="Artwork_glyph"><path d="M26.5,26.41c-5.1,.05-10.19,.1-15.29,.15,2.01-1.61,3.93-3.34,5.75-5.22,2.12-2.2,4.59-4.65,5.78-7.69,2.22-5.66-2.24-11.94-7.62-10.49-2.79,.75-4.7,3.58-5.01,6.73-.09,.91,1.16,.9,1.25,0,.33-3.47,3.17-6.02,6.23-5.45,2.96,.55,5.04,3.9,4.4,7.26-.63,3.33-3.42,5.99-5.52,8.21-2.37,2.5-4.92,4.75-7.63,6.76-.5,.37-.33,1.33,.32,1.32,5.78-.06,11.56-.11,17.33-.17,.8,0,.81-1.43,0-1.42Z" fill="#231f20"/></g></svg>