<?xml version="1.0" encoding="UTF-8"?><svg xmlns="http://www.w3.org/2000/svg" viewBox="0 0 35 35"><g id="Example_glyph"><g id="Line_3-2"><text transform="translate(7.77 27.99)" fill="#bcbcbc" font-family="ArialMT, Arial" font-size="35"><tspan x="0" y="0">3</tspan></text></g></g><g id="Artwork_glyph"><path d="M25.69,17.58c-1.57-1.49-3.88-1.95-6.11-1.83,1.22-.99,2.26-2.23,2.9-3.8,1.04-2.52,.81-5.57-1.05-7.58-1.99-2.15-4.96-1.83-7.25-.44-2.37,1.43-3.96,4.05-3.47,7.05,.14,.86,1.34,.49,1.21-.36-.77-4.77,6.25-8.95,9.08-4.72,1.28,1.92,1.02,4.43-.08,6.38-1.15,2.03-3.1,3.33-5.09,4.22-.72,.32-.45,1.58,.33,1.31,2.51-.89,6.05-1.2,8.36,.5,2.62,1.92,.87,5.61-1.28,6.94-4.36,2.69-10.33,1.36-14.03-2-.61-.55-1.5,.4-.88,.96,2.38,2.15,5.27,3.45,8.36,3.72,2.93,.26,6.38-.39,8.6-2.63,1.94-1.97,2.58-5.65,.41-7.72Z" fill="#231f20"/></g></svg>