<?xml version="1.0" encoding="UTF-8"?><svg xmlns="http://www.w3.org/2000/svg" viewBox="0 0 35 35"><g id="Example_glyph"><g id="Line_3-2"><text transform="translate(7.77 27.99)" fill="#bcbcbc" font-family="ArialMT, Arial" font-size="35"><tspan x="0" y="0">4</tspan></text></g></g><g id="Artwork_glyph"><path d="M28.91,18.09l-7.88,.08c.09-3.39,.18-6.77,.27-10.16,.02-.85-1.07-.85-1.1,0-.09,3.39-.18,6.78-.27,10.17-3.22,.03-6.44,.06-9.66,.1,3.55-4.73,7.11-9.47,10.66-14.2,.47-.63-.3-1.57-.77-.94l-11.52,15.34c-.31,.41-.1,1.14,.39,1.13,3.62-.04,7.25-.07,10.87-.11-.07,2.61-.14,5.23-.21,7.84-.02,.85,1.07,.85,1.1,0,.07-2.62,.14-5.24,.21-7.86,2.64-.03,5.28-.05,7.91-.08,.7,0,.71-1.33,0-1.32Z" fill="#231f20"/></g></svg>