<?xml version="1.0" encoding="UTF-8"?><svg xmlns="http://www.w3.org/2000/svg" viewBox="0 0 35 35"><g id="Example_glyph"><g id="Line_3-2"><text transform="translate(7.77 27.99)" fill="#bcbcbc" font-family="ArialMT, Arial" font-size="35"><tspan x="0" y="0">5</tspan></text></g></g><g id="Artwork_glyph"><path d="M25.3,17.45c-.22-2.86-1.55-6.16-4.38-6.86-2.84-.7-6.14,.36-8.82,1.84,.8-2.27,1.41-4.61,1.8-7.01l10.46-1.13c.79-.09,.8-1.44,0-1.35-3.64,.39-7.27,.78-10.91,1.18-.32,.03-.5,.27-.57,.53-.08,.08-.15,.18-.18,.34-.47,2.97-1.26,5.86-2.38,8.61-.23,.57,.27,1.32,.86,.93,1.5-1.01,3.1-1.77,4.81-2.24,1.68-.46,3.97-.98,5.57,0,2.82,1.73,3.05,6.67,1.83,9.51-1.3,3.02-4.31,4.63-7.28,4.84-3.51,.25-6.87-1.32-9.86-3.16-.7-.43-1.33,.74-.63,1.17,5.01,3.09,11.76,5.27,16.71,.8,2.15-1.95,3.2-5,2.97-8Z" fill="#231f20"/></g></svg>