<?xml version="1.0" encoding="UTF-8"?><svg xmlns="http://www.w3.org/2000/svg" viewBox="0 0 35 35"><g id="Example_glyph"><g id="Line_3-2"><text transform="translate(7.77 27.99)" fill="#bcbcbc" font-family="ArialMT, Arial" font-size="35"><tspan x="0" y="0">6</tspan></text></g></g><g id="Artwork_glyph"><path d="M24.24,13.77c-1.47-1.83-3.62-2.17-5.9-1.92-2.37,.26-4.7,.77-6.96,1.49,1.28-3.42,3.52-6.6,5.95-9.3,.52-.58-.36-1.43-.88-.85-2.75,3.06-5.33,6.71-6.58,10.66-.45,.18-.49,.69-.27,.98-.09,.35-.19,.69-.26,1.05-.75,3.91,.22,8.27,3.73,10.71,3.37,2.35,7.91,1.68,10.56-1.36,2.61-2.98,3.16-8.27,.6-11.45Zm-.91,9.82c-2.03,3.17-6.25,4.22-9.48,2.06-3.33-2.23-4.01-6.52-3.17-10.09,.06-.27,.15-.54,.23-.81,1.61-.55,3.25-1,4.92-1.32,1.87-.35,4.43-.98,6.19,.02,3.39,1.91,3.11,7.33,1.3,10.15Z" fill="#231f20"/></g></svg>