<?xml version="1.0" encoding="UTF-8"?><svg xmlns="http://www.w3.org/2000/svg" viewBox="0 0 35 35"><g id="Example_glyph"><g id="Line_3-2"><text transform="translate(7.77 27.99)" fill="#bcbcbc" font-family="ArialMT, Arial" font-size="35"><tspan x="0" y="0">7</tspan></text></g></g><g id="Artwork_glyph"><path d="M24.98,11.35c-.82,.08-1.64,.17-2.46,.25,1.1-2.67,2.14-5.41,2.35-8.18,.02-.32-.32-.6-.66-.6-4.72,.1-9.44,.21-14.16,.31-.85,.02-.86,1.21,0,1.19,4.47-.1,8.94-.2,13.41-.29-.24,1.77-.87,3.46-1.51,5.14-.33,.86-.65,1.72-.98,2.58-3.36,.35-6.71,.69-10.07,1.04-.84,.09-.85,1.28,0,1.19,3.2-.33,6.4-.66,9.6-.99-.29,.76-.57,1.52-.86,2.28-1.51,3.99-3.02,7.99-4.53,11.98-.28,.73,1.01,1.04,1.28,.32,1.57-4.14,3.13-8.29,4.7-12.43,.29-.76,.6-1.52,.92-2.3,.99-.1,1.98-.21,2.97-.31,.84-.09,.85-1.28,0-1.19Z" fill="#231f20"/></g></svg>