<?xml version="1.0" encoding="UTF-8"?><svg xmlns="http://www.w3.org/2000/svg" viewBox="0 0 35 35"><g id="Example_glyph"><g id="Line_3-2"><text transform="translate(7.77 27.99)" fill="#bcbcbc" font-family="ArialMT, Arial" font-size="35"><tspan x="0" y="0">8</tspan></text></g></g><g id="Artwork_glyph"><path d="M24.86,17.07c-1.23-1.9-3.3-2.85-5.4-3.45,1.45-.73,2.76-1.7,3.38-3.26,.84-2.09,.2-4.57-1.5-6.03-.03-.02-.05-.03-.08-.04,.17-.32,.11-.79-.34-.93-2.44-.76-5.13-.5-7.29,.92-1.67,1.1-3.44,3.09-3.54,5.19-.12,2.37,2.27,3.51,4.18,4.14,.4,.13,.82,.24,1.24,.35-.86,.34-1.7,.7-2.48,1.2-2.04,1.29-3.62,3.26-3.73,5.75-.1,2.32,1.07,4.6,2.95,5.94,4.44,3.15,9.58-.04,12.36-3.81,1.35-1.83,1.5-4.01,.25-5.95ZM11.85,7.97c1.48-2.78,4.53-4.08,7.52-3.65-.08,.35,.11,.77,.58,.77,.14,0,.25-.05,.34-.11,.03,.08,.08,.16,.16,.23,2.17,1.87,1.86,5.03-.42,6.64-.77,.54-1.62,.94-2.49,1.3-2.96-.63-7.6-1.59-5.68-5.19Zm10.52,15.75c-1.88,1.97-4.45,3.65-7.3,3.02-3.11-.69-5.32-4.05-4.29-7.18,.95-2.9,4.09-4.07,6.67-5.07,.05-.02,.11-.04,.17-.07,1.84,.41,3.66,.9,5.11,2.1,.92,.77,1.65,1.89,1.77,3.1,.15,1.65-1.06,2.98-2.12,4.09Z" fill="#231f20"/></g></svg>