<?xml version="1.0" encoding="UTF-8"?><svg xmlns="http://www.w3.org/2000/svg" viewBox="0 0 35 35"><g id="Example_glyph"><g id="Line_3-2"><text transform="translate(7.77 27.99)" fill="#bcbcbc" font-family="ArialMT, Arial" font-size="35"><tspan x="0" y="0">9</tspan></text></g></g><g id="Artwork_glyph"><path d="M25.69,6.21c.03-.44-.31-.64-.66-.62-.03-.04-.04-.07-.07-.11-4.7-4.6-12.96-3.03-15.24,3.21-1.1,3.01-.31,6.51,2.39,8.43,2.8,1.99,6.24,1.09,8.72-.96,1.03-.85,1.89-1.87,2.6-2.97-.7,4.69-1.57,9.35-2.62,13.98-.19,.82,1.09,1.16,1.28,.35,1.47-6.46,2.59-12.99,3.38-19.56,.1-.58,.19-1.17,.22-1.75Zm-5.64,8.92c-1.44,1.23-3.41,2.19-5.37,1.75-1.66-.37-3.04-1.61-3.68-3.14-1.39-3.33,.55-7.09,3.6-8.75,3.1-1.69,6.94-1.01,9.42,1.41,.09,.09,.19,.14,.3,.16-.05,.4-.1,.8-.15,1.21-.5,2.81-1.91,5.47-4.12,7.35Z" fill="#231f20"/></g></svg>