<?xml version="1.0" encoding="UTF-8"?><svg xmlns="http://www.w3.org/2000/svg" viewBox="0 0 35 35"><g id="Example_glyph"><g id="Line_3-2"><text transform="translate(12.64 27.99)" fill="#bcbcbc" font-family="ArialMT, Arial" font-size="35"><tspan x="0" y="0">:</tspan></text></g></g><g id="Artwork_glyph"><path d="M28.76,10.04c-.76-2.89-2.36-5.97-5.31-6.87-2.94-.9-5.3,.98-6.29,3.79-2.24,6.35,.18,15.03,6.74,17.14-.16,.14-.32,.29-.5,.42-4.47,3.42-10.27,2.61-14.26-1.24-2.3-2.22-2.93-5.64-1.31-8.51,1.5-2.65,4.5-3.84,7.35-3.56,.77,.08,.77-1.18,0-1.25-2.89-.28-5.89,.83-7.74,3.21-1.75,2.24-2.25,5.5-1.14,8.16,1.26,3.01,4.46,5.14,7.37,6.12,2.93,.99,6.08,.62,8.8-.85,5.74-3.11,7.95-10.26,6.3-16.55Zm-3.83,13.05c-5.4-1.3-7.8-7.25-7.27-12.6,.25-2.52,1.11-6.17,4.12-6.29,2.92-.12,4.73,2.75,5.56,5.29,1.5,4.61,.77,10.03-2.41,13.61Z" fill="#231f20"/></g></svg>