<?xml version="1.0" encoding="UTF-8"?><svg xmlns="http://www.w3.org/2000/svg" viewBox="0 0 35 35"><g id="Example_glyph"><g id="Line_3-2"><text transform="translate(12.64 27.99)" fill="#bcbcbc" font-family="ArialMT, Arial" font-size="35"><tspan x="0" y="0">;</tspan></text></g></g><g id="Artwork_glyph"><path d="M26.57,12.96c-1.47-2.36-4.21-3.85-6.97-2.77-.98,.39-1.86,.98-2.7,1.61-.92-1.11-2.13-1.72-3.75-1.72-1.63,0-3.93,.2-4.49,2.06,0,.01,0,.02,0,.03,0,0,0,.01,0,.02-.04,.11-.05,.2-.04,.29-.13,1.21,.94,2.3,2.21,2.16,1.51-.16,2.17-2.05,1.23-3.19-.02-.03-.05-.04-.08-.07,.84-.11,1.81-.12,2.53,.12,.59,.2,1.03,.6,1.4,1.07-1.28,1.01-2.51,2.08-3.67,3.22-2.13,2.09-4.02,4.4-5.68,6.86-.56,.34-.93,1.08-1.1,1.72-.19,.69,.79,1.09,1.17,.49,.22-.36,.46-.7,.69-1.05,.03-.01,.06-.02,.09-.01,.14,.04,.31,.56,.39,.7,.2,.39,.41,.74,.69,1.08,.61,.72,1.42,1.26,2.29,1.63,1.7,.72,3.86,.94,5.68,.67,4.45-.66,3.87-5.79,3.24-9.08-.39-2.06-1.07-4.14-2.09-5.98,.97-.75,2.03-1.45,3.19-1.69,3.87-.79,5.62,3.86,6.27,6.74,.73,3.18,.39,7.53-3.26,8.8-.77,.27-.44,1.48,.34,1.21,6.08-2.11,5.17-10.56,2.43-14.93Zm-15.66,.37c-.77,.44-1.12-.47-.86-1.08,.6-.69,1.78,.56,.86,1.08Zm7.9,10.3c-.14,2.01-1.3,3.02-3.31,3.08-1.67,.05-3.53-.14-4.97-1.03-.8-.49-1.27-1.13-1.68-1.93-.21-.4-.43-.78-.79-1.02,1.45-2.06,3.06-3.99,4.85-5.78,1.13-1.13,2.32-2.19,3.56-3.19,.05-.04,.1-.08,.14-.12,1.59,2.95,2.45,6.67,2.21,10Z" fill="#231f20"/></g></svg>