<?xml version="1.0" encoding="UTF-8"?><svg xmlns="http://www.w3.org/2000/svg" viewBox="0 0 35 35"><g id="Example_glyph"><g id="Line_4-2"><text transform="translate(7.28 27.99)" fill="#bcbcbc" font-family="ArialMT, Arial" font-size="35"><tspan x="0" y="0">&lt;</tspan></text></g></g><g id="Artwork_glyph"><path d="M28.05,29.41c-3.28,3.62-8.35,5.2-13.02,3.76-4.25-1.31-9.07-5.68-8.41-10.65,.23-1.73,.97-3.12,2.02-4.2,.01,.03,.02,.06,.03,.09,1.17,2.73,4.27,3.59,6.95,3.54,2.71-.05,6.19-.39,7.53-3.19,.36-.75-.74-1.4-1.1-.65-1.01,2.12-3.5,2.38-5.56,2.51-2.1,.14-4.48-.02-6-1.71-.39-.43-.64-.94-.79-1.48,2.38-1.73,5.71-2.35,8.58-2.12,1.44,.12,2.85,.4,4.25,.76,.86,.22,1.98,.75,2.87,.39,1.69-.68,.83-3.16,.1-4.25-2.3-3.45-7.09-2.96-9,.36-1.38-1.83-3.57-3.3-5.77-1.85-1.77,1.17-2.66,3.92-2.42,6.18-3.02,2.75-3.83,6.99-1.9,10.71,1.92,3.69,5.64,6.39,9.66,7.15,4.72,.9,9.63-.86,12.87-4.44,.55-.61-.34-1.53-.9-.92Zm-5.18-17.91c.97,.51,1.76,1.44,2.08,2.51,.23,.76,.08,1.38-.79,1.17-.73-.17-1.45-.4-2.18-.56-1.54-.35-3.15-.58-4.76-.62,.78-2.33,3.43-3.66,5.64-2.49Zm-12.22,1.11c1.7-2.44,4.12-.47,5.28,1.4-2.26,.11-4.47,.67-6.39,1.94,.05-1.2,.47-2.42,1.11-3.34Z" fill="#231f20"/></g></svg>