<?xml version="1.0" encoding="UTF-8"?><svg xmlns="http://www.w3.org/2000/svg" viewBox="0 0 35 35"><g id="Example_glyph"><g id="Line_4-2"><text transform="translate(7.28 27.99)" fill="#bcbcbc" font-family="ArialMT, Arial" font-size="35"><tspan x="0" y="0">=</tspan></text></g></g><g id="Artwork_glyph"><path d="M23.4,29.14c-.05-.63-1.01-.63-.95,0,.32,3.65-4.11,5.3-6.97,4.76-1.45-.27-2.86-1.19-3.32-2.71-.47-1.56,.34-3.27,1.96-3.51,.6-.09,.35-1.04-.25-.95-1.34,.2-2.45,1.34-2.72,2.7-.3,1.52,.3,3.12,1.43,4.12,2.31,2.06,6.17,1.78,8.6,.05,1.41-1,2.38-2.66,2.23-4.47Z" fill="#231f20"/></g></svg>