<?xml version="1.0" encoding="UTF-8"?><svg xmlns="http://www.w3.org/2000/svg" viewBox="0 0 35 35"><g id="Example_glyph"><g id="Line_4-2"><text transform="translate(7.28 27.99)" fill="#bcbcbc" font-family="ArialMT, Arial" font-size="35"><tspan x="0" y="0">&gt;</tspan></text></g></g><g id="Artwork_glyph"><path d="M27,16.13s.04-.07,.05-.11c.75-3.99-3.34-7.44-7.04-5.41-.4,.22-.76,.54-1.06,.91-1.26-1.72-3.85-2.11-5.69-1.18-.97,.49-1.92,1.42-2.11,2.54-.12,.72,.13,1.48,.68,1.91-1.68,.2-3.36,.4-5.04,.6-.79,.09-.8,1.36,0,1.26,1.26-.15,2.52-.3,3.78-.45-.66,.59-1.22,1.29-1.61,2.1-.98,2.02-.73,4.17-.14,6.28,.59,2.12,1.96,3.17,4.14,3.31s4.07-.43,5.04-2.49c.08-.16,.21-.56,.37-.65,.3-.15,.8,.23,.94,.43,.36,.52,.51,1.16,.91,1.67,.51,.66,1.28,1.03,2.1,1.12,2.17,.23,3.96-1.51,5.14-3.14,1.99-2.74,1.75-6.45-.47-8.7Zm-6.48-4.37c2.55-1.55,5.55,.71,5.37,3.48-.33-.21-.68-.4-1.06-.55-1.18-.47-2.29-.46-3.53-.38-.69,.05-1.57,.08-1.78-.75,.04-.22,.04-.44,.02-.66,.15-.48,.56-.88,.98-1.13Zm-6.79-.24c.79-.45,1.72-.56,2.59-.31,.81,.23,1.75,.82,1.97,1.7-.04,.2-.05,.4-.04,.6-.23,.47-.96,.62-1.48,.7-.86,.13-1.73,.22-2.6,.31,.33-.41,.48-.96,.33-1.54-.18-.66-.66-1.04-1.21-1.16,.16-.12,.32-.23,.45-.31Zm-1.16,1.58c.36-.28,.87,.09,.7,.52-.18,.45-.74,.29-.87-.1-.03-.1-.05-.21-.05-.31,.07-.02,.15-.06,.22-.11Zm10.27,13.63c-1.34,.07-1.74-.88-2.3-1.91-.42-.76-1.14-1.51-2.08-1.42-.8,.08-1.23,.69-1.55,1.37-.58,1.24-1.46,1.78-2.83,1.87-1.24,.08-2.86,.01-3.6-1.17-.69-1.1-.98-2.92-.98-4.19-.01-2.49,1.74-4.69,4.08-5.35,.09-.03,.17-.07,.23-.12,.62-.07,1.24-.15,1.86-.22,1.03-.12,2.24-.14,3.09-.8,.01,.01,.02,.03,.03,.05,.61,.68,1.5,.8,2.35,.74,1.22-.07,2.3-.16,3.46,.37,2.13,.97,3.36,3.3,2.97,5.63-.35,2.06-2.48,5.03-4.73,5.15Z" fill="#231f20"/></g></svg>