<?xml version="1.0" encoding="UTF-8"?><svg xmlns="http://www.w3.org/2000/svg" viewBox="0 0 35 35"><g id="Example_glyph"><g id="Line_3-2"><text transform="translate(7.77 27.99)" fill="#bcbcbc" font-family="ArialMT, Arial" font-size="35"><tspan x="0" y="0">?</tspan></text></g></g><g id="Artwork_glyph"><path d="M29.13,25.85c-1.53,1.5-3.73,.87-5.03-.6-1.31-1.47-1.76-3.55-2.01-5.47-.52-3.98,.05-8,1.51-11.7,.19-.49-.36-.88-.77-.79-.86,.19-1.72,.37-2.59,.56l3.76-3.72c.37-.36,.11-1.16-.44-1.1-2.04,.21-4.08,.41-6.11,.62-.79,.08-.8,1.37,0,1.29,1.46-.15,2.92-.29,4.39-.44-1.34,1.33-2.69,2.66-4.03,3.99-.47,.47,.02,1.2,.61,1.08,1.21-.26,2.41-.52,3.62-.78-1.52,4.4-1.93,9.43-.64,13.92,.57,1.97,1.69,3.88,3.53,4.82,1.7,.86,3.71,.61,5.09-.74,.58-.57-.3-1.48-.88-.91Z" fill="#231f20"/><path d="M18.25,14.35c-1.23-2.76-4.41-4.55-7.32-4.04,1.64-2.17,3.37-4.29,4.95-6.49,.47-.65-.69-1.26-1.15-.61-1.98,2.76-4.19,5.38-6.18,8.13-.29,.22-.57,.45-.83,.74-.18,.2-.19,.42-.11,.62-.4,.59-.79,1.18-1.15,1.79-1.94,3.22-4.67,8.23-2.02,11.7,2.72,3.57,7.99,1.13,10.7-1.13,3.2-2.67,4.79-6.94,3.12-10.7Zm-.7,4.11c-.27,2.23-1.55,4.24-3.36,5.74-1.66,1.38-4.48,3.09-6.85,2.51-3.01-.74-2.85-4.18-2.2-6.3,.64-2.11,1.69-4.11,2.89-6,.48-.75,.99-1.48,1.51-2.2,1.7-1.13,3.95-1.05,5.66,.28,1.89,1.46,2.61,3.8,2.35,5.98Z" fill="#231f20"/></g></svg>