<?xml version="1.0" encoding="UTF-8"?><svg xmlns="http://www.w3.org/2000/svg" viewBox="0 0 35 35"><g id="Example_glyph"><g id="Line_3-2"><text transform="translate(-.26 27.99)" fill="#bcbcbc" font-family="ArialMT, Arial" font-size="35"><tspan x="0" y="0">@</tspan></text></g></g><g id="Artwork_glyph"><path d="M25.54,8.8c-2.02-2.64-5.47-3.82-8.72-3.41-2.87,.36-6.77,2.23-7.19,5.47-.22,1.71,.76,3.33,2.1,4.33,1.69,1.26,3.88,1.48,5.91,1.64,.8,.06,.8-1.19,0-1.25-1.65-.13-3.44-.28-4.87-1.19-1.26-.79-2.28-2.31-1.8-3.84,.9-2.83,4.78-4.06,7.43-3.98,2.98,.09,6.21,1.85,7.11,4.85,.44,1.47,.23,3.16-.76,4.37-1.02,1.24-2.61,1.84-4.09,2.33-1.65,.55-3.42,1.03-4.79,2.15-1.14,.92-1.82,2.44-.97,3.79,.43,.68,1.51,.05,1.08-.63-1.23-1.95,2.51-3.27,3.75-3.68,1.69-.57,3.45-1.04,4.89-2.13,2.83-2.12,2.99-6.08,.91-8.79Z" fill="#231f20"/><path d="M19.66,29.36c-.23-.56-.56-1.09-1.03-1.49-.9-.75-2.3-.95-3.25-.22-.02-.03-.03-.07-.06-.09-.26-.26-.62-.21-.88,0-.97,.78-1.02,2.27-.38,3.26,.7,1.09,1.94,1.62,3.18,1.84,.61,.11,1.26,.16,1.83-.14,.58-.3,.87-.9,.91-1.53,.04-.56-.12-1.13-.34-1.64Zm-.91,1.64s0,.02,0,.03c0,0,0,0,0,.02,0,.05-.02,.09-.03,.13,0,.02,0,.02,0,.03,0,0,0,0,0,.01-.04,.08-.05,.11-.14,.17-.05,.03-.23,.09-.3,.1-.16,.02-.44,0-.53-.01-.89-.12-1.83-.42-2.43-1.09-.1-.11-.24-.33-.29-.45-.1-.22-.12-.38-.12-.57,0-.05,0-.09,0-.14,0-.05,0,.01,.01-.08,0-.05,.02-.09,.03-.14,0,0,.06-.18,.03-.11,.03-.08,.07-.13,.1-.18,.01,.02,.02,.04,.04,.05,.23,.23,.66,.25,.88,0,.19-.21,.47-.35,.73-.36,.22,0,.31,0,.47,.04,.2,.05,.26,.08,.45,.2,.61,.39,.99,1.2,1.1,1.94,0,.02,0,.06,0,.06,0,.06,0,.12,0,.18,0,.05,0,.1,0,.14Z" fill="#231f20"/></g></svg>