<?xml version="1.0" encoding="UTF-8"?><svg xmlns="http://www.w3.org/2000/svg" viewBox="0 0 35 35"><g id="Example_glyph"><g id="Line_1-2"><text transform="translate(5.82 27.99)" fill="#bcbcbc" font-family="ArialMT, Arial" font-size="35" letter-spacing="-.06em"><tspan x="0" y="0">A</tspan></text></g></g><g id="Artwork_glyph"><path d="M20.2,5.04c-.77-.31-1.58-.48-2.41-.55-.09-.76-.22-1.58-.78-2.11-1.39-1.31-3.17,.59-2.28,2.07,.42,.7,1.17,1.01,1.93,1.16,.07,.71,.12,1.42,.13,2.13,.02,2.2-.26,4.37-.83,6.49-.21,.78,1,1.11,1.21,.33,.56-2.08,.86-4.23,.88-6.38,0-.8-.04-1.6-.12-2.39,.71,.09,1.4,.22,2.07,.53,.92,.42,1.83,1.13,1.56,2.26-.27,1.1-1.32,1.78-2.21,2.37-.67,.45-.04,1.53,.63,1.08,1.32-.88,2.71-1.93,2.87-3.64,.16-1.69-1.24-2.77-2.65-3.34Zm-4.47-1.57c.08-.49,.48-.19,.6,.11,.09,.22,.14,.47,.18,.72-.47-.13-.86-.38-.78-.83Z" fill="#231f20"/></g></svg>