<?xml version="1.0" encoding="UTF-8"?><svg xmlns="http://www.w3.org/2000/svg" viewBox="0 0 35 35"><g id="Example_glyph"><g id="Line_1-2"><text transform="translate(5.83 27.99)" fill="#bcbcbc" font-family="ArialMT, Arial" font-size="35"><tspan x="0" y="0">B</tspan></text></g></g><g id="Artwork_glyph"><path d="M21.4,13.76c-1.65-1.54-3.88-2.83-6.23-2.69-.47,.03-.92,.12-1.34,.26,1.62-2.57,3.69-4.89,5.48-7.33,.49-.66-.63-1.29-1.11-.64-2.33,3.17-5.1,6.18-6.79,9.74-.36,.51-.63,1.1-.77,1.76-.01,.06,0,.12,0,.17-.06,.18-.14,.35-.19,.53-1.12,3.87-.44,8.47,3.05,10.95,3.24,2.31,7.59,1.56,9.81-1.72,2.39-3.54,1.05-8.26-1.91-11.03Zm.27,11.06c-2.47,2.69-6.53,2.14-8.75-.56-2.38-2.9-1.97-7.07-.53-10.28,.02-.04,.04-.08,.06-.11,.86-1.24,2.45-1.77,4.09-1.42,1.66,.36,3.17,1.4,4.32,2.6,2.5,2.59,3.41,6.93,.8,9.78Z" fill="#231f20"/><g><path d="M10.52,7.61s0,0,0,0c.02,.01,.04,.03,.04,.03,0,0-.02-.03-.05-.04Z" fill="#231f20"/><path d="M11.5,7.21s0-.03,0-.05c0,0,0,0,0-.01-.02,.03-.02,.07,0,.06Z" fill="#231f20"/><path d="M12.67,6.47c-.28-.84-1.05-1.3-1.85-1.56-.31-.1-.7,.12-.77,.44,0,.04,0,.07,0,.11-.44,.34-.85,.75-.96,1.31-.15,.76,.18,1.55,.84,1.96,.69,.42,1.57,.28,2.18-.21,.58-.47,.79-1.35,.56-2.04Zm-1.16,.69s0,.04,0,.05c0,0,0,0,0,0-.01,.05-.03,.09-.04,.13-.01,.02-.03,.05-.03,.06-.01,.03-.03,.05-.05,.08-.03,.04-.07,.07-.1,.1-.01,0-.02,.02-.03,.02-.03,.02-.05,.03-.08,.05-.03,.02-.1,.03-.01,0,.1-.02-.01,0-.03,.01-.04,.01-.07,.02-.11,.03-.02,0-.03,0-.05,0-.05,0-.1,0-.15,0-.01,0-.03,0-.04,0,0,0,0,0,0,0-.03,0-.11-.04-.15-.05-.02,0-.03-.02-.05-.03,0,0,0,0,0,0,0,0,0,0-.04-.02,0,0,0,0,0,0,0,0-.02-.01-.02-.01,0,0,0,0,.01,0-.03-.03-.06-.07-.09-.09-.02-.02-.03-.05-.05-.07,0-.02-.02-.03-.03-.05,0-.04-.04-.1-.04-.13,0-.01,0-.03,0-.05,0-.05,0-.1,0-.14,0-.03,.01-.06,.02-.08,0,0,0-.02,.01-.04,0-.01,.01-.02,.02-.03,0-.01,.05-.08,.08-.12-.02,.02-.03,.02,0-.01h0s.02-.03,.02-.03c0,0,0,0,0,.01,.02-.02,.04-.05,.06-.07,.05-.05,.1-.1,.15-.14,.03-.02,.05-.04,.08-.07,0,0,0,0,0,0,.07-.05,.15-.1,.22-.15,.03,.02,.06,.03,.08,.05,.01,0,.07,.04,.12,.07,0,0,0,0,.02,.02,.02,.02,.04,.04,.06,.05,.04,.04,.07,.07,.11,.11,.02,.03,.04,.06,.06,.09,.01,.02,.02,.04,.03,.06,.01,.04,.03,.09,.04,.14,0,0,0,0,0,0,0,0,0,0,0,.05,0,0,0,0,0,0,0,0,0,.02,0,.02,0,0,0,0,0-.01,0,.05,0,.11,0,.16,0,0,0,0,0-.01,0,0,0,.01,0,.03,0,0,0,0,0,0Z" fill="#231f20"/><path d="M11.51,6.98s0,0,0-.01c0-.02,0-.05,0-.05,0,0,0,.04,0,.06Z" fill="#231f20"/><path d="M10.45,6.78s0,0,0,.01c.01-.01,.02-.02,.03-.03,0,0-.01,.01-.02,.02Z" fill="#231f20"/></g><g><path d="M22.63,7.67s0,0,0,0c0,0,0,0,0,0,.02-.02,.02-.02-.02,.01Z" fill="#231f20"/><path d="M22.43,7.78s0,0,0,0c.01,0,.02,0,.03-.01,0,0,.01,0,.02,0-.05,.01-.06,.02-.05,.02Z" fill="#231f20"/><path d="M21.72,7.62c-.04-.08-.03-.04,0,0h0Z" fill="#231f20"/><path d="M22.82,6.93s0-.03-.01-.04c0,0,0,0,0,0,0,.04,.01,.05,.01,.04Z" fill="#231f20"/><path d="M22.81,7.46s0,0,0-.01c0,.02-.01,.02,0,.01Z" fill="#231f20"/><path d="M22.28,7.82s0,0,0,0c-.11,0-.06,.01,0,0Z" fill="#231f20"/><path d="M23.13,5.47c-.89-.49-1.93-.15-2.74,.33-.28,.17-.41,.57-.22,.86,.04,.07,.1,.13,.16,.17-.08,.54,.05,1.1,.4,1.55,.47,.61,1.29,.85,2.03,.62,.77-.24,1.3-.88,1.37-1.68,.06-.72-.36-1.5-.99-1.84Zm-.33,2.02s-.02,.04-.03,.05c-.03,.03-.06,.07-.1,.1,0,0-.01,.01-.02,.02,0,0,0,0,0,0,0,0,0,0,0,0-.01,.01-.03,.02-.04,.03,.02-.02,.02-.02,.03-.03-.05,.03-.1,.06-.15,.09,.01,0,.02,0,.03,0-.02,0-.03,.01-.05,.02,0,0,0,0,0,0-.02,0-.03,.01-.03,.01-.05,.02-.09,.03-.14,.04,.01,0,.01,0,.03,0-.02,0-.05,0-.07,0-.06,0-.12,0-.17,0-.01,0-.02,0-.04,0-.03,0-.06-.02-.09-.03-.04-.02-.08-.04-.11-.06,0,0-.01,0-.02-.02,0,0,0,0-.01-.01-.03-.02-.05-.05-.07-.07,0,0,0,0,0,0,0,.01,0,.01,.02,.03-.03-.05-.07-.1-.09-.15-.01-.03-.03-.05-.04-.08-.02-.05-.03-.11-.05-.16,0-.02,0-.03,0-.05,0,0,0-.02,0-.02,0-.06,0-.11,0-.17,0-.03,.01-.05,.02-.08,0-.02,.01-.04,.02-.07,0,0,0,0,0,0,0,0,0,0,0,0,.05-.09,.06-.2,.07-.3,.03-.01,.07-.02,.1-.03,.07-.02,.15-.04,.22-.05,0,0,0,0,0,0,.03,0,.05,0,.07,0,.07,0,.13,0,.2,0,0,0,0,0,0,0,0,0,0,0,0,0,.04,.01,.09,.02,.13,.03,.02,0,.05,.01,.07,.02,.04,.03,.08,.05,.13,.07,.01,.01,.03,.02,.04,.04,.02,.02,.03,.03,.05,.05,0,0,0,.01,.02,.02,.01,.01,.03,.04,.04,.05,.01,.02,.03,.04,.04,.06,.01,.02,.03,.05,.04,.07,0-.01,0-.01,0-.03,0,.01,0,.02,.01,.04,0,0,0,.01,0,.02,0,.02,0,.02,0,.02,.01,.03,.02,.06,.03,.09,0,.02,.01,.05,.02,.07,0,0,0,0,0,0,0,.05,0,.1,0,.15,0,.02,0,.03,0,.05-.01,.04-.02,.09-.04,.13,0,0-.01,.02-.02,.03,0,0,0-.02,.01-.03,0,0,0,0,0,.01,0,.03-.01,.02-.02,.02,0,.01-.01,.03-.02,.03Z" fill="#231f20"/></g></g></svg>