<?xml version="1.0" encoding="UTF-8"?><svg xmlns="http://www.w3.org/2000/svg" viewBox="0 0 35 35"><g id="Example_glyph"><g id="Line_1-2"><text transform="translate(4.86 27.99)" fill="#bcbcbc" font-family="ArialMT, Arial" font-size="35"><tspan x="0" y="0">C</tspan></text></g></g><g id="Artwork_glyph"><path d="M28.31,12.65c-3.03-3.16-7.63-2.5-11.07-.43-.19-.21-.38-.43-.58-.63-1.38-1.35-2.99-1.88-4.93-1.62-1.5,.2-3.25,.66-4.13,1.97-.13,.04-.25,.07-.37,.13-.46,.2-.38,.69-.07,.95-.17,.99,.22,2.02,1.26,2.44,1.39,.57,2.8-.48,2.55-1.95-.15-.93-.77-1.44-1.53-1.64,.81-.46,1.88-.64,2.66-.72,1.7-.17,3.04,.61,4.13,1.74-.02,.01-.04,.03-.06,.04-3.35,2.5-6.15,5.94-8.55,9.43-.11,.05-.21,.13-.28,.25-.41,.68-.83,1.36-1.24,2.04-.41,.68,.65,1.28,1.08,.62,.2-.32,.41-.63,.62-.94,.84,1.78,2.11,3.49,4.28,3.6,1.2,.06,2.27-.53,2.83-1.41,1.51,1.49,4.17,1.67,5.77-.16,1.17-1.34,1.08-3.22,.85-4.85-.26-1.85-.82-3.65-1.65-5.34-.5-1.03-1.12-2.02-1.83-2.95,2.99-1.75,6.72-2.45,9.37,.31,.55,.58,1.43-.29,.88-.87Zm-18.9,1.74c-.75,.34-1.15-.76-1.03-1.26,.02-.06,.05-.11,.07-.17,.28-.04,.57-.03,.81,.1,.43,.23,.8,1.03,.15,1.33Zm9,1.62c1.23,2.23,2.15,5,2.01,7.56-.09,1.5-1,2.84-2.65,2.92-1.14,.05-2.03-.64-2.47-1.57-.04-.34-.14-.69-.34-1.04-.37-.66-1.23-.17-1.14,.47,.04,.31,.13,.59,.24,.86-.02,.59-.42,1.15-1.04,1.37-.7,.25-1.49,.09-2.11-.28-1.19-.69-1.8-1.97-2.28-3.2,2.05-2.96,4.38-5.8,7.07-8.19,.41-.37,.87-.73,1.35-1.06,.52,.7,.97,1.45,1.37,2.16Z" fill="#231f20"/></g></svg>