<?xml version="1.0" encoding="UTF-8"?><svg xmlns="http://www.w3.org/2000/svg" viewBox="0 0 35 35"><g id="Example_glyph"><g id="Line_1-2"><text transform="translate(4.86 27.99)" fill="#bcbcbc" font-family="ArialMT, Arial" font-size="35"><tspan x="0" y="0">D</tspan></text></g></g><g id="Artwork_glyph"><path d="M23.64,15.59c0-1.02-.18-2.03-.65-2.97-.89-1.78-2.79-2.78-4.71-2.77-2.15,.02-4.07,1.29-5.36,2.99-.46,.6,.36,1.46,.83,.85,1.22-1.61,3.05-2.85,5.11-2.61,2.11,.25,3.44,1.93,3.61,4.05,0,.01,0,.02,0,.03-3.88,.66-8.05,1.62-10.42,5.14-1.05,1.55-1.73,3.85-.7,5.59,.98,1.66,3.17,2.2,4.93,2.1,1.88-.1,3.68-.9,5.03-2.24,.13,.54,.33,1.08,.63,1.61,.38,.67,1.39,.06,1.01-.61-1.32-2.34-.44-5.04,.17-7.46,.28-1.11,.51-2.29,.53-3.45,.01-.08,.02-.17,0-.26Zm-2.52,8.73c-.08,.03-.16,.08-.23,.16-1.04,1.21-2.45,2-4.01,2.25-1.44,.23-3.49,.02-4.43-1.29-1.01-1.43-.15-3.51,.76-4.75,.98-1.32,2.38-2.29,3.86-2.92,1.72-.73,3.56-1.08,5.4-1.39-.18,2.68-1.42,5.32-1.35,7.94Z" fill="#231f20"/></g></svg>