<?xml version="1.0" encoding="UTF-8"?><svg xmlns="http://www.w3.org/2000/svg" viewBox="0 0 35 35"><g id="Example_glyph"><g id="Line_1-2"><text transform="translate(5.83 27.99)" fill="#bcbcbc" font-family="ArialMT, Arial" font-size="35"><tspan x="0" y="0">E</tspan></text></g></g><g id="Artwork_glyph"><path d="M22.68,24.07c-1.26,1.33-2.87,2.23-4.65,2.6-1.72,.35-4.16,.32-5.44-1.09-1.63-1.8,.35-3.71,1.52-5.07,1.49-1.74,2.97-3.48,4.46-5.22,.39-.46,.02-1.13-.57-1-.48,.1-.96,.21-1.44,.31,1.56-1.08,3.02-2.3,4.18-3.86,.33-.44-.21-1.01-.67-.88-2.27,.63-4.54,1.25-6.81,1.88-.73,.2-.42,1.36,.31,1.16,1.63-.45,3.26-.9,4.89-1.35-1.58,1.55-3.52,2.71-5.41,3.84-.59,.35-.19,1.24,.45,1.1,1.01-.22,2.01-.44,3.02-.66-1.47,1.7-2.95,3.39-4.35,5.13-1.34,1.65-2.04,3.72-.42,5.48,1.47,1.59,4,1.79,6,1.5,2.19-.32,4.22-1.39,5.76-3.01,.53-.55-.3-1.4-.83-.85Z" fill="#231f20"/></g></svg>