<?xml version="1.0" encoding="UTF-8"?><svg xmlns="http://www.w3.org/2000/svg" viewBox="0 0 35 35"><g id="Example_glyph"><g id="Line_1-2"><text transform="translate(6.81 27.99)" fill="#bcbcbc" font-family="ArialMT, Arial" font-size="35"><tspan x="0" y="0">F</tspan></text></g></g><g id="Artwork_glyph"><path d="M29.17,15.34c-.77-2.33-2.71-4.02-5.05-4.68-2.52-.71-5.2-.1-7.49,1.08-1.25-1-2.7-1.69-4.33-1.86-1.81-.19-3.89,.32-5.09,1.79-.92,1.13-1.11,2.99,.15,3.98,1.17,.91,3.14,.34,3.27-1.25,.12-1.56-1.42-2.3-2.62-1.71,.53-.84,1.59-1.32,2.51-1.5,1.74-.34,3.52,.22,4.94,1.23-2.46,1.57-4.49,3.77-6.46,5.9-1.8,1.96-3.48,4.03-4.54,6.47-.18,.27-.3,.59-.37,.93,0,.02-.01,.03-.02,.05,0,0,0,0,0,0,0,.06-.03,.11-.03,.17-.08,.74,1.01,.8,1.23,.17,.11-.33,.24-.65,.38-.97,.8-.63,2.65,.6,3.25,1.05,.85,.64,1.7,1.2,2.72,1.52,1.78,.55,3.78,.42,5.47-.4,3.64-1.76,4.93-6.07,3.58-9.73-.65-1.77-1.69-3.54-3.06-4.94,1.48-.7,3.08-1.12,4.72-1.01,2.46,.16,4.82,1.63,5.62,4.04,.25,.76,1.46,.44,1.21-.33Zm-20.28-.52c-.42,.08-.75-.07-.99-.45-.07-.11-.12-.24-.15-.37,.21,.1,.47,.1,.69-.1,1.12,.08,1.27,.39,.45,.93Zm10.73,7.98c-1.4,3.66-5.85,5.11-9.13,2.99-1.26-.81-2.35-2.05-3.97-2.06-.04,0-.07,0-.11,0,.85-1.47,1.94-2.81,3.09-4.08,1.77-1.97,3.59-3.99,5.73-5.56,.4-.3,.83-.57,1.27-.83,2.44,2.33,4.38,6.25,3.13,9.53Z" fill="#231f20"/></g></svg>