<?xml version="1.0" encoding="UTF-8"?><svg xmlns="http://www.w3.org/2000/svg" viewBox="0 0 35 35"><g id="Example_glyph"><g id="Line_1-2"><text transform="translate(3.89 27.99)" fill="#bcbcbc" font-family="ArialMT, Arial" font-size="35"><tspan x="0" y="0">G</tspan></text></g></g><g id="Artwork_glyph"><path d="M28.34,15.14c-.36-4.19-2.53-8.19-5.74-10.95-1.35-1.16-3.36-2.01-4.61-.23-1.14,1.61-.54,4.14-.2,5.92,.97,4.96,3.6,9.53,7.35,12.96,.07,.06,.14,.1,.22,.13-.88,1.55-2.23,3.32-3.97,3.78-2.72,.71-3.44-2.63-3.69-4.52-.1-.77-1.34-.79-1.25,0,.27,2.38-1.39,4.57-3.91,4.62-2.73,.06-4.12-2.36-4.71-4.64-.64-2.51-.8-5.36,.48-7.71,1.23-2.25,3.91-3.75,6.46-2.65,.73,.31,1.37-.74,.63-1.06-2.83-1.22-5.94-.12-7.68,2.32-2.08,2.9-1.93,6.86-.9,10.12,.88,2.79,3.04,5.17,6.26,4.82,1.81-.2,3.27-1.29,4.04-2.77,.33,.84,.82,1.6,1.61,2.15,1.69,1.18,3.68,.54,5.13-.69,3.29-2.77,4.82-7.43,4.46-11.6Zm-2.42,6.73c-2.5-2.31-4.47-5.12-5.73-8.26-.6-1.49-1.03-3.04-1.3-4.61-.24-1.43-.88-5.99,1.98-4.55,1.44,.73,2.74,2.43,3.62,3.72,.96,1.4,1.7,2.94,2.15,4.58,.83,3.01,.59,6.29-.73,9.13Z" fill="#231f20"/></g></svg>