<?xml version="1.0" encoding="UTF-8"?><svg xmlns="http://www.w3.org/2000/svg" viewBox="0 0 35 35"><g id="Example_glyph"><g id="Line_8-2"><text transform="translate(11.68 27.99)" fill="#bcbcbc" font-family="ArialMT, Arial" font-size="35"><tspan x="0" y="0">ˆ</tspan></text></g></g><g id="Artwork_glyph"><path d="M27.76,28.57c-.25,3.53-3.7,5.99-7.14,4.92-1.6-.5-3.76-2.27-2.63-4.13,.47-.79,1.22-1.17,2.06-1.36,1.11,.1,2.25,.05,3.35-.02,.83-.05,.8-1.18,0-1.26-1-.11-2.12-.16-3.17,0-2.16-.21-4.15-1-4.87-3.39-.92-3.02,.98-6.23,4-7.05,1.62-.44,4.08-.55,3.86-2.88-.19-1.99-2.39-3.32-4.2-3.52-.78-.09-1.65,.03-2.41,.34-1.76-.69-3.95-.35-5.5,.65-.5,.33-.94,.71-1.32,1.14-.89-.95-1.94-1.77-3.19-2.02-1.38-.28-3.09,.29-3.58,1.7-.43,1.25,.33,2.87,1.72,3.02,1.41,.15,2.52-1.42,2.02-2.71-.14-.36-.37-.63-.64-.81,1.13,.12,2.15,1.04,2.9,1.86-.71,1.1-1.21,2.36-1.68,3.59-.79,2.09-2.66,7.16-5.84,5.64-.58-.27-1.16,.28-.87,.86,1.69,3.38,5.55,5.67,9.38,5.1,4.21-.63,4.11-6.06,3.42-9.27-.43-2-1.29-3.93-2.5-5.58-.09-.12-.18-.24-.27-.35,1.06-1.34,2.49-2.19,4.57-1.85-.4,.47-.64,1.06-.63,1.78,.03,1.67,2.02,2.98,3.43,1.78,1.16-1,.88-2.6-.04-3.6,.08,0,.17-.03,.25-.03,1.13-.05,2.34,.4,3.11,1.23,.55,.59,.95,1.56,.12,2.13-.39,.26-.97,.31-1.42,.4-3.56,.67-6.37,3.44-6.17,7.23,.1,1.98,1.07,3.86,2.8,4.9,.41,.24,.83,.42,1.27,.57-.49,.35-.91,.82-1.2,1.45-.99,2.06,.54,4.23,2.35,5.19,4.43,2.35,9.6-.79,9.94-5.64,.06-.81-1.21-.81-1.27,0ZM4.32,13.06c-.1-.16-.15-.32-.16-.48,.04-.04,.08-.06,.11-.11,.25-.34,.53-.44,.85-.31,.29-.02,.4,.14,.31,.48,.16,.78-.71,1.04-1.11,.41Zm8.11,7.79c.12,1.33,.08,2.79-.31,4.08-.55,1.8-2.12,2.25-3.85,2.1-2.33-.19-4.41-1.45-5.77-3.28,2.46,0,4.34-2.66,5.27-4.83,.62-1.45,1.23-3.27,2.12-4.8,1.44,1.95,2.32,4.32,2.53,6.72Zm4.94-7.31c-.35,.53-1.07,.42-1.38-.07-.29-.45,0-1.26,.29-1.59,.08-.09,.19-.17,.29-.24,.73,.43,1.33,1.11,.8,1.9Z" fill="#231f20"/><path d="M33.63,15.54c-.41-2.15-1.19-4.6-3.28-5.43-2.15-.86-4.42,.5-5.11,2.78-.25,.82,.95,1.18,1.21,.36,.69-2.26,3.43-2.74,4.76-.83,1.31,1.88,1.56,4.86,1.5,7.13-.06,2.14-.43,4.78-2.09,6.2-1.73,1.49-4.13,1.05-5.5-.72-.52-.67-1.4,.29-.88,.95,1.29,1.66,3.37,2.41,5.31,1.83,2.09-.62,3.38-2.53,3.95-4.7,.63-2.44,.61-5.11,.14-7.57Z" fill="#231f20"/></g></svg>