<?xml version="1.0" encoding="UTF-8"?><svg xmlns="http://www.w3.org/2000/svg" viewBox="0 0 35 35"><g id="Example_glyph"><g id="Line_1-2"><text transform="translate(4.86 27.99)" fill="#bcbcbc" font-family="ArialMT, Arial" font-size="35"><tspan x="0" y="0">H</tspan></text></g></g><g id="Artwork_glyph"><path d="M25.01,16.79c.9-2.69-.6-5.72-3.11-6.64-1.36-.5-2.9-.37-4.21,.24-.57,.27-1.23,.69-1.67,1.24-.21-.3-.48-.57-.83-.78-.97-.58-2.2-.58-3.27-.36-2.27,.48-4.11,2.24-4.96,4.5-.27,.72,.83,1.04,1.09,.32,.72-1.94,2.43-3.38,4.37-3.69,1.09-.17,2.41-.03,2.92,1.15,.44,1.02,.36,2.44,.27,3.53-.36,4.45-2.97,8.27-6.71,10.21-.53,.28-.24,1.11,.29,1.13,3.64,.12,7.38,.52,11.02,.27,2.71-.19,5.67-1.28,6.9-4.09,1.15-2.62-.09-5.37-2.11-7.03Zm-7.51-4.93c1.48-1.02,3.62-1.14,5.08,0,1.25,.97,1.79,2.68,1.43,4.23-1.01-.6-2.12-1-3.23-1.33-.83-.25-1.68-.45-2.52-.69-.44-.13-1.04-.22-1.35-.6-.55-.67,.05-1.26,.58-1.62Zm8.81,10.81c-.45,1.76-2.01,3.01-3.57,3.55-2.05,.71-4.26,.53-6.38,.46-1.73-.06-3.46-.12-5.19-.18,3.55-2.62,5.76-7.04,5.61-11.69,.79,.42,1.78,.6,2.53,.8,1.78,.48,3.66,.98,5.12,2.23,1.35,1.15,2.36,2.95,1.88,4.84Z" fill="#231f20"/></g></svg>