<?xml version="1.0" encoding="UTF-8"?><svg xmlns="http://www.w3.org/2000/svg" viewBox="0 0 35 35"><g id="Example_glyph"><g id="Line_1-2"><text transform="translate(12.64 27.99)" fill="#bcbcbc" font-family="ArialMT, Arial" font-size="35"><tspan x="0" y="0">I</tspan></text></g></g><g id="Artwork_glyph"><path d="M24.69,15.65c.09-1.04,0-2.08-.35-3.04-.62-1.66-2.16-2.83-3.97-2.77-1.56,.05-3.06,1.14-3.56,2.63-.84-1.61-3.08-2.72-4.78-2.39-1.78,.34-3.2,2.59-1.73,4.11,1.24,1.28,3.39,.5,3.38-1.32,0-.79-.49-1.34-1.11-1.61,1.03,.05,2.24,.75,2.78,1.32,.71,.75,.79,1.89-.38,2.17-.89,.21-1.81,.02-2.7,.29-1.22,.37-2.27,1.24-2.94,2.32-1.56,2.52-.73,5.83,1.27,7.85,2.18,2.2,5.52,3.09,8.54,2.69,2.93-.39,5.67-2.14,7-4.83,1.29-2.62,.93-5.64-1.44-7.41Zm-13.7-2.84c.05-.03,.1-.07,.15-.13,.39-.5,1.33-.5,1.27,.3-.07,.98-1.26,.63-1.42-.17Zm7.85-1.12c1.43-1.14,3.48-.52,4.22,1.09,.31,.67,.42,1.41,.41,2.15-1.1-.47-2.34-.65-3.53-.58-.71,.04-1.86,.32-2.05-.65-.15-.75,.39-1.57,.95-2.01Zm5.19,12.3c-1.38,1.59-3.37,2.54-5.46,2.72-3.99,.35-9.31-2.23-8.78-6.94,.11-.98,.57-1.9,1.27-2.59,.89-.87,1.86-1.06,3.07-1.1,.85-.03,1.75-.12,2.4-.75,.2-.19,.33-.42,.43-.66,.04,.07,.08,.15,.13,.22,.57,.72,1.47,.81,2.33,.75,1.35-.1,2.77,.02,3.94,.62-.1,.55-.23,1.09-.39,1.59-.05,.17-.12,.35-.18,.52-.05-.04-.1-.08-.17-.1-3.17-1.14-9.33-.73-9.6,3.75-.1,1.71,1.18,3.16,2.78,3.61,1.85,.52,3.81-.36,5.12-1.67,1.42-1.41,2.38-3.35,3.06-5.21,.19-.53,.36-1.1,.49-1.67,.24,.24,.46,.49,.65,.8,1.21,1.96,.31,4.51-1.09,6.12Zm-1.68-4.51c-.57,1.32-1.33,2.61-2.31,3.59-1.22,1.21-3.26,2.04-4.81,.91-1.87-1.37-.67-3.64,1.05-4.45,1.87-.88,4.11-.74,6.01-.06,.02,0,.04,0,.07,0Z" fill="#231f20"/></g></svg>