<?xml version="1.0" encoding="UTF-8"?><svg xmlns="http://www.w3.org/2000/svg" viewBox="0 0 35 35"><g id="Example_glyph"><g id="Line_8-2"><text transform="translate(11.68 27.99)" fill="#bcbcbc" font-family="ArialMT, Arial" font-size="35"><tspan x="0" y="0">˜</tspan></text></g></g><g id="Artwork_glyph"><path d="M16.21,3.01c-.2-.07-.41-.07-.6-.03-.95-.21-1.89,.54-2.09,1.56-.06,.3,.08,.61,.37,.71,.03,.08,.05,.16,.09,.23,.43,.79,1.37,.99,2.08,.57-.01,.07-.02,.13-.04,.2-.27,1.03-.9,1.93-1.77,2.48-.61,.39-.05,1.41,.56,1.02,1.46-.92,2.39-2.61,2.46-4.4,.03-.87-.14-2.05-1.06-2.35Z" fill="#231f20"/><path d="M21.34,3.77c-.27-.62-.89-.91-1.49-.8-.24,.04-.46,.17-.66,.32-.48,.16-.86,.55-1.04,1.08-.03,.1-.03,.2,0,.3-.05,.17-.08,.34-.07,.52,.04,.67,.45,1.21,1.01,1.45,.28,.12,.57,.12,.85,.05-.33,.77-.82,1.46-1.47,1.94-.26,.19-.39,.56-.22,.88,.15,.28,.54,.43,.8,.24,.87-.64,1.57-1.52,1.99-2.56,.23-.55,.37-1.12,.45-1.72,.07-.56,.09-1.17-.14-1.7Z" fill="#231f20"/></g></svg>