<?xml version="1.0" encoding="UTF-8"?><svg xmlns="http://www.w3.org/2000/svg" viewBox="0 0 35 35"><g id="Example_glyph"><g id="Line_1-2"><text transform="translate(8.75 27.99)" fill="#bcbcbc" font-family="ArialMT, Arial" font-size="35"><tspan x="0" y="0">J</tspan></text></g></g><g id="Artwork_glyph"><path d="M29.21,13.5c-1.9-3.8-6.48-4.64-9.87-2.51-1.61-.79-3.45-1.09-5.22-.77-1.46,.26-3.55,1.11-3.69,2.81-.14,1.73,2.17,2.77,3.24,1.26,.7-.99,.09-2.06-.84-2.35,.02,0,.03-.02,.05-.03,.76-.37,1.61-.56,2.46-.58,.99-.03,1.96,.17,2.87,.53-1.7,1.54-2.79,3.62-3.92,5.57-.7,1.21-1.39,2.42-2.09,3.63-.43,.75-1.66,3.38-2.83,2.18-.6-.53-1.44,.29-.88,.87,.11,.11,.22,.2,.33,.28,2.75,2.34,6.17,4.13,9.9,3.46,3.86-.7,6.04-3.97,5.96-7.72-.06-3.19-1.52-6.53-4.17-8.43,.43-.24,.89-.44,1.39-.56,2.57-.63,5.09,.7,6.23,2.98,.36,.71,1.43,.09,1.08-.62Zm-17.32,.15c-.13-.17-.18-.34-.19-.5,.14,.05,.31,.04,.48-.04,.62-.09,.53,.1-.28,.55Zm7.75-1.07c2.57,1.74,3.88,5.01,3.79,8.01-.09,3.28-2.22,5.81-5.59,6.13-2.55,.25-4.9-.81-6.92-2.26,.71-.37,1.33-1.04,1.73-1.7,1.37-2.27,2.6-4.62,3.97-6.89,.75-1.23,1.64-2.49,2.77-3.43,.08,.05,.16,.09,.24,.14Z" fill="#231f20"/></g></svg>