<?xml version="1.0" encoding="UTF-8"?><svg xmlns="http://www.w3.org/2000/svg" viewBox="0 0 35 35"><g id="Example_glyph"><g id="Line_1-2"><text transform="translate(5.83 27.99)" fill="#bcbcbc" font-family="ArialMT, Arial" font-size="35"><tspan x="0" y="0">K</tspan></text></g></g><g id="Artwork_glyph"><path d="M32.2,16.44c-.74-1.98-2.62-3.35-4.75-3.3-1.43,.04-2.71,.75-3.59,1.82-.35-.66-.96-1.18-1.74-1.33-1.14-.21-2.23,.48-2.69,1.48-.65-1.08-1.44-2.09-2.36-2.92,3.02-2.79,6.07-5.54,9.19-8.22,.61-.52-.27-1.4-.88-.88-3.15,2.71-6.24,5.5-9.29,8.32-1.7-1.21-3.72-1.87-5.95-1.53-1.96,.29-4.01,1.49-4.7,3.46-.58,1.66,.08,3.78,1.89,4.29,1.98,.55,3.9-1.4,2.92-3.35-.71-1.42-2.34-1.65-3.48-.92,.93-1.92,3.63-2.54,5.56-2.23,1,.16,1.96,.56,2.84,1.13-4.02,3.74-7.96,7.57-11.81,11.5-.73,.28-1.32,.84-1.54,1.67-.16,.6,.6,1.06,1.04,.61,.4-.41,.81-.81,1.21-1.22,.78-.09,1.77,.36,2.34,.71,1.03,.63,2.03,1.24,3.17,1.65,2.15,.77,4.63,.94,6.83,.27,4.72-1.43,5.78-6.27,3.98-10.49-.04-.1-.1-.19-.14-.29,.11-.1,.18-.25,.18-.44-.01-.79,.72-1.54,1.54-1.34,.72,.17,1.14,1.01,.99,1.71-.17,.79,.94,1.09,1.2,.33,.52-1.56,2.04-2.65,3.69-2.52,1.8,.13,3.03,1.51,3.41,3.21,.73,3.28-.43,7.98-3.96,9.09-.76,.24-.44,1.45,.33,1.21,2.11-.66,3.61-2.39,4.36-4.44,.78-2.11,1.02-4.88,.21-7.02Zm-25.33-1.31c.96-2.22,3.49,.18,1.87,1.18-.97,.6-1.75-.07-2.08-.94,.08-.05,.16-.12,.21-.25Zm3.22,10.91c-1.69-.57-3.12-2.01-4.87-2.39,3.58-3.62,7.23-7.17,10.96-10.63,2.3,1.97,3.86,5.1,3.87,7.91,.03,5.32-5.89,6.49-9.96,5.11Z" fill="#231f20"/></g></svg>