<?xml version="1.0" encoding="UTF-8"?><svg xmlns="http://www.w3.org/2000/svg" viewBox="0 0 35 35"><g id="Example_glyph"><g id="Line_1-2"><text transform="translate(8.42 27.99)" fill="#bcbcbc" font-family="ArialMT, Arial" font-size="35" letter-spacing="-.04em"><tspan x="0" y="0">L</tspan></text></g></g><g id="Artwork_glyph"><path d="M28.09,8.23c-2.27-2.97-5.72-4.67-9.34-5.14-4.88-.63-9.63,.86-14.04,2.86-.73,.33-.1,1.44,.63,1.1,3.95-1.8,8.21-3.16,12.58-2.78,3.93,.34,7.84,2.26,9.9,5.81,2.08,3.58,1.6,8.16-.71,11.51-1.06,1.54-2.48,2.81-4.06,3.76-.84,.5-1.76,.99-2.72,1.18-1.45,.28-3.11-.52-2.61-2.26,.01-.04,0-.07,0-.11,.03-.1,.06-.2,.08-.3,.68-1.31,1.27-2.66,1.74-4.07,.76-2.26,1.84-5.53,.06-7.59-1.7-1.98-4.53-.98-6.45,.07-2.21,1.21-4.11,3-5.51,5.12-1.31,1.99-2.58,4.76-1.73,7.19,.9,2.56,3.72,3.1,6.06,2.87,.72-.07,1.53-.18,2.31-.4-1.37,1.8-2.95,3.43-4.72,4.83-.63,.5,.26,1.4,.88,.9,2.4-1.91,4.46-4.24,6.12-6.84,.26,.66,.75,1.22,1.46,1.57,1.59,.77,3.37,.12,4.83-.63,3.17-1.62,5.78-4.45,6.91-7.91,1.19-3.64,.62-7.72-1.7-10.76ZM7.08,21.68c.88-3.83,4.11-7.13,7.53-8.71,.89-.41,1.97-.79,2.96-.57,1.17,.25,1.71,1.39,1.75,2.53,.07,2.12-.87,4.52-1.69,6.44-.04,.1-.09,.2-.14,.3-.85-1.64-2.96-2.57-4.78-2.45-2.55,.18-4.75,1.89-5.69,4.29-.1-.55-.1-1.17,.05-1.82Zm3.2,4.53c-1.41-.12-2.41-.79-2.93-1.8,.3,.08,.67-.02,.81-.41,.68-1.89,2.45-3.3,4.42-3.51,1.65-.18,4.29,.98,4.08,2.88-.3,.57-.63,1.13-.97,1.68-1.37,1.15-3.85,1.28-5.4,1.16Z" fill="#231f20"/></g></svg>