<?xml version="1.0" encoding="UTF-8"?><svg xmlns="http://www.w3.org/2000/svg" viewBox="0 0 35 35"><g id="Example_glyph"><g id="Line_1-2"><text transform="translate(2.92 27.99)" fill="#bcbcbc" font-family="ArialMT, Arial" font-size="35"><tspan x="0" y="0">M</tspan></text></g></g><g id="Artwork_glyph"><path d="M28.17,13.2c-.14-3.09-1.21-6.79-3.52-9.01-2.3-2.2-5.55-1.3-7.21,1.17-2.03,3-2.19,7.31-1.53,10.74,.35,1.81,1,3.58,1.91,5.19,.77,1.36,1.74,2.87,3.26,3.44-2.83,1.78-6.43,2.36-9.65,1.38-2.01-.61-3.79-1.98-3.92-4.19-.11-1.89,.89-3.6,2.46-4.64,.72-.48,1.54-.8,2.38-1,.7-.16,1.46-.15,2.12-.48,1.28-.63,1.17-2.03,.42-3.05-1.56-2.14-5.45-3.46-7.61-1.4-.95,.91-1.27,2.54-.39,3.6,.84,1,2.54,1.11,3.48,.18,.96-.95,.82-2.68-.25-3.49-.06-.05-.13-.07-.19-.11,1.2,0,2.54,.57,3.3,1.22,.27,.23,.69,.59,.82,.92,.43,1.13-.32,1.17-.93,1.28-.84,.15-1.62,.28-2.41,.6-1.31,.53-2.49,1.39-3.3,2.54-1.68,2.37-1.5,5.8,.8,7.7,2.46,2.04,6.18,2.35,9.22,1.71,6.61-1.39,11.03-7.74,10.72-14.3Zm-18.64,1.08c-.35,.34-1.05,.37-1.45,.11-.46-.3-.55-.87-.42-1.37,.02-.02,.05-.03,.06-.06,.94-1.35,2.92,.21,1.8,1.32Zm12.95,9.44c-.11,.09-.23,.17-.34,.26-.07-.12-.18-.22-.36-.27-1.86-.47-3.01-3-3.7-4.61-.74-1.75-1.18-3.64-1.27-5.54-.15-3.06,.61-9.58,4.93-9.46,2.03,.06,3.25,2.34,3.97,3.94,.84,1.86,1.27,3.92,1.26,5.95-.03,3.7-1.66,7.3-4.48,9.74Z" fill="#231f20"/></g></svg>