<?xml version="1.0" encoding="UTF-8"?><svg xmlns="http://www.w3.org/2000/svg" viewBox="0 0 35 35"><g id="Example_glyph"><g id="Line_1-2"><text transform="translate(4.86 27.99)" fill="#bcbcbc" font-family="ArialMT, Arial" font-size="35"><tspan x="0" y="0">N</tspan></text></g></g><g id="Artwork_glyph"><path d="M26.37,11.2c-2.47-2.13-5.66-1.67-7.63,.84-2.02,2.56-3.22,6.03-4.14,9.15-.06,.17-.12,.34-.15,.53-.17,.77,.98,1.09,1.19,.33,.04-.16,.1-.31,.15-.47,.42-1.03,1.42-1.8,2.61-1.65,1.41,.18,2.42,1.57,2.14,2.95-.56,2.73-4.23,3.81-6.66,3.72-2.55-.09-5.04-1.64-5.72-4.17-.77-2.82,1.32-5.41,4.1-5.82,.16-.02,.26-.1,.33-.19,.54-.03,1.08-.05,1.62-.08,.57-.03,1.16-.05,1.64-.4,.48-.35,.65-.91,.6-1.48-.1-1.07-.75-2.2-1.45-2.99-1.47-1.66-4.43-2.17-5.77-.06-.07,.11-.13,.23-.19,.35-.01,0-.03,.02-.04,.03-.34,.23-.33,.63-.15,.9-.02,.59,.15,1.19,.52,1.66,.61,.79,1.7,1.11,2.62,.66,1.14-.56,1.19-1.99,.41-2.88-.34-.39-.8-.63-1.29-.73,.04-.02,.08-.05,.12-.06,1.54-.54,2.92,.77,3.56,2.02,.17,.33,.33,.68,.4,1.04,.09,.44-.04,.62-.48,.68-.9,.13-1.86,.09-2.77,.14-2.2,.1-4.4,.21-6.59,.31-.79,.04-.8,1.26,0,1.23,1.27-.06,2.54-.12,3.8-.18-1.37,1.03-2.29,2.61-2.38,4.42-.13,2.68,1.72,5.12,4.13,6.17,2.71,1.18,6.17,.74,8.59-.9,2.13-1.44,3.29-4.44,1.24-6.48-1.18-1.17-2.8-1.32-4.11-.74,.64-1.77,1.4-3.51,2.34-5.13,.68-1.18,1.6-2.36,2.96-2.78,1.53-.47,3.04,.31,4.07,1.4,3.9,4.1,3.06,10.76-.95,14.42-.59,.54,.29,1.4,.88,.87,4.59-4.18,5.45-12.32,.45-16.63Zm-14.95,1.72c.44,.44,.32,1.11-.37,1.1-.64-.02-1.01-.7-.98-1.28,0-.03,.02-.05,.02-.08,.46-.14,.97-.1,1.33,.27Z" fill="#231f20"/></g></svg>