<?xml version="1.0" encoding="UTF-8"?><svg xmlns="http://www.w3.org/2000/svg" viewBox="0 0 35 35"><g id="Example_glyph"><g id="Line_1-2"><text transform="translate(3.89 27.99)" fill="#bcbcbc" font-family="ArialMT, Arial" font-size="35"><tspan x="0" y="0">O</tspan></text></g></g><g id="Artwork_glyph"><path d="M20.44,4.01c-3.87-1.52-8.24-1.35-12.14,0-.74,.25-.42,1.42,.33,1.16,6.85-2.35,15.46-.44,18.38,6.72,1.44,3.54,.66,7.45-1.23,10.67-.99,1.68-2.36,3.35-4.35,3.88-2.01,.53-4.4-.47-4.42-2.76,0-.55-.89-.88-1.14-.3-.51,1.17-1.07,2.52-2.27,3.15-1.48,.79-2.96-.31-3.88-1.41-1.7-2.03-2.92-4.66-2.95-7.32-.03-2.61,1.14-5.23,3.53-6.53,2.25-1.23,5.05-.75,6.65,1.25,.49,.61,1.35-.25,.87-.85-1.86-2.32-5.18-2.88-7.83-1.59-3.07,1.49-4.59,4.86-4.43,8.11,.16,3.13,1.81,6.87,4.37,8.84,1.13,.87,2.63,1.28,3.99,.69,1.05-.46,1.75-1.31,2.29-2.26,1.01,1.99,3.65,2.81,5.91,2.04,3.33-1.13,5.34-4.76,6.29-7.89,1.97-6.5-1.65-13.11-7.97-15.59Z" fill="#231f20"/></g></svg>