<?xml version="1.0" encoding="UTF-8"?><svg xmlns="http://www.w3.org/2000/svg" viewBox="0 0 35 35"><g id="Example_glyph"><g id="Line_1-2"><text transform="translate(6.14 27.99)" fill="#bcbcbc" font-family="ArialMT, Arial" font-size="35" letter-spacing="-.02em"><tspan x="0" y="0">P</tspan></text></g></g><g id="Artwork_glyph"><path d="M25.59,15.09c-.13-.17-.27-.3-.43-.41,.23-2.24-.89-4.52-3.31-5.31-.94-.3-1.95-.22-2.86,.14,.01-.02,.02-.04,.03-.06,1-1.88,2-3.77,2.99-5.65,.38-.71-.7-1.34-1.08-.63-1.21,2.29-2.42,4.58-3.63,6.87-.34,.63-.68,1.29-.98,1.96-.56-.52-1.43-.82-2.2-.83-.65-.01-1.56,.03-2.46,.21-1.17-.42-2.51,.32-2.97,1.55-.08,.22-.03,.4,.09,.53-.25,1.18,.71,2.08,1.8,2.25-1.29,.94-2.24,2.29-2.49,3.94-.41,2.65,1.51,5.15,3.56,6.59,2.22,1.55,5.04,2.07,7.66,1.4,2.64-.68,4.93-2.49,6.11-4.95,.97-2.03,1.68-5.62,.17-7.6Zm-1.71-1.99c.11,.41,.14,.83,.11,1.25-2.33-.05-5.63,2.49-6.45-.39-.46-1.63,.96-3.26,2.52-3.51,1.72-.28,3.39,1.03,3.82,2.65Zm-2.84,3.21c.69-.18,1.8-.79,2.68-.78-.39,1.03-1.15,1.93-2.13,2.42-2.07,1.04-4.65,0-4.83-2.46,0-.1,0-.19,0-.29,.93,1.36,2.72,1.52,4.27,1.11Zm-10.84-2.94c.15-.3,.76-.44,1.06-.53,.08-.03,.17-.05,.25-.07,.47,.36,.68,1.04,0,1.55-.54,.41-1.88,.17-1.3-.95Zm2.7-.89c.41-.05,.83-.08,1.23-.07,.61,.02,2.43,.43,1.01,1.58-.41,.33-1.15,.34-1.65,.44-.21,.04-.42,.11-.63,.17,.35-.64,.38-1.43,.04-2.11Zm12.19,7.01c-.56,4.69-5.22,8.08-9.86,6.99-2.18-.51-4.14-1.91-5.26-3.86-1.35-2.35-.36-5.07,1.97-6.35,1.01-.55,2.48-.57,3.58-1.09,0,.28,.02,.57,.06,.85,.68,4.16,5.95,4.51,8.34,1.62,.38-.46,.67-.97,.88-1.5,.49,.88,.39,2.43,.29,3.33Z" fill="#231f20"/></g></svg>