<?xml version="1.0" encoding="UTF-8"?><svg xmlns="http://www.w3.org/2000/svg" viewBox="0 0 35 35"><g id="Example_glyph"><g id="Line_1-2"><text transform="translate(3.89 27.99)" fill="#bcbcbc" font-family="ArialMT, Arial" font-size="35"><tspan x="0" y="0">Q</tspan></text></g></g><g id="Artwork_glyph"><path d="M29.78,30.04c-.33-1.41-2.07-1.78-3.32-1.65-.21,.02-.42,.06-.62,.11-.69-1.21-1.13-2.53-1.28-3.91-.08-.68-1.17-.69-1.1,0,.17,1.5,.59,2.93,1.32,4.26-1.12,.47-2.13,1.21-3.14,1.9-1.57,1.08-3.23,2.07-5.06,2.67-3.62,1.17-7.67,.47-10.69-1.81-.55-.42-1.33,.34-.78,.76,4.14,3.14,9.47,3.44,14.09,1.12,1.22-.61,2.35-1.36,3.46-2.13,.81-.56,1.7-1.2,2.66-1.58,.63,.99,1.51,2.05,2.64,2.2,1.16,.15,2.08-.79,1.82-1.93Zm-2.36,.51c-.38-.27-.7-.67-.98-1.07,.28-.04,.57-.06,.86-.03,.5,.05,.99,.17,1.22,.65,.43,.92-.45,.91-1.09,.45Z" fill="#231f20"/></g></svg>