<?xml version="1.0" encoding="UTF-8"?><svg xmlns="http://www.w3.org/2000/svg" viewBox="0 0 35 35"><g id="Example_glyph"><g id="Line_1-2"><text transform="translate(4.86 27.99)" fill="#bcbcbc" font-family="ArialMT, Arial" font-size="35"><tspan x="0" y="0">R</tspan></text></g></g><g id="Artwork_glyph"><path d="M20.39,16.1c-.41-.43-.89-.78-1.41-1.08,.07-2.37-1.3-4.64-3.78-4.96-1.71-.22-3.42,.79-4.1,2.32-.54-.78-1.26-1.46-2-1.86-1.36-.74-3.17-.79-4.4,.26-1.04,.88-1.5,2.46-.9,3.73,.63,1.33,2.74,2.01,3.49,.37,.68-1.5-.53-2.53-1.77-3.05,.98-.87,2.66-.53,3.64,.32,.54,.47,1.01,1.11,1.3,1.77,.21,.49,.32,.91-.22,1.1-.35,.12-.84,.05-1.22,.1-1.4,.18-2.75,.65-3.98,1.36-1.15,.68-2.31,1.61-3.01,2.78-.77,1.29-.69,2.78-.16,4.15,.98,2.52,3.2,4.63,5.96,4.71,2.06,.06,3.63-1.1,4.65-2.71,.05,.17,.11,.35,.19,.52,.49,1.11,1.47,1.93,2.69,2.01,2.61,.16,5.31-2.41,6.3-4.7,1.02-2.37,.5-5.29-1.28-7.14Zm-14.25-1.94c-.13,.41-.78,.31-.98,.1-.12-.12-.2-.29-.26-.45-.1-.27-.1-.55-.05-.83,.64,.2,1.48,.56,1.29,1.19Zm6.35-1.61c.47-.76,1.29-1.2,2.17-1.2,1.75,0,2.93,1.49,3.06,3.14-.21-.06-.43-.13-.64-.17-.61-.12-1.22-.16-1.83-.1-.7,.07-1.3,.36-1.97,.5-1.52,.32-1.29-1.34-.77-2.17Zm7.66,10.82c-.83,1.41-2.43,2.87-4.06,3.2-2.71,.55-2.61-2.87-2.35-4.61,.12-.83-1.12-1.2-1.25-.35-.29,1.95-1.12,3.99-2.99,4.85-1.92,.89-4.07-.08-5.34-1.64-.6-.74-1.09-1.65-1.31-2.58-.31-1.29,.13-2.31,1.03-3.22,1.36-1.38,3.2-2.27,5.08-2.56,.73-.11,1.68,.05,2.32-.41,.12-.08,.2-.19,.29-.29,.49,.39,1.16,.49,1.89,.29,1.48-.41,2.69-.76,4.21-.19,.17,.07,.34,.14,.5,.22,.01,0,.02,.01,.03,.02,2.55,1.33,3.44,4.75,1.94,7.28Z" fill="#231f20"/><path d="M32.91,26.62c-2.93-.94-.99-4.36-.35-6.23,.78-2.3,1.11-4.79,.95-7.21-.06-.86-.16-1.79-.7-2.5-.64-.83-1.64-.97-2.61-.77-1.94,.4-4.15,1.41-4.41,3.62-.09,.8,1.16,.8,1.25,0,.14-1.22,1.44-1.75,2.44-2.09,.98-.34,2.21-.72,2.61,.57,.28,.92,.23,2,.2,2.95-.03,.81-.13,1.62-.27,2.41-3.07-1.19-6.57-.29-8.59,2.39-.52,.7-.93,1.5-1.02,2.38-.09,.88,.22,1.75,.69,2.48,.89,1.37,2.25,2.6,3.85,3,1.38,.35,2.9,0,3.89-1.01,.43,.55,1.02,.98,1.75,1.22,.77,.25,1.1-.97,.33-1.21Zm-5.5-.18c-1.26-.26-2.32-1.17-3.06-2.19-.38-.52-.72-1.13-.72-1.79,0-.69,.35-1.34,.74-1.89,.71-1,1.77-1.78,2.93-2.18,1.45-.5,3.06-.43,4.47,.2-.23,.91-.52,1.81-.88,2.68-.35,.87-.72,1.74-.81,2.69-.05,.51,0,.99,.14,1.44-.59,.9-1.79,1.24-2.8,1.03Z" fill="#231f20"/></g></svg>