<?xml version="1.0" encoding="UTF-8"?><svg xmlns="http://www.w3.org/2000/svg" viewBox="0 0 35 35"><g id="Example_glyph"><g id="Line_1-2"><text transform="translate(5.83 27.99)" fill="#bcbcbc" font-family="ArialMT, Arial" font-size="35"><tspan x="0" y="0">S</tspan></text></g></g><g id="Artwork_glyph"><path d="M26.49,8.46c-.21-2.46-2.37-4.59-5.11-5.27-3.17-.78-6.57,.19-9.4,1.42-1.46,.63-2.88,1.52-3.55,2.84-.61,1.17-.61,2.59,.32,3.63,.54,.61,1.77,0,1.22-.61-2.01-2.26,1.34-4.29,3.44-5.11,2.37-.93,5.27-1.68,7.84-.93-1.73,1.47-1.95,3.88-.13,5.46,.87,.76,2.23,1.3,3.49,1.08,1.4-.25,1.99-1.37,1.9-2.51Zm-2.31,1.35c-1.22,.14-2.41-.83-2.8-1.74-.48-1.13,.1-2.4,1.22-3.07,.85,.49,1.54,1.17,1.98,1.97,.41,.74,1.11,2.66-.41,2.83Z" fill="#231f20"/></g></svg>