<?xml version="1.0" encoding="UTF-8"?><svg xmlns="http://www.w3.org/2000/svg" viewBox="0 0 35 35"><g id="Example_glyph"><g id="Line_1-2"><text transform="translate(7.13 27.99)" fill="#bcbcbc" font-family="ArialMT, Arial" font-size="35" letter-spacing="-.02em"><tspan x="0" y="0">T</tspan></text></g></g><g id="Artwork_glyph"><path d="M21.62,3.98c-4.05-1.68-8.52-1.05-12.65,0-.77,.19-.44,1.37,.33,1.18,3.94-1,8.28-1.66,12.13,.07,3.36,1.51,5.27,4.74,5.81,8.27,.51,3.37-.27,6.9-2.12,9.76-.95,1.46-2.4,3.3-4.31,3.43-2.16,.14-2.87-2.06-3.33-3.72-.2-.7-1.15-.5-1.21,.16-.27,2.61-2.94,4.34-5.44,3.38-2.86-1.1-3.04-4.6-2.65-7.18,.18-1.24,.54-2.47,1.06-3.61,.27-.6,.58-1.18,.94-1.73,.34-.53,.67-1.16,.67-.22,0,1.89,1.02,3.7,2.86,4.41,4.01,1.55,7.69-3,5.5-6.6-.98-1.6-3.16-2.62-4.88-1.49-1.41,.93-1.63,2.99-.12,3.93,1.51,.94,3.38-.35,2.97-2.09-.1-.43-.33-.76-.62-.99,.25,.08,.5,.2,.73,.36,1.93,1.33,1.72,4.39-.31,5.51-1.81,1.01-4.14,.11-4.76-1.87-.29-.93,.27-2.78-1.09-3.08-1.39-.3-2.34,1.94-2.8,2.87-.77,1.58-1.26,3.27-1.45,5.01-.33,3.08,.3,6.74,3.61,7.94,2.65,.95,5.29-.36,6.44-2.63,.91,1.94,2.45,3.44,4.96,2.65,2.97-.93,4.94-4.39,5.88-7.13,2.11-6.08,.26-13.93-6.15-16.6Zm-6.92,8.89c-.16-.14-.26-.3-.3-.46,.06-.05,.11-.1,.15-.18,.29-.53,.95-.68,1.28-.15,.45,.72-.49,1.34-1.13,.8Z" fill="#231f20"/></g></svg>