<?xml version="1.0" encoding="UTF-8"?><svg xmlns="http://www.w3.org/2000/svg" viewBox="0 0 35 35"><g id="Example_glyph"><g id="Line_1-2"><text transform="translate(4.86 27.99)" fill="#bcbcbc" font-family="ArialMT, Arial" font-size="35"><tspan x="0" y="0">U</tspan></text></g></g><g id="Artwork_glyph"><path d="M24.18,6.48c-4.22-4.35-10.91-4.76-15.58-.9-.59,.49,.25,1.33,.83,.85,3.55-2.94,8.65-3.11,12.38-.43,3.85,2.77,5.75,7.89,4.86,12.57-.42,2.22-1.42,4.32-2.87,6.03-.69,.81-1.54,1.72-2.57,2.06-.56,.19-1.22,.22-1.76-.07-.58-.32-.71-.92-.96-1.48-.69-1.58-2.23-1.93-3.63-.94-.75,.53-1.26,1.39-2.06,1.86-1.42,.83-2.53-.79-3.17-1.87-1.31-2.21-2.06-4.81-2.01-7.4,.04-2.24,1.51-5.79,4.22-5.03-.49,1.51-.54,3.16,.26,4.59,.75,1.33,2.13,2.15,3.65,2.02,3.03-.27,4.55-3.7,2.97-6.28-.69-1.13-2.11-2.18-3.45-1.59-1.29,.56-1.26,2.13-.46,3.13,.69,.85,2.44,2.17,3.22,.69,.06-.12,.09-.23,.12-.34,.13,1-.19,2.02-1.04,2.66-1.23,.91-2.91,.66-3.8-.59-.95-1.34-.7-3.04-.14-4.48,.09-.22-.05-.58-.27-.68-2-.88-4.21,0-5.38,1.83-1.41,2.2-1.23,5.2-.67,7.64,.53,2.3,1.69,5.48,3.8,6.75,.88,.53,1.89,.51,2.76-.01,.97-.58,2.74-3.39,3.9-1.74,.59,.84,.56,1.74,1.56,2.31,.97,.55,2.15,.46,3.14,0,2.33-1.09,4.05-3.76,5-6.09,2.07-5.06,.95-11.14-2.84-15.05Zm-7.59,7.11c-.14,.05-.8-.69-.86-.8-.11-.2-.13-.4-.09-.58,.02,.22,.13,.45,.39,.55-.02,0,1.42,.5,.56,.83Z" fill="#231f20"/></g></svg>