<?xml version="1.0" encoding="UTF-8"?><svg xmlns="http://www.w3.org/2000/svg" viewBox="0 0 35 35"><g id="Example_glyph"><g id="Line_1-2"><text transform="translate(5.83 27.99)" fill="#bcbcbc" font-family="ArialMT, Arial" font-size="35"><tspan x="0" y="0">V</tspan></text></g></g><g id="Artwork_glyph"><path d="M32.77,14.28c-.84-4.92-3.94-9.71-8.87-11.04-2.15-.57-4.41-.2-5.2,2.19-.74,2.25,.32,4.94,1.31,6.96,2.24,4.57,6.39,8.03,11.18,9.41-.26,.73-.6,1.43-1.02,2.07-1.26,1.89-3.39,3.16-5.66,2.84-2.37-.33-4.15-2.6-3.51-5.04,.19-.73-.74-1.06-1.14-.49-1.02,1.46-2.19,2.8-3.51,4-.74,.67-1.7,1.63-2.76,1.69-.89,.05-1.59-.65-2.17-1.24-1.29-1.32-2.26-2.84-1.22-4.69,.89-1.58,2.67-2.32,4.22-3.02,.11-.05,.18-.12,.23-.2,.71-.16,1.42-.32,2.14-.45,1.23-.22,2.49-.75,2.18-2.29-.52-2.66-3.21-5.91-6.03-4.08-1.14,.74-1.87,2.21-1.79,3.59,.06,1.08,.79,2.15,1.86,2.31-3.96,1.05-7.76,2.68-11.27,4.83-.69,.42-.06,1.53,.63,1.1,2.45-1.5,5.04-2.73,7.73-3.69-.57,.55-1.04,1.2-1.34,2-.81,2.15,.3,3.98,1.77,5.48,1.54,1.56,3.25,2.12,5.17,.81,1.51-1.03,2.83-2.4,3.99-3.85,.21,1.33,.91,2.56,1.99,3.41,1.77,1.38,4.26,1.46,6.25,.55,4.84-2.21,5.65-8.41,4.84-13.16Zm-18.45-2.6c1.41-.31,2.34,1.07,2.88,2.18,.29,.6,.98,1.62,.11,2-.5,.22-1.17,.23-1.7,.33-.4,.08-.8,.17-1.2,.27,.74-.62,.76-1.88,.29-2.84-.31-.63-.89-1.14-1.5-1.29,.31-.32,.7-.56,1.12-.66Zm-1.91,2.81c-.02-.2,0-.41,.02-.61,.14-.03,.27-.11,.38-.26,.22-.33,1.41,1.19,.9,1.77-.57,.64-1.24-.37-1.3-.9Zm10.82,.59c-1.2-1.46-2.17-3.14-2.81-4.93-.63-1.77-1.53-5.35,1.13-5.85,1.88-.36,4.09,.84,5.53,2,1.58,1.27,2.76,2.98,3.53,4.87,1.14,2.79,1.65,6.32,.94,9.42-3.25-.94-6.14-2.85-8.32-5.5Z" fill="#231f20"/></g></svg>