<?xml version="1.0" encoding="UTF-8"?><svg xmlns="http://www.w3.org/2000/svg" viewBox="0 0 35 35"><g id="Example_glyph"><g id="Line_1-2"><text transform="translate(.98 27.99)" fill="#bcbcbc" font-family="ArialMT, Arial" font-size="35"><tspan x="0" y="0">W</tspan></text></g></g><g id="Artwork_glyph"><path d="M26.8,28.69c-3.01,4.49-8.67,6.23-13.48,4-2.27-1.05-4.66-3.06-5.07-5.78-.41-2.71,1.18-5.31,3.14-6.91,2.07-1.69,4.55-2.45,6.95-3.44,1.87-.78,2.86-2.46,1.69-4.44-1.05-1.77-3.1-2.64-5.02-2.15-1.8,.46-3.78,2.42-2.95,4.53,.69,1.77,3.28,1.85,3.76-.14,.35-1.45-.66-2.43-1.78-2.5,.63-.49,1.48-.74,2.19-.72,1.02,.04,2.05,.6,2.64,1.5,.42,.65,.6,1.47,.07,2.1-.32,.38-.92,.55-1.36,.72-3.41,1.33-7.02,2.66-9.16,5.96-1.93,2.97-1.93,6.61,.33,9.37,2.27,2.77,5.89,4.28,9.34,4.2,3.94-.1,7.56-2.28,9.81-5.64,.46-.69-.62-1.35-1.08-.66ZM14.13,14.53c-.42,.14-.87-.31-.97-.67-.03-.11-.03-.22-.03-.33,.08-.03,.15-.07,.22-.14,.85-.83,1.9,.77,.77,1.15Z" fill="#231f20"/></g></svg>