<?xml version="1.0" encoding="UTF-8"?><svg xmlns="http://www.w3.org/2000/svg" viewBox="0 0 35 35"><g id="Example_glyph"><g id="Line_1-2"><text transform="translate(5.83 27.99)" fill="#bcbcbc" font-family="ArialMT, Arial" font-size="35"><tspan x="0" y="0">X</tspan></text></g></g><g id="Artwork_glyph"><path d="M25.42,8.5c-.73-1.51-1.69-3.01-3.1-3.98-1.49-1.02-3.32-1.32-5.08-1.47-3.83-.31-8.13,.6-9.75,4.47-.31,.74,.9,1.06,1.21,.33,1.56-3.71,6.36-3.97,9.79-3.42,1.95,.31,3.58,1.11,4.73,2.74,.97,1.37,1.65,2.96,2.13,4.56,1,3.37,1,7.03-.06,10.39-.56,1.77-1.52,3.85-3.5,4.37-2.25,.6-3.89-1.57-3.18-3.62,.27-.76-.93-1.07-1.21-.33-.79,2.14-2.55,4.58-5.18,4.12-1.17-.2-1.87-1.1-2.47-2.04-.66-1.02-1.44-2.23-1.36-3.5,.18-2.89,3.77-3.31,5.99-3.32,1.42,0,3.2-.12,3.8-1.67,.64-1.68-.89-3.78-2.11-4.81-1.23-1.04-3-1.54-4.5-.8-.53,.26-.97,.66-1.27,1.13-.14,.14-.27,.3-.38,.47-.13,.2-.11,.4-.03,.55-.08,.46-.06,.95,.13,1.43,.51,1.3,1.95,1.93,3.24,1.33,1.47-.68,1.84-2.51,.82-3.75-.05-.07-.12-.11-.18-.17,1.16,.46,2.28,1.64,2.75,2.52,.42,.76,.67,1.67-.2,2.26-.47,.31-1.16,.27-1.7,.28-1,.01-1.99,0-2.98,.18-1.58,.28-3.14,1.05-4.01,2.44-.9,1.42-.67,3.06,.03,4.51,.73,1.52,1.8,3.35,3.47,3.98,2.58,.97,4.75-.5,6.16-2.5,.66,1.87,2.68,3.15,4.89,2.46,3.4-1.07,4.51-5.34,4.9-8.44,.45-3.65-.16-7.4-1.77-10.71Zm-12.35,5.61c-1.18,1.09-2.35-.52-1.8-1.66,1.12-1.05,2.99,.55,1.8,1.66Z" fill="#231f20"/></g></svg>