<?xml version="1.0" encoding="UTF-8"?><svg xmlns="http://www.w3.org/2000/svg" viewBox="0 0 35 35"><g id="Example_glyph"><g id="Line_1-2"><text transform="translate(6.14 27.99)" fill="#bcbcbc" font-family="ArialMT, Arial" font-size="35" letter-spacing="-.02em"><tspan x="0" y="0">Y</tspan></text></g></g><g id="Artwork_glyph"><path d="M28.72,15.51c-1.2-2.8-4.92-6.8-8.42-5.36-1.98,.81-3.28,3.15-4.33,4.86-1.34,2.17-2.42,4.48-3.26,6.87-.26,.74,.9,1.02,1.18,.32,.6-1.48,2.7-3.29,3.97-1.34,.94,1.45-.17,3.15-1.43,3.98-1.21,.81-3,1.47-4.48,1.46-1.71-.01-3.02-1.25-3.88-2.59-1.67-2.6-1.8-5.94-.28-8.64,1.47-2.64,4.66-4.66,7.7-3.18,.71,.34,1.33-.69,.62-1.04-3.05-1.48-6.43-.24-8.46,2.26-2.18,2.68-2.76,6.38-1.48,9.57,1.18,2.95,3.73,5.37,7.15,4.67,2.79-.57,6.72-2.57,6.05-5.96-.29-1.45-1.54-2.63-3.1-2.57-.4,.02-.77,.11-1.1,.25,.38-.83,.8-1.65,1.26-2.45,.93-1.63,2.01-3.56,3.46-4.8,1.89-1.62,4.28-.16,5.75,1.29,1.26,1.24,2.14,2.83,2.48,4.55,.06,.28,.09,.57,.12,.86-1.72,.25-3.37,.83-4.8,1.83-1.39,.97-2.86,2.34-3.16,4.06-.28,1.58,.76,2.92,2.32,3.27,1.68,.37,3.27-.56,4.36-1.76,2.54-2.8,3.25-6.97,1.77-10.42Zm-5.8,11.01c-2.95-.57-.71-3.64,.56-4.69,1.36-1.13,3.03-1.82,4.78-2.1-.06,1.19-.37,2.37-.9,3.44-.76,1.54-2.4,3.75-4.44,3.35Z" fill="#231f20"/></g></svg>