<?xml version="1.0" encoding="UTF-8"?><svg xmlns="http://www.w3.org/2000/svg" viewBox="0 0 35 35"><g id="Example_glyph"><g id="Line_1-2"><text transform="translate(6.81 27.99)" fill="#bcbcbc" font-family="ArialMT, Arial" font-size="35"><tspan x="0" y="0">Z</tspan></text></g></g><g id="Artwork_glyph"><path d="M19.12,3.91c-.36-.61-1.01-1.1-1.75-.94-.17,.04-.32,.11-.47,.2,0,0,0,0,0,0-.32-.12-.69,.13-.77,.44-.03,.12-.02,.23,.01,.34-.07,.1-.13,.19-.19,.29-.36,.58-.54,1.33-.11,1.93,.38,.53,1.1,.67,1.69,.44,.43-.18,.7-.54,.83-.96,.17,1.94-1.51,3.69-2.76,4.99-.56,.58,.32,1.46,.88,.88,1-1.03,2.04-2.11,2.62-3.44,.55-1.27,.77-2.9,.03-4.16Z" fill="#231f20"/></g></svg>