<?xml version="1.0" encoding="UTF-8"?><svg xmlns="http://www.w3.org/2000/svg" viewBox="0 0 35 35"><g id="Example_glyph"><g id="Line_4-2"><text transform="translate(12.64 27.99)" fill="#bcbcbc" font-family="ArialMT, Arial" font-size="35"><tspan x="0" y="0">[</tspan></text></g></g><g id="Artwork_glyph"><path d="M32.59,28.23c-.64,2.18-2.51,3.9-4.8,4.25-1,.15-2.34,.05-3.04-.77-1.32-1.52,.52-3.11,1.91-3.58,.62-.21,.57-1.28-.16-1.21-1.69,.17-3.59,.4-5.12-.52-1.82-1.1-1.7-3.28-.95-5,1.42-3.24,4.89-5.01,8.37-4.44,.42,.07,.93-.27,.76-.76-.97-2.8-3.15-6.66-6.78-5.54-.21,.07-.41,.16-.61,.26-.39-.2-.79-.37-1.2-.48-2.23-.61-4.36-.01-6.2,1.15-.45-.37-.93-.7-1.46-.96-1.97-.98-4.58-1.19-6.43,.19-.07,.05-.14,.11-.2,.17-.51,.12-1,.34-1.4,.66-2.09,1.66-3.29,4.8-3.78,7.33-.55,2.82-.35,5.72,.61,8.43,.26,.74,1.46,.42,1.19-.33-1.3-3.69-1.15-7.8,.57-11.34,.39-.8,.85-1.58,1.39-2.29,.1-.13,.23-.27,.37-.41-.07,.82,.25,1.62,1.19,2.02,1.64,.7,3.31-.73,2.94-2.44-.14-.66-.5-1.09-.95-1.37,.43-.11,.87-.18,1.27-.18,1.43,0,2.63,.48,3.65,1.26-.66,.52-1.28,1.11-1.83,1.73-3.16,3.52-5.72,7.7-7.93,11.85-.37,.7,.68,1.32,1.07,.62,.29-.52,.58-1.05,.87-1.57,.96,1.53,2.45,2.73,4.37,2.72,1.15,0,2.17-.54,2.82-1.36,.62,1.07,1.78,1.78,3.16,1.69,1.46-.1,2.41-.97,2.94-2.12,.21,.38,.47,.74,.82,1.05,1.14,1.02,2.58,1.32,4.05,1.34-.56,.57-.95,1.3-.99,2.19-.08,1.69,1.27,2.84,2.83,3.18,3.48,.76,6.91-1.86,7.86-5.09,.22-.76-.97-1.09-1.19-.33ZM8.42,12.55c.43,.66-.15,1.77-1.01,1.42l-.58-.78c-.01-.41,.13-.77,.42-1.08,.03-.04,.08-.06,.12-.1,.4-.04,.77,.09,1.06,.53Zm13.77-.15c.09,.07,.18,.14,.26,.22,.24,.24,.59,.64,.63,1.01-.16,1.01-.48,1.22-.95,.63-.35-.12-.49-.34-.41-.67-.07-.47,.14-.88,.47-1.19Zm-1.71-.82c.21,.05,.42,.12,.63,.2-.45,.55-.71,1.24-.66,1.99,.09,1.24,1.19,2.23,2.46,2,1.34-.24,1.68-1.67,1.25-2.78-.17-.46-.46-.86-.8-1.21,.03,0,.05-.02,.08-.02,.79-.16,1.6,.1,2.26,.53,1.19,.78,1.86,2.07,2.36,3.37-3.62-.18-7.04,1.69-8.62,4.96-.3-1.54-.8-3.06-1.4-4.43-.58-1.34-1.36-2.66-2.36-3.75,.26-.15,.52-.3,.79-.43,1.23-.56,2.69-.76,4.01-.44Zm-2.22,13.47c-.86,2.69-4.67,1.97-4.38-.9,0-.81-1.16-.77-1.24,0,.01,1.79-1.76,2.63-3.35,2.16-1.27-.37-2.1-1.44-2.67-2.57,1.05-1.78,2.16-3.52,3.37-5.21,1.33-1.87,2.78-3.94,4.65-5.38,1.56,1.63,2.56,3.96,3.14,6,.5,1.79,1.07,4.07,.49,5.91Z" fill="#231f20"/></g></svg>