<?xml version="1.0" encoding="UTF-8"?><svg xmlns="http://www.w3.org/2000/svg" viewBox="0 0 35 35"><g id="Example_glyph"><g id="Line_4-2"><text transform="translate(12.64 27.99)" fill="#bcbcbc" font-family="ArialMT, Arial" font-size="35"><tspan x="0" y="0">\</tspan></text></g></g><g id="Artwork_glyph"><path d="M23.58,28.58c-.22,2.56-2.33,5.02-4.98,5.16-1.44,.07-2.96-.72-2.69-2.39,.27-1.66,1.84-2.51,3.23-3.13,.64-.29,.19-1.38-.48-1.15-2.61,.92-6.13,.77-7.92-1.68-1.79-2.44-.24-5.66,2.04-7.1,1.12-.71,2.41-1.11,3.71-1.33,.98-.16,1.92-.28,2.29-1.34,.63-1.83-1.11-3.93-2.54-4.81-1.01-.63-2.36-.98-3.59-.83-.94-.38-2.07-.31-3.01,.21-2.37,1.3-3.1,4.5-3.69,6.91-.8,3.26-1.11,6.62-.97,9.97,.03,.81,1.28,.81,1.25,0-.18-4.36,.37-8.86,1.93-12.95,.38-1,.91-2.05,1.82-2.66,.1-.07,.21-.12,.32-.18-.82,1.22-.41,3.01,1.18,3.46,1.8,.52,3.38-1.35,2.8-3.06-.05-.15-.12-.27-.19-.4,.12,.02,.23,.05,.34,.08,.84,.23,1.62,.72,2.2,1.37,.62,.68,1.62,2.34,.41,2.89-.72,.32-1.75,.28-2.52,.52-.82,.26-1.63,.61-2.36,1.06-2.56,1.61-4.29,4.95-2.99,7.92,1.17,2.67,3.99,3.74,6.75,3.69-.65,.65-1.13,1.45-1.25,2.45-.23,1.87,1.04,3.32,2.83,3.65,3.78,.7,7.05-2.76,7.35-6.33,.07-.81-1.18-.8-1.25,0ZM12.09,13.56c-1.05,.02-1.19-1.23-.57-1.82,.26-.25,.59-.4,.95-.48,.22,.16,.41,.37,.54,.67,.28,.65-.08,1.61-.92,1.62Z" fill="#231f20"/><path d="M29.82,18.07c-.32-1.28-.89-2.5-1.57-3.62-.59-.96-1.26-1.94-2.21-2.59-.94-.64-2.21-.93-3.28-.44-.93,.43-1.57,1.39-1.49,2.43,.06,.8,1.31,.8,1.25,0-.08-.97,.83-1.55,1.74-1.4,.95,.15,1.69,.88,2.24,1.62,1.09,1.48,1.99,3.23,2.27,5.06,.59,3.82-2.56,7.3-6.48,6.76-.79-.11-1.13,1.1-.33,1.21,2.46,.34,4.94-.49,6.53-2.44,1.52-1.86,1.91-4.28,1.34-6.59Z" fill="#231f20"/></g></svg>