<?xml version="1.0" encoding="UTF-8"?><svg xmlns="http://www.w3.org/2000/svg" viewBox="0 0 35 35"><g id="Example_glyph"><g id="Line_4-2"><text transform="translate(12.64 27.99)" fill="#bcbcbc" font-family="ArialMT, Arial" font-size="35"><tspan x="0" y="0">]</tspan></text></g></g><g id="Artwork_glyph"><path d="M25.33,3.25c-4.51,8.05-9.01,16.1-13.52,24.14-.39,.7,.69,1.33,1.08,.63L26.41,3.88c.39-.7-.69-1.33-1.08-.63Z" fill="#231f20"/><path d="M18.49,2.81c-1.19-.43-2.58-.02-3.37,.92-.12-.02-.25,0-.38,.08-1.39,.91-1.85,2.71-1.03,4.15,.88,1.54,2.71,2.09,4.39,1.82,.8-.13,1.63-.46,2.18-1.08,.55-.63,.77-1.49,.72-2.31-.09-1.53-1.02-3.03-2.51-3.57Zm1.17,4.77c-.26,.54-.78,.83-1.34,.99-1.15,.32-2.49,.14-3.32-.76-.68-.74-.73-1.85-.14-2.6,.29,.15,.71,.09,.85-.31,.29-.84,1.31-1.26,2.15-1.09,1.05,.21,1.74,1.21,1.95,2.2,.11,.51,.09,1.1-.14,1.58Z" fill="#231f20"/><path d="M25.49,20.71c-1.66-.86-3.73,.06-4.15,1.89-.03,.12-.01,.23,.02,.32-.57,1.19-.45,2.66,.38,3.72,.89,1.14,2.47,1.66,3.85,1.15,1.45-.54,2.36-1.92,2.27-3.47-.08-1.49-1.05-2.93-2.37-3.62Zm-.09,5.81c-.83,.42-1.83,.21-2.48-.43-.82-.81-.85-2.07-.21-3.01,.15-.22,.12-.43,.02-.59,.38-.71,1.21-1.09,2.02-.76,.92,.38,1.68,1.39,1.84,2.36,.17,1-.28,1.97-1.18,2.43Z" fill="#231f20"/></g></svg>