<?xml version="1.0" encoding="UTF-8"?><svg xmlns="http://www.w3.org/2000/svg" viewBox="0 0 35 35"><g id="Example_glyph"><g id="Line_3-2"><text transform="translate(7.77 27.99)" fill="#bcbcbc" font-family="ArialMT, Arial" font-size="35"><tspan x="0" y="0">_</tspan></text><text transform="translate(-35.26 27.99)" fill="#bcbcbc" font-family="ArialMT, Arial" font-size="35"><tspan x="0" y="0">@</tspan></text></g></g><g id="Artwork_glyph"><path d="M19.9,3.72c-2.03-1.23-4.66-.98-6.53,.53-1,.81-1.96,2.04-2.01,3.48-.05,1.4,.86,2.38,1.95,2.87,1.14,.51,2.65,.84,3.78,.16,1.11-.66,1.55-2.13,.88-3.36-.73-1.34-2.38-2.12-3.75-1.89-.01,0-.02,0-.03,0,.34-.28,.68-.49,.94-.61,1.42-.65,3.07-.57,4.37,.35,1.49,1.06,2.33,3,2.22,4.95-.06,1,1.34,.99,1.39,0,.15-2.61-1.16-5.25-3.23-6.5Zm-5.15,3.3c.74,.02,1.77,.5,2.09,1.31,.39,.98-.84,1.29-1.45,1.25-.64-.05-1.44-.25-2.02-.67,.05-.14,.08-.29,.04-.48-.18-.86,.66-1.42,1.33-1.4Z" fill="#231f20"/></g></svg>