<?xml version="1.0" encoding="UTF-8"?><svg xmlns="http://www.w3.org/2000/svg" viewBox="0 0 35 35"><g id="Example_glyph"><g id="Line_9-2"><text transform="translate(7.43 27.99)" fill="#bcbcbc" font-family="ArialMT, Arial" font-size="35"><tspan x="0" y="0">µ</tspan></text></g></g><g id="Artwork_glyph"><path d="M19.47,29.17c-.81,2.56-3.16,4.55-5.83,4.53-1.55,0-3.35-.95-3.47-2.73-.14-1.97,1.86-2.87,3.45-2.97,.75-.09,.79-1.28,0-1.23-.25,.02-.51,.05-.76,.09-2.05,.24-4.21,.42-6.15-.37-1.93-.79-3.53-2.61-3.19-4.86,.34-2.2,2.11-3.77,4.09-4.42,.89-.29,1.83-.42,2.76-.45,.86-.02,1.8,.15,2.61-.22,1.44-.64,1.28-2.33,.69-3.55-.67-1.37-1.91-2.56-3.36-2.99-1.4-.41-3.16-.05-3.98,1.28-.08,.13-.14,.27-.2,.4-.1,.05-.21,.1-.31,.15-.5,.29-.29,.95,.12,1.11,.07,.8,.5,1.55,1.3,1.9,1.29,.57,2.9-.55,2.62-2.05-.19-1.03-.9-1.45-1.71-1.53,.58-.24,1.28-.25,1.84-.09,.9,.26,1.68,.92,2.22,1.69,.61,.87,1.32,2.55-.42,2.65-1.68,.09-3.23,0-4.85,.6-1.34,.5-2.55,1.31-3.41,2.49-1.69,2.3-1.68,5.43,.39,7.48,1.68,1.67,3.86,2.14,6.08,2.15-.4,.41-.72,.91-.9,1.52-.57,1.95,.65,3.93,2.38,4.71,3.77,1.7,7.98-1.31,9.14-4.99,.24-.76-.92-1.08-1.16-.33ZM8.36,13.7c-.77,.54-1.24-.54-1.23-1.13,.07-.02,.13-.05,.2-.07,.84-.27,1.19,.14,1.03,1.2Z" fill="#231f20"/><path d="M31.51,14.9c1.24-1.09,1.28-3.2-.14-4.32-1.84-1.46-4.39-.62-5.55,1.22-.12-.25-.27-.5-.47-.71-2.36-2.55-5.83,1.41-7.02,3.31-.43,.69,.67,1.32,1.1,.63,.77-1.23,4.37-5.44,5.36-2.39,.73,2.26-.62,4.97-1.68,6.89-.79,1.43-1.63,2.87-2.65,4.16-1.94-.41-4.1-.16-4.99,1.85-.38,.86-.22,2.05,.8,2.38,1.16,.37,2.38-.68,3.19-1.36,.54-.46,1.04-.96,1.51-1.5,1.5,.54,2.93,1.53,4.42,1.93,2.09,.56,4.09,0,5.43-1.69,1.27-1.6,2-3.92,2.19-5.92,.15-1.61-.28-3.37-1.5-4.48Zm-4.95-1.71c.18-.63,.62-1.23,1.15-1.62,.92-.67,2.3-.71,3.1,.19,.68,.77,.43,1.97-.45,2.41-.77-.31-1.6-.36-2.42-.15-.27,.07-.63,.26-.9,.24-.62-.05-.59-.67-.47-1.08Zm-7.11,11.65c-.38,.39-.77,.76-1.2,1.09-.26,.2-.9,.78-1.28,.77-.94-.02-.08-1.11,.19-1.34,.42-.36,.97-.56,1.52-.63,.3-.03,.59-.03,.88,0-.04,.04-.07,.08-.1,.12Zm11.04-1.38c-.74,1.46-1.96,2.61-3.72,2.5-1.64-.1-3.07-1.05-4.52-1.7-.15-.07-.31-.13-.48-.19,.99-1.31,1.82-2.76,2.59-4.17,.78-1.45,1.48-2.98,1.74-4.61,1.12,.65,2.39-.41,3.59-.02,.12,.18,.33,.29,.59,.26,2.58,1.49,1.25,5.87,.21,7.94Z" fill="#231f20"/></g></svg>