<?xml version="1.0" encoding="UTF-8"?><svg xmlns="http://www.w3.org/2000/svg" viewBox="0 0 35 35"><g id="Example_glyph"><g id="Line_2-2"><text transform="translate(7.77 27.99)" fill="#bcbcbc" font-family="ArialMT, Arial" font-size="35"><tspan x="0" y="0">a</tspan></text></g></g><g id="Artwork_glyph"><path d="M18.53,7.02c-.63-.5-1.42-.74-2.22-.87,0-.09,0-.17,0-.26,0-.72,.2-1.79-.24-2.44-.89-1.31-3.42,.14-3.96,1.08-.32,.55-.34,1.29,.12,1.79,.56,.62,1.52,.65,2.33,.69,.21,.01,.43,.02,.65,.03,0,.26,0,.52,0,.78,.03,2.37,.06,4.73,.1,7.1,0,.65,1.13,.71,1.12,.06-.03-2.03-.05-4.07-.08-6.1,0-.57-.02-1.14-.02-1.72,.48,.09,.94,.23,1.35,.51,.62,.42,1.11,1.67,.06,1.95-.69,.18-.45,1.18,.25,.99,1.82-.49,1.86-2.57,.56-3.6Zm-5.5-1.83c.13-.46,.64-.72,1.08-.93,.22-.11,.49-.25,.74-.29,.33-.05,.29,.04,.31,.31,.05,.59,.06,1.18,.06,1.78-.93,0-2.43-.02-2.19-.87Z" fill="#231f20"/></g></svg>