<?xml version="1.0" encoding="UTF-8"?><svg xmlns="http://www.w3.org/2000/svg" viewBox="0 0 35 35"><g id="Example_glyph"><g id="Line_2-2"><text transform="translate(7.77 27.99)" fill="#bcbcbc" font-family="ArialMT, Arial" font-size="35"><tspan x="0" y="0">b</tspan></text></g></g><g id="Artwork_glyph"><path d="M26.31,14.57c-4.11-5.72-13.16-6.61-17.79-.98-2.19,2.67-2.71,6.46-.97,9.5,1.6,2.82,4.96,5.19,8.28,4.9,2.96-.25,5.81-2.98,4.74-6.15-.92-2.72-4.84-4.72-7.3-2.73-1.16,.94-1.62,2.63-.68,3.88,.84,1.12,2.49,1.43,3.51,.36,.94-.98,.71-2.67-.38-3.44-.23-.16-.47-.25-.72-.31,2.13-.53,4.73,1.58,4.55,3.78-.22,2.75-3.24,3.79-5.58,3.25-2.2-.51-4.27-2.2-5.38-4.16-2.61-4.61,.87-9.76,5.47-11.09,4.5-1.31,9.38,.63,11.78,4.68,1.24,2.1,1.83,4.75,1.17,7.14-.71,2.57-3.22,4.55-5.9,3.57-.75-.24-1.04,.91-.32,1.17,1.51,.48,3.02,1.85,2.96,3.58-.06,1.8-2.12,2.23-3.55,2.28-2.9,.1-5.72-1.34-7.38-3.74-.44-.64-1.49-.03-1.05,.61,2.25,3.26,6.63,5.24,10.52,4.01,1.74-.55,2.89-1.95,2.61-3.84-.16-1.07-.71-1.98-1.45-2.7,2-.38,3.74-1.95,4.5-3.94,1.21-3.19,.3-6.95-1.64-9.65Zm-11.29,8.08c-.64,.39-1.38-.06-1.63-.71-.04-.11-.07-.22-.08-.33,.02-.03,.05-.05,.07-.08,.91-1.77,3.08,.23,1.64,1.12Z" fill="#231f20"/></g></svg>