<?xml version="1.0" encoding="UTF-8"?><svg xmlns="http://www.w3.org/2000/svg" viewBox="0 0 35 35"><g id="Example_glyph"><g id="Line_2-2"><text transform="translate(8.75 27.99)" fill="#bcbcbc" font-family="ArialMT, Arial" font-size="35"><tspan x="0" y="0">c</tspan></text></g></g><g id="Artwork_glyph"><path d="M27.06,3.02c-1.91,1.04-3.72,2.23-5.42,3.6-1.45,1.17-3.29,2.57-4.32,4.19-.25,.25-.46,.53-.61,.84-.5-1.2-1.9-1.85-3.16-2-1.28-.15-2.88-.17-4.09,.44-.4,.06-.79,.22-1.13,.47-.29,.22-.31,.55-.19,.81-.01,.03-.03,.04-.05,.07-.67,1.42,.22,3.03,1.8,3.15,1.57,.12,2.65-1.42,2.25-2.9-.1-.36-.28-.66-.51-.9,.82-.06,1.73-.02,2.49,.19,1.03,.3,2.16,1.41,1.14,2.45-.59,.6-1.5,.69-2.3,.77-1.37,.15-2.67,.35-3.9,1.01-2.32,1.24-3.43,3.63-2.79,6.21,.64,2.58,2.72,4.63,5.11,5.66,4.86,2.08,12.92,.59,15.16-4.74,1.06-2.54,.28-5.51-1.87-7.21-.45-.36-.95-.65-1.48-.89,.03-.03,.07-.04,.11-.07,1.18-1.01,1.07-2.85,.01-3.9-.82-.82-1.93-1.05-3.02-.91,2.18-2.11,4.76-3.87,7.39-5.3,.69-.38,.08-1.44-.62-1.06ZM9.16,12.87c-.34-.7,.08-1.22,.67-1.57,.59-.04,1.15,.23,1.18,.99,.04,1.01-1.37,1.56-1.85,.58Zm16.65,6.9c.11,2.42-1.65,4.39-3.66,5.47-4,2.15-9.84,2.27-13.1-1.25-1.57-1.69-2.53-4.53-.89-6.5,1.37-1.66,3.42-1.85,5.39-2.11,1.22-.16,2.63-.73,3.14-1.87,.76,1.65,2.89,1.27,4.36,1.42,2.49,.27,4.63,2.27,4.75,4.84Zm-3.88-8.98c1.14,.57,1.44,2.22,.08,2.73-.65,.24-1.46,.09-2.12-.03-.41-.08-.93-.16-1.28-.4-.7-.47-.54-1.09-.19-1.64,.15-.12,.31-.22,.46-.31,.9-.54,2.08-.84,3.06-.35Z" fill="#231f20"/></g></svg>